%TF.GenerationSoftware,KiCad,Pcbnew,8.0.6-1.fc40*%
%TF.CreationDate,2024-12-16T09:47:33-08:00*%
%TF.ProjectId,energy_meter,656e6572-6779-45f6-9d65-7465722e6b69,0*%
%TF.SameCoordinates,Original*%
%TF.FileFunction,Copper,L2,Inr*%
%TF.FilePolarity,Positive*%
%FSLAX46Y46*%
G04 Gerber Fmt 4.6, Leading zero omitted, Abs format (unit mm)*
G04 Created by KiCad (PCBNEW 8.0.6-1.fc40) date 2024-12-16 09:47:33*
%MOMM*%
%LPD*%
G01*
G04 APERTURE LIST*
G04 Aperture macros list*
%AMRoundRect*
0 Rectangle with rounded corners*
0 $1 Rounding radius*
0 $2 $3 $4 $5 $6 $7 $8 $9 X,Y pos of 4 corners*
0 Add a 4 corners polygon primitive as box body*
4,1,4,$2,$3,$4,$5,$6,$7,$8,$9,$2,$3,0*
0 Add four circle primitives for the rounded corners*
1,1,$1+$1,$2,$3*
1,1,$1+$1,$4,$5*
1,1,$1+$1,$6,$7*
1,1,$1+$1,$8,$9*
0 Add four rect primitives between the rounded corners*
20,1,$1+$1,$2,$3,$4,$5,0*
20,1,$1+$1,$4,$5,$6,$7,0*
20,1,$1+$1,$6,$7,$8,$9,0*
20,1,$1+$1,$8,$9,$2,$3,0*%
G04 Aperture macros list end*
%TA.AperFunction,ComponentPad*%
%ADD10RoundRect,0.250000X0.250000X-0.250000X0.250000X0.250000X-0.250000X0.250000X-0.250000X-0.250000X0*%
%TD*%
%TA.AperFunction,ComponentPad*%
%ADD11C,1.000000*%
%TD*%
%TA.AperFunction,ComponentPad*%
%ADD12RoundRect,0.375000X-0.375000X0.375000X-0.375000X-0.375000X0.375000X-0.375000X0.375000X0.375000X0*%
%TD*%
%TA.AperFunction,ComponentPad*%
%ADD13C,1.500000*%
%TD*%
%TA.AperFunction,ComponentPad*%
%ADD14C,1.400000*%
%TD*%
%TA.AperFunction,ComponentPad*%
%ADD15RoundRect,0.450000X-0.450000X-0.550000X0.450000X-0.550000X0.450000X0.550000X-0.450000X0.550000X0*%
%TD*%
%TA.AperFunction,ComponentPad*%
%ADD16C,1.800000*%
%TD*%
%TA.AperFunction,ComponentPad*%
%ADD17C,2.500000*%
%TD*%
%TA.AperFunction,ViaPad*%
%ADD18C,0.700000*%
%TD*%
G04 APERTURE END LIST*
D10*
%TO.N,+3V*%
%TO.C,J401*%
X126500000Y-84980000D03*
D11*
%TO.N,Net-(J401-SWDIO)*%
X125230000Y-84980000D03*
%TO.N,GND*%
X126500000Y-83710000D03*
%TO.N,Net-(J401-SWCLK)*%
X125230000Y-83710000D03*
%TO.N,GND*%
X126500000Y-82440000D03*
%TO.N,unconnected-(J401-SWO-Pad6)*%
X125230000Y-82440000D03*
%TO.N,unconnected-(J401-NC-Pad7)*%
X126500000Y-81170000D03*
%TO.N,unconnected-(J401-NC-Pad8)*%
X125230000Y-81170000D03*
%TO.N,unconnected-(J401-NC-Pad9)*%
X126500000Y-79900000D03*
%TO.N,/HMI.Reset*%
X125230000Y-79900000D03*
%TD*%
D12*
%TO.N,/Power/12V\u002C50mA*%
%TO.C,C208*%
X160700000Y-79250000D03*
D13*
%TO.N,GND*%
X160700000Y-81750000D03*
%TD*%
D14*
%TO.N,Net-(C203-Pad1)*%
%TO.C,C203*%
X117950000Y-56300000D03*
%TO.N,Net-(D202-K)*%
X140450000Y-56300000D03*
%TD*%
D15*
%TO.N,+3V*%
%TO.C,J501*%
X132320000Y-89300000D03*
D16*
%TO.N,unconnected-(J501-3V3-Pad2)*%
X134860000Y-89300000D03*
%TO.N,GND*%
X137400000Y-89300000D03*
%TO.N,/SPI.SCK*%
X139940000Y-89300000D03*
%TO.N,/SPI.Miso*%
X142480000Y-89300000D03*
%TO.N,/SPI.Mosi*%
X145020000Y-89300000D03*
%TO.N,/HMI.ECS*%
X147560000Y-89300000D03*
%TO.N,/HMI.DC*%
X150100000Y-89300000D03*
%TO.N,/HMI.SRCS*%
X152640000Y-89300000D03*
%TO.N,unconnected-(J501-SDCS-Pad10)*%
X155180000Y-89300000D03*
%TO.N,/HMI.Reset*%
X157720000Y-89300000D03*
%TO.N,/HMI.Busy*%
X160260000Y-89300000D03*
%TO.N,unconnected-(J501-ENA-Pad13)*%
X162800000Y-89300000D03*
%TD*%
D12*
%TO.N,/Power/12V\u002C50mA*%
%TO.C,C207*%
X152300000Y-79550000D03*
D13*
%TO.N,GND*%
X152300000Y-82050000D03*
%TD*%
D17*
%TO.N,*%
%TO.C,T301*%
X140000000Y-108580000D03*
%TO.N,Net-(R301-Pad2)*%
X157780000Y-98420000D03*
%TO.N,Net-(R302-Pad2)*%
X122220000Y-98420000D03*
%TD*%
D13*
%TO.N,/Power/AC.Neutral*%
%TO.C,R306*%
X152100000Y-56950000D03*
%TO.N,/Microcontroller/Sense.Neutral*%
X152100000Y-69450000D03*
%TD*%
D16*
%TO.N,Net-(F201-Pad2)*%
%TO.C,R202*%
X135200000Y-46900000D03*
%TO.N,Net-(C203-Pad1)*%
X115200000Y-46900000D03*
%TD*%
D13*
%TO.N,/Power/AC.Line*%
%TO.C,R305*%
X147900000Y-50550000D03*
%TO.N,/Microcontroller/Sense.Line*%
X147900000Y-63050000D03*
%TD*%
D18*
%TO.N,GND*%
X127800000Y-89300000D03*
X155550000Y-101550000D03*
X100500000Y-74900000D03*
X146500000Y-63100000D03*
X122900000Y-95900000D03*
X118700000Y-78250000D03*
X134400000Y-96900000D03*
X147900000Y-66600000D03*
X149000000Y-67600000D03*
X127700000Y-85300000D03*
X133700000Y-101500000D03*
X112200000Y-80000000D03*
X143400000Y-82600000D03*
X115300000Y-93350000D03*
X103250000Y-76750000D03*
X141800000Y-69200000D03*
X115300000Y-91250000D03*
X151500000Y-65600000D03*
X119000000Y-83100000D03*
X110250000Y-96000000D03*
X120000000Y-72100000D03*
X127900000Y-99000000D03*
X125900000Y-88300000D03*
X123800000Y-97300000D03*
X129400000Y-78100000D03*
X129400000Y-74300000D03*
X129400000Y-70600000D03*
X116000000Y-69100000D03*
X135800000Y-83000000D03*
X134800000Y-98400000D03*
X129600000Y-101500000D03*
X105250000Y-76750000D03*
X150700000Y-69600000D03*
X153100000Y-71600000D03*
X116800000Y-78250000D03*
X106850000Y-99600000D03*
X114250000Y-92300000D03*
X114900000Y-86000000D03*
X138100000Y-95000000D03*
X110700000Y-71800000D03*
X163600000Y-65000000D03*
X124800000Y-89500000D03*
X116400000Y-80800000D03*
X134400000Y-79900000D03*
X129400000Y-86600000D03*
X125200000Y-95100000D03*
X134800000Y-69000000D03*
X117900000Y-83800000D03*
X152900000Y-65600000D03*
X119700000Y-82600000D03*
X149100000Y-69100000D03*
X114600000Y-74000000D03*
X128500000Y-96900000D03*
X163600000Y-63700000D03*
X120500000Y-100000000D03*
X117700000Y-86000000D03*
X139200000Y-69100000D03*
X149300000Y-63000000D03*
X109500000Y-76000000D03*
X160200000Y-99000000D03*
X145100000Y-97000000D03*
X151900000Y-67900000D03*
X128300000Y-95100000D03*
X139900000Y-101400000D03*
X113500000Y-82250000D03*
X127700000Y-76500000D03*
X132600000Y-69100000D03*
X139200000Y-67200000D03*
X122900000Y-76100000D03*
X152100000Y-72900000D03*
X115300000Y-92300000D03*
X155700000Y-67300000D03*
X113500000Y-86000000D03*
X151200000Y-71700000D03*
X153100000Y-68300000D03*
X112000000Y-81750000D03*
X113500000Y-74500000D03*
X141900000Y-67200000D03*
X131400000Y-96900000D03*
X117750000Y-79200000D03*
X114400000Y-69600000D03*
X136700000Y-95000000D03*
X142300000Y-82600000D03*
X104000000Y-79250000D03*
X151900000Y-98400000D03*
X118800000Y-81000000D03*
X120600000Y-97200000D03*
X145800000Y-66000000D03*
X105750000Y-79250000D03*
X120400000Y-83100000D03*
X148900000Y-64200000D03*
X127700000Y-72400000D03*
X144400000Y-67200000D03*
X124500000Y-98900000D03*
X112000000Y-76000000D03*
X107500000Y-79250000D03*
X145200000Y-101500000D03*
X157800000Y-96200000D03*
X107300000Y-89200000D03*
X107500000Y-76750000D03*
X118400000Y-72500000D03*
X150850000Y-101550000D03*
X156700000Y-67500000D03*
X102500000Y-79250000D03*
X114300000Y-98400000D03*
X141400000Y-95000000D03*
X114900000Y-95200000D03*
X132600000Y-67200000D03*
X159250000Y-101250000D03*
X164200000Y-64300000D03*
X106400000Y-74800000D03*
X131500000Y-99000000D03*
X122600000Y-94600000D03*
X121400000Y-85100000D03*
X120500000Y-90400000D03*
X109750000Y-92750000D03*
X116600000Y-84300000D03*
X115200000Y-83100000D03*
X135100000Y-79200000D03*
X117750000Y-78250000D03*
X147900000Y-98400000D03*
X122900000Y-77800000D03*
X101700000Y-99550000D03*
X125500000Y-91600000D03*
X146900000Y-69100000D03*
X111300000Y-86700000D03*
X109000000Y-80000000D03*
X102100000Y-89300000D03*
X127600000Y-69300000D03*
X109500000Y-81500000D03*
X144500000Y-69200000D03*
X129400000Y-67200000D03*
X142500000Y-96100000D03*
X116176805Y-89176805D03*
X124100000Y-95200000D03*
X100750000Y-79250000D03*
X157700000Y-67500000D03*
X129500000Y-82100000D03*
X103750000Y-82500000D03*
X104250000Y-76750000D03*
X122250000Y-101200000D03*
X146000000Y-64500000D03*
X102000000Y-74800000D03*
X125400000Y-97300000D03*
X134800000Y-67200000D03*
X120100000Y-98300000D03*
X108250000Y-76250000D03*
X141500000Y-82100000D03*
X117750000Y-77300000D03*
X130400000Y-69000000D03*
X119300000Y-96100000D03*
X137100000Y-69100000D03*
X116300000Y-86000000D03*
X122300000Y-85100000D03*
X127700000Y-80800000D03*
X155500000Y-98200000D03*
X152200000Y-66300000D03*
X137100000Y-67200000D03*
X117200000Y-73200000D03*
X146200000Y-67700000D03*
X112000000Y-84900000D03*
X115700000Y-98400000D03*
X131200000Y-95100000D03*
X138500000Y-78650000D03*
X112750000Y-76000000D03*
X109000000Y-95700000D03*
X125650000Y-101550000D03*
X134200000Y-95100000D03*
X116350000Y-92300000D03*
X135100000Y-80600000D03*
X110700000Y-81900000D03*
%TO.N,+3V*%
X121200000Y-77200000D03*
X131400000Y-74050000D03*
X131400000Y-71450000D03*
X114000000Y-84100000D03*
X130500000Y-70250000D03*
X119400000Y-86700000D03*
X130500000Y-84150000D03*
X130500000Y-72750000D03*
X120100000Y-86300000D03*
X145350000Y-98400000D03*
X115200000Y-80000000D03*
X110000000Y-97300000D03*
X131400000Y-85650000D03*
X130450000Y-81050000D03*
X131350000Y-76800000D03*
X111150000Y-87950000D03*
X131350000Y-82600000D03*
X131350000Y-79500000D03*
X130450000Y-78050000D03*
X115300000Y-75650000D03*
X117204134Y-74800000D03*
X114050000Y-80800000D03*
X106386701Y-84266931D03*
X130500000Y-75400000D03*
X118900000Y-82250000D03*
X121250000Y-75300000D03*
%TO.N,+1.8V*%
X122900000Y-88800000D03*
X122500000Y-93300000D03*
X121800000Y-91000000D03*
X122600000Y-89700000D03*
X117400000Y-97350000D03*
X122500000Y-87800000D03*
X116777847Y-88575763D03*
X121400000Y-87800000D03*
X122800000Y-91500000D03*
X113600000Y-96700000D03*
%TO.N,Net-(J401-SWCLK)*%
X118180425Y-93913170D03*
%TO.N,Net-(J401-SWDIO)*%
X119450000Y-94550000D03*
%TO.N,/HMI.Busy*%
X116800000Y-96100000D03*
%TO.N,/HMI.ECS*%
X119450000Y-93100000D03*
%TO.N,/HMI.SRCS*%
X118000000Y-99300000D03*
%TO.N,/SPI.Mosi*%
X111500000Y-92250000D03*
X119800000Y-80700000D03*
%TO.N,/HMI.DC*%
X118500000Y-95600000D03*
%TO.N,/SPI.Miso*%
X110800000Y-91200000D03*
X122300000Y-80100000D03*
%TO.N,/SPI.SCK*%
X111650000Y-90150000D03*
X121400000Y-81200000D03*
%TO.N,/HMI.LED*%
X109000000Y-84500000D03*
X111651805Y-93600000D03*
%TO.N,/Radio.GDO2*%
X109550000Y-91550000D03*
X121400000Y-79000000D03*
%TO.N,/Radio.CS*%
X119550000Y-74500000D03*
X119100000Y-92300000D03*
%TO.N,/Radio.GDO0*%
X112900000Y-89900000D03*
X119700000Y-75900000D03*
%TD*%
%TA.AperFunction,Conductor*%
%TO.N,GND*%
G36*
X165277826Y-61821674D02*
G01*
X165299500Y-61874000D01*
X165299500Y-105676000D01*
X165277826Y-105728326D01*
X165225500Y-105750000D01*
X108278102Y-105750000D01*
X108233417Y-105734985D01*
X100267808Y-99700433D01*
X100260167Y-99693774D01*
X100245914Y-99679521D01*
X100245913Y-99679520D01*
X100225900Y-99667965D01*
X100218224Y-99662870D01*
X100199818Y-99648925D01*
X100192138Y-99645799D01*
X100181140Y-99641323D01*
X100172043Y-99636871D01*
X100154587Y-99626792D01*
X100132277Y-99620814D01*
X100123539Y-99617878D01*
X100102146Y-99609172D01*
X100102148Y-99609172D01*
X100102144Y-99609171D01*
X100102142Y-99609170D01*
X100102137Y-99609169D01*
X100082133Y-99606660D01*
X100072195Y-99604715D01*
X100054850Y-99600068D01*
X100009915Y-99565591D01*
X100000000Y-99528589D01*
X100000000Y-99300000D01*
X117444750Y-99300000D01*
X117463669Y-99443708D01*
X117498828Y-99528589D01*
X117519139Y-99577625D01*
X117607379Y-99692621D01*
X117722375Y-99780861D01*
X117856291Y-99836330D01*
X118000000Y-99855250D01*
X118143709Y-99836330D01*
X118277625Y-99780861D01*
X118392621Y-99692621D01*
X118480861Y-99577625D01*
X118536330Y-99443709D01*
X118555250Y-99300000D01*
X118536330Y-99156291D01*
X118480861Y-99022375D01*
X118392621Y-98907379D01*
X118277625Y-98819139D01*
X118277623Y-98819138D01*
X118143708Y-98763669D01*
X118000000Y-98744750D01*
X117856291Y-98763669D01*
X117722376Y-98819138D01*
X117607379Y-98907379D01*
X117519138Y-99022376D01*
X117463669Y-99156291D01*
X117444750Y-99300000D01*
X100000000Y-99300000D01*
X100000000Y-98419996D01*
X120764529Y-98419996D01*
X120764529Y-98420003D01*
X120784378Y-98659556D01*
X120784378Y-98659557D01*
X120805952Y-98744750D01*
X120824789Y-98819138D01*
X120843392Y-98892597D01*
X120900319Y-99022376D01*
X120939951Y-99112728D01*
X121071429Y-99313969D01*
X121234236Y-99490825D01*
X121423933Y-99638472D01*
X121635344Y-99752882D01*
X121862703Y-99830934D01*
X122099808Y-99870500D01*
X122340192Y-99870500D01*
X122577297Y-99830934D01*
X122804656Y-99752882D01*
X123016067Y-99638472D01*
X123205764Y-99490825D01*
X123368571Y-99313969D01*
X123500049Y-99112728D01*
X123596610Y-98892591D01*
X123655620Y-98659563D01*
X123655620Y-98659559D01*
X123655621Y-98659557D01*
X123655621Y-98659556D01*
X123675471Y-98420003D01*
X123675471Y-98419996D01*
X123673814Y-98400000D01*
X144794750Y-98400000D01*
X144813669Y-98543708D01*
X144869138Y-98677623D01*
X144869139Y-98677625D01*
X144957379Y-98792621D01*
X145072375Y-98880861D01*
X145206291Y-98936330D01*
X145350000Y-98955250D01*
X145493709Y-98936330D01*
X145627625Y-98880861D01*
X145742621Y-98792621D01*
X145830861Y-98677625D01*
X145886330Y-98543709D01*
X145902617Y-98419996D01*
X156324529Y-98419996D01*
X156324529Y-98420003D01*
X156344378Y-98659556D01*
X156344378Y-98659557D01*
X156365952Y-98744750D01*
X156384789Y-98819138D01*
X156403392Y-98892597D01*
X156460319Y-99022376D01*
X156499951Y-99112728D01*
X156631429Y-99313969D01*
X156794236Y-99490825D01*
X156983933Y-99638472D01*
X157195344Y-99752882D01*
X157422703Y-99830934D01*
X157659808Y-99870500D01*
X157900192Y-99870500D01*
X158137297Y-99830934D01*
X158364656Y-99752882D01*
X158576067Y-99638472D01*
X158765764Y-99490825D01*
X158928571Y-99313969D01*
X159060049Y-99112728D01*
X159156610Y-98892591D01*
X159215620Y-98659563D01*
X159215620Y-98659559D01*
X159215621Y-98659557D01*
X159215621Y-98659556D01*
X159235471Y-98420003D01*
X159235471Y-98419996D01*
X159215621Y-98180443D01*
X159215621Y-98180442D01*
X159200917Y-98122376D01*
X159156610Y-97947409D01*
X159060049Y-97727272D01*
X158928571Y-97526031D01*
X158779814Y-97364437D01*
X158765765Y-97349176D01*
X158576071Y-97201531D01*
X158576070Y-97201530D01*
X158576067Y-97201528D01*
X158374825Y-97092621D01*
X158364655Y-97087117D01*
X158137295Y-97009065D01*
X157900194Y-96969500D01*
X157900192Y-96969500D01*
X157659808Y-96969500D01*
X157659805Y-96969500D01*
X157422704Y-97009065D01*
X157195344Y-97087117D01*
X156983940Y-97201524D01*
X156983928Y-97201531D01*
X156794234Y-97349176D01*
X156631427Y-97526033D01*
X156499951Y-97727271D01*
X156403392Y-97947402D01*
X156344378Y-98180442D01*
X156344378Y-98180443D01*
X156324529Y-98419996D01*
X145902617Y-98419996D01*
X145905250Y-98400000D01*
X145886330Y-98256291D01*
X145830861Y-98122375D01*
X145742621Y-98007379D01*
X145627625Y-97919139D01*
X145627623Y-97919138D01*
X145493708Y-97863669D01*
X145350000Y-97844750D01*
X145206291Y-97863669D01*
X145072376Y-97919138D01*
X144957379Y-98007379D01*
X144869138Y-98122376D01*
X144813669Y-98256291D01*
X144794750Y-98400000D01*
X123673814Y-98400000D01*
X123655621Y-98180443D01*
X123655621Y-98180442D01*
X123640917Y-98122376D01*
X123596610Y-97947409D01*
X123500049Y-97727272D01*
X123368571Y-97526031D01*
X123219814Y-97364437D01*
X123205765Y-97349176D01*
X123016071Y-97201531D01*
X123016070Y-97201530D01*
X123016067Y-97201528D01*
X122814825Y-97092621D01*
X122804655Y-97087117D01*
X122577295Y-97009065D01*
X122340194Y-96969500D01*
X122340192Y-96969500D01*
X122099808Y-96969500D01*
X122099805Y-96969500D01*
X121862704Y-97009065D01*
X121635344Y-97087117D01*
X121423940Y-97201524D01*
X121423928Y-97201531D01*
X121234234Y-97349176D01*
X121071427Y-97526033D01*
X120939951Y-97727271D01*
X120843392Y-97947402D01*
X120784378Y-98180442D01*
X120784378Y-98180443D01*
X120764529Y-98419996D01*
X100000000Y-98419996D01*
X100000000Y-97300000D01*
X109444750Y-97300000D01*
X109463669Y-97443708D01*
X109484380Y-97493708D01*
X109519139Y-97577625D01*
X109607379Y-97692621D01*
X109722375Y-97780861D01*
X109856291Y-97836330D01*
X110000000Y-97855250D01*
X110143709Y-97836330D01*
X110277625Y-97780861D01*
X110392621Y-97692621D01*
X110480861Y-97577625D01*
X110536330Y-97443709D01*
X110548667Y-97350000D01*
X116844750Y-97350000D01*
X116863669Y-97493708D01*
X116919138Y-97627623D01*
X116919139Y-97627625D01*
X117007379Y-97742621D01*
X117122375Y-97830861D01*
X117256291Y-97886330D01*
X117400000Y-97905250D01*
X117543709Y-97886330D01*
X117677625Y-97830861D01*
X117792621Y-97742621D01*
X117880861Y-97627625D01*
X117936330Y-97493709D01*
X117955250Y-97350000D01*
X117936330Y-97206291D01*
X117880861Y-97072375D01*
X117792621Y-96957379D01*
X117677625Y-96869139D01*
X117677623Y-96869138D01*
X117543708Y-96813669D01*
X117400000Y-96794750D01*
X117256291Y-96813669D01*
X117122376Y-96869138D01*
X117007379Y-96957379D01*
X116919138Y-97072376D01*
X116863669Y-97206291D01*
X116844750Y-97350000D01*
X110548667Y-97350000D01*
X110555250Y-97300000D01*
X110536330Y-97156291D01*
X110480861Y-97022375D01*
X110392621Y-96907379D01*
X110277625Y-96819139D01*
X110277623Y-96819138D01*
X110143708Y-96763669D01*
X110000000Y-96744750D01*
X109856291Y-96763669D01*
X109722376Y-96819138D01*
X109607379Y-96907379D01*
X109519138Y-97022376D01*
X109463669Y-97156291D01*
X109444750Y-97300000D01*
X100000000Y-97300000D01*
X100000000Y-96700000D01*
X113044750Y-96700000D01*
X113063669Y-96843708D01*
X113119138Y-96977623D01*
X113119139Y-96977625D01*
X113207379Y-97092621D01*
X113322375Y-97180861D01*
X113456291Y-97236330D01*
X113600000Y-97255250D01*
X113743709Y-97236330D01*
X113877625Y-97180861D01*
X113992621Y-97092621D01*
X114080861Y-96977625D01*
X114136330Y-96843709D01*
X114155250Y-96700000D01*
X114136330Y-96556291D01*
X114080861Y-96422375D01*
X113992621Y-96307379D01*
X113877625Y-96219139D01*
X113877623Y-96219138D01*
X113743708Y-96163669D01*
X113600000Y-96144750D01*
X113456291Y-96163669D01*
X113322376Y-96219138D01*
X113207379Y-96307379D01*
X113119138Y-96422376D01*
X113063669Y-96556291D01*
X113044750Y-96700000D01*
X100000000Y-96700000D01*
X100000000Y-96100000D01*
X116244750Y-96100000D01*
X116263669Y-96243708D01*
X116319138Y-96377623D01*
X116319139Y-96377625D01*
X116407379Y-96492621D01*
X116522375Y-96580861D01*
X116656291Y-96636330D01*
X116800000Y-96655250D01*
X116943709Y-96636330D01*
X117077625Y-96580861D01*
X117192621Y-96492621D01*
X117280861Y-96377625D01*
X117336330Y-96243709D01*
X117355250Y-96100000D01*
X117336330Y-95956291D01*
X117280861Y-95822375D01*
X117192621Y-95707379D01*
X117077625Y-95619139D01*
X117031419Y-95600000D01*
X117944750Y-95600000D01*
X117963669Y-95743708D01*
X117996254Y-95822375D01*
X118019139Y-95877625D01*
X118107379Y-95992621D01*
X118222375Y-96080861D01*
X118356291Y-96136330D01*
X118500000Y-96155250D01*
X118643709Y-96136330D01*
X118777625Y-96080861D01*
X118892621Y-95992621D01*
X118980861Y-95877625D01*
X119036330Y-95743709D01*
X119055250Y-95600000D01*
X119036330Y-95456291D01*
X118980861Y-95322375D01*
X118892621Y-95207379D01*
X118777625Y-95119139D01*
X118777623Y-95119138D01*
X118643708Y-95063669D01*
X118500000Y-95044750D01*
X118356291Y-95063669D01*
X118222376Y-95119138D01*
X118107379Y-95207379D01*
X118019138Y-95322376D01*
X117963669Y-95456291D01*
X117944750Y-95600000D01*
X117031419Y-95600000D01*
X116943708Y-95563669D01*
X116800000Y-95544750D01*
X116656291Y-95563669D01*
X116522376Y-95619138D01*
X116407379Y-95707379D01*
X116319138Y-95822376D01*
X116263669Y-95956291D01*
X116244750Y-96100000D01*
X100000000Y-96100000D01*
X100000000Y-94550000D01*
X118894750Y-94550000D01*
X118913669Y-94693708D01*
X118969138Y-94827623D01*
X118969139Y-94827625D01*
X119057379Y-94942621D01*
X119172375Y-95030861D01*
X119306291Y-95086330D01*
X119450000Y-95105250D01*
X119593709Y-95086330D01*
X119727625Y-95030861D01*
X119842621Y-94942621D01*
X119930861Y-94827625D01*
X119986330Y-94693709D01*
X120005250Y-94550000D01*
X119986330Y-94406291D01*
X119930861Y-94272375D01*
X119842621Y-94157379D01*
X119727625Y-94069139D01*
X119727623Y-94069138D01*
X119593708Y-94013669D01*
X119450000Y-93994750D01*
X119306291Y-94013669D01*
X119172376Y-94069138D01*
X119057379Y-94157379D01*
X118969138Y-94272376D01*
X118913669Y-94406291D01*
X118894750Y-94550000D01*
X100000000Y-94550000D01*
X100000000Y-93600000D01*
X111096555Y-93600000D01*
X111115474Y-93743708D01*
X111161676Y-93855250D01*
X111170944Y-93877625D01*
X111259184Y-93992621D01*
X111374180Y-94080861D01*
X111508096Y-94136330D01*
X111651805Y-94155250D01*
X111795514Y-94136330D01*
X111929430Y-94080861D01*
X112044426Y-93992621D01*
X112105391Y-93913170D01*
X117625175Y-93913170D01*
X117644094Y-94056878D01*
X117684841Y-94155250D01*
X117699564Y-94190795D01*
X117787804Y-94305791D01*
X117902800Y-94394031D01*
X118036716Y-94449500D01*
X118180425Y-94468420D01*
X118324134Y-94449500D01*
X118458050Y-94394031D01*
X118573046Y-94305791D01*
X118661286Y-94190795D01*
X118716755Y-94056879D01*
X118735675Y-93913170D01*
X118716755Y-93769461D01*
X118661286Y-93635545D01*
X118573046Y-93520549D01*
X118458050Y-93432309D01*
X118458048Y-93432308D01*
X118324133Y-93376839D01*
X118180425Y-93357920D01*
X118036716Y-93376839D01*
X117902801Y-93432308D01*
X117787804Y-93520549D01*
X117699563Y-93635546D01*
X117644094Y-93769461D01*
X117625175Y-93913170D01*
X112105391Y-93913170D01*
X112132666Y-93877625D01*
X112188135Y-93743709D01*
X112207055Y-93600000D01*
X112188135Y-93456291D01*
X112132666Y-93322375D01*
X112044426Y-93207379D01*
X111929430Y-93119139D01*
X111883224Y-93100000D01*
X111795513Y-93063669D01*
X111651805Y-93044750D01*
X111508096Y-93063669D01*
X111374181Y-93119138D01*
X111259184Y-93207379D01*
X111170943Y-93322376D01*
X111115474Y-93456291D01*
X111096555Y-93600000D01*
X100000000Y-93600000D01*
X100000000Y-92250000D01*
X110944750Y-92250000D01*
X110963669Y-92393708D01*
X111019138Y-92527623D01*
X111019139Y-92527625D01*
X111107379Y-92642621D01*
X111222375Y-92730861D01*
X111356291Y-92786330D01*
X111500000Y-92805250D01*
X111643709Y-92786330D01*
X111777625Y-92730861D01*
X111892621Y-92642621D01*
X111980861Y-92527625D01*
X112036330Y-92393709D01*
X112048667Y-92300000D01*
X118544750Y-92300000D01*
X118563669Y-92443708D01*
X118607464Y-92549439D01*
X118619139Y-92577625D01*
X118707379Y-92692621D01*
X118822375Y-92780861D01*
X118893956Y-92810510D01*
X118934005Y-92850558D01*
X118934006Y-92907194D01*
X118913669Y-92956293D01*
X118894750Y-93100000D01*
X118913669Y-93243708D01*
X118936986Y-93300000D01*
X118969139Y-93377625D01*
X119057379Y-93492621D01*
X119172375Y-93580861D01*
X119306291Y-93636330D01*
X119450000Y-93655250D01*
X119593709Y-93636330D01*
X119727625Y-93580861D01*
X119842621Y-93492621D01*
X119930861Y-93377625D01*
X119963014Y-93300000D01*
X121944750Y-93300000D01*
X121963669Y-93443708D01*
X122019138Y-93577623D01*
X122019139Y-93577625D01*
X122107379Y-93692621D01*
X122222375Y-93780861D01*
X122356291Y-93836330D01*
X122500000Y-93855250D01*
X122643709Y-93836330D01*
X122777625Y-93780861D01*
X122892621Y-93692621D01*
X122980861Y-93577625D01*
X123036330Y-93443709D01*
X123055250Y-93300000D01*
X123036330Y-93156291D01*
X122980861Y-93022375D01*
X122892621Y-92907379D01*
X122777625Y-92819139D01*
X122777623Y-92819138D01*
X122643708Y-92763669D01*
X122500000Y-92744750D01*
X122356291Y-92763669D01*
X122222376Y-92819138D01*
X122107379Y-92907379D01*
X122019138Y-93022376D01*
X121963669Y-93156291D01*
X121944750Y-93300000D01*
X119963014Y-93300000D01*
X119986330Y-93243709D01*
X120005250Y-93100000D01*
X119986330Y-92956291D01*
X119930861Y-92822375D01*
X119842621Y-92707379D01*
X119727625Y-92619139D01*
X119703016Y-92608946D01*
X119656042Y-92589488D01*
X119615994Y-92549439D01*
X119615994Y-92492804D01*
X119636330Y-92443709D01*
X119655250Y-92300000D01*
X119636330Y-92156291D01*
X119580861Y-92022375D01*
X119492621Y-91907379D01*
X119377625Y-91819139D01*
X119377623Y-91819138D01*
X119243708Y-91763669D01*
X119100000Y-91744750D01*
X118956291Y-91763669D01*
X118822376Y-91819138D01*
X118707379Y-91907379D01*
X118619138Y-92022376D01*
X118563669Y-92156291D01*
X118544750Y-92300000D01*
X112048667Y-92300000D01*
X112055250Y-92250000D01*
X112036330Y-92106291D01*
X111980861Y-91972375D01*
X111892621Y-91857379D01*
X111777625Y-91769139D01*
X111777623Y-91769138D01*
X111643708Y-91713669D01*
X111500000Y-91694750D01*
X111356291Y-91713669D01*
X111222376Y-91769138D01*
X111107379Y-91857379D01*
X111019138Y-91972376D01*
X110963669Y-92106291D01*
X110944750Y-92250000D01*
X100000000Y-92250000D01*
X100000000Y-91550000D01*
X108994750Y-91550000D01*
X109013669Y-91693708D01*
X109065624Y-91819139D01*
X109069139Y-91827625D01*
X109157379Y-91942621D01*
X109272375Y-92030861D01*
X109406291Y-92086330D01*
X109550000Y-92105250D01*
X109693709Y-92086330D01*
X109827625Y-92030861D01*
X109942621Y-91942621D01*
X110030861Y-91827625D01*
X110086330Y-91693709D01*
X110105250Y-91550000D01*
X110086330Y-91406291D01*
X110030861Y-91272375D01*
X109975325Y-91200000D01*
X110244750Y-91200000D01*
X110263669Y-91343708D01*
X110319138Y-91477623D01*
X110319139Y-91477625D01*
X110407379Y-91592621D01*
X110522375Y-91680861D01*
X110656291Y-91736330D01*
X110800000Y-91755250D01*
X110943709Y-91736330D01*
X111077625Y-91680861D01*
X111192621Y-91592621D01*
X111280861Y-91477625D01*
X111336330Y-91343709D01*
X111355250Y-91200000D01*
X111336330Y-91056291D01*
X111313014Y-91000000D01*
X121244750Y-91000000D01*
X121263669Y-91143708D01*
X121269332Y-91157379D01*
X121319139Y-91277625D01*
X121407379Y-91392621D01*
X121522375Y-91480861D01*
X121656291Y-91536330D01*
X121800000Y-91555250D01*
X121943709Y-91536330D01*
X122077625Y-91480861D01*
X122125702Y-91443969D01*
X122180408Y-91429311D01*
X122229458Y-91457629D01*
X122242290Y-91495431D01*
X122244117Y-91495191D01*
X122263669Y-91643708D01*
X122315624Y-91769139D01*
X122319139Y-91777625D01*
X122407379Y-91892621D01*
X122522375Y-91980861D01*
X122656291Y-92036330D01*
X122800000Y-92055250D01*
X122943709Y-92036330D01*
X123077625Y-91980861D01*
X123192621Y-91892621D01*
X123280861Y-91777625D01*
X123336330Y-91643709D01*
X123355250Y-91500000D01*
X123336330Y-91356291D01*
X123280861Y-91222375D01*
X123192621Y-91107379D01*
X123077625Y-91019139D01*
X123077623Y-91019138D01*
X122943708Y-90963669D01*
X122800000Y-90944750D01*
X122656291Y-90963669D01*
X122522376Y-91019138D01*
X122522372Y-91019140D01*
X122474298Y-91056029D01*
X122419591Y-91070688D01*
X122370542Y-91042369D01*
X122357710Y-91004568D01*
X122355883Y-91004809D01*
X122336330Y-90856291D01*
X122280861Y-90722376D01*
X122280861Y-90722375D01*
X122192621Y-90607379D01*
X122077625Y-90519139D01*
X122077623Y-90519138D01*
X121943708Y-90463669D01*
X121800000Y-90444750D01*
X121656291Y-90463669D01*
X121522376Y-90519138D01*
X121407379Y-90607379D01*
X121319138Y-90722376D01*
X121263669Y-90856291D01*
X121244750Y-91000000D01*
X111313014Y-91000000D01*
X111280861Y-90922375D01*
X111192621Y-90807379D01*
X111077625Y-90719139D01*
X111077623Y-90719138D01*
X110943708Y-90663669D01*
X110800000Y-90644750D01*
X110656291Y-90663669D01*
X110522376Y-90719138D01*
X110407379Y-90807379D01*
X110319138Y-90922376D01*
X110263669Y-91056291D01*
X110244750Y-91200000D01*
X109975325Y-91200000D01*
X109942621Y-91157379D01*
X109827625Y-91069139D01*
X109796607Y-91056291D01*
X109693708Y-91013669D01*
X109550000Y-90994750D01*
X109406291Y-91013669D01*
X109272376Y-91069138D01*
X109157379Y-91157379D01*
X109069138Y-91272376D01*
X109013669Y-91406291D01*
X108994750Y-91550000D01*
X100000000Y-91550000D01*
X100000000Y-90150000D01*
X111094750Y-90150000D01*
X111113669Y-90293708D01*
X111169138Y-90427623D01*
X111169139Y-90427625D01*
X111257379Y-90542621D01*
X111372375Y-90630861D01*
X111506291Y-90686330D01*
X111650000Y-90705250D01*
X111793709Y-90686330D01*
X111927625Y-90630861D01*
X112042621Y-90542621D01*
X112130861Y-90427625D01*
X112186330Y-90293709D01*
X112205250Y-90150000D01*
X112186330Y-90006291D01*
X112142303Y-89900000D01*
X112344750Y-89900000D01*
X112363669Y-90043708D01*
X112419138Y-90177623D01*
X112419139Y-90177625D01*
X112507379Y-90292621D01*
X112622375Y-90380861D01*
X112756291Y-90436330D01*
X112900000Y-90455250D01*
X113043709Y-90436330D01*
X113177625Y-90380861D01*
X113292621Y-90292621D01*
X113380861Y-90177625D01*
X113436330Y-90043709D01*
X113455250Y-89900000D01*
X113436330Y-89756291D01*
X113380861Y-89622375D01*
X113292621Y-89507379D01*
X113177625Y-89419139D01*
X113175293Y-89418173D01*
X113043708Y-89363669D01*
X112900000Y-89344750D01*
X112756291Y-89363669D01*
X112622376Y-89419138D01*
X112507379Y-89507379D01*
X112419138Y-89622376D01*
X112363669Y-89756291D01*
X112344750Y-89900000D01*
X112142303Y-89900000D01*
X112130861Y-89872375D01*
X112042621Y-89757379D01*
X111927625Y-89669139D01*
X111927623Y-89669138D01*
X111793708Y-89613669D01*
X111650000Y-89594750D01*
X111506291Y-89613669D01*
X111372376Y-89669138D01*
X111257379Y-89757379D01*
X111169138Y-89872376D01*
X111113669Y-90006291D01*
X111094750Y-90150000D01*
X100000000Y-90150000D01*
X100000000Y-88575763D01*
X116222597Y-88575763D01*
X116241516Y-88719471D01*
X116274872Y-88800000D01*
X116296986Y-88853388D01*
X116385226Y-88968384D01*
X116500222Y-89056624D01*
X116634138Y-89112093D01*
X116777847Y-89131013D01*
X116921556Y-89112093D01*
X117055472Y-89056624D01*
X117170468Y-88968384D01*
X117258708Y-88853388D01*
X117314177Y-88719472D01*
X117333097Y-88575763D01*
X117314177Y-88432054D01*
X117258708Y-88298138D01*
X117170468Y-88183142D01*
X117055472Y-88094902D01*
X117052592Y-88093709D01*
X116921555Y-88039432D01*
X116777847Y-88020513D01*
X116634138Y-88039432D01*
X116500223Y-88094901D01*
X116385226Y-88183142D01*
X116296985Y-88298139D01*
X116241516Y-88432054D01*
X116222597Y-88575763D01*
X100000000Y-88575763D01*
X100000000Y-87950000D01*
X110594750Y-87950000D01*
X110613669Y-88093708D01*
X110654640Y-88192621D01*
X110669139Y-88227625D01*
X110757379Y-88342621D01*
X110872375Y-88430861D01*
X111006291Y-88486330D01*
X111150000Y-88505250D01*
X111293709Y-88486330D01*
X111427625Y-88430861D01*
X111542621Y-88342621D01*
X111630861Y-88227625D01*
X111686330Y-88093709D01*
X111705250Y-87950000D01*
X111686330Y-87806291D01*
X111683724Y-87800000D01*
X120844750Y-87800000D01*
X120863669Y-87943708D01*
X120917400Y-88073426D01*
X120919139Y-88077625D01*
X121007379Y-88192621D01*
X121122375Y-88280861D01*
X121256291Y-88336330D01*
X121400000Y-88355250D01*
X121543709Y-88336330D01*
X121677625Y-88280861D01*
X121792621Y-88192621D01*
X121880861Y-88077625D01*
X121881633Y-88075760D01*
X121882352Y-88075041D01*
X121883285Y-88073426D01*
X121883717Y-88073675D01*
X121921680Y-88035713D01*
X121978317Y-88035711D01*
X122016282Y-88073675D01*
X122016715Y-88073426D01*
X122017646Y-88075039D01*
X122018366Y-88075759D01*
X122019139Y-88077625D01*
X122107379Y-88192621D01*
X122222375Y-88280861D01*
X122356291Y-88336330D01*
X122415956Y-88344185D01*
X122465005Y-88372504D01*
X122479664Y-88427211D01*
X122465005Y-88462600D01*
X122419140Y-88522372D01*
X122419138Y-88522376D01*
X122363669Y-88656291D01*
X122344750Y-88800000D01*
X122363669Y-88943708D01*
X122419138Y-89077623D01*
X122419141Y-89077629D01*
X122419495Y-89078090D01*
X122419570Y-89078372D01*
X122421565Y-89081827D01*
X122420639Y-89082361D01*
X122434149Y-89132799D01*
X122405826Y-89181845D01*
X122389102Y-89191500D01*
X122322375Y-89219139D01*
X122207379Y-89307379D01*
X122119138Y-89422376D01*
X122063669Y-89556291D01*
X122044750Y-89700000D01*
X122063669Y-89843708D01*
X122108761Y-89952571D01*
X122119139Y-89977625D01*
X122207379Y-90092621D01*
X122322375Y-90180861D01*
X122456291Y-90236330D01*
X122600000Y-90255250D01*
X122743709Y-90236330D01*
X122877625Y-90180861D01*
X122992621Y-90092621D01*
X123080861Y-89977625D01*
X123136330Y-89843709D01*
X123155250Y-89700000D01*
X123136330Y-89556291D01*
X123080861Y-89422375D01*
X123080505Y-89421911D01*
X123080428Y-89421626D01*
X123078435Y-89418173D01*
X123079360Y-89417638D01*
X123065850Y-89367203D01*
X123094171Y-89318155D01*
X123110890Y-89308502D01*
X123177625Y-89280861D01*
X123292621Y-89192621D01*
X123380861Y-89077625D01*
X123436330Y-88943709D01*
X123455250Y-88800000D01*
X123440018Y-88684306D01*
X131219500Y-88684306D01*
X131219500Y-89915693D01*
X131222402Y-89952571D01*
X131268256Y-90110399D01*
X131310589Y-90181980D01*
X131351919Y-90251865D01*
X131468135Y-90368081D01*
X131609602Y-90451744D01*
X131767431Y-90497598D01*
X131804306Y-90500500D01*
X131804307Y-90500500D01*
X132835693Y-90500500D01*
X132835694Y-90500500D01*
X132872569Y-90497598D01*
X133030398Y-90451744D01*
X133171865Y-90368081D01*
X133288081Y-90251865D01*
X133371744Y-90110398D01*
X133417598Y-89952569D01*
X133420500Y-89915694D01*
X133420500Y-89299996D01*
X133754785Y-89299996D01*
X133754785Y-89300003D01*
X133773601Y-89503076D01*
X133773602Y-89503082D01*
X133829416Y-89699244D01*
X133829418Y-89699250D01*
X133920327Y-89881821D01*
X133920328Y-89881822D01*
X133920329Y-89881825D01*
X134043234Y-90044578D01*
X134043235Y-90044579D01*
X134115436Y-90110398D01*
X134193959Y-90181981D01*
X134367363Y-90289348D01*
X134557544Y-90363024D01*
X134758024Y-90400500D01*
X134758026Y-90400500D01*
X134961974Y-90400500D01*
X134961976Y-90400500D01*
X135162456Y-90363024D01*
X135352637Y-90289348D01*
X135526041Y-90181981D01*
X135676764Y-90044579D01*
X135799673Y-89881821D01*
X135890582Y-89699250D01*
X135946397Y-89503083D01*
X135953876Y-89422376D01*
X135965215Y-89300003D01*
X135965215Y-89299996D01*
X138834785Y-89299996D01*
X138834785Y-89300003D01*
X138853601Y-89503076D01*
X138853602Y-89503082D01*
X138909416Y-89699244D01*
X138909418Y-89699250D01*
X139000327Y-89881821D01*
X139000328Y-89881822D01*
X139000329Y-89881825D01*
X139123234Y-90044578D01*
X139123235Y-90044579D01*
X139195436Y-90110398D01*
X139273959Y-90181981D01*
X139447363Y-90289348D01*
X139637544Y-90363024D01*
X139838024Y-90400500D01*
X139838026Y-90400500D01*
X140041974Y-90400500D01*
X140041976Y-90400500D01*
X140242456Y-90363024D01*
X140432637Y-90289348D01*
X140606041Y-90181981D01*
X140756764Y-90044579D01*
X140879673Y-89881821D01*
X140970582Y-89699250D01*
X141026397Y-89503083D01*
X141033876Y-89422376D01*
X141045215Y-89300003D01*
X141045215Y-89299996D01*
X141374785Y-89299996D01*
X141374785Y-89300003D01*
X141393601Y-89503076D01*
X141393602Y-89503082D01*
X141449416Y-89699244D01*
X141449418Y-89699250D01*
X141540327Y-89881821D01*
X141540328Y-89881822D01*
X141540329Y-89881825D01*
X141663234Y-90044578D01*
X141663235Y-90044579D01*
X141735436Y-90110398D01*
X141813959Y-90181981D01*
X141987363Y-90289348D01*
X142177544Y-90363024D01*
X142378024Y-90400500D01*
X142378026Y-90400500D01*
X142581974Y-90400500D01*
X142581976Y-90400500D01*
X142782456Y-90363024D01*
X142972637Y-90289348D01*
X143146041Y-90181981D01*
X143296764Y-90044579D01*
X143419673Y-89881821D01*
X143510582Y-89699250D01*
X143566397Y-89503083D01*
X143573876Y-89422376D01*
X143585215Y-89300003D01*
X143585215Y-89299996D01*
X143914785Y-89299996D01*
X143914785Y-89300003D01*
X143933601Y-89503076D01*
X143933602Y-89503082D01*
X143989416Y-89699244D01*
X143989418Y-89699250D01*
X144080327Y-89881821D01*
X144080328Y-89881822D01*
X144080329Y-89881825D01*
X144203234Y-90044578D01*
X144203235Y-90044579D01*
X144275436Y-90110398D01*
X144353959Y-90181981D01*
X144527363Y-90289348D01*
X144717544Y-90363024D01*
X144918024Y-90400500D01*
X144918026Y-90400500D01*
X145121974Y-90400500D01*
X145121976Y-90400500D01*
X145322456Y-90363024D01*
X145512637Y-90289348D01*
X145686041Y-90181981D01*
X145836764Y-90044579D01*
X145959673Y-89881821D01*
X146050582Y-89699250D01*
X146106397Y-89503083D01*
X146113876Y-89422376D01*
X146125215Y-89300003D01*
X146125215Y-89299996D01*
X146454785Y-89299996D01*
X146454785Y-89300003D01*
X146473601Y-89503076D01*
X146473602Y-89503082D01*
X146529416Y-89699244D01*
X146529418Y-89699250D01*
X146620327Y-89881821D01*
X146620328Y-89881822D01*
X146620329Y-89881825D01*
X146743234Y-90044578D01*
X146743235Y-90044579D01*
X146815436Y-90110398D01*
X146893959Y-90181981D01*
X147067363Y-90289348D01*
X147257544Y-90363024D01*
X147458024Y-90400500D01*
X147458026Y-90400500D01*
X147661974Y-90400500D01*
X147661976Y-90400500D01*
X147862456Y-90363024D01*
X148052637Y-90289348D01*
X148226041Y-90181981D01*
X148376764Y-90044579D01*
X148499673Y-89881821D01*
X148590582Y-89699250D01*
X148646397Y-89503083D01*
X148653876Y-89422376D01*
X148665215Y-89300003D01*
X148665215Y-89299996D01*
X148994785Y-89299996D01*
X148994785Y-89300003D01*
X149013601Y-89503076D01*
X149013602Y-89503082D01*
X149069416Y-89699244D01*
X149069418Y-89699250D01*
X149160327Y-89881821D01*
X149160328Y-89881822D01*
X149160329Y-89881825D01*
X149283234Y-90044578D01*
X149283235Y-90044579D01*
X149355436Y-90110398D01*
X149433959Y-90181981D01*
X149607363Y-90289348D01*
X149797544Y-90363024D01*
X149998024Y-90400500D01*
X149998026Y-90400500D01*
X150201974Y-90400500D01*
X150201976Y-90400500D01*
X150402456Y-90363024D01*
X150592637Y-90289348D01*
X150766041Y-90181981D01*
X150916764Y-90044579D01*
X151039673Y-89881821D01*
X151130582Y-89699250D01*
X151186397Y-89503083D01*
X151193876Y-89422376D01*
X151205215Y-89300003D01*
X151205215Y-89299996D01*
X151534785Y-89299996D01*
X151534785Y-89300003D01*
X151553601Y-89503076D01*
X151553602Y-89503082D01*
X151609416Y-89699244D01*
X151609418Y-89699250D01*
X151700327Y-89881821D01*
X151700328Y-89881822D01*
X151700329Y-89881825D01*
X151823234Y-90044578D01*
X151823235Y-90044579D01*
X151895436Y-90110398D01*
X151973959Y-90181981D01*
X152147363Y-90289348D01*
X152337544Y-90363024D01*
X152538024Y-90400500D01*
X152538026Y-90400500D01*
X152741974Y-90400500D01*
X152741976Y-90400500D01*
X152942456Y-90363024D01*
X153132637Y-90289348D01*
X153306041Y-90181981D01*
X153456764Y-90044579D01*
X153579673Y-89881821D01*
X153670582Y-89699250D01*
X153726397Y-89503083D01*
X153733876Y-89422376D01*
X153745215Y-89300003D01*
X153745215Y-89299996D01*
X154074785Y-89299996D01*
X154074785Y-89300003D01*
X154093601Y-89503076D01*
X154093602Y-89503082D01*
X154149416Y-89699244D01*
X154149418Y-89699250D01*
X154240327Y-89881821D01*
X154240328Y-89881822D01*
X154240329Y-89881825D01*
X154363234Y-90044578D01*
X154363235Y-90044579D01*
X154435436Y-90110398D01*
X154513959Y-90181981D01*
X154687363Y-90289348D01*
X154877544Y-90363024D01*
X155078024Y-90400500D01*
X155078026Y-90400500D01*
X155281974Y-90400500D01*
X155281976Y-90400500D01*
X155482456Y-90363024D01*
X155672637Y-90289348D01*
X155846041Y-90181981D01*
X155996764Y-90044579D01*
X156119673Y-89881821D01*
X156210582Y-89699250D01*
X156266397Y-89503083D01*
X156273876Y-89422376D01*
X156285215Y-89300003D01*
X156285215Y-89299996D01*
X156614785Y-89299996D01*
X156614785Y-89300003D01*
X156633601Y-89503076D01*
X156633602Y-89503082D01*
X156689416Y-89699244D01*
X156689418Y-89699250D01*
X156780327Y-89881821D01*
X156780328Y-89881822D01*
X156780329Y-89881825D01*
X156903234Y-90044578D01*
X156903235Y-90044579D01*
X156975436Y-90110398D01*
X157053959Y-90181981D01*
X157227363Y-90289348D01*
X157417544Y-90363024D01*
X157618024Y-90400500D01*
X157618026Y-90400500D01*
X157821974Y-90400500D01*
X157821976Y-90400500D01*
X158022456Y-90363024D01*
X158212637Y-90289348D01*
X158386041Y-90181981D01*
X158536764Y-90044579D01*
X158659673Y-89881821D01*
X158750582Y-89699250D01*
X158806397Y-89503083D01*
X158813876Y-89422376D01*
X158825215Y-89300003D01*
X158825215Y-89299996D01*
X159154785Y-89299996D01*
X159154785Y-89300003D01*
X159173601Y-89503076D01*
X159173602Y-89503082D01*
X159229416Y-89699244D01*
X159229418Y-89699250D01*
X159320327Y-89881821D01*
X159320328Y-89881822D01*
X159320329Y-89881825D01*
X159443234Y-90044578D01*
X159443235Y-90044579D01*
X159515436Y-90110398D01*
X159593959Y-90181981D01*
X159767363Y-90289348D01*
X159957544Y-90363024D01*
X160158024Y-90400500D01*
X160158026Y-90400500D01*
X160361974Y-90400500D01*
X160361976Y-90400500D01*
X160562456Y-90363024D01*
X160752637Y-90289348D01*
X160926041Y-90181981D01*
X161076764Y-90044579D01*
X161199673Y-89881821D01*
X161290582Y-89699250D01*
X161346397Y-89503083D01*
X161353876Y-89422376D01*
X161365215Y-89300003D01*
X161365215Y-89299996D01*
X161694785Y-89299996D01*
X161694785Y-89300003D01*
X161713601Y-89503076D01*
X161713602Y-89503082D01*
X161769416Y-89699244D01*
X161769418Y-89699250D01*
X161860327Y-89881821D01*
X161860328Y-89881822D01*
X161860329Y-89881825D01*
X161983234Y-90044578D01*
X161983235Y-90044579D01*
X162055436Y-90110398D01*
X162133959Y-90181981D01*
X162307363Y-90289348D01*
X162497544Y-90363024D01*
X162698024Y-90400500D01*
X162698026Y-90400500D01*
X162901974Y-90400500D01*
X162901976Y-90400500D01*
X163102456Y-90363024D01*
X163292637Y-90289348D01*
X163466041Y-90181981D01*
X163616764Y-90044579D01*
X163739673Y-89881821D01*
X163830582Y-89699250D01*
X163886397Y-89503083D01*
X163893876Y-89422376D01*
X163905215Y-89300003D01*
X163905215Y-89299996D01*
X163886398Y-89096923D01*
X163886397Y-89096917D01*
X163880907Y-89077623D01*
X163830582Y-88900750D01*
X163739673Y-88718179D01*
X163739670Y-88718175D01*
X163739670Y-88718174D01*
X163616765Y-88555421D01*
X163616764Y-88555420D01*
X163466041Y-88418019D01*
X163448857Y-88407379D01*
X163292637Y-88310652D01*
X163102456Y-88236976D01*
X163014407Y-88220516D01*
X162901979Y-88199500D01*
X162901976Y-88199500D01*
X162698024Y-88199500D01*
X162698020Y-88199500D01*
X162548263Y-88227495D01*
X162497544Y-88236976D01*
X162497542Y-88236976D01*
X162497540Y-88236977D01*
X162339663Y-88298139D01*
X162307363Y-88310652D01*
X162307358Y-88310654D01*
X162307358Y-88310655D01*
X162133958Y-88418019D01*
X162133957Y-88418019D01*
X161983235Y-88555420D01*
X161983234Y-88555421D01*
X161860329Y-88718174D01*
X161860328Y-88718177D01*
X161769418Y-88900750D01*
X161769416Y-88900755D01*
X161713602Y-89096917D01*
X161713601Y-89096923D01*
X161694785Y-89299996D01*
X161365215Y-89299996D01*
X161346398Y-89096923D01*
X161346397Y-89096917D01*
X161340907Y-89077623D01*
X161290582Y-88900750D01*
X161199673Y-88718179D01*
X161199670Y-88718175D01*
X161199670Y-88718174D01*
X161076765Y-88555421D01*
X161076764Y-88555420D01*
X160926041Y-88418019D01*
X160908857Y-88407379D01*
X160752637Y-88310652D01*
X160562456Y-88236976D01*
X160474407Y-88220516D01*
X160361979Y-88199500D01*
X160361976Y-88199500D01*
X160158024Y-88199500D01*
X160158020Y-88199500D01*
X160008263Y-88227495D01*
X159957544Y-88236976D01*
X159957542Y-88236976D01*
X159957540Y-88236977D01*
X159799663Y-88298139D01*
X159767363Y-88310652D01*
X159767358Y-88310654D01*
X159767358Y-88310655D01*
X159593958Y-88418019D01*
X159593957Y-88418019D01*
X159443235Y-88555420D01*
X159443234Y-88555421D01*
X159320329Y-88718174D01*
X159320328Y-88718177D01*
X159229418Y-88900750D01*
X159229416Y-88900755D01*
X159173602Y-89096917D01*
X159173601Y-89096923D01*
X159154785Y-89299996D01*
X158825215Y-89299996D01*
X158806398Y-89096923D01*
X158806397Y-89096917D01*
X158800907Y-89077623D01*
X158750582Y-88900750D01*
X158659673Y-88718179D01*
X158659670Y-88718175D01*
X158659670Y-88718174D01*
X158536765Y-88555421D01*
X158536764Y-88555420D01*
X158386041Y-88418019D01*
X158368857Y-88407379D01*
X158212637Y-88310652D01*
X158022456Y-88236976D01*
X157934407Y-88220516D01*
X157821979Y-88199500D01*
X157821976Y-88199500D01*
X157618024Y-88199500D01*
X157618020Y-88199500D01*
X157468263Y-88227495D01*
X157417544Y-88236976D01*
X157417542Y-88236976D01*
X157417540Y-88236977D01*
X157259663Y-88298139D01*
X157227363Y-88310652D01*
X157227358Y-88310654D01*
X157227358Y-88310655D01*
X157053958Y-88418019D01*
X157053957Y-88418019D01*
X156903235Y-88555420D01*
X156903234Y-88555421D01*
X156780329Y-88718174D01*
X156780328Y-88718177D01*
X156689418Y-88900750D01*
X156689416Y-88900755D01*
X156633602Y-89096917D01*
X156633601Y-89096923D01*
X156614785Y-89299996D01*
X156285215Y-89299996D01*
X156266398Y-89096923D01*
X156266397Y-89096917D01*
X156260907Y-89077623D01*
X156210582Y-88900750D01*
X156119673Y-88718179D01*
X156119670Y-88718175D01*
X156119670Y-88718174D01*
X155996765Y-88555421D01*
X155996764Y-88555420D01*
X155846041Y-88418019D01*
X155828857Y-88407379D01*
X155672637Y-88310652D01*
X155482456Y-88236976D01*
X155394407Y-88220516D01*
X155281979Y-88199500D01*
X155281976Y-88199500D01*
X155078024Y-88199500D01*
X155078020Y-88199500D01*
X154928263Y-88227495D01*
X154877544Y-88236976D01*
X154877542Y-88236976D01*
X154877540Y-88236977D01*
X154719663Y-88298139D01*
X154687363Y-88310652D01*
X154687358Y-88310654D01*
X154687358Y-88310655D01*
X154513958Y-88418019D01*
X154513957Y-88418019D01*
X154363235Y-88555420D01*
X154363234Y-88555421D01*
X154240329Y-88718174D01*
X154240328Y-88718177D01*
X154149418Y-88900750D01*
X154149416Y-88900755D01*
X154093602Y-89096917D01*
X154093601Y-89096923D01*
X154074785Y-89299996D01*
X153745215Y-89299996D01*
X153726398Y-89096923D01*
X153726397Y-89096917D01*
X153720907Y-89077623D01*
X153670582Y-88900750D01*
X153579673Y-88718179D01*
X153579670Y-88718175D01*
X153579670Y-88718174D01*
X153456765Y-88555421D01*
X153456764Y-88555420D01*
X153306041Y-88418019D01*
X153288857Y-88407379D01*
X153132637Y-88310652D01*
X152942456Y-88236976D01*
X152854407Y-88220516D01*
X152741979Y-88199500D01*
X152741976Y-88199500D01*
X152538024Y-88199500D01*
X152538020Y-88199500D01*
X152388263Y-88227495D01*
X152337544Y-88236976D01*
X152337542Y-88236976D01*
X152337540Y-88236977D01*
X152179663Y-88298139D01*
X152147363Y-88310652D01*
X152147358Y-88310654D01*
X152147358Y-88310655D01*
X151973958Y-88418019D01*
X151973957Y-88418019D01*
X151823235Y-88555420D01*
X151823234Y-88555421D01*
X151700329Y-88718174D01*
X151700328Y-88718177D01*
X151609418Y-88900750D01*
X151609416Y-88900755D01*
X151553602Y-89096917D01*
X151553601Y-89096923D01*
X151534785Y-89299996D01*
X151205215Y-89299996D01*
X151186398Y-89096923D01*
X151186397Y-89096917D01*
X151180907Y-89077623D01*
X151130582Y-88900750D01*
X151039673Y-88718179D01*
X151039670Y-88718175D01*
X151039670Y-88718174D01*
X150916765Y-88555421D01*
X150916764Y-88555420D01*
X150766041Y-88418019D01*
X150748857Y-88407379D01*
X150592637Y-88310652D01*
X150402456Y-88236976D01*
X150314407Y-88220516D01*
X150201979Y-88199500D01*
X150201976Y-88199500D01*
X149998024Y-88199500D01*
X149998020Y-88199500D01*
X149848263Y-88227495D01*
X149797544Y-88236976D01*
X149797542Y-88236976D01*
X149797540Y-88236977D01*
X149639663Y-88298139D01*
X149607363Y-88310652D01*
X149607358Y-88310654D01*
X149607358Y-88310655D01*
X149433958Y-88418019D01*
X149433957Y-88418019D01*
X149283235Y-88555420D01*
X149283234Y-88555421D01*
X149160329Y-88718174D01*
X149160328Y-88718177D01*
X149069418Y-88900750D01*
X149069416Y-88900755D01*
X149013602Y-89096917D01*
X149013601Y-89096923D01*
X148994785Y-89299996D01*
X148665215Y-89299996D01*
X148646398Y-89096923D01*
X148646397Y-89096917D01*
X148640907Y-89077623D01*
X148590582Y-88900750D01*
X148499673Y-88718179D01*
X148499670Y-88718175D01*
X148499670Y-88718174D01*
X148376765Y-88555421D01*
X148376764Y-88555420D01*
X148226041Y-88418019D01*
X148208857Y-88407379D01*
X148052637Y-88310652D01*
X147862456Y-88236976D01*
X147774407Y-88220516D01*
X147661979Y-88199500D01*
X147661976Y-88199500D01*
X147458024Y-88199500D01*
X147458020Y-88199500D01*
X147308263Y-88227495D01*
X147257544Y-88236976D01*
X147257542Y-88236976D01*
X147257540Y-88236977D01*
X147099663Y-88298139D01*
X147067363Y-88310652D01*
X147067358Y-88310654D01*
X147067358Y-88310655D01*
X146893958Y-88418019D01*
X146893957Y-88418019D01*
X146743235Y-88555420D01*
X146743234Y-88555421D01*
X146620329Y-88718174D01*
X146620328Y-88718177D01*
X146529418Y-88900750D01*
X146529416Y-88900755D01*
X146473602Y-89096917D01*
X146473601Y-89096923D01*
X146454785Y-89299996D01*
X146125215Y-89299996D01*
X146106398Y-89096923D01*
X146106397Y-89096917D01*
X146100907Y-89077623D01*
X146050582Y-88900750D01*
X145959673Y-88718179D01*
X145959670Y-88718175D01*
X145959670Y-88718174D01*
X145836765Y-88555421D01*
X145836764Y-88555420D01*
X145686041Y-88418019D01*
X145668857Y-88407379D01*
X145512637Y-88310652D01*
X145322456Y-88236976D01*
X145234407Y-88220516D01*
X145121979Y-88199500D01*
X145121976Y-88199500D01*
X144918024Y-88199500D01*
X144918020Y-88199500D01*
X144768263Y-88227495D01*
X144717544Y-88236976D01*
X144717542Y-88236976D01*
X144717540Y-88236977D01*
X144559663Y-88298139D01*
X144527363Y-88310652D01*
X144527358Y-88310654D01*
X144527358Y-88310655D01*
X144353958Y-88418019D01*
X144353957Y-88418019D01*
X144203235Y-88555420D01*
X144203234Y-88555421D01*
X144080329Y-88718174D01*
X144080328Y-88718177D01*
X143989418Y-88900750D01*
X143989416Y-88900755D01*
X143933602Y-89096917D01*
X143933601Y-89096923D01*
X143914785Y-89299996D01*
X143585215Y-89299996D01*
X143566398Y-89096923D01*
X143566397Y-89096917D01*
X143560907Y-89077623D01*
X143510582Y-88900750D01*
X143419673Y-88718179D01*
X143419670Y-88718175D01*
X143419670Y-88718174D01*
X143296765Y-88555421D01*
X143296764Y-88555420D01*
X143146041Y-88418019D01*
X143128857Y-88407379D01*
X142972637Y-88310652D01*
X142782456Y-88236976D01*
X142694407Y-88220516D01*
X142581979Y-88199500D01*
X142581976Y-88199500D01*
X142378024Y-88199500D01*
X142378020Y-88199500D01*
X142228263Y-88227495D01*
X142177544Y-88236976D01*
X142177542Y-88236976D01*
X142177540Y-88236977D01*
X142019663Y-88298139D01*
X141987363Y-88310652D01*
X141987358Y-88310654D01*
X141987358Y-88310655D01*
X141813958Y-88418019D01*
X141813957Y-88418019D01*
X141663235Y-88555420D01*
X141663234Y-88555421D01*
X141540329Y-88718174D01*
X141540328Y-88718177D01*
X141449418Y-88900750D01*
X141449416Y-88900755D01*
X141393602Y-89096917D01*
X141393601Y-89096923D01*
X141374785Y-89299996D01*
X141045215Y-89299996D01*
X141026398Y-89096923D01*
X141026397Y-89096917D01*
X141020907Y-89077623D01*
X140970582Y-88900750D01*
X140879673Y-88718179D01*
X140879670Y-88718175D01*
X140879670Y-88718174D01*
X140756765Y-88555421D01*
X140756764Y-88555420D01*
X140606041Y-88418019D01*
X140588857Y-88407379D01*
X140432637Y-88310652D01*
X140242456Y-88236976D01*
X140154407Y-88220516D01*
X140041979Y-88199500D01*
X140041976Y-88199500D01*
X139838024Y-88199500D01*
X139838020Y-88199500D01*
X139688263Y-88227495D01*
X139637544Y-88236976D01*
X139637542Y-88236976D01*
X139637540Y-88236977D01*
X139479663Y-88298139D01*
X139447363Y-88310652D01*
X139447358Y-88310654D01*
X139447358Y-88310655D01*
X139273958Y-88418019D01*
X139273957Y-88418019D01*
X139123235Y-88555420D01*
X139123234Y-88555421D01*
X139000329Y-88718174D01*
X139000328Y-88718177D01*
X138909418Y-88900750D01*
X138909416Y-88900755D01*
X138853602Y-89096917D01*
X138853601Y-89096923D01*
X138834785Y-89299996D01*
X135965215Y-89299996D01*
X135946398Y-89096923D01*
X135946397Y-89096917D01*
X135940907Y-89077623D01*
X135890582Y-88900750D01*
X135799673Y-88718179D01*
X135799670Y-88718175D01*
X135799670Y-88718174D01*
X135676765Y-88555421D01*
X135676764Y-88555420D01*
X135526041Y-88418019D01*
X135508857Y-88407379D01*
X135352637Y-88310652D01*
X135162456Y-88236976D01*
X135074407Y-88220516D01*
X134961979Y-88199500D01*
X134961976Y-88199500D01*
X134758024Y-88199500D01*
X134758020Y-88199500D01*
X134608263Y-88227495D01*
X134557544Y-88236976D01*
X134557542Y-88236976D01*
X134557540Y-88236977D01*
X134399663Y-88298139D01*
X134367363Y-88310652D01*
X134367358Y-88310654D01*
X134367358Y-88310655D01*
X134193958Y-88418019D01*
X134193957Y-88418019D01*
X134043235Y-88555420D01*
X134043234Y-88555421D01*
X133920329Y-88718174D01*
X133920328Y-88718177D01*
X133829418Y-88900750D01*
X133829416Y-88900755D01*
X133773602Y-89096917D01*
X133773601Y-89096923D01*
X133754785Y-89299996D01*
X133420500Y-89299996D01*
X133420500Y-88684306D01*
X133417598Y-88647431D01*
X133371744Y-88489602D01*
X133288081Y-88348135D01*
X133171865Y-88231919D01*
X133164384Y-88227495D01*
X133030399Y-88148256D01*
X132872571Y-88102402D01*
X132847985Y-88100467D01*
X132835694Y-88099500D01*
X131804306Y-88099500D01*
X131795087Y-88100225D01*
X131767428Y-88102402D01*
X131609600Y-88148256D01*
X131468134Y-88231919D01*
X131351919Y-88348134D01*
X131268256Y-88489600D01*
X131222402Y-88647428D01*
X131219500Y-88684306D01*
X123440018Y-88684306D01*
X123436330Y-88656291D01*
X123380861Y-88522375D01*
X123292621Y-88407379D01*
X123177625Y-88319139D01*
X123157143Y-88310655D01*
X123043708Y-88263669D01*
X122984042Y-88255814D01*
X122934993Y-88227495D01*
X122920335Y-88172787D01*
X122934992Y-88137401D01*
X122980861Y-88077625D01*
X123036330Y-87943709D01*
X123055250Y-87800000D01*
X123036330Y-87656291D01*
X122980861Y-87522375D01*
X122892621Y-87407379D01*
X122777625Y-87319139D01*
X122777623Y-87319138D01*
X122643708Y-87263669D01*
X122500000Y-87244750D01*
X122356291Y-87263669D01*
X122222376Y-87319138D01*
X122107379Y-87407379D01*
X122019138Y-87522376D01*
X122018366Y-87524241D01*
X122017646Y-87524960D01*
X122016715Y-87526574D01*
X122016282Y-87526324D01*
X121978316Y-87564288D01*
X121921679Y-87564286D01*
X121883717Y-87526324D01*
X121883285Y-87526574D01*
X121882353Y-87524960D01*
X121881634Y-87524241D01*
X121880861Y-87522376D01*
X121880861Y-87522375D01*
X121792621Y-87407379D01*
X121677625Y-87319139D01*
X121677623Y-87319138D01*
X121543708Y-87263669D01*
X121400000Y-87244750D01*
X121256291Y-87263669D01*
X121122376Y-87319138D01*
X121007379Y-87407379D01*
X120919138Y-87522376D01*
X120863669Y-87656291D01*
X120844750Y-87800000D01*
X111683724Y-87800000D01*
X111630861Y-87672375D01*
X111542621Y-87557379D01*
X111427625Y-87469139D01*
X111427623Y-87469138D01*
X111293708Y-87413669D01*
X111150000Y-87394750D01*
X111006291Y-87413669D01*
X110872376Y-87469138D01*
X110757379Y-87557379D01*
X110669138Y-87672376D01*
X110613669Y-87806291D01*
X110594750Y-87950000D01*
X100000000Y-87950000D01*
X100000000Y-86700000D01*
X118844750Y-86700000D01*
X118863669Y-86843708D01*
X118919138Y-86977623D01*
X118919139Y-86977625D01*
X119007379Y-87092621D01*
X119122375Y-87180861D01*
X119256291Y-87236330D01*
X119400000Y-87255250D01*
X119543709Y-87236330D01*
X119677625Y-87180861D01*
X119792621Y-87092621D01*
X119880861Y-86977625D01*
X119918532Y-86886676D01*
X119958577Y-86846631D01*
X119996555Y-86841631D01*
X120100000Y-86855250D01*
X120243709Y-86836330D01*
X120377625Y-86780861D01*
X120492621Y-86692621D01*
X120580861Y-86577625D01*
X120636330Y-86443709D01*
X120655250Y-86300000D01*
X120636330Y-86156291D01*
X120580861Y-86022375D01*
X120492621Y-85907379D01*
X120377625Y-85819139D01*
X120377623Y-85819138D01*
X120243708Y-85763669D01*
X120100000Y-85744750D01*
X119956291Y-85763669D01*
X119822376Y-85819138D01*
X119707379Y-85907379D01*
X119619139Y-86022375D01*
X119581468Y-86113320D01*
X119541419Y-86153368D01*
X119503442Y-86158368D01*
X119400000Y-86144750D01*
X119256291Y-86163669D01*
X119122376Y-86219138D01*
X119007379Y-86307379D01*
X118919138Y-86422376D01*
X118863669Y-86556291D01*
X118844750Y-86700000D01*
X100000000Y-86700000D01*
X100000000Y-84266931D01*
X105831451Y-84266931D01*
X105850370Y-84410639D01*
X105905839Y-84544554D01*
X105905840Y-84544556D01*
X105994080Y-84659552D01*
X106109076Y-84747792D01*
X106242992Y-84803261D01*
X106386701Y-84822181D01*
X106530410Y-84803261D01*
X106664326Y-84747792D01*
X106779322Y-84659552D01*
X106867562Y-84544556D01*
X106886017Y-84500000D01*
X108444750Y-84500000D01*
X108463669Y-84643708D01*
X108506782Y-84747792D01*
X108519139Y-84777625D01*
X108607379Y-84892621D01*
X108722375Y-84980861D01*
X108856291Y-85036330D01*
X109000000Y-85055250D01*
X109143709Y-85036330D01*
X109277625Y-84980861D01*
X109392621Y-84892621D01*
X109480861Y-84777625D01*
X109536330Y-84643709D01*
X109555250Y-84500000D01*
X109536330Y-84356291D01*
X109480861Y-84222375D01*
X109392621Y-84107379D01*
X109383005Y-84100000D01*
X113444750Y-84100000D01*
X113463669Y-84243708D01*
X113510302Y-84356291D01*
X113519139Y-84377625D01*
X113607379Y-84492621D01*
X113722375Y-84580861D01*
X113856291Y-84636330D01*
X114000000Y-84655250D01*
X114143709Y-84636330D01*
X114277625Y-84580861D01*
X114392621Y-84492621D01*
X114480861Y-84377625D01*
X114536330Y-84243709D01*
X114555250Y-84100000D01*
X114536330Y-83956291D01*
X114480861Y-83822375D01*
X114392621Y-83707379D01*
X114277625Y-83619139D01*
X114277623Y-83619138D01*
X114143708Y-83563669D01*
X114000000Y-83544750D01*
X113856291Y-83563669D01*
X113722376Y-83619138D01*
X113607379Y-83707379D01*
X113519138Y-83822376D01*
X113463669Y-83956291D01*
X113444750Y-84100000D01*
X109383005Y-84100000D01*
X109277625Y-84019139D01*
X109246607Y-84006291D01*
X109143708Y-83963669D01*
X109000000Y-83944750D01*
X108856291Y-83963669D01*
X108722376Y-84019138D01*
X108607379Y-84107379D01*
X108519138Y-84222376D01*
X108463669Y-84356291D01*
X108444750Y-84500000D01*
X106886017Y-84500000D01*
X106923031Y-84410640D01*
X106941951Y-84266931D01*
X106923031Y-84123222D01*
X106867562Y-83989306D01*
X106779322Y-83874310D01*
X106664326Y-83786070D01*
X106664324Y-83786069D01*
X106530409Y-83730600D01*
X106386701Y-83711681D01*
X106242992Y-83730600D01*
X106109077Y-83786069D01*
X105994080Y-83874310D01*
X105905839Y-83989307D01*
X105850370Y-84123222D01*
X105831451Y-84266931D01*
X100000000Y-84266931D01*
X100000000Y-82250000D01*
X118344750Y-82250000D01*
X118363669Y-82393708D01*
X118382842Y-82439996D01*
X118419139Y-82527625D01*
X118507379Y-82642621D01*
X118622375Y-82730861D01*
X118756291Y-82786330D01*
X118900000Y-82805250D01*
X119043709Y-82786330D01*
X119177625Y-82730861D01*
X119292621Y-82642621D01*
X119380861Y-82527625D01*
X119436330Y-82393709D01*
X119455250Y-82250000D01*
X119436330Y-82106291D01*
X119380861Y-81972375D01*
X119292621Y-81857379D01*
X119177625Y-81769139D01*
X119145733Y-81755929D01*
X119043708Y-81713669D01*
X118900000Y-81694750D01*
X118756291Y-81713669D01*
X118622376Y-81769138D01*
X118507379Y-81857379D01*
X118419138Y-81972376D01*
X118363669Y-82106291D01*
X118344750Y-82250000D01*
X100000000Y-82250000D01*
X100000000Y-80800000D01*
X113494750Y-80800000D01*
X113513669Y-80943708D01*
X113560302Y-81056291D01*
X113569139Y-81077625D01*
X113657379Y-81192621D01*
X113772375Y-81280861D01*
X113906291Y-81336330D01*
X114050000Y-81355250D01*
X114193709Y-81336330D01*
X114327625Y-81280861D01*
X114442621Y-81192621D01*
X114530861Y-81077625D01*
X114586330Y-80943709D01*
X114605250Y-80800000D01*
X114592085Y-80700000D01*
X119244750Y-80700000D01*
X119263669Y-80843708D01*
X119319138Y-80977623D01*
X119319139Y-80977625D01*
X119407379Y-81092621D01*
X119522375Y-81180861D01*
X119656291Y-81236330D01*
X119800000Y-81255250D01*
X119943709Y-81236330D01*
X120031419Y-81200000D01*
X120844750Y-81200000D01*
X120863669Y-81343708D01*
X120904640Y-81442621D01*
X120919139Y-81477625D01*
X121007379Y-81592621D01*
X121122375Y-81680861D01*
X121256291Y-81736330D01*
X121400000Y-81755250D01*
X121543709Y-81736330D01*
X121677625Y-81680861D01*
X121792621Y-81592621D01*
X121880861Y-81477625D01*
X121936330Y-81343709D01*
X121955250Y-81200000D01*
X121936330Y-81056291D01*
X121880861Y-80922375D01*
X121792621Y-80807379D01*
X121677625Y-80719139D01*
X121631419Y-80700000D01*
X121543708Y-80663669D01*
X121400000Y-80644750D01*
X121256291Y-80663669D01*
X121122376Y-80719138D01*
X121007379Y-80807379D01*
X120919138Y-80922376D01*
X120863669Y-81056291D01*
X120844750Y-81200000D01*
X120031419Y-81200000D01*
X120077625Y-81180861D01*
X120192621Y-81092621D01*
X120280861Y-80977625D01*
X120336330Y-80843709D01*
X120355250Y-80700000D01*
X120336330Y-80556291D01*
X120280861Y-80422375D01*
X120192621Y-80307379D01*
X120077625Y-80219139D01*
X120068195Y-80215233D01*
X119943708Y-80163669D01*
X119800000Y-80144750D01*
X119656291Y-80163669D01*
X119522376Y-80219138D01*
X119407379Y-80307379D01*
X119319138Y-80422376D01*
X119263669Y-80556291D01*
X119244750Y-80700000D01*
X114592085Y-80700000D01*
X114586330Y-80656291D01*
X114530861Y-80522375D01*
X114442621Y-80407379D01*
X114327625Y-80319139D01*
X114327623Y-80319138D01*
X114193708Y-80263669D01*
X114050000Y-80244750D01*
X113906291Y-80263669D01*
X113772376Y-80319138D01*
X113657379Y-80407379D01*
X113569138Y-80522376D01*
X113513669Y-80656291D01*
X113494750Y-80800000D01*
X100000000Y-80800000D01*
X100000000Y-80000000D01*
X114644750Y-80000000D01*
X114663669Y-80143708D01*
X114705522Y-80244750D01*
X114719139Y-80277625D01*
X114807379Y-80392621D01*
X114922375Y-80480861D01*
X115056291Y-80536330D01*
X115200000Y-80555250D01*
X115343709Y-80536330D01*
X115477625Y-80480861D01*
X115592621Y-80392621D01*
X115680861Y-80277625D01*
X115736330Y-80143709D01*
X115742085Y-80100000D01*
X121744750Y-80100000D01*
X121763669Y-80243708D01*
X121801670Y-80335450D01*
X121819139Y-80377625D01*
X121907379Y-80492621D01*
X122022375Y-80580861D01*
X122156291Y-80636330D01*
X122300000Y-80655250D01*
X122443709Y-80636330D01*
X122577625Y-80580861D01*
X122692621Y-80492621D01*
X122780861Y-80377625D01*
X122836330Y-80243709D01*
X122855250Y-80100000D01*
X122836330Y-79956291D01*
X122813012Y-79899996D01*
X124524355Y-79899996D01*
X124524355Y-79900003D01*
X124544859Y-80068871D01*
X124605181Y-80227929D01*
X124668139Y-80319138D01*
X124701817Y-80367929D01*
X124729689Y-80392621D01*
X124827879Y-80479610D01*
X124852673Y-80530532D01*
X124834198Y-80584071D01*
X124827879Y-80590390D01*
X124701816Y-80702071D01*
X124605181Y-80842070D01*
X124544859Y-81001128D01*
X124524355Y-81169996D01*
X124524355Y-81170003D01*
X124544859Y-81338871D01*
X124605181Y-81497929D01*
X124701816Y-81637928D01*
X124827879Y-81749610D01*
X124852673Y-81800532D01*
X124834198Y-81854071D01*
X124827879Y-81860390D01*
X124701816Y-81972071D01*
X124605181Y-82112070D01*
X124544859Y-82271128D01*
X124524355Y-82439996D01*
X124524355Y-82440003D01*
X124544859Y-82608871D01*
X124605181Y-82767929D01*
X124701816Y-82907928D01*
X124827879Y-83019610D01*
X124852673Y-83070532D01*
X124834198Y-83124071D01*
X124827879Y-83130390D01*
X124701816Y-83242071D01*
X124605181Y-83382070D01*
X124544859Y-83541128D01*
X124524355Y-83709996D01*
X124524355Y-83710003D01*
X124544859Y-83878871D01*
X124605181Y-84037929D01*
X124701816Y-84177928D01*
X124827879Y-84289610D01*
X124852673Y-84340532D01*
X124834198Y-84394071D01*
X124827879Y-84400390D01*
X124701816Y-84512071D01*
X124605181Y-84652070D01*
X124544859Y-84811128D01*
X124524355Y-84979996D01*
X124524355Y-84980003D01*
X124544859Y-85148871D01*
X124605181Y-85307929D01*
X124701816Y-85447928D01*
X124819458Y-85552150D01*
X124829148Y-85560734D01*
X124979775Y-85639790D01*
X125144944Y-85680500D01*
X125144948Y-85680500D01*
X125315052Y-85680500D01*
X125315056Y-85680500D01*
X125480225Y-85639790D01*
X125630852Y-85560734D01*
X125753701Y-85451899D01*
X125807239Y-85433425D01*
X125858161Y-85458219D01*
X125862311Y-85463348D01*
X125927846Y-85552146D01*
X125927853Y-85552153D01*
X126037116Y-85632792D01*
X126037118Y-85632793D01*
X126165295Y-85677644D01*
X126165301Y-85677646D01*
X126195734Y-85680500D01*
X126195741Y-85680500D01*
X126804258Y-85680500D01*
X126804266Y-85680500D01*
X126834699Y-85677646D01*
X126913707Y-85650000D01*
X130844750Y-85650000D01*
X130863669Y-85793708D01*
X130874203Y-85819139D01*
X130919139Y-85927625D01*
X131007379Y-86042621D01*
X131122375Y-86130861D01*
X131256291Y-86186330D01*
X131400000Y-86205250D01*
X131543709Y-86186330D01*
X131677625Y-86130861D01*
X131792621Y-86042621D01*
X131880861Y-85927625D01*
X131936330Y-85793709D01*
X131955250Y-85650000D01*
X131936330Y-85506291D01*
X131880861Y-85372375D01*
X131792621Y-85257379D01*
X131677625Y-85169139D01*
X131677623Y-85169138D01*
X131543708Y-85113669D01*
X131400000Y-85094750D01*
X131256291Y-85113669D01*
X131122376Y-85169138D01*
X131007379Y-85257379D01*
X130919138Y-85372376D01*
X130863669Y-85506291D01*
X130844750Y-85650000D01*
X126913707Y-85650000D01*
X126962882Y-85632793D01*
X127072150Y-85552150D01*
X127152793Y-85442882D01*
X127197646Y-85314699D01*
X127200500Y-85284266D01*
X127200500Y-84675734D01*
X127197646Y-84645301D01*
X127152793Y-84517118D01*
X127149200Y-84512249D01*
X127072153Y-84407853D01*
X127072146Y-84407846D01*
X126962883Y-84327207D01*
X126962881Y-84327206D01*
X126834704Y-84282355D01*
X126834705Y-84282355D01*
X126834700Y-84282354D01*
X126834699Y-84282354D01*
X126804266Y-84279500D01*
X126195734Y-84279500D01*
X126165301Y-84282354D01*
X126165299Y-84282354D01*
X126165295Y-84282355D01*
X126037118Y-84327206D01*
X126037116Y-84327207D01*
X125927853Y-84407846D01*
X125927849Y-84407850D01*
X125862311Y-84496652D01*
X125813800Y-84525882D01*
X125758828Y-84512249D01*
X125753700Y-84508099D01*
X125705928Y-84465777D01*
X125632119Y-84400388D01*
X125607326Y-84349469D01*
X125625801Y-84295929D01*
X125632114Y-84289615D01*
X125758183Y-84177929D01*
X125777461Y-84150000D01*
X129944750Y-84150000D01*
X129963669Y-84293708D01*
X130019138Y-84427623D01*
X130019139Y-84427625D01*
X130107379Y-84542621D01*
X130222375Y-84630861D01*
X130356291Y-84686330D01*
X130500000Y-84705250D01*
X130643709Y-84686330D01*
X130777625Y-84630861D01*
X130892621Y-84542621D01*
X130980861Y-84427625D01*
X131036330Y-84293709D01*
X131055250Y-84150000D01*
X131036330Y-84006291D01*
X130980861Y-83872375D01*
X130892621Y-83757379D01*
X130777625Y-83669139D01*
X130777623Y-83669138D01*
X130643708Y-83613669D01*
X130500000Y-83594750D01*
X130356291Y-83613669D01*
X130222376Y-83669138D01*
X130107379Y-83757379D01*
X130019138Y-83872376D01*
X129963669Y-84006291D01*
X129944750Y-84150000D01*
X125777461Y-84150000D01*
X125854818Y-84037930D01*
X125915140Y-83878872D01*
X125926408Y-83786070D01*
X125935645Y-83710003D01*
X125935645Y-83709996D01*
X125915140Y-83541128D01*
X125854818Y-83382070D01*
X125758183Y-83242071D01*
X125632119Y-83130388D01*
X125607326Y-83079468D01*
X125625801Y-83025929D01*
X125632114Y-83019615D01*
X125758183Y-82907929D01*
X125854818Y-82767930D01*
X125915140Y-82608872D01*
X125916217Y-82600000D01*
X130794750Y-82600000D01*
X130813669Y-82743708D01*
X130869138Y-82877623D01*
X130869139Y-82877625D01*
X130957379Y-82992621D01*
X131072375Y-83080861D01*
X131206291Y-83136330D01*
X131350000Y-83155250D01*
X131493709Y-83136330D01*
X131627625Y-83080861D01*
X131742621Y-82992621D01*
X131830861Y-82877625D01*
X131886330Y-82743709D01*
X131905250Y-82600000D01*
X131886330Y-82456291D01*
X131830861Y-82322375D01*
X131742621Y-82207379D01*
X131627625Y-82119139D01*
X131596607Y-82106291D01*
X131493708Y-82063669D01*
X131350000Y-82044750D01*
X131206291Y-82063669D01*
X131072376Y-82119138D01*
X130957379Y-82207379D01*
X130869138Y-82322376D01*
X130813669Y-82456291D01*
X130794750Y-82600000D01*
X125916217Y-82600000D01*
X125935645Y-82440000D01*
X125930024Y-82393709D01*
X125915140Y-82271128D01*
X125854818Y-82112070D01*
X125758183Y-81972071D01*
X125632119Y-81860388D01*
X125607326Y-81809468D01*
X125625801Y-81755929D01*
X125632114Y-81749615D01*
X125758183Y-81637929D01*
X125804099Y-81571407D01*
X125851661Y-81540657D01*
X125907037Y-81552544D01*
X125925899Y-81571406D01*
X125971817Y-81637929D01*
X126099148Y-81750734D01*
X126249775Y-81829790D01*
X126414944Y-81870500D01*
X126414948Y-81870500D01*
X126585052Y-81870500D01*
X126585056Y-81870500D01*
X126750225Y-81829790D01*
X126900852Y-81750734D01*
X127028183Y-81637929D01*
X127124818Y-81497930D01*
X127185140Y-81338872D01*
X127197591Y-81236330D01*
X127205645Y-81170003D01*
X127205645Y-81169996D01*
X127191074Y-81050000D01*
X129894750Y-81050000D01*
X129913669Y-81193708D01*
X129949769Y-81280861D01*
X129969139Y-81327625D01*
X130057379Y-81442621D01*
X130172375Y-81530861D01*
X130306291Y-81586330D01*
X130450000Y-81605250D01*
X130593709Y-81586330D01*
X130727625Y-81530861D01*
X130842621Y-81442621D01*
X130930861Y-81327625D01*
X130986330Y-81193709D01*
X131005250Y-81050000D01*
X130986330Y-80906291D01*
X130930861Y-80772375D01*
X130842621Y-80657379D01*
X130727625Y-80569139D01*
X130696607Y-80556291D01*
X130593708Y-80513669D01*
X130450000Y-80494750D01*
X130306291Y-80513669D01*
X130172376Y-80569138D01*
X130057379Y-80657379D01*
X129969138Y-80772376D01*
X129913669Y-80906291D01*
X129894750Y-81050000D01*
X127191074Y-81050000D01*
X127185140Y-81001128D01*
X127124818Y-80842070D01*
X127028183Y-80702071D01*
X126975333Y-80655250D01*
X126902119Y-80590388D01*
X126877326Y-80539468D01*
X126895801Y-80485929D01*
X126902114Y-80479615D01*
X127028183Y-80367929D01*
X127124818Y-80227930D01*
X127185140Y-80068872D01*
X127195827Y-79980861D01*
X127205645Y-79900003D01*
X127205645Y-79899996D01*
X127185140Y-79731128D01*
X127124818Y-79572070D01*
X127075071Y-79500000D01*
X130794750Y-79500000D01*
X130813669Y-79643708D01*
X130868149Y-79775235D01*
X130869139Y-79777625D01*
X130957379Y-79892621D01*
X131072375Y-79980861D01*
X131206291Y-80036330D01*
X131350000Y-80055250D01*
X131493709Y-80036330D01*
X131627625Y-79980861D01*
X131742621Y-79892621D01*
X131830861Y-79777625D01*
X131886330Y-79643709D01*
X131905250Y-79500000D01*
X131886330Y-79356291D01*
X131830861Y-79222375D01*
X131765566Y-79137281D01*
X151349500Y-79137281D01*
X151349500Y-79962718D01*
X151364312Y-80075234D01*
X151364312Y-80075235D01*
X151416199Y-80200500D01*
X151422302Y-80215233D01*
X151514549Y-80335451D01*
X151634767Y-80427698D01*
X151774764Y-80485687D01*
X151887280Y-80500500D01*
X151887282Y-80500500D01*
X152712718Y-80500500D01*
X152712720Y-80500500D01*
X152825236Y-80485687D01*
X152965233Y-80427698D01*
X153085451Y-80335451D01*
X153177698Y-80215233D01*
X153235687Y-80075236D01*
X153250500Y-79962720D01*
X153250500Y-79137280D01*
X153235687Y-79024764D01*
X153177698Y-78884767D01*
X153141261Y-78837281D01*
X159749500Y-78837281D01*
X159749500Y-79662718D01*
X159764312Y-79775234D01*
X159764312Y-79775235D01*
X159783839Y-79822376D01*
X159822302Y-79915233D01*
X159914549Y-80035451D01*
X160034767Y-80127698D01*
X160174764Y-80185687D01*
X160287280Y-80200500D01*
X160287282Y-80200500D01*
X161112718Y-80200500D01*
X161112720Y-80200500D01*
X161225236Y-80185687D01*
X161365233Y-80127698D01*
X161485451Y-80035451D01*
X161577698Y-79915233D01*
X161635687Y-79775236D01*
X161650500Y-79662720D01*
X161650500Y-78837280D01*
X161635687Y-78724764D01*
X161577698Y-78584767D01*
X161485451Y-78464549D01*
X161365233Y-78372302D01*
X161225235Y-78314312D01*
X161138897Y-78302946D01*
X161112720Y-78299500D01*
X160287280Y-78299500D01*
X160261102Y-78302946D01*
X160174765Y-78314312D01*
X160174764Y-78314312D01*
X160034766Y-78372302D01*
X159914549Y-78464549D01*
X159822302Y-78584766D01*
X159764312Y-78724764D01*
X159764312Y-78724765D01*
X159749500Y-78837281D01*
X153141261Y-78837281D01*
X153085451Y-78764549D01*
X152965233Y-78672302D01*
X152825235Y-78614312D01*
X152738897Y-78602946D01*
X152712720Y-78599500D01*
X151887280Y-78599500D01*
X151861102Y-78602946D01*
X151774765Y-78614312D01*
X151774764Y-78614312D01*
X151634766Y-78672302D01*
X151514549Y-78764549D01*
X151422302Y-78884766D01*
X151364312Y-79024764D01*
X151364312Y-79024765D01*
X151349500Y-79137281D01*
X131765566Y-79137281D01*
X131742621Y-79107379D01*
X131627625Y-79019139D01*
X131581419Y-79000000D01*
X131493708Y-78963669D01*
X131350000Y-78944750D01*
X131206291Y-78963669D01*
X131072376Y-79019138D01*
X130957379Y-79107379D01*
X130869138Y-79222376D01*
X130813669Y-79356291D01*
X130794750Y-79500000D01*
X127075071Y-79500000D01*
X127028183Y-79432071D01*
X126900856Y-79319269D01*
X126900853Y-79319267D01*
X126900852Y-79319266D01*
X126750225Y-79240210D01*
X126750222Y-79240209D01*
X126585058Y-79199500D01*
X126585056Y-79199500D01*
X126414944Y-79199500D01*
X126414941Y-79199500D01*
X126249777Y-79240209D01*
X126099146Y-79319267D01*
X126099143Y-79319269D01*
X125971816Y-79432071D01*
X125925901Y-79498591D01*
X125878338Y-79529342D01*
X125822963Y-79517455D01*
X125804099Y-79498591D01*
X125758183Y-79432071D01*
X125630856Y-79319269D01*
X125630853Y-79319267D01*
X125630852Y-79319266D01*
X125480225Y-79240210D01*
X125480222Y-79240209D01*
X125315058Y-79199500D01*
X125315056Y-79199500D01*
X125144944Y-79199500D01*
X125144941Y-79199500D01*
X124979777Y-79240209D01*
X124829146Y-79319267D01*
X124829143Y-79319269D01*
X124701816Y-79432071D01*
X124605181Y-79572070D01*
X124544859Y-79731128D01*
X124524355Y-79899996D01*
X122813012Y-79899996D01*
X122780861Y-79822375D01*
X122692621Y-79707379D01*
X122577625Y-79619139D01*
X122577623Y-79619138D01*
X122443708Y-79563669D01*
X122300000Y-79544750D01*
X122156291Y-79563669D01*
X122022376Y-79619138D01*
X121907379Y-79707379D01*
X121819138Y-79822376D01*
X121763669Y-79956291D01*
X121744750Y-80100000D01*
X115742085Y-80100000D01*
X115755250Y-80000000D01*
X115736330Y-79856291D01*
X115680861Y-79722375D01*
X115592621Y-79607379D01*
X115477625Y-79519139D01*
X115477623Y-79519138D01*
X115343708Y-79463669D01*
X115200000Y-79444750D01*
X115056291Y-79463669D01*
X114922376Y-79519138D01*
X114807379Y-79607379D01*
X114719138Y-79722376D01*
X114663669Y-79856291D01*
X114644750Y-80000000D01*
X100000000Y-80000000D01*
X100000000Y-79000000D01*
X120844750Y-79000000D01*
X120863669Y-79143708D01*
X120886779Y-79199500D01*
X120919139Y-79277625D01*
X121007379Y-79392621D01*
X121122375Y-79480861D01*
X121256291Y-79536330D01*
X121400000Y-79555250D01*
X121543709Y-79536330D01*
X121677625Y-79480861D01*
X121792621Y-79392621D01*
X121880861Y-79277625D01*
X121936330Y-79143709D01*
X121955250Y-79000000D01*
X121936330Y-78856291D01*
X121880861Y-78722375D01*
X121792621Y-78607379D01*
X121677625Y-78519139D01*
X121677623Y-78519138D01*
X121543708Y-78463669D01*
X121400000Y-78444750D01*
X121256291Y-78463669D01*
X121122376Y-78519138D01*
X121007379Y-78607379D01*
X120919138Y-78722376D01*
X120863669Y-78856291D01*
X120844750Y-79000000D01*
X100000000Y-79000000D01*
X99991171Y-78991171D01*
X99969498Y-78938931D01*
X99968486Y-78050000D01*
X129894750Y-78050000D01*
X129913669Y-78193708D01*
X129963625Y-78314313D01*
X129969139Y-78327625D01*
X130057379Y-78442621D01*
X130172375Y-78530861D01*
X130306291Y-78586330D01*
X130450000Y-78605250D01*
X130593709Y-78586330D01*
X130727625Y-78530861D01*
X130842621Y-78442621D01*
X130930861Y-78327625D01*
X130986330Y-78193709D01*
X131005250Y-78050000D01*
X130986330Y-77906291D01*
X130930861Y-77772375D01*
X130842621Y-77657379D01*
X130727625Y-77569139D01*
X130727623Y-77569138D01*
X130593708Y-77513669D01*
X130450000Y-77494750D01*
X130306291Y-77513669D01*
X130172376Y-77569138D01*
X130057379Y-77657379D01*
X129969138Y-77772376D01*
X129913669Y-77906291D01*
X129894750Y-78050000D01*
X99968486Y-78050000D01*
X99967519Y-77200000D01*
X120644750Y-77200000D01*
X120663669Y-77343708D01*
X120668450Y-77355250D01*
X120719139Y-77477625D01*
X120807379Y-77592621D01*
X120922375Y-77680861D01*
X121056291Y-77736330D01*
X121200000Y-77755250D01*
X121343709Y-77736330D01*
X121477625Y-77680861D01*
X121592621Y-77592621D01*
X121680861Y-77477625D01*
X121736330Y-77343709D01*
X121755250Y-77200000D01*
X121736330Y-77056291D01*
X121680861Y-76922375D01*
X121592621Y-76807379D01*
X121583005Y-76800000D01*
X130794750Y-76800000D01*
X130813669Y-76943708D01*
X130841551Y-77011021D01*
X130869139Y-77077625D01*
X130957379Y-77192621D01*
X131072375Y-77280861D01*
X131206291Y-77336330D01*
X131350000Y-77355250D01*
X131493709Y-77336330D01*
X131627625Y-77280861D01*
X131742621Y-77192621D01*
X131830861Y-77077625D01*
X131886330Y-76943709D01*
X131905250Y-76800000D01*
X131886330Y-76656291D01*
X131830861Y-76522375D01*
X131742621Y-76407379D01*
X131627625Y-76319139D01*
X131627623Y-76319138D01*
X131493708Y-76263669D01*
X131350000Y-76244750D01*
X131206291Y-76263669D01*
X131072376Y-76319138D01*
X130957379Y-76407379D01*
X130869138Y-76522376D01*
X130813669Y-76656291D01*
X130794750Y-76800000D01*
X121583005Y-76800000D01*
X121477625Y-76719139D01*
X121477623Y-76719138D01*
X121343708Y-76663669D01*
X121200000Y-76644750D01*
X121056291Y-76663669D01*
X120922376Y-76719138D01*
X120807379Y-76807379D01*
X120719138Y-76922376D01*
X120663669Y-77056291D01*
X120644750Y-77200000D01*
X99967519Y-77200000D01*
X99967364Y-77063370D01*
X99988979Y-77011021D01*
X99989039Y-77010960D01*
X99999999Y-77000000D01*
X100000000Y-77000000D01*
X100000000Y-75650000D01*
X114744750Y-75650000D01*
X114763669Y-75793708D01*
X114819138Y-75927623D01*
X114819139Y-75927625D01*
X114907379Y-76042621D01*
X115022375Y-76130861D01*
X115156291Y-76186330D01*
X115300000Y-76205250D01*
X115443709Y-76186330D01*
X115577625Y-76130861D01*
X115692621Y-76042621D01*
X115780861Y-75927625D01*
X115792303Y-75900000D01*
X119144750Y-75900000D01*
X119163669Y-76043708D01*
X119199769Y-76130861D01*
X119219139Y-76177625D01*
X119307379Y-76292621D01*
X119422375Y-76380861D01*
X119556291Y-76436330D01*
X119700000Y-76455250D01*
X119843709Y-76436330D01*
X119977625Y-76380861D01*
X120092621Y-76292621D01*
X120180861Y-76177625D01*
X120236330Y-76043709D01*
X120255250Y-75900000D01*
X120236330Y-75756291D01*
X120180861Y-75622375D01*
X120092621Y-75507379D01*
X119977625Y-75419139D01*
X119931419Y-75400000D01*
X119843708Y-75363669D01*
X119700000Y-75344750D01*
X119556291Y-75363669D01*
X119422376Y-75419138D01*
X119307379Y-75507379D01*
X119219138Y-75622376D01*
X119163669Y-75756291D01*
X119144750Y-75900000D01*
X115792303Y-75900000D01*
X115836330Y-75793709D01*
X115855250Y-75650000D01*
X115836330Y-75506291D01*
X115780861Y-75372375D01*
X115692621Y-75257379D01*
X115577625Y-75169139D01*
X115546607Y-75156291D01*
X115443708Y-75113669D01*
X115300000Y-75094750D01*
X115156291Y-75113669D01*
X115022376Y-75169138D01*
X114907379Y-75257379D01*
X114819138Y-75372376D01*
X114763669Y-75506291D01*
X114744750Y-75650000D01*
X100000000Y-75650000D01*
X100000000Y-74800000D01*
X116648884Y-74800000D01*
X116667803Y-74943708D01*
X116714005Y-75055250D01*
X116723273Y-75077625D01*
X116811513Y-75192621D01*
X116926509Y-75280861D01*
X117060425Y-75336330D01*
X117204134Y-75355250D01*
X117347843Y-75336330D01*
X117435553Y-75300000D01*
X120694750Y-75300000D01*
X120713669Y-75443708D01*
X120769138Y-75577623D01*
X120769139Y-75577625D01*
X120857379Y-75692621D01*
X120972375Y-75780861D01*
X121106291Y-75836330D01*
X121250000Y-75855250D01*
X121393709Y-75836330D01*
X121527625Y-75780861D01*
X121642621Y-75692621D01*
X121730861Y-75577625D01*
X121786330Y-75443709D01*
X121792085Y-75400000D01*
X129944750Y-75400000D01*
X129963669Y-75543708D01*
X130019138Y-75677623D01*
X130019139Y-75677625D01*
X130107379Y-75792621D01*
X130222375Y-75880861D01*
X130356291Y-75936330D01*
X130500000Y-75955250D01*
X130643709Y-75936330D01*
X130777625Y-75880861D01*
X130892621Y-75792621D01*
X130980861Y-75677625D01*
X131036330Y-75543709D01*
X131055250Y-75400000D01*
X131036330Y-75256291D01*
X130980861Y-75122375D01*
X130892621Y-75007379D01*
X130777625Y-74919139D01*
X130777623Y-74919138D01*
X130643708Y-74863669D01*
X130500000Y-74844750D01*
X130356291Y-74863669D01*
X130222376Y-74919138D01*
X130107379Y-75007379D01*
X130019138Y-75122376D01*
X129963669Y-75256291D01*
X129944750Y-75400000D01*
X121792085Y-75400000D01*
X121805250Y-75300000D01*
X121786330Y-75156291D01*
X121730861Y-75022375D01*
X121642621Y-74907379D01*
X121527625Y-74819139D01*
X121481419Y-74800000D01*
X121393708Y-74763669D01*
X121250000Y-74744750D01*
X121106291Y-74763669D01*
X120972376Y-74819138D01*
X120857379Y-74907379D01*
X120769138Y-75022376D01*
X120713669Y-75156291D01*
X120694750Y-75300000D01*
X117435553Y-75300000D01*
X117481759Y-75280861D01*
X117596755Y-75192621D01*
X117684995Y-75077625D01*
X117740464Y-74943709D01*
X117759384Y-74800000D01*
X117740464Y-74656291D01*
X117684995Y-74522375D01*
X117667826Y-74500000D01*
X118994750Y-74500000D01*
X119013669Y-74643708D01*
X119055522Y-74744750D01*
X119069139Y-74777625D01*
X119157379Y-74892621D01*
X119272375Y-74980861D01*
X119406291Y-75036330D01*
X119550000Y-75055250D01*
X119693709Y-75036330D01*
X119827625Y-74980861D01*
X119942621Y-74892621D01*
X120030861Y-74777625D01*
X120086330Y-74643709D01*
X120105250Y-74500000D01*
X120086330Y-74356291D01*
X120030861Y-74222375D01*
X119942621Y-74107379D01*
X119867844Y-74050000D01*
X130844750Y-74050000D01*
X130863669Y-74193708D01*
X130915624Y-74319139D01*
X130919139Y-74327625D01*
X131007379Y-74442621D01*
X131122375Y-74530861D01*
X131256291Y-74586330D01*
X131400000Y-74605250D01*
X131543709Y-74586330D01*
X131677625Y-74530861D01*
X131792621Y-74442621D01*
X131880861Y-74327625D01*
X131936330Y-74193709D01*
X131955250Y-74050000D01*
X131936330Y-73906291D01*
X131880861Y-73772375D01*
X131792621Y-73657379D01*
X131677625Y-73569139D01*
X131677623Y-73569138D01*
X131543708Y-73513669D01*
X131400000Y-73494750D01*
X131256291Y-73513669D01*
X131122376Y-73569138D01*
X131007379Y-73657379D01*
X130919138Y-73772376D01*
X130863669Y-73906291D01*
X130844750Y-74050000D01*
X119867844Y-74050000D01*
X119827625Y-74019139D01*
X119827623Y-74019138D01*
X119693708Y-73963669D01*
X119550000Y-73944750D01*
X119406291Y-73963669D01*
X119272376Y-74019138D01*
X119157379Y-74107379D01*
X119069138Y-74222376D01*
X119013669Y-74356291D01*
X118994750Y-74500000D01*
X117667826Y-74500000D01*
X117596755Y-74407379D01*
X117481759Y-74319139D01*
X117481757Y-74319138D01*
X117347842Y-74263669D01*
X117204134Y-74244750D01*
X117060425Y-74263669D01*
X116926510Y-74319138D01*
X116811513Y-74407379D01*
X116723272Y-74522376D01*
X116667803Y-74656291D01*
X116648884Y-74800000D01*
X100000000Y-74800000D01*
X100000000Y-72750000D01*
X129944750Y-72750000D01*
X129963669Y-72893708D01*
X130019138Y-73027623D01*
X130019139Y-73027625D01*
X130107379Y-73142621D01*
X130222375Y-73230861D01*
X130356291Y-73286330D01*
X130500000Y-73305250D01*
X130643709Y-73286330D01*
X130777625Y-73230861D01*
X130892621Y-73142621D01*
X130980861Y-73027625D01*
X131036330Y-72893709D01*
X131055250Y-72750000D01*
X131036330Y-72606291D01*
X130980861Y-72472375D01*
X130892621Y-72357379D01*
X130777625Y-72269139D01*
X130777623Y-72269138D01*
X130643708Y-72213669D01*
X130500000Y-72194750D01*
X130356291Y-72213669D01*
X130222376Y-72269138D01*
X130107379Y-72357379D01*
X130019138Y-72472376D01*
X129963669Y-72606291D01*
X129944750Y-72750000D01*
X100000000Y-72750000D01*
X100000000Y-71450000D01*
X130844750Y-71450000D01*
X130863669Y-71593708D01*
X130919138Y-71727623D01*
X130919139Y-71727625D01*
X131007379Y-71842621D01*
X131122375Y-71930861D01*
X131256291Y-71986330D01*
X131400000Y-72005250D01*
X131543709Y-71986330D01*
X131677625Y-71930861D01*
X131792621Y-71842621D01*
X131880861Y-71727625D01*
X131936330Y-71593709D01*
X131955250Y-71450000D01*
X131936330Y-71306291D01*
X131880861Y-71172375D01*
X131792621Y-71057379D01*
X131677625Y-70969139D01*
X131677623Y-70969138D01*
X131543708Y-70913669D01*
X131400000Y-70894750D01*
X131256291Y-70913669D01*
X131122376Y-70969138D01*
X131007379Y-71057379D01*
X130919138Y-71172376D01*
X130863669Y-71306291D01*
X130844750Y-71450000D01*
X100000000Y-71450000D01*
X100000000Y-70250000D01*
X129944750Y-70250000D01*
X129963669Y-70393708D01*
X130019138Y-70527623D01*
X130019139Y-70527625D01*
X130107379Y-70642621D01*
X130222375Y-70730861D01*
X130356291Y-70786330D01*
X130500000Y-70805250D01*
X130643709Y-70786330D01*
X130777625Y-70730861D01*
X130892621Y-70642621D01*
X130980861Y-70527625D01*
X131036330Y-70393709D01*
X131055250Y-70250000D01*
X131036330Y-70106291D01*
X130980861Y-69972375D01*
X130892621Y-69857379D01*
X130777625Y-69769139D01*
X130777623Y-69769138D01*
X130643708Y-69713669D01*
X130500000Y-69694750D01*
X130356291Y-69713669D01*
X130222376Y-69769138D01*
X130107379Y-69857379D01*
X130019138Y-69972376D01*
X129963669Y-70106291D01*
X129944750Y-70250000D01*
X100000000Y-70250000D01*
X100000000Y-69450000D01*
X151144901Y-69450000D01*
X151163253Y-69636332D01*
X151217605Y-69815505D01*
X151305859Y-69980617D01*
X151305862Y-69980622D01*
X151305864Y-69980625D01*
X151424643Y-70125357D01*
X151569375Y-70244136D01*
X151569380Y-70244138D01*
X151569382Y-70244140D01*
X151734494Y-70332394D01*
X151734496Y-70332394D01*
X151734499Y-70332396D01*
X151913669Y-70386747D01*
X152100000Y-70405099D01*
X152286331Y-70386747D01*
X152465501Y-70332396D01*
X152630625Y-70244136D01*
X152775357Y-70125357D01*
X152894136Y-69980625D01*
X152982396Y-69815501D01*
X153036747Y-69636331D01*
X153055099Y-69450000D01*
X153036747Y-69263669D01*
X152982396Y-69084499D01*
X152982394Y-69084496D01*
X152982394Y-69084494D01*
X152894140Y-68919382D01*
X152894138Y-68919380D01*
X152894136Y-68919375D01*
X152775357Y-68774643D01*
X152630625Y-68655864D01*
X152630622Y-68655862D01*
X152630617Y-68655859D01*
X152465505Y-68567605D01*
X152286332Y-68513253D01*
X152100000Y-68494901D01*
X151913667Y-68513253D01*
X151734494Y-68567605D01*
X151569382Y-68655859D01*
X151569373Y-68655865D01*
X151424643Y-68774643D01*
X151305865Y-68919373D01*
X151305859Y-68919382D01*
X151217605Y-69084494D01*
X151163253Y-69263667D01*
X151144901Y-69450000D01*
X100000000Y-69450000D01*
X100000000Y-63050000D01*
X146944901Y-63050000D01*
X146963253Y-63236332D01*
X147017605Y-63415505D01*
X147105859Y-63580617D01*
X147105862Y-63580622D01*
X147105864Y-63580625D01*
X147224643Y-63725357D01*
X147369375Y-63844136D01*
X147369380Y-63844138D01*
X147369382Y-63844140D01*
X147534494Y-63932394D01*
X147534496Y-63932394D01*
X147534499Y-63932396D01*
X147713669Y-63986747D01*
X147900000Y-64005099D01*
X148086331Y-63986747D01*
X148265501Y-63932396D01*
X148430625Y-63844136D01*
X148575357Y-63725357D01*
X148694136Y-63580625D01*
X148782396Y-63415501D01*
X148836747Y-63236331D01*
X148855099Y-63050000D01*
X148836747Y-62863669D01*
X148782396Y-62684499D01*
X148782394Y-62684496D01*
X148782394Y-62684494D01*
X148694140Y-62519382D01*
X148694138Y-62519380D01*
X148694136Y-62519375D01*
X148575357Y-62374643D01*
X148430625Y-62255864D01*
X148430622Y-62255862D01*
X148430617Y-62255859D01*
X148265505Y-62167605D01*
X148086332Y-62113253D01*
X147900000Y-62094901D01*
X147713667Y-62113253D01*
X147534494Y-62167605D01*
X147369382Y-62255859D01*
X147369373Y-62255865D01*
X147224643Y-62374643D01*
X147105865Y-62519373D01*
X147105859Y-62519382D01*
X147017605Y-62684494D01*
X146963253Y-62863667D01*
X146944901Y-63050000D01*
X100000000Y-63050000D01*
X100000000Y-61874000D01*
X100021674Y-61821674D01*
X100074000Y-61800000D01*
X165225500Y-61800000D01*
X165277826Y-61821674D01*
G37*
%TD.AperFunction*%
%TD*%
M02*
