%TF.GenerationSoftware,KiCad,Pcbnew,8.0.6-1.fc40*%
%TF.CreationDate,2024-12-16T09:47:34-08:00*%
%TF.ProjectId,energy_meter,656e6572-6779-45f6-9d65-7465722e6b69,0*%
%TF.SameCoordinates,Original*%
%TF.FileFunction,Legend,Bot*%
%TF.FilePolarity,Positive*%
%FSLAX46Y46*%
G04 Gerber Fmt 4.6, Leading zero omitted, Abs format (unit mm)*
G04 Created by KiCad (PCBNEW 8.0.6-1.fc40) date 2024-12-16 09:47:34*
%MOMM*%
%LPD*%
G01*
G04 APERTURE LIST*
G04 Aperture macros list*
%AMRoundRect*
0 Rectangle with rounded corners*
0 $1 Rounding radius*
0 $2 $3 $4 $5 $6 $7 $8 $9 X,Y pos of 4 corners*
0 Add a 4 corners polygon primitive as box body*
4,1,4,$2,$3,$4,$5,$6,$7,$8,$9,$2,$3,0*
0 Add four circle primitives for the rounded corners*
1,1,$1+$1,$2,$3*
1,1,$1+$1,$4,$5*
1,1,$1+$1,$6,$7*
1,1,$1+$1,$8,$9*
0 Add four rect primitives between the rounded corners*
20,1,$1+$1,$2,$3,$4,$5,0*
20,1,$1+$1,$4,$5,$6,$7,0*
20,1,$1+$1,$6,$7,$8,$9,0*
20,1,$1+$1,$8,$9,$2,$3,0*%
G04 Aperture macros list end*
%ADD10C,0.153000*%
%ADD11C,0.100000*%
%ADD12RoundRect,0.250000X0.250000X-0.250000X0.250000X0.250000X-0.250000X0.250000X-0.250000X-0.250000X0*%
%ADD13C,1.000000*%
%ADD14RoundRect,0.375000X-0.375000X0.375000X-0.375000X-0.375000X0.375000X-0.375000X0.375000X0.375000X0*%
%ADD15C,1.500000*%
%ADD16C,1.400000*%
%ADD17RoundRect,0.450000X-0.450000X-0.550000X0.450000X-0.550000X0.450000X0.550000X-0.450000X0.550000X0*%
%ADD18C,1.800000*%
%ADD19C,2.500000*%
G04 APERTURE END LIST*
D10*
X162200000Y-94258401D02*
X161800000Y-94258401D01*
X162000000Y-95158401D02*
X162000000Y-94258401D01*
X161633334Y-94258401D02*
X161200000Y-94258401D01*
X161200000Y-94258401D02*
X161433334Y-94601258D01*
X161433334Y-94601258D02*
X161333334Y-94601258D01*
X161333334Y-94601258D02*
X161266667Y-94644115D01*
X161266667Y-94644115D02*
X161233334Y-94686972D01*
X161233334Y-94686972D02*
X161200000Y-94772686D01*
X161200000Y-94772686D02*
X161200000Y-94986972D01*
X161200000Y-94986972D02*
X161233334Y-95072686D01*
X161233334Y-95072686D02*
X161266667Y-95115544D01*
X161266667Y-95115544D02*
X161333334Y-95158401D01*
X161333334Y-95158401D02*
X161533334Y-95158401D01*
X161533334Y-95158401D02*
X161600000Y-95115544D01*
X161600000Y-95115544D02*
X161633334Y-95072686D01*
X160766667Y-94258401D02*
X160700000Y-94258401D01*
X160700000Y-94258401D02*
X160633333Y-94301258D01*
X160633333Y-94301258D02*
X160600000Y-94344115D01*
X160600000Y-94344115D02*
X160566667Y-94429829D01*
X160566667Y-94429829D02*
X160533333Y-94601258D01*
X160533333Y-94601258D02*
X160533333Y-94815544D01*
X160533333Y-94815544D02*
X160566667Y-94986972D01*
X160566667Y-94986972D02*
X160600000Y-95072686D01*
X160600000Y-95072686D02*
X160633333Y-95115544D01*
X160633333Y-95115544D02*
X160700000Y-95158401D01*
X160700000Y-95158401D02*
X160766667Y-95158401D01*
X160766667Y-95158401D02*
X160833333Y-95115544D01*
X160833333Y-95115544D02*
X160866667Y-95072686D01*
X160866667Y-95072686D02*
X160900000Y-94986972D01*
X160900000Y-94986972D02*
X160933333Y-94815544D01*
X160933333Y-94815544D02*
X160933333Y-94601258D01*
X160933333Y-94601258D02*
X160900000Y-94429829D01*
X160900000Y-94429829D02*
X160866667Y-94344115D01*
X160866667Y-94344115D02*
X160833333Y-94301258D01*
X160833333Y-94301258D02*
X160766667Y-94258401D01*
X159866666Y-95158401D02*
X160266666Y-95158401D01*
X160066666Y-95158401D02*
X160066666Y-94258401D01*
X160066666Y-94258401D02*
X160133333Y-94386972D01*
X160133333Y-94386972D02*
X160200000Y-94472686D01*
X160200000Y-94472686D02*
X160266666Y-94515544D01*
X154241598Y-67308333D02*
X154670170Y-67541666D01*
X154241598Y-67708333D02*
X155141598Y-67708333D01*
X155141598Y-67708333D02*
X155141598Y-67441666D01*
X155141598Y-67441666D02*
X155098741Y-67375000D01*
X155098741Y-67375000D02*
X155055884Y-67341666D01*
X155055884Y-67341666D02*
X154970170Y-67308333D01*
X154970170Y-67308333D02*
X154841598Y-67308333D01*
X154841598Y-67308333D02*
X154755884Y-67341666D01*
X154755884Y-67341666D02*
X154713027Y-67375000D01*
X154713027Y-67375000D02*
X154670170Y-67441666D01*
X154670170Y-67441666D02*
X154670170Y-67708333D01*
X155141598Y-67075000D02*
X155141598Y-66641666D01*
X155141598Y-66641666D02*
X154798741Y-66875000D01*
X154798741Y-66875000D02*
X154798741Y-66775000D01*
X154798741Y-66775000D02*
X154755884Y-66708333D01*
X154755884Y-66708333D02*
X154713027Y-66675000D01*
X154713027Y-66675000D02*
X154627313Y-66641666D01*
X154627313Y-66641666D02*
X154413027Y-66641666D01*
X154413027Y-66641666D02*
X154327313Y-66675000D01*
X154327313Y-66675000D02*
X154284456Y-66708333D01*
X154284456Y-66708333D02*
X154241598Y-66775000D01*
X154241598Y-66775000D02*
X154241598Y-66975000D01*
X154241598Y-66975000D02*
X154284456Y-67041666D01*
X154284456Y-67041666D02*
X154327313Y-67075000D01*
X155141598Y-66208333D02*
X155141598Y-66141666D01*
X155141598Y-66141666D02*
X155098741Y-66074999D01*
X155098741Y-66074999D02*
X155055884Y-66041666D01*
X155055884Y-66041666D02*
X154970170Y-66008333D01*
X154970170Y-66008333D02*
X154798741Y-65974999D01*
X154798741Y-65974999D02*
X154584456Y-65974999D01*
X154584456Y-65974999D02*
X154413027Y-66008333D01*
X154413027Y-66008333D02*
X154327313Y-66041666D01*
X154327313Y-66041666D02*
X154284456Y-66074999D01*
X154284456Y-66074999D02*
X154241598Y-66141666D01*
X154241598Y-66141666D02*
X154241598Y-66208333D01*
X154241598Y-66208333D02*
X154284456Y-66274999D01*
X154284456Y-66274999D02*
X154327313Y-66308333D01*
X154327313Y-66308333D02*
X154413027Y-66341666D01*
X154413027Y-66341666D02*
X154584456Y-66374999D01*
X154584456Y-66374999D02*
X154798741Y-66374999D01*
X154798741Y-66374999D02*
X154970170Y-66341666D01*
X154970170Y-66341666D02*
X155055884Y-66308333D01*
X155055884Y-66308333D02*
X155098741Y-66274999D01*
X155098741Y-66274999D02*
X155141598Y-66208333D01*
X155141598Y-65374999D02*
X155141598Y-65508332D01*
X155141598Y-65508332D02*
X155098741Y-65574999D01*
X155098741Y-65574999D02*
X155055884Y-65608332D01*
X155055884Y-65608332D02*
X154927313Y-65674999D01*
X154927313Y-65674999D02*
X154755884Y-65708332D01*
X154755884Y-65708332D02*
X154413027Y-65708332D01*
X154413027Y-65708332D02*
X154327313Y-65674999D01*
X154327313Y-65674999D02*
X154284456Y-65641666D01*
X154284456Y-65641666D02*
X154241598Y-65574999D01*
X154241598Y-65574999D02*
X154241598Y-65441666D01*
X154241598Y-65441666D02*
X154284456Y-65374999D01*
X154284456Y-65374999D02*
X154327313Y-65341666D01*
X154327313Y-65341666D02*
X154413027Y-65308332D01*
X154413027Y-65308332D02*
X154627313Y-65308332D01*
X154627313Y-65308332D02*
X154713027Y-65341666D01*
X154713027Y-65341666D02*
X154755884Y-65374999D01*
X154755884Y-65374999D02*
X154798741Y-65441666D01*
X154798741Y-65441666D02*
X154798741Y-65574999D01*
X154798741Y-65574999D02*
X154755884Y-65641666D01*
X154755884Y-65641666D02*
X154713027Y-65674999D01*
X154713027Y-65674999D02*
X154627313Y-65708332D01*
X132383333Y-50608401D02*
X132616666Y-50179829D01*
X132783333Y-50608401D02*
X132783333Y-49708401D01*
X132783333Y-49708401D02*
X132516666Y-49708401D01*
X132516666Y-49708401D02*
X132450000Y-49751258D01*
X132450000Y-49751258D02*
X132416666Y-49794115D01*
X132416666Y-49794115D02*
X132383333Y-49879829D01*
X132383333Y-49879829D02*
X132383333Y-50008401D01*
X132383333Y-50008401D02*
X132416666Y-50094115D01*
X132416666Y-50094115D02*
X132450000Y-50136972D01*
X132450000Y-50136972D02*
X132516666Y-50179829D01*
X132516666Y-50179829D02*
X132783333Y-50179829D01*
X132116666Y-49794115D02*
X132083333Y-49751258D01*
X132083333Y-49751258D02*
X132016666Y-49708401D01*
X132016666Y-49708401D02*
X131850000Y-49708401D01*
X131850000Y-49708401D02*
X131783333Y-49751258D01*
X131783333Y-49751258D02*
X131750000Y-49794115D01*
X131750000Y-49794115D02*
X131716666Y-49879829D01*
X131716666Y-49879829D02*
X131716666Y-49965544D01*
X131716666Y-49965544D02*
X131750000Y-50094115D01*
X131750000Y-50094115D02*
X132150000Y-50608401D01*
X132150000Y-50608401D02*
X131716666Y-50608401D01*
X131283333Y-49708401D02*
X131216666Y-49708401D01*
X131216666Y-49708401D02*
X131149999Y-49751258D01*
X131149999Y-49751258D02*
X131116666Y-49794115D01*
X131116666Y-49794115D02*
X131083333Y-49879829D01*
X131083333Y-49879829D02*
X131049999Y-50051258D01*
X131049999Y-50051258D02*
X131049999Y-50265544D01*
X131049999Y-50265544D02*
X131083333Y-50436972D01*
X131083333Y-50436972D02*
X131116666Y-50522686D01*
X131116666Y-50522686D02*
X131149999Y-50565544D01*
X131149999Y-50565544D02*
X131216666Y-50608401D01*
X131216666Y-50608401D02*
X131283333Y-50608401D01*
X131283333Y-50608401D02*
X131349999Y-50565544D01*
X131349999Y-50565544D02*
X131383333Y-50522686D01*
X131383333Y-50522686D02*
X131416666Y-50436972D01*
X131416666Y-50436972D02*
X131449999Y-50265544D01*
X131449999Y-50265544D02*
X131449999Y-50051258D01*
X131449999Y-50051258D02*
X131416666Y-49879829D01*
X131416666Y-49879829D02*
X131383333Y-49794115D01*
X131383333Y-49794115D02*
X131349999Y-49751258D01*
X131349999Y-49751258D02*
X131283333Y-49708401D01*
X130783332Y-49794115D02*
X130749999Y-49751258D01*
X130749999Y-49751258D02*
X130683332Y-49708401D01*
X130683332Y-49708401D02*
X130516666Y-49708401D01*
X130516666Y-49708401D02*
X130449999Y-49751258D01*
X130449999Y-49751258D02*
X130416666Y-49794115D01*
X130416666Y-49794115D02*
X130383332Y-49879829D01*
X130383332Y-49879829D02*
X130383332Y-49965544D01*
X130383332Y-49965544D02*
X130416666Y-50094115D01*
X130416666Y-50094115D02*
X130816666Y-50608401D01*
X130816666Y-50608401D02*
X130383332Y-50608401D01*
X145141598Y-60708333D02*
X145570170Y-60941666D01*
X145141598Y-61108333D02*
X146041598Y-61108333D01*
X146041598Y-61108333D02*
X146041598Y-60841666D01*
X146041598Y-60841666D02*
X145998741Y-60775000D01*
X145998741Y-60775000D02*
X145955884Y-60741666D01*
X145955884Y-60741666D02*
X145870170Y-60708333D01*
X145870170Y-60708333D02*
X145741598Y-60708333D01*
X145741598Y-60708333D02*
X145655884Y-60741666D01*
X145655884Y-60741666D02*
X145613027Y-60775000D01*
X145613027Y-60775000D02*
X145570170Y-60841666D01*
X145570170Y-60841666D02*
X145570170Y-61108333D01*
X146041598Y-60475000D02*
X146041598Y-60041666D01*
X146041598Y-60041666D02*
X145698741Y-60275000D01*
X145698741Y-60275000D02*
X145698741Y-60175000D01*
X145698741Y-60175000D02*
X145655884Y-60108333D01*
X145655884Y-60108333D02*
X145613027Y-60075000D01*
X145613027Y-60075000D02*
X145527313Y-60041666D01*
X145527313Y-60041666D02*
X145313027Y-60041666D01*
X145313027Y-60041666D02*
X145227313Y-60075000D01*
X145227313Y-60075000D02*
X145184456Y-60108333D01*
X145184456Y-60108333D02*
X145141598Y-60175000D01*
X145141598Y-60175000D02*
X145141598Y-60375000D01*
X145141598Y-60375000D02*
X145184456Y-60441666D01*
X145184456Y-60441666D02*
X145227313Y-60475000D01*
X146041598Y-59608333D02*
X146041598Y-59541666D01*
X146041598Y-59541666D02*
X145998741Y-59474999D01*
X145998741Y-59474999D02*
X145955884Y-59441666D01*
X145955884Y-59441666D02*
X145870170Y-59408333D01*
X145870170Y-59408333D02*
X145698741Y-59374999D01*
X145698741Y-59374999D02*
X145484456Y-59374999D01*
X145484456Y-59374999D02*
X145313027Y-59408333D01*
X145313027Y-59408333D02*
X145227313Y-59441666D01*
X145227313Y-59441666D02*
X145184456Y-59474999D01*
X145184456Y-59474999D02*
X145141598Y-59541666D01*
X145141598Y-59541666D02*
X145141598Y-59608333D01*
X145141598Y-59608333D02*
X145184456Y-59674999D01*
X145184456Y-59674999D02*
X145227313Y-59708333D01*
X145227313Y-59708333D02*
X145313027Y-59741666D01*
X145313027Y-59741666D02*
X145484456Y-59774999D01*
X145484456Y-59774999D02*
X145698741Y-59774999D01*
X145698741Y-59774999D02*
X145870170Y-59741666D01*
X145870170Y-59741666D02*
X145955884Y-59708333D01*
X145955884Y-59708333D02*
X145998741Y-59674999D01*
X145998741Y-59674999D02*
X146041598Y-59608333D01*
X146041598Y-58741666D02*
X146041598Y-59074999D01*
X146041598Y-59074999D02*
X145613027Y-59108332D01*
X145613027Y-59108332D02*
X145655884Y-59074999D01*
X145655884Y-59074999D02*
X145698741Y-59008332D01*
X145698741Y-59008332D02*
X145698741Y-58841666D01*
X145698741Y-58841666D02*
X145655884Y-58774999D01*
X145655884Y-58774999D02*
X145613027Y-58741666D01*
X145613027Y-58741666D02*
X145527313Y-58708332D01*
X145527313Y-58708332D02*
X145313027Y-58708332D01*
X145313027Y-58708332D02*
X145227313Y-58741666D01*
X145227313Y-58741666D02*
X145184456Y-58774999D01*
X145184456Y-58774999D02*
X145141598Y-58841666D01*
X145141598Y-58841666D02*
X145141598Y-59008332D01*
X145141598Y-59008332D02*
X145184456Y-59074999D01*
X145184456Y-59074999D02*
X145227313Y-59108332D01*
%TO.C,T301*%
D11*
X163000000Y-95500000D02*
X117000000Y-95500000D01*
X117000000Y-111500000D01*
X163000000Y-111500000D01*
X163000000Y-95500000D01*
%TO.C,R306*%
X150450000Y-58700000D02*
X153750000Y-58700000D01*
X153750000Y-67700000D01*
X150450000Y-67700000D01*
X150450000Y-58700000D01*
%TO.C,R202*%
X132700000Y-44400000D02*
X117700000Y-44400000D01*
X117700000Y-49400000D01*
X132700000Y-49400000D01*
X132700000Y-44400000D01*
%TO.C,R305*%
X146250000Y-52300000D02*
X149550000Y-52300000D01*
X149550000Y-61300000D01*
X146250000Y-61300000D01*
X146250000Y-52300000D01*
%TD*%
%LPC*%
D12*
%TO.C,J401*%
X126500000Y-84980000D03*
D13*
X125230000Y-84980000D03*
X126500000Y-83710000D03*
X125230000Y-83710000D03*
X126500000Y-82440000D03*
X125230000Y-82440000D03*
X126500000Y-81170000D03*
X125230000Y-81170000D03*
X126500000Y-79900000D03*
X125230000Y-79900000D03*
%TD*%
D14*
%TO.C,C208*%
X160700000Y-79250000D03*
D15*
X160700000Y-81750000D03*
%TD*%
D16*
%TO.C,C203*%
X117950000Y-56300000D03*
X140450000Y-56300000D03*
%TD*%
D17*
%TO.C,J501*%
X132320000Y-89300000D03*
D18*
X134860000Y-89300000D03*
X137400000Y-89300000D03*
X139940000Y-89300000D03*
X142480000Y-89300000D03*
X145020000Y-89300000D03*
X147560000Y-89300000D03*
X150100000Y-89300000D03*
X152640000Y-89300000D03*
X155180000Y-89300000D03*
X157720000Y-89300000D03*
X160260000Y-89300000D03*
X162800000Y-89300000D03*
%TD*%
D14*
%TO.C,C207*%
X152300000Y-79550000D03*
D15*
X152300000Y-82050000D03*
%TD*%
D19*
%TO.C,T301*%
X140000000Y-108580000D03*
X157780000Y-98420000D03*
X122220000Y-98420000D03*
%TD*%
D15*
%TO.C,R306*%
X152100000Y-56950000D03*
X152100000Y-69450000D03*
%TD*%
D18*
%TO.C,R202*%
X135200000Y-46900000D03*
X115200000Y-46900000D03*
%TD*%
D15*
%TO.C,R305*%
X147900000Y-50550000D03*
X147900000Y-63050000D03*
%TD*%
%LPD*%
M02*
