M48
; DRILL file {KiCad 8.0.6-1.fc40} date 2024-12-16T09:47:12-0800
; FORMAT={-:-/ absolute / inch / decimal}
; #@! TF.CreationDate,2024-12-16T09:47:12-08:00
; #@! TF.GenerationSoftware,Kicad,Pcbnew,8.0.6-1.fc40
; #@! TF.FileFunction,Plated,1,4,PTH
FMAT,2
INCH
; #@! TA.AperFunction,Plated,PTH,ComponentDrill
T1C0.0079
; #@! TA.AperFunction,Plated,PTH,ViaDrill
T2C0.0118
; #@! TA.AperFunction,Plated,PTH,ComponentDrill
T3C0.0236
; #@! TA.AperFunction,Plated,PTH,ComponentDrill
T4C0.0315
; #@! TA.AperFunction,Plated,PTH,ComponentDrill
T5C0.0374
; #@! TA.AperFunction,Plated,PTH,ComponentDrill
T6C0.0409
; #@! TA.AperFunction,Plated,PTH,ComponentDrill
T7C0.0433
; #@! TA.AperFunction,Plated,PTH,ComponentDrill
T8C0.0591
%
G90
G05
T1
X2.9921Y-2.3661
X2.9921Y-2.7008
X2.9921Y-3.0591
X3.189Y-2.3661
X3.189Y-2.7008
X3.189Y-3.0709
X3.189Y-3.4409
X3.189Y-3.7756
X3.3858Y-2.3661
X3.3858Y-2.7008
X3.3858Y-3.0709
X3.3858Y-3.4409
X3.3858Y-3.7756
X3.5827Y-2.3661
X3.5827Y-2.7008
X3.5827Y-3.0709
X3.7244Y-3.0709
X3.8504Y-3.0709
T2
X3.9567Y-2.9488
X3.9665Y-3.1201
X4.0039Y-3.9193
X4.0157Y-2.9449
X4.0197Y-3.5157
X4.0354Y-3.1201
X4.065Y-3.0217
X4.0846Y-3.248
X4.0945Y-3.1201
X4.1043Y-3.0217
X4.1437Y-3.0217
X4.1634Y-3.1201
X4.1885Y-3.3176
X4.189Y-2.9449
X4.2067Y-3.9213
X4.2244Y-3.5118
X4.2323Y-3.0217
X4.2323Y-3.1201
X4.2618Y-3.002
X4.2913Y-3.1496
X4.2913Y-3.3268
X4.2913Y-3.7677
X4.311Y-2.9921
X4.311Y-3.2087
X4.313Y-3.6043
X4.3209Y-3.6516
X4.3307Y-3.8307
X4.3406Y-3.7795
X4.3583Y-2.8268
X4.3583Y-3.2244
X4.3622Y-3.5906
X4.376Y-3.4626
X4.3819Y-3.4134
X4.3898Y-3.6319
X4.3957Y-3.5492
X4.3957Y-3.685
X4.4094Y-2.9921
X4.4094Y-3.2185
X4.4094Y-3.3425
X4.4173Y-3.1496
X4.439Y-2.9921
X4.4449Y-3.5394
X4.4685Y-2.9331
X4.4685Y-3.2382
X4.4685Y-3.3858
X4.4724Y-3.8071
X4.4882Y-3.311
X4.4902Y-3.1811
X4.498Y-3.6339
X4.5Y-3.874
X4.5039Y-2.7402
X4.5118Y-2.9134
X4.5236Y-3.3858
X4.5236Y-3.748
X4.5354Y-3.1496
X4.5354Y-3.2717
X4.5394Y-2.9783
X4.5394Y-3.5925
X4.5394Y-3.6339
X4.5394Y-3.6752
X4.5551Y-3.874
X4.5669Y-2.7205
X4.5739Y-3.5109
X4.5787Y-3.3858
X4.5807Y-3.6339
X4.5827Y-3.1811
X4.5906Y-3.3189
X4.5976Y-3.4872
X4.5984Y-3.0807
X4.5984Y-3.7835
X4.6142Y-2.8819
X4.6143Y-2.9449
X4.622Y-3.8327
X4.6339Y-3.3858
X4.6358Y-3.0433
X4.6358Y-3.0807
X4.6358Y-3.1181
X4.6417Y-3.2992
X4.6457Y-3.9094
X4.6528Y-3.6974
X4.6614Y-2.8543
X4.6654Y-3.7638
X4.6732Y-3.0807
X4.6772Y-3.189
X4.6811Y-3.2382
X4.685Y-3.2717
X4.689Y-3.6339
X4.6969Y-3.7835
X4.7008Y-3.4134
X4.7028Y-3.6654
X4.7028Y-3.7224
X4.7067Y-2.9331
X4.7126Y-2.9882
X4.7126Y-3.252
X4.7165Y-3.1772
X4.7244Y-2.8386
X4.7283Y-3.3976
X4.7283Y-3.8701
X4.7402Y-3.2717
X4.7441Y-3.5591
X4.7441Y-3.937
X4.748Y-3.8268
X4.7717Y-3.0394
X4.7736Y-2.9646
X4.7795Y-3.1102
X4.7795Y-3.1969
X4.7795Y-3.3504
X4.7795Y-3.4567
X4.7953Y-3.5827
X4.813Y-3.9843
X4.815Y-3.1535
X4.815Y-3.3504
X4.8228Y-3.4567
X4.8228Y-3.6732
X4.8268Y-3.5315
X4.8268Y-3.7244
X4.8346Y-3.6024
X4.8386Y-2.9961
X4.8386Y-3.063
X4.8386Y-3.4961
X4.8386Y-3.7756
X4.874Y-3.8307
X4.8858Y-3.748
X4.9016Y-3.8937
X4.9134Y-3.5236
X4.9291Y-3.7441
X4.937Y-3.8307
X4.9409Y-3.6063
X4.9469Y-3.998
X4.9567Y-3.4764
X5.0236Y-2.7283
X5.0276Y-2.8504
X5.0276Y-3.0118
X5.0276Y-3.1811
X5.0276Y-3.3583
X5.0315Y-3.5157
X5.0354Y-3.8976
X5.0512Y-3.7441
X5.0591Y-3.815
X5.0945Y-2.6457
X5.0945Y-2.7795
X5.0945Y-2.9252
X5.0945Y-3.0748
X5.0945Y-3.4094
X5.0984Y-3.2323
X5.1024Y-3.9961
X5.1339Y-2.7165
X5.1358Y-3.0728
X5.1358Y-3.1909
X5.1378Y-2.7657
X5.1378Y-2.8642
X5.1378Y-2.9685
X5.1378Y-3.313
X5.1654Y-3.7441
X5.1713Y-3.0236
X5.1713Y-3.1299
X5.1713Y-3.252
X5.1732Y-2.813
X5.1732Y-2.9154
X5.1732Y-3.372
X5.1732Y-3.815
X5.1772Y-3.8976
X5.2205Y-2.6457
X5.2205Y-2.7205
X5.2638Y-3.9961
X5.2835Y-3.7441
X5.2913Y-3.1457
X5.2913Y-3.815
X5.3071Y-2.6457
X5.3071Y-2.7165
X5.3071Y-3.874
X5.3189Y-3.1181
X5.3189Y-3.1732
X5.3465Y-3.2677
X5.3819Y-3.7402
X5.3976Y-2.6457
X5.3976Y-2.7205
X5.437Y-3.7402
X5.4528Y-3.0965
X5.4803Y-2.6457
X5.4803Y-2.7205
X5.5079Y-3.9921
X5.5669Y-3.7402
X5.5709Y-3.2323
X5.5827Y-2.7244
X5.5866Y-2.6457
X5.6024Y-3.252
X5.6102Y-3.7835
X5.6457Y-3.252
X5.685Y-2.6457
X5.689Y-2.7244
X5.7126Y-3.8189
X5.7165Y-3.9961
X5.7224Y-3.874
X5.7402Y-2.5984
X5.748Y-2.5394
X5.7559Y-2.6654
X5.7677Y-2.4843
X5.7835Y-2.7205
X5.8228Y-2.622
X5.8228Y-3.874
X5.8622Y-2.5276
X5.8661Y-2.6614
X5.8701Y-2.7205
X5.878Y-2.4803
X5.9331Y-2.7402
X5.939Y-3.998
X5.9528Y-2.8228
X5.9646Y-2.5827
X5.9803Y-2.6732
X5.9803Y-3.874
X5.9882Y-2.8701
X5.9921Y-2.6102
X6.0197Y-2.5827
X6.0276Y-2.689
X6.0276Y-2.8189
X6.122Y-3.8661
X6.124Y-3.998
X6.1299Y-2.6496
X6.1693Y-2.6575
X6.2087Y-2.6575
X6.2126Y-3.7874
X6.2697Y-3.9862
X6.3071Y-3.8976
X6.4409Y-2.5079
X6.4409Y-2.5591
X6.4646Y-2.5315
T3
X4.9303Y-3.1457
X4.9303Y-3.1957
X4.9303Y-3.2457
X4.9303Y-3.2957
X4.9303Y-3.3457
X4.9803Y-3.1457
X4.9803Y-3.1957
X4.9803Y-3.2457
X4.9803Y-3.2957
X4.9803Y-3.3457
T4
X5.8228Y-1.9902
X5.8228Y-2.4823
X5.9882Y-2.2421
X5.9882Y-2.7343
X5.9961Y-3.1319
X5.9961Y-3.2303
X6.3268Y-3.1201
X6.3268Y-3.2185
T5
X4.6437Y-2.2165
X5.5295Y-2.2165
T6
X5.2094Y-3.5157
X5.3094Y-3.5157
X5.4094Y-3.5157
X5.5094Y-3.5157
X5.6094Y-3.5157
X5.7094Y-3.5157
X5.8094Y-3.5157
X5.9094Y-3.5157
X6.0094Y-3.5157
X6.1094Y-3.5157
X6.2094Y-3.5157
X6.3094Y-3.5157
X6.4094Y-3.5157
T7
X4.5354Y-1.8465
X5.3228Y-1.8465
T8
X4.8118Y-3.8748
X5.5118Y-4.2748
X6.2118Y-3.8748
M30
