%TF.GenerationSoftware,KiCad,Pcbnew,8.0.6-1.fc40*%
%TF.CreationDate,2024-12-16T09:47:33-08:00*%
%TF.ProjectId,energy_meter,656e6572-6779-45f6-9d65-7465722e6b69,0*%
%TF.SameCoordinates,Original*%
%TF.FileFunction,Copper,L4,Bot*%
%TF.FilePolarity,Positive*%
%FSLAX46Y46*%
G04 Gerber Fmt 4.6, Leading zero omitted, Abs format (unit mm)*
G04 Created by KiCad (PCBNEW 8.0.6-1.fc40) date 2024-12-16 09:47:33*
%MOMM*%
%LPD*%
G01*
G04 APERTURE LIST*
G04 Aperture macros list*
%AMRoundRect*
0 Rectangle with rounded corners*
0 $1 Rounding radius*
0 $2 $3 $4 $5 $6 $7 $8 $9 X,Y pos of 4 corners*
0 Add a 4 corners polygon primitive as box body*
4,1,4,$2,$3,$4,$5,$6,$7,$8,$9,$2,$3,0*
0 Add four circle primitives for the rounded corners*
1,1,$1+$1,$2,$3*
1,1,$1+$1,$4,$5*
1,1,$1+$1,$6,$7*
1,1,$1+$1,$8,$9*
0 Add four rect primitives between the rounded corners*
20,1,$1+$1,$2,$3,$4,$5,0*
20,1,$1+$1,$4,$5,$6,$7,0*
20,1,$1+$1,$6,$7,$8,$9,0*
20,1,$1+$1,$8,$9,$2,$3,0*%
G04 Aperture macros list end*
%TA.AperFunction,ComponentPad*%
%ADD10RoundRect,0.250000X0.250000X-0.250000X0.250000X0.250000X-0.250000X0.250000X-0.250000X-0.250000X0*%
%TD*%
%TA.AperFunction,ComponentPad*%
%ADD11C,1.000000*%
%TD*%
%TA.AperFunction,ComponentPad*%
%ADD12RoundRect,0.375000X-0.375000X0.375000X-0.375000X-0.375000X0.375000X-0.375000X0.375000X0.375000X0*%
%TD*%
%TA.AperFunction,ComponentPad*%
%ADD13C,1.500000*%
%TD*%
%TA.AperFunction,ComponentPad*%
%ADD14C,1.400000*%
%TD*%
%TA.AperFunction,SMDPad,CuDef*%
%ADD15R,3.000000X2.000000*%
%TD*%
%TA.AperFunction,ComponentPad*%
%ADD16C,0.500000*%
%TD*%
%TA.AperFunction,SMDPad,CuDef*%
%ADD17R,2.000000X38.000000*%
%TD*%
%TA.AperFunction,SMDPad,CuDef*%
%ADD18R,9.000000X2.000000*%
%TD*%
%TA.AperFunction,SMDPad,CuDef*%
%ADD19R,2.000000X19.000000*%
%TD*%
%TA.AperFunction,SMDPad,CuDef*%
%ADD20R,2.000000X18.000000*%
%TD*%
%TA.AperFunction,ComponentPad*%
%ADD21RoundRect,0.450000X-0.450000X-0.550000X0.450000X-0.550000X0.450000X0.550000X-0.450000X0.550000X0*%
%TD*%
%TA.AperFunction,ComponentPad*%
%ADD22C,1.800000*%
%TD*%
%TA.AperFunction,ComponentPad*%
%ADD23C,2.500000*%
%TD*%
%TA.AperFunction,ViaPad*%
%ADD24C,0.700000*%
%TD*%
%TA.AperFunction,Conductor*%
%ADD25C,0.200000*%
%TD*%
G04 APERTURE END LIST*
D10*
%TO.P,J401,1,Vref*%
%TO.N,+3V*%
X126500000Y-84980000D03*
D11*
%TO.P,J401,2,SWDIO*%
%TO.N,Net-(J401-SWDIO)*%
X125230000Y-84980000D03*
%TO.P,J401,3,GND*%
%TO.N,GND*%
X126500000Y-83710000D03*
%TO.P,J401,4,SWCLK*%
%TO.N,Net-(J401-SWCLK)*%
X125230000Y-83710000D03*
%TO.P,J401,5,GND*%
%TO.N,GND*%
X126500000Y-82440000D03*
%TO.P,J401,6,SWO*%
%TO.N,unconnected-(J401-SWO-Pad6)*%
X125230000Y-82440000D03*
%TO.P,J401,7,NC*%
%TO.N,unconnected-(J401-NC-Pad7)*%
X126500000Y-81170000D03*
%TO.P,J401,8,NC*%
%TO.N,unconnected-(J401-NC-Pad8)*%
X125230000Y-81170000D03*
%TO.P,J401,9,NC*%
%TO.N,unconnected-(J401-NC-Pad9)*%
X126500000Y-79900000D03*
%TO.P,J401,10,~{RESET}*%
%TO.N,/HMI.Reset*%
X125230000Y-79900000D03*
%TD*%
D12*
%TO.P,C208,1*%
%TO.N,/Power/12V\u002C50mA*%
X160700000Y-79250000D03*
D13*
%TO.P,C208,2*%
%TO.N,GND*%
X160700000Y-81750000D03*
%TD*%
D14*
%TO.P,C203,1*%
%TO.N,Net-(C203-Pad1)*%
X117950000Y-56300000D03*
%TO.P,C203,2*%
%TO.N,Net-(D202-K)*%
X140450000Y-56300000D03*
%TD*%
D15*
%TO.P,A601,1,1*%
%TO.N,Net-(A601-Pad1)*%
X83500000Y-96000000D03*
D16*
X81000000Y-95900000D03*
X86000000Y-95900000D03*
X81000000Y-87400000D03*
X86000000Y-87400000D03*
X81000000Y-78000000D03*
D17*
X81000000Y-78000000D03*
D16*
X86000000Y-78000000D03*
D17*
X86000000Y-78000000D03*
D16*
X91000000Y-78000000D03*
D18*
X94500000Y-78000000D03*
D16*
X94600000Y-78000000D03*
X97800000Y-78000000D03*
X76000000Y-77700000D03*
X76000000Y-68600000D03*
X81000000Y-68600000D03*
X86000000Y-68600000D03*
X91000000Y-68600000D03*
D19*
X76000000Y-68500000D03*
D20*
X91000000Y-68000000D03*
D16*
X76000000Y-60100000D03*
X81000000Y-60100000D03*
X86000000Y-60100000D03*
X91000000Y-60100000D03*
D15*
X78500000Y-60000000D03*
X88500000Y-60000000D03*
%TD*%
D21*
%TO.P,J501,1,VIN*%
%TO.N,+3V*%
X132320000Y-89300000D03*
D22*
%TO.P,J501,2,3V3*%
%TO.N,unconnected-(J501-3V3-Pad2)*%
X134860000Y-89300000D03*
%TO.P,J501,3,GND*%
%TO.N,GND*%
X137400000Y-89300000D03*
%TO.P,J501,4,SCK*%
%TO.N,/SPI.SCK*%
X139940000Y-89300000D03*
%TO.P,J501,5,MISO*%
%TO.N,/SPI.Miso*%
X142480000Y-89300000D03*
%TO.P,J501,6,MOSI*%
%TO.N,/SPI.Mosi*%
X145020000Y-89300000D03*
%TO.P,J501,7,ECS*%
%TO.N,/HMI.ECS*%
X147560000Y-89300000D03*
%TO.P,J501,8,D/C*%
%TO.N,/HMI.DC*%
X150100000Y-89300000D03*
%TO.P,J501,9,SRCS*%
%TO.N,/HMI.SRCS*%
X152640000Y-89300000D03*
%TO.P,J501,10,SDCS*%
%TO.N,unconnected-(J501-SDCS-Pad10)*%
X155180000Y-89300000D03*
%TO.P,J501,11,RST*%
%TO.N,/HMI.Reset*%
X157720000Y-89300000D03*
%TO.P,J501,12,BUSY*%
%TO.N,/HMI.Busy*%
X160260000Y-89300000D03*
%TO.P,J501,13,ENA*%
%TO.N,unconnected-(J501-ENA-Pad13)*%
X162800000Y-89300000D03*
%TD*%
D12*
%TO.P,C207,1*%
%TO.N,/Power/12V\u002C50mA*%
X152300000Y-79550000D03*
D13*
%TO.P,C207,2*%
%TO.N,GND*%
X152300000Y-82050000D03*
%TD*%
D23*
%TO.P,T301,*%
%TO.N,*%
X140000000Y-108580000D03*
%TO.P,T301,1,1*%
%TO.N,Net-(R301-Pad2)*%
X157780000Y-98420000D03*
%TO.P,T301,2,2*%
%TO.N,Net-(R302-Pad2)*%
X122220000Y-98420000D03*
%TD*%
D13*
%TO.P,R306,1*%
%TO.N,/Power/AC.Neutral*%
X152100000Y-56950000D03*
%TO.P,R306,2*%
%TO.N,/Microcontroller/Sense.Neutral*%
X152100000Y-69450000D03*
%TD*%
D22*
%TO.P,R202,1*%
%TO.N,Net-(F201-Pad2)*%
X135200000Y-46900000D03*
%TO.P,R202,2*%
%TO.N,Net-(C203-Pad1)*%
X115200000Y-46900000D03*
%TD*%
D13*
%TO.P,R305,1*%
%TO.N,/Power/AC.Line*%
X147900000Y-50550000D03*
%TO.P,R305,2*%
%TO.N,/Microcontroller/Sense.Line*%
X147900000Y-63050000D03*
%TD*%
D24*
%TO.N,GND*%
X127800000Y-89300000D03*
X155550000Y-101550000D03*
X100500000Y-74900000D03*
X146500000Y-63100000D03*
X122900000Y-95900000D03*
X118700000Y-78250000D03*
X134400000Y-96900000D03*
X147900000Y-66600000D03*
X149000000Y-67600000D03*
X127700000Y-85300000D03*
X133700000Y-101500000D03*
X112200000Y-80000000D03*
X143400000Y-82600000D03*
X115300000Y-93350000D03*
X103250000Y-76750000D03*
X141800000Y-69200000D03*
X115300000Y-91250000D03*
X151500000Y-65600000D03*
X119000000Y-83100000D03*
X110250000Y-96000000D03*
X120000000Y-72100000D03*
X127900000Y-99000000D03*
X125900000Y-88300000D03*
X123800000Y-97300000D03*
X129400000Y-78100000D03*
X129400000Y-74300000D03*
X129400000Y-70600000D03*
X116000000Y-69100000D03*
X135800000Y-83000000D03*
X134800000Y-98400000D03*
X129600000Y-101500000D03*
X105250000Y-76750000D03*
X150700000Y-69600000D03*
X153100000Y-71600000D03*
X116800000Y-78250000D03*
X106850000Y-99600000D03*
X114250000Y-92300000D03*
X114900000Y-86000000D03*
X138100000Y-95000000D03*
X110700000Y-71800000D03*
X163600000Y-65000000D03*
X124800000Y-89500000D03*
X116400000Y-80800000D03*
X134400000Y-79900000D03*
X129400000Y-86600000D03*
X125200000Y-95100000D03*
X134800000Y-69000000D03*
X117900000Y-83800000D03*
X152900000Y-65600000D03*
X119700000Y-82600000D03*
X149100000Y-69100000D03*
X114600000Y-74000000D03*
X128500000Y-96900000D03*
X163600000Y-63700000D03*
X120500000Y-100000000D03*
X117700000Y-86000000D03*
X139200000Y-69100000D03*
X149300000Y-63000000D03*
X109500000Y-76000000D03*
X160200000Y-99000000D03*
X145100000Y-97000000D03*
X151900000Y-67900000D03*
X128300000Y-95100000D03*
X139900000Y-101400000D03*
X113500000Y-82250000D03*
X127700000Y-76500000D03*
X132600000Y-69100000D03*
X139200000Y-67200000D03*
X122900000Y-76100000D03*
X152100000Y-72900000D03*
X115300000Y-92300000D03*
X155700000Y-67300000D03*
X113500000Y-86000000D03*
X151200000Y-71700000D03*
X153100000Y-68300000D03*
X112000000Y-81750000D03*
X113500000Y-74500000D03*
X141900000Y-67200000D03*
X131400000Y-96900000D03*
X117750000Y-79200000D03*
X114400000Y-69600000D03*
X136700000Y-95000000D03*
X142300000Y-82600000D03*
X104000000Y-79250000D03*
X151900000Y-98400000D03*
X118800000Y-81000000D03*
X120600000Y-97200000D03*
X145800000Y-66000000D03*
X105750000Y-79250000D03*
X120400000Y-83100000D03*
X148900000Y-64200000D03*
X127700000Y-72400000D03*
X144400000Y-67200000D03*
X124500000Y-98900000D03*
X112000000Y-76000000D03*
X107500000Y-79250000D03*
X145200000Y-101500000D03*
X157800000Y-96200000D03*
X107300000Y-89200000D03*
X107500000Y-76750000D03*
X118400000Y-72500000D03*
X150850000Y-101550000D03*
X156700000Y-67500000D03*
X102500000Y-79250000D03*
X114300000Y-98400000D03*
X141400000Y-95000000D03*
X114900000Y-95200000D03*
X132600000Y-67200000D03*
X159250000Y-101250000D03*
X164200000Y-64300000D03*
X106400000Y-74800000D03*
X131500000Y-99000000D03*
X122600000Y-94600000D03*
X121400000Y-85100000D03*
X120500000Y-90400000D03*
X109750000Y-92750000D03*
X116600000Y-84300000D03*
X115200000Y-83100000D03*
X135100000Y-79200000D03*
X117750000Y-78250000D03*
X147900000Y-98400000D03*
X122900000Y-77800000D03*
X101700000Y-99550000D03*
X125500000Y-91600000D03*
X146900000Y-69100000D03*
X111300000Y-86700000D03*
X109000000Y-80000000D03*
X102100000Y-89300000D03*
X127600000Y-69300000D03*
X109500000Y-81500000D03*
X144500000Y-69200000D03*
X129400000Y-67200000D03*
X142500000Y-96100000D03*
X116176805Y-89176805D03*
X124100000Y-95200000D03*
X100750000Y-79250000D03*
X157700000Y-67500000D03*
X129500000Y-82100000D03*
X103750000Y-82500000D03*
X104250000Y-76750000D03*
X122250000Y-101200000D03*
X146000000Y-64500000D03*
X102000000Y-74800000D03*
X125400000Y-97300000D03*
X134800000Y-67200000D03*
X120100000Y-98300000D03*
X108250000Y-76250000D03*
X141500000Y-82100000D03*
X117750000Y-77300000D03*
X130400000Y-69000000D03*
X119300000Y-96100000D03*
X137100000Y-69100000D03*
X116300000Y-86000000D03*
X122300000Y-85100000D03*
X127700000Y-80800000D03*
X155500000Y-98200000D03*
X152200000Y-66300000D03*
X137100000Y-67200000D03*
X117200000Y-73200000D03*
X146200000Y-67700000D03*
X112000000Y-84900000D03*
X115700000Y-98400000D03*
X131200000Y-95100000D03*
X138500000Y-78650000D03*
X112750000Y-76000000D03*
X109000000Y-95700000D03*
X125650000Y-101550000D03*
X134200000Y-95100000D03*
X116350000Y-92300000D03*
X135100000Y-80600000D03*
X110700000Y-81900000D03*
%TO.N,+3V*%
X121200000Y-77200000D03*
X131400000Y-74050000D03*
X131400000Y-71450000D03*
X114000000Y-84100000D03*
X130500000Y-70250000D03*
X119400000Y-86700000D03*
X130500000Y-84150000D03*
X130500000Y-72750000D03*
X120100000Y-86300000D03*
X145350000Y-98400000D03*
X115200000Y-80000000D03*
X110000000Y-97300000D03*
X131400000Y-85650000D03*
X130450000Y-81050000D03*
X131350000Y-76800000D03*
X111150000Y-87950000D03*
X131350000Y-82600000D03*
X131350000Y-79500000D03*
X130450000Y-78050000D03*
X115300000Y-75650000D03*
X117204134Y-74800000D03*
X114050000Y-80800000D03*
X106386701Y-84266931D03*
X130500000Y-75400000D03*
X118900000Y-82250000D03*
X121250000Y-75300000D03*
%TO.N,+1.8V*%
X122900000Y-88800000D03*
X122500000Y-93300000D03*
X121800000Y-91000000D03*
X122600000Y-89700000D03*
X117400000Y-97350000D03*
X122500000Y-87800000D03*
X116777847Y-88575763D03*
X121400000Y-87800000D03*
X122800000Y-91500000D03*
X113600000Y-96700000D03*
%TO.N,Net-(J401-SWCLK)*%
X118180425Y-93913170D03*
%TO.N,Net-(J401-SWDIO)*%
X119450000Y-94550000D03*
%TO.N,/HMI.Busy*%
X116800000Y-96100000D03*
%TO.N,/HMI.ECS*%
X119450000Y-93100000D03*
%TO.N,/HMI.SRCS*%
X118000000Y-99300000D03*
%TO.N,/SPI.Mosi*%
X111500000Y-92250000D03*
X119800000Y-80700000D03*
%TO.N,/HMI.DC*%
X118500000Y-95600000D03*
%TO.N,/SPI.Miso*%
X110800000Y-91200000D03*
X122300000Y-80100000D03*
%TO.N,/SPI.SCK*%
X111650000Y-90150000D03*
X121400000Y-81200000D03*
%TO.N,/HMI.LED*%
X109000000Y-84500000D03*
X111651805Y-93600000D03*
%TO.N,/Radio.GDO2*%
X109550000Y-91550000D03*
X121400000Y-79000000D03*
%TO.N,/Radio.CS*%
X119550000Y-74500000D03*
X119100000Y-92300000D03*
%TO.N,/Radio.GDO0*%
X112900000Y-89900000D03*
X119700000Y-75900000D03*
%TD*%
D25*
%TO.N,Net-(J401-SWCLK)*%
X119400000Y-93700000D02*
X119698529Y-93700000D01*
X121450000Y-90300000D02*
X122848529Y-90300000D01*
X122848529Y-90300000D02*
X123500000Y-89648529D01*
X119698529Y-93700000D02*
X120700000Y-92698529D01*
X118180425Y-93913170D02*
X118393595Y-93700000D01*
X118393595Y-93700000D02*
X119400000Y-93700000D01*
X123500000Y-89648529D02*
X123500000Y-86900000D01*
X120700000Y-91050000D02*
X121450000Y-90300000D01*
X123850000Y-86550000D02*
X123850000Y-85090000D01*
X123500000Y-86900000D02*
X123850000Y-86550000D01*
X123850000Y-85090000D02*
X125230000Y-83710000D01*
X119400000Y-93700000D02*
X119700000Y-93700000D01*
X120700000Y-92698529D02*
X120700000Y-91050000D01*
%TO.N,Net-(J401-SWDIO)*%
X119450000Y-94550000D02*
X120150000Y-94550000D01*
X120150000Y-94550000D02*
X122600000Y-92100000D01*
X124000000Y-91148529D02*
X124000000Y-88450000D01*
X124000000Y-88450000D02*
X125230000Y-87220000D01*
X123048529Y-92100000D02*
X124000000Y-91148529D01*
X125230000Y-87220000D02*
X125230000Y-84980000D01*
X122600000Y-92100000D02*
X123048529Y-92100000D01*
%TO.N,/HMI.Busy*%
X115100000Y-100750000D02*
X118500000Y-104150000D01*
X116800000Y-96100000D02*
X115100000Y-97800000D01*
X162525000Y-101975000D02*
X162525000Y-91565000D01*
X162525000Y-91565000D02*
X160260000Y-89300000D01*
X118500000Y-104150000D02*
X160350000Y-104150000D01*
X115100000Y-97800000D02*
X115100000Y-100750000D01*
X160350000Y-104150000D02*
X162525000Y-101975000D01*
%TO.N,/HMI.ECS*%
X157450000Y-87400000D02*
X149460000Y-87400000D01*
X149460000Y-87400000D02*
X147560000Y-89300000D01*
X162175000Y-101675000D02*
X162175000Y-94280026D01*
X118850000Y-103800000D02*
X160050000Y-103800000D01*
X159110000Y-91215025D02*
X162175000Y-94280026D01*
X116400000Y-97501471D02*
X116400000Y-101350000D01*
X117400000Y-96501471D02*
X116400000Y-97501471D01*
X159110000Y-91215025D02*
X159110000Y-89060000D01*
X118145066Y-93100000D02*
X117400000Y-93845066D01*
X159110000Y-89060000D02*
X157450000Y-87400000D01*
X116400000Y-101350000D02*
X118850000Y-103800000D01*
X117400000Y-93845066D02*
X117400000Y-96501471D01*
X160050000Y-103800000D02*
X162175000Y-101675000D01*
X119450000Y-93100000D02*
X118145066Y-93100000D01*
%TO.N,/HMI.SRCS*%
X159850000Y-103450000D02*
X161800000Y-101500001D01*
X158405000Y-91005000D02*
X154345000Y-91005000D01*
X161800000Y-101500001D02*
X161800000Y-94400000D01*
X118000000Y-102094974D02*
X119355026Y-103450000D01*
X118000000Y-99300000D02*
X118000000Y-102094974D01*
X161800000Y-94400000D02*
X158405000Y-91005000D01*
X119355026Y-103450000D02*
X159850000Y-103450000D01*
X154345000Y-91005000D02*
X152640000Y-89300000D01*
%TO.N,/SPI.Mosi*%
X119150000Y-81600000D02*
X119800000Y-80950000D01*
X110951471Y-87300000D02*
X111555026Y-87300000D01*
X117100000Y-85650000D02*
X118500000Y-84250000D01*
X144700000Y-85350000D02*
X162600000Y-85350000D01*
X110050000Y-91050000D02*
X110050000Y-88201471D01*
X110050000Y-88201471D02*
X110951471Y-87300000D01*
X141330000Y-89780000D02*
X141330000Y-88720000D01*
X110200000Y-91950000D02*
X110200000Y-91200000D01*
X118500000Y-81600000D02*
X119150000Y-81600000D01*
X165200000Y-100784924D02*
X160534924Y-105450000D01*
X141330000Y-88720000D02*
X144700000Y-85350000D01*
X112800000Y-95100000D02*
X112800000Y-93550000D01*
X112800000Y-93550000D02*
X111500000Y-92250000D01*
X111555026Y-87300000D02*
X112052513Y-86802513D01*
X145020000Y-89300000D02*
X143870000Y-90450000D01*
X112250000Y-101050000D02*
X112250000Y-95650000D01*
X116500000Y-86750000D02*
X117100000Y-86150000D01*
X165200000Y-87950000D02*
X165200000Y-100784924D01*
X143870000Y-90450000D02*
X142000000Y-90450000D01*
X116650000Y-105450000D02*
X112250000Y-101050000D01*
X112052513Y-86802513D02*
X112105025Y-86750000D01*
X119800000Y-80950000D02*
X119800000Y-80700000D01*
X112105025Y-86750000D02*
X116500000Y-86750000D01*
X112250000Y-95650000D02*
X112800000Y-95100000D01*
X160534924Y-105450000D02*
X116650000Y-105450000D01*
X118500000Y-83500000D02*
X118300000Y-83300000D01*
X110500000Y-92250000D02*
X110200000Y-91950000D01*
X162600000Y-85350000D02*
X165200000Y-87950000D01*
X110200000Y-91200000D02*
X110050000Y-91050000D01*
X118300000Y-81800000D02*
X118500000Y-81600000D01*
X118500000Y-84250000D02*
X118500000Y-83500000D01*
X111500000Y-92250000D02*
X110500000Y-92250000D01*
X142000000Y-90450000D02*
X141330000Y-89780000D01*
X117100000Y-86150000D02*
X117100000Y-85650000D01*
X118300000Y-83300000D02*
X118300000Y-81800000D01*
%TO.N,/HMI.DC*%
X119500000Y-103050000D02*
X118700000Y-102250000D01*
X150100000Y-89300000D02*
X152200000Y-91400000D01*
X118700000Y-102250000D02*
X118700000Y-95800000D01*
X159755026Y-103050000D02*
X119500000Y-103050000D01*
X118700000Y-95800000D02*
X118500000Y-95600000D01*
X152200000Y-91400000D02*
X157700000Y-91400000D01*
X157700000Y-91400000D02*
X161450000Y-95150000D01*
X161450000Y-95150000D02*
X161450000Y-101355026D01*
X161450000Y-101355026D02*
X159755026Y-103050000D01*
%TO.N,/SPI.Miso*%
X121651471Y-80100000D02*
X120750000Y-81001471D01*
X120750000Y-82500000D02*
X121000000Y-82750000D01*
X113300000Y-96151471D02*
X113000000Y-96451471D01*
X120750000Y-81001471D02*
X120750000Y-82500000D01*
X113000000Y-96451471D02*
X113000000Y-100900000D01*
X112500000Y-87500000D02*
X110800000Y-89200000D01*
X160389949Y-105100000D02*
X164700000Y-100789949D01*
X121000000Y-82750000D02*
X121000000Y-83450000D01*
X164700000Y-100789949D02*
X164700000Y-88050000D01*
X110800000Y-91200000D02*
X111400000Y-91200000D01*
X118450000Y-86300000D02*
X117250000Y-87500000D01*
X162700000Y-86050000D02*
X145730000Y-86050000D01*
X164700000Y-88050000D02*
X162700000Y-86050000D01*
X121000000Y-83450000D02*
X118450000Y-86000000D01*
X117200000Y-105100000D02*
X160389949Y-105100000D01*
X113300000Y-93100000D02*
X113300000Y-96151471D01*
X122300000Y-80100000D02*
X121651471Y-80100000D01*
X113000000Y-100900000D02*
X117200000Y-105100000D01*
X111400000Y-91200000D02*
X113300000Y-93100000D01*
X110800000Y-89200000D02*
X110800000Y-91200000D01*
X145730000Y-86050000D02*
X142480000Y-89300000D01*
X117250000Y-87500000D02*
X112500000Y-87500000D01*
X118450000Y-86000000D02*
X118450000Y-86300000D01*
%TO.N,/SPI.SCK*%
X114200000Y-95800000D02*
X114200000Y-97600000D01*
X118800000Y-86200000D02*
X121400000Y-83600000D01*
X113650000Y-95250000D02*
X114200000Y-95800000D01*
X115750000Y-88600000D02*
X116500000Y-87850000D01*
X146410000Y-87640000D02*
X146410000Y-89590000D01*
X116500000Y-87850000D02*
X117650000Y-87850000D01*
X117650000Y-104700000D02*
X160294975Y-104700000D01*
X117650000Y-87850000D02*
X118800000Y-86700000D01*
X113700000Y-98100000D02*
X113700000Y-100750000D01*
X111650000Y-90150000D02*
X113200000Y-88600000D01*
X111650000Y-90150000D02*
X113650000Y-92150000D01*
X145200000Y-90800000D02*
X141440000Y-90800000D01*
X162550001Y-86600000D02*
X147450000Y-86600000D01*
X146410000Y-89590000D02*
X145200000Y-90800000D01*
X113650000Y-92150000D02*
X113650000Y-95250000D01*
X121400000Y-83600000D02*
X121400000Y-81200000D01*
X160294975Y-104700000D02*
X164300000Y-100694975D01*
X113200000Y-88600000D02*
X115750000Y-88600000D01*
X147450000Y-86600000D02*
X146410000Y-87640000D01*
X118800000Y-86700000D02*
X118800000Y-86200000D01*
X113700000Y-100750000D02*
X117650000Y-104700000D01*
X114200000Y-97600000D02*
X113700000Y-98100000D01*
X141440000Y-90800000D02*
X139940000Y-89300000D01*
X164300000Y-88349999D02*
X162550001Y-86600000D01*
X164300000Y-100694975D02*
X164300000Y-88349999D01*
%TO.N,/HMI.LED*%
X109751471Y-93600000D02*
X108750000Y-92598529D01*
X108750000Y-84750000D02*
X109000000Y-84500000D01*
X111651805Y-93600000D02*
X109751471Y-93600000D01*
X108750000Y-92598529D02*
X108750000Y-84750000D01*
%TO.N,/Radio.GDO2*%
X116348529Y-85400000D02*
X112348529Y-85400000D01*
X117200000Y-81751470D02*
X117200000Y-84548529D01*
X117200000Y-84548529D02*
X116348529Y-85400000D01*
X121400000Y-79000000D02*
X119951471Y-79000000D01*
X111151471Y-86000000D02*
X109250000Y-87901471D01*
X111748529Y-86000000D02*
X111151471Y-86000000D01*
X112348529Y-85400000D02*
X111748529Y-86000000D01*
X109250000Y-91250000D02*
X109550000Y-91550000D01*
X119951471Y-79000000D02*
X117200000Y-81751470D01*
X109250000Y-87901471D02*
X109250000Y-91250000D01*
%TO.N,/Radio.CS*%
X121244974Y-86750000D02*
X119100000Y-88894974D01*
X123500000Y-85750000D02*
X122500000Y-86750000D01*
X119700000Y-74600000D02*
X123350000Y-74600000D01*
X119550000Y-74500000D02*
X119700000Y-74600000D01*
X123350000Y-74600000D02*
X124000000Y-75250000D01*
X119100000Y-88894974D02*
X119100000Y-92300000D01*
X122500000Y-86750000D02*
X121244974Y-86750000D01*
X124000000Y-75250000D02*
X124000000Y-77048529D01*
X123500000Y-77548529D02*
X123500000Y-85750000D01*
X124000000Y-77048529D02*
X123500000Y-77548529D01*
%TO.N,/Radio.GDO0*%
X121250000Y-86250000D02*
X122250000Y-86250000D01*
X123000000Y-78748528D02*
X122000736Y-77749264D01*
X123000000Y-85500000D02*
X123000000Y-78748528D01*
X121951471Y-76701471D02*
X121150000Y-75900000D01*
X121951471Y-77700000D02*
X121951471Y-76701471D01*
X117600000Y-89900000D02*
X121250000Y-86250000D01*
X122000736Y-77749264D02*
X121951471Y-77700000D01*
X122250000Y-86250000D02*
X123000000Y-85500000D01*
X112900000Y-89900000D02*
X117600000Y-89900000D01*
X121150000Y-75900000D02*
X119700000Y-75900000D01*
%TD*%
M02*
