%TF.GenerationSoftware,KiCad,Pcbnew,8.0.6-1.fc40*%
%TF.CreationDate,2024-12-16T09:47:33-08:00*%
%TF.ProjectId,energy_meter,656e6572-6779-45f6-9d65-7465722e6b69,0*%
%TF.SameCoordinates,Original*%
%TF.FileFunction,Copper,L1,Top*%
%TF.FilePolarity,Positive*%
%FSLAX46Y46*%
G04 Gerber Fmt 4.6, Leading zero omitted, Abs format (unit mm)*
G04 Created by KiCad (PCBNEW 8.0.6-1.fc40) date 2024-12-16 09:47:33*
%MOMM*%
%LPD*%
G01*
G04 APERTURE LIST*
G04 Aperture macros list*
%AMRoundRect*
0 Rectangle with rounded corners*
0 $1 Rounding radius*
0 $2 $3 $4 $5 $6 $7 $8 $9 X,Y pos of 4 corners*
0 Add a 4 corners polygon primitive as box body*
4,1,4,$2,$3,$4,$5,$6,$7,$8,$9,$2,$3,0*
0 Add four circle primitives for the rounded corners*
1,1,$1+$1,$2,$3*
1,1,$1+$1,$4,$5*
1,1,$1+$1,$6,$7*
1,1,$1+$1,$8,$9*
0 Add four rect primitives between the rounded corners*
20,1,$1+$1,$2,$3,$4,$5,0*
20,1,$1+$1,$4,$5,$6,$7,0*
20,1,$1+$1,$6,$7,$8,$9,0*
20,1,$1+$1,$8,$9,$2,$3,0*%
%AMOutline4P*
0 Free polygon, 4 corners , with rotation*
0 The origin of the aperture is its center*
0 number of corners: always 4*
0 $1 to $8 corner X, Y*
0 $9 Rotation angle, in degrees counterclockwise*
0 create outline with 4 corners*
4,1,4,$1,$2,$3,$4,$5,$6,$7,$8,$1,$2,$9*%
G04 Aperture macros list end*
%TA.AperFunction,SMDPad,CuDef*%
%ADD10RoundRect,0.200000X0.250000X-0.200000X0.250000X0.200000X-0.250000X0.200000X-0.250000X-0.200000X0*%
%TD*%
%TA.AperFunction,SMDPad,CuDef*%
%ADD11RoundRect,0.500000X-0.500000X0.500000X-0.500000X-0.500000X0.500000X-0.500000X0.500000X0.500000X0*%
%TD*%
%TA.AperFunction,SMDPad,CuDef*%
%ADD12RoundRect,0.108333X0.216667X0.241667X-0.216667X0.241667X-0.216667X-0.241667X0.216667X-0.241667X0*%
%TD*%
%TA.AperFunction,SMDPad,CuDef*%
%ADD13RoundRect,0.325000X-0.725000X-0.325000X0.725000X-0.325000X0.725000X0.325000X-0.725000X0.325000X0*%
%TD*%
%TA.AperFunction,SMDPad,CuDef*%
%ADD14RoundRect,0.200000X0.200000X0.250000X-0.200000X0.250000X-0.200000X-0.250000X0.200000X-0.250000X0*%
%TD*%
%TA.AperFunction,SMDPad,CuDef*%
%ADD15RoundRect,0.500000X0.500000X-0.500000X0.500000X0.500000X-0.500000X0.500000X-0.500000X-0.500000X0*%
%TD*%
%TA.AperFunction,SMDPad,CuDef*%
%ADD16RoundRect,0.200000X-0.200000X0.200000X-0.200000X-0.200000X0.200000X-0.200000X0.200000X0.200000X0*%
%TD*%
%TA.AperFunction,SMDPad,CuDef*%
%ADD17RoundRect,0.200000X0.250000X0.200000X-0.250000X0.200000X-0.250000X-0.200000X0.250000X-0.200000X0*%
%TD*%
%TA.AperFunction,SMDPad,CuDef*%
%ADD18RoundRect,0.100000X-0.100000X0.140000X-0.100000X-0.140000X0.100000X-0.140000X0.100000X0.140000X0*%
%TD*%
%TA.AperFunction,ComponentPad*%
%ADD19RoundRect,0.250000X0.250000X-0.250000X0.250000X0.250000X-0.250000X0.250000X-0.250000X-0.250000X0*%
%TD*%
%TA.AperFunction,ComponentPad*%
%ADD20C,1.000000*%
%TD*%
%TA.AperFunction,SMDPad,CuDef*%
%ADD21RoundRect,0.250000X0.250000X0.950000X-0.250000X0.950000X-0.250000X-0.950000X0.250000X-0.950000X0*%
%TD*%
%TA.AperFunction,SMDPad,CuDef*%
%ADD22RoundRect,0.450000X0.450000X3.300000X-0.450000X3.300000X-0.450000X-3.300000X0.450000X-3.300000X0*%
%TD*%
%TA.AperFunction,SMDPad,CuDef*%
%ADD23RoundRect,0.200000X-0.250000X0.200000X-0.250000X-0.200000X0.250000X-0.200000X0.250000X0.200000X0*%
%TD*%
%TA.AperFunction,SMDPad,CuDef*%
%ADD24RoundRect,0.200000X-0.200000X0.250000X-0.200000X-0.250000X0.200000X-0.250000X0.200000X0.250000X0*%
%TD*%
%TA.AperFunction,SMDPad,CuDef*%
%ADD25RoundRect,0.200000X-0.200000X-0.250000X0.200000X-0.250000X0.200000X0.250000X-0.200000X0.250000X0*%
%TD*%
%TA.AperFunction,SMDPad,CuDef*%
%ADD26RoundRect,0.175000X-0.475000X-0.350000X0.475000X-0.350000X0.475000X0.350000X-0.475000X0.350000X0*%
%TD*%
%TA.AperFunction,SMDPad,CuDef*%
%ADD27RoundRect,0.108333X-0.216667X-0.241667X0.216667X-0.241667X0.216667X0.241667X-0.216667X0.241667X0*%
%TD*%
%TA.AperFunction,SMDPad,CuDef*%
%ADD28RoundRect,0.100000X-0.140000X-0.100000X0.140000X-0.100000X0.140000X0.100000X-0.140000X0.100000X0*%
%TD*%
%TA.AperFunction,SMDPad,CuDef*%
%ADD29RoundRect,0.350000X-0.650000X0.350000X-0.650000X-0.350000X0.650000X-0.350000X0.650000X0.350000X0*%
%TD*%
%TA.AperFunction,ComponentPad*%
%ADD30RoundRect,0.375000X-0.375000X0.375000X-0.375000X-0.375000X0.375000X-0.375000X0.375000X0.375000X0*%
%TD*%
%TA.AperFunction,ComponentPad*%
%ADD31C,1.500000*%
%TD*%
%TA.AperFunction,SMDPad,CuDef*%
%ADD32RoundRect,0.200000X-0.250000X-0.200000X0.250000X-0.200000X0.250000X0.200000X-0.250000X0.200000X0*%
%TD*%
%TA.AperFunction,SMDPad,CuDef*%
%ADD33RoundRect,0.187500X0.187500X-0.237500X0.187500X0.237500X-0.187500X0.237500X-0.187500X-0.237500X0*%
%TD*%
%TA.AperFunction,ComponentPad*%
%ADD34C,1.400000*%
%TD*%
%TA.AperFunction,SMDPad,CuDef*%
%ADD35R,3.000000X2.000000*%
%TD*%
%TA.AperFunction,ComponentPad*%
%ADD36C,0.500000*%
%TD*%
%TA.AperFunction,SMDPad,CuDef*%
%ADD37R,2.000000X38.000000*%
%TD*%
%TA.AperFunction,SMDPad,CuDef*%
%ADD38R,9.000000X2.000000*%
%TD*%
%TA.AperFunction,SMDPad,CuDef*%
%ADD39Outline4P,-1.000000X-0.500000X1.000000X-0.500000X0.500000X0.500000X-0.500000X0.500000X270.000000*%
%TD*%
%TA.AperFunction,SMDPad,CuDef*%
%ADD40R,2.000000X19.000000*%
%TD*%
%TA.AperFunction,SMDPad,CuDef*%
%ADD41R,2.000000X18.000000*%
%TD*%
%TA.AperFunction,SMDPad,CuDef*%
%ADD42RoundRect,0.350000X0.650000X-0.350000X0.650000X0.350000X-0.650000X0.350000X-0.650000X-0.350000X0*%
%TD*%
%TA.AperFunction,ComponentPad*%
%ADD43RoundRect,0.450000X-0.450000X-0.550000X0.450000X-0.550000X0.450000X0.550000X-0.450000X0.550000X0*%
%TD*%
%TA.AperFunction,ComponentPad*%
%ADD44C,1.800000*%
%TD*%
%TA.AperFunction,SMDPad,CuDef*%
%ADD45RoundRect,0.490000X0.490000X1.085000X-0.490000X1.085000X-0.490000X-1.085000X0.490000X-1.085000X0*%
%TD*%
%TA.AperFunction,SMDPad,CuDef*%
%ADD46RoundRect,0.250000X-0.250000X-0.500000X0.250000X-0.500000X0.250000X0.500000X-0.250000X0.500000X0*%
%TD*%
%TA.AperFunction,SMDPad,CuDef*%
%ADD47RoundRect,0.280000X-1.120000X-1.120000X1.120000X-1.120000X1.120000X1.120000X-1.120000X1.120000X0*%
%TD*%
%TA.AperFunction,SMDPad,CuDef*%
%ADD48RoundRect,0.055000X0.325000X-0.055000X0.325000X0.055000X-0.325000X0.055000X-0.325000X-0.055000X0*%
%TD*%
%TA.AperFunction,SMDPad,CuDef*%
%ADD49RoundRect,0.055000X0.055000X0.325000X-0.055000X0.325000X-0.055000X-0.325000X0.055000X-0.325000X0*%
%TD*%
%TA.AperFunction,SMDPad,CuDef*%
%ADD50RoundRect,0.055000X-0.325000X0.055000X-0.325000X-0.055000X0.325000X-0.055000X0.325000X0.055000X0*%
%TD*%
%TA.AperFunction,SMDPad,CuDef*%
%ADD51RoundRect,0.055000X-0.055000X-0.325000X0.055000X-0.325000X0.055000X0.325000X-0.055000X0.325000X0*%
%TD*%
%TA.AperFunction,SMDPad,CuDef*%
%ADD52RoundRect,0.350000X-0.450000X0.350000X-0.450000X-0.350000X0.450000X-0.350000X0.450000X0.350000X0*%
%TD*%
%TA.AperFunction,SMDPad,CuDef*%
%ADD53RoundRect,0.202500X-1.147500X1.147500X-1.147500X-1.147500X1.147500X-1.147500X1.147500X1.147500X0*%
%TD*%
%TA.AperFunction,SMDPad,CuDef*%
%ADD54RoundRect,0.060000X0.240000X0.060000X-0.240000X0.060000X-0.240000X-0.060000X0.240000X-0.060000X0*%
%TD*%
%TA.AperFunction,SMDPad,CuDef*%
%ADD55RoundRect,0.060000X-0.060000X0.240000X-0.060000X-0.240000X0.060000X-0.240000X0.060000X0.240000X0*%
%TD*%
%TA.AperFunction,SMDPad,CuDef*%
%ADD56RoundRect,0.060000X-0.240000X-0.060000X0.240000X-0.060000X0.240000X0.060000X-0.240000X0.060000X0*%
%TD*%
%TA.AperFunction,SMDPad,CuDef*%
%ADD57RoundRect,0.060000X0.060000X-0.240000X0.060000X0.240000X-0.060000X0.240000X-0.060000X-0.240000X0*%
%TD*%
%TA.AperFunction,SMDPad,CuDef*%
%ADD58RoundRect,0.150000X0.150000X0.625000X-0.150000X0.625000X-0.150000X-0.625000X0.150000X-0.625000X0*%
%TD*%
%TA.AperFunction,SMDPad,CuDef*%
%ADD59RoundRect,0.108333X0.241667X-0.216667X0.241667X0.216667X-0.241667X0.216667X-0.241667X-0.216667X0*%
%TD*%
%TA.AperFunction,SMDPad,CuDef*%
%ADD60RoundRect,0.062500X0.062500X0.237500X-0.062500X0.237500X-0.062500X-0.237500X0.062500X-0.237500X0*%
%TD*%
%TA.AperFunction,SMDPad,CuDef*%
%ADD61RoundRect,0.200000X-0.200000X-0.200000X0.200000X-0.200000X0.200000X0.200000X-0.200000X0.200000X0*%
%TD*%
%TA.AperFunction,SMDPad,CuDef*%
%ADD62RoundRect,0.350000X-0.350000X-0.650000X0.350000X-0.650000X0.350000X0.650000X-0.350000X0.650000X0*%
%TD*%
%TA.AperFunction,SMDPad,CuDef*%
%ADD63RoundRect,0.200000X2.800000X0.800000X-2.800000X0.800000X-2.800000X-0.800000X2.800000X-0.800000X0*%
%TD*%
%TA.AperFunction,SMDPad,CuDef*%
%ADD64RoundRect,0.200000X1.550000X0.800000X-1.550000X0.800000X-1.550000X-0.800000X1.550000X-0.800000X0*%
%TD*%
%TA.AperFunction,SMDPad,CuDef*%
%ADD65RoundRect,0.200000X0.200000X-0.200000X0.200000X0.200000X-0.200000X0.200000X-0.200000X-0.200000X0*%
%TD*%
%TA.AperFunction,SMDPad,CuDef*%
%ADD66RoundRect,0.175000X-0.425000X0.175000X-0.425000X-0.175000X0.425000X-0.175000X0.425000X0.175000X0*%
%TD*%
%TA.AperFunction,ComponentPad*%
%ADD67C,2.500000*%
%TD*%
%TA.AperFunction,ViaPad*%
%ADD68C,0.700000*%
%TD*%
%TA.AperFunction,Conductor*%
%ADD69C,0.800000*%
%TD*%
%TA.AperFunction,Conductor*%
%ADD70C,0.200000*%
%TD*%
%TA.AperFunction,Conductor*%
%ADD71C,1.000000*%
%TD*%
%TA.AperFunction,Conductor*%
%ADD72C,2.000000*%
%TD*%
G04 APERTURE END LIST*
D10*
%TO.P,C602,1*%
%TO.N,+3V*%
X114600000Y-76100000D03*
%TO.P,C602,2*%
%TO.N,GND*%
X114600000Y-74700000D03*
%TD*%
D11*
%TO.P,D202,1,K*%
%TO.N,Net-(D202-K)*%
X152200000Y-60290000D03*
%TO.P,D202,2,A*%
%TO.N,GND*%
X152200000Y-64290000D03*
%TD*%
D12*
%TO.P,L602,1,1*%
%TO.N,Net-(U601-RF_N)*%
X114425000Y-78750000D03*
%TO.P,L602,2,2*%
%TO.N,Net-(C610-Pad2)*%
X113075000Y-78750000D03*
%TD*%
D13*
%TO.P,S502,1,1*%
%TO.N,/HMI.Reset*%
X101700000Y-95800000D03*
X106900000Y-95800000D03*
%TO.P,S502,2,2*%
%TO.N,GND*%
X101700000Y-98600000D03*
X106900000Y-98600000D03*
%TD*%
D14*
%TO.P,C501,1*%
%TO.N,/HMI.Reset*%
X112400000Y-96000000D03*
%TO.P,C501,2*%
%TO.N,GND*%
X111000000Y-96000000D03*
%TD*%
D15*
%TO.P,D205,1,K*%
%TO.N,Net-(D204-K)*%
X158900000Y-64290000D03*
%TO.P,D205,2,A*%
%TO.N,/Power/AC.Neutral*%
X158900000Y-60290000D03*
%TD*%
D16*
%TO.P,D207,1,K*%
%TO.N,Net-(D201-A)*%
X148000000Y-55700000D03*
%TO.P,D207,2,A*%
%TO.N,/Power/AC.Neutral*%
X148000000Y-57100000D03*
%TD*%
D17*
%TO.P,R207,1*%
%TO.N,Net-(C205-Pad1)*%
X138400000Y-83050000D03*
%TO.P,R207,2*%
%TO.N,GND*%
X136700000Y-83050000D03*
%TD*%
D18*
%TO.P,D302,1,K*%
%TO.N,/Microcontroller/Sense.Neutral*%
X152100000Y-70800000D03*
%TO.P,D302,2,A*%
%TO.N,GND*%
X152100000Y-72300000D03*
%TD*%
D19*
%TO.P,J401,1,Vref*%
%TO.N,+3V*%
X126500000Y-84980000D03*
D20*
%TO.P,J401,2,SWDIO*%
%TO.N,Net-(J401-SWDIO)*%
X125230000Y-84980000D03*
%TO.P,J401,3,GND*%
%TO.N,GND*%
X126500000Y-83710000D03*
%TO.P,J401,4,SWCLK*%
%TO.N,Net-(J401-SWCLK)*%
X125230000Y-83710000D03*
%TO.P,J401,5,GND*%
%TO.N,GND*%
X126500000Y-82440000D03*
%TO.P,J401,6,SWO*%
%TO.N,unconnected-(J401-SWO-Pad6)*%
X125230000Y-82440000D03*
%TO.P,J401,7,NC*%
%TO.N,unconnected-(J401-NC-Pad7)*%
X126500000Y-81170000D03*
%TO.P,J401,8,NC*%
%TO.N,unconnected-(J401-NC-Pad8)*%
X125230000Y-81170000D03*
%TO.P,J401,9,NC*%
%TO.N,unconnected-(J401-NC-Pad9)*%
X126500000Y-79900000D03*
%TO.P,J401,10,~{RESET}*%
%TO.N,/HMI.Reset*%
X125230000Y-79900000D03*
%TD*%
D10*
%TO.P,C204,1*%
%TO.N,Net-(C204-Pad1)*%
X137550000Y-80500000D03*
%TO.P,C204,2*%
%TO.N,Net-(U201-SW)*%
X137550000Y-79100000D03*
%TD*%
D17*
%TO.P,R205,1*%
%TO.N,Net-(U201-BST)*%
X138400000Y-81800000D03*
%TO.P,R205,2*%
%TO.N,Net-(C204-Pad1)*%
X136700000Y-81800000D03*
%TD*%
D21*
%TO.P,R302,1*%
%TO.N,Net-(R301-Pad2)*%
X141600000Y-98400000D03*
%TO.P,R302,2*%
%TO.N,Net-(R302-Pad2)*%
X138400000Y-98400000D03*
%TD*%
D14*
%TO.P,C615,1*%
%TO.N,Net-(C615-Pad1)*%
X104200000Y-78000000D03*
%TO.P,C615,2*%
%TO.N,Net-(C615-Pad2)*%
X102800000Y-78000000D03*
%TD*%
D17*
%TO.P,R303,1*%
%TO.N,Net-(R302-Pad2)*%
X137250000Y-98400000D03*
%TO.P,R303,2*%
%TO.N,GND*%
X135550000Y-98400000D03*
%TD*%
D10*
%TO.P,C616,1*%
%TO.N,Net-(C615-Pad2)*%
X102000000Y-76950000D03*
%TO.P,C616,2*%
%TO.N,GND*%
X102000000Y-75550000D03*
%TD*%
D18*
%TO.P,D301,1,K*%
%TO.N,/Microcontroller/Sense.Line*%
X147900000Y-64450000D03*
%TO.P,D301,2,A*%
%TO.N,GND*%
X147900000Y-65950000D03*
%TD*%
D22*
%TO.P,L201,1,1*%
%TO.N,Net-(U201-SW)*%
X139100000Y-74300000D03*
%TO.P,L201,2,2*%
%TO.N,+3V*%
X133500000Y-74300000D03*
%TD*%
D23*
%TO.P,C604,1*%
%TO.N,+3V*%
X115200000Y-80900000D03*
%TO.P,C604,2*%
%TO.N,GND*%
X115200000Y-82300000D03*
%TD*%
D10*
%TO.P,C404,1*%
%TO.N,+3V*%
X117700000Y-88100000D03*
%TO.P,C404,2*%
%TO.N,GND*%
X117700000Y-86700000D03*
%TD*%
D14*
%TO.P,C603,1*%
%TO.N,+3V*%
X114300000Y-80000000D03*
%TO.P,C603,2*%
%TO.N,GND*%
X112900000Y-80000000D03*
%TD*%
D24*
%TO.P,R308,1*%
%TO.N,+1.8V*%
X123700000Y-89450000D03*
%TO.P,R308,2*%
%TO.N,/Microcontroller/Sense.Line*%
X123700000Y-91150000D03*
%TD*%
D25*
%TO.P,C605,1*%
%TO.N,+3V*%
X120700000Y-77800000D03*
%TO.P,C605,2*%
%TO.N,GND*%
X122100000Y-77800000D03*
%TD*%
D12*
%TO.P,L606,1,1*%
%TO.N,Net-(C614-Pad1)*%
X106425000Y-78000000D03*
%TO.P,L606,2,2*%
%TO.N,Net-(C615-Pad1)*%
X105075000Y-78000000D03*
%TD*%
D14*
%TO.P,C303,1*%
%TO.N,+1.8V*%
X121800000Y-93200000D03*
%TO.P,C303,2*%
%TO.N,/Microcontroller/Sense.Neutral*%
X120400000Y-93200000D03*
%TD*%
D26*
%TO.P,X601,1,1*%
%TO.N,Net-(U601-XOSC_Q2)*%
X116050000Y-71675000D03*
%TO.P,X601,2,2*%
%TO.N,GND*%
X118350000Y-71675000D03*
%TO.P,X601,3,3*%
%TO.N,Net-(U601-XOSC_Q1)*%
X118350000Y-69925000D03*
%TO.P,X601,4,GND*%
%TO.N,GND*%
X116050000Y-69925000D03*
%TD*%
D27*
%TO.P,L401,1,1*%
%TO.N,Net-(U401-VREGSW)*%
X118425000Y-89100000D03*
%TO.P,L401,2,2*%
%TO.N,+1.8V*%
X119775000Y-89100000D03*
%TD*%
D14*
%TO.P,C205,1*%
%TO.N,Net-(C205-Pad1)*%
X138250000Y-85550000D03*
%TO.P,C205,2*%
%TO.N,+3V*%
X136850000Y-85550000D03*
%TD*%
D28*
%TO.P,D303,1,K*%
%TO.N,/Microcontroller/Sense.Current*%
X139250000Y-95000000D03*
%TO.P,D303,2,A*%
%TO.N,GND*%
X140750000Y-95000000D03*
%TD*%
D29*
%TO.P,C201,1*%
%TO.N,/Power/12V\u002C50mA*%
X142750000Y-78000000D03*
%TO.P,C201,2*%
%TO.N,GND*%
X142750000Y-81600000D03*
%TD*%
D30*
%TO.P,C208,1*%
%TO.N,/Power/12V\u002C50mA*%
X160700000Y-79250000D03*
D31*
%TO.P,C208,2*%
%TO.N,GND*%
X160700000Y-81750000D03*
%TD*%
D23*
%TO.P,C202,1*%
%TO.N,/Power/12V\u002C50mA*%
X141050000Y-79100000D03*
%TO.P,C202,2*%
%TO.N,GND*%
X141050000Y-80500000D03*
%TD*%
D32*
%TO.P,R307,1*%
%TO.N,/Microcontroller/Sense.Current*%
X120350000Y-95900000D03*
%TO.P,R307,2*%
%TO.N,GND*%
X122050000Y-95900000D03*
%TD*%
D15*
%TO.P,D206,1,K*%
%TO.N,/Power/12V\u002C50mA*%
X161600000Y-73337500D03*
%TO.P,D206,2,A*%
%TO.N,Net-(D204-K)*%
X161600000Y-69337500D03*
%TD*%
D33*
%TO.P,X401,1,1*%
%TO.N,Net-(U401-HFXTAL_O)*%
X110025000Y-94875000D03*
%TO.P,X401,2,2*%
%TO.N,GND*%
X110025000Y-93525000D03*
%TO.P,X401,3,3*%
%TO.N,Net-(U401-HFXTAL_I)*%
X108975000Y-93525000D03*
%TO.P,X401,4,GND*%
%TO.N,GND*%
X108975000Y-94875000D03*
%TD*%
D10*
%TO.P,C611,1*%
%TO.N,GND*%
X110700000Y-81100000D03*
%TO.P,C611,2*%
%TO.N,Net-(C610-Pad2)*%
X110700000Y-79700000D03*
%TD*%
%TO.P,C612,1*%
%TO.N,Net-(C612-Pad1)*%
X110700000Y-73775000D03*
%TO.P,C612,2*%
%TO.N,GND*%
X110700000Y-72375000D03*
%TD*%
%TO.P,C411,1*%
%TO.N,+1.8V*%
X116300000Y-88100000D03*
%TO.P,C411,2*%
%TO.N,GND*%
X116300000Y-86700000D03*
%TD*%
D23*
%TO.P,C610,1*%
%TO.N,Net-(C610-Pad1)*%
X112000000Y-77300000D03*
%TO.P,C610,2*%
%TO.N,Net-(C610-Pad2)*%
X112000000Y-78700000D03*
%TD*%
D34*
%TO.P,C203,1*%
%TO.N,Net-(C203-Pad1)*%
X117950000Y-56300000D03*
%TO.P,C203,2*%
%TO.N,Net-(D202-K)*%
X140450000Y-56300000D03*
%TD*%
D17*
%TO.P,R301,1*%
%TO.N,+3V*%
X144450000Y-98400000D03*
%TO.P,R301,2*%
%TO.N,Net-(R301-Pad2)*%
X142750000Y-98400000D03*
%TD*%
D25*
%TO.P,C301,1*%
%TO.N,/Microcontroller/Sense.Current*%
X120400000Y-94600000D03*
%TO.P,C301,2*%
%TO.N,GND*%
X121800000Y-94600000D03*
%TD*%
%TO.P,C607,1*%
%TO.N,+3V*%
X120700000Y-76100000D03*
%TO.P,C607,2*%
%TO.N,GND*%
X122100000Y-76100000D03*
%TD*%
D35*
%TO.P,A601,1,1*%
%TO.N,Net-(A601-Pad1)*%
X83500000Y-96000000D03*
D36*
X81000000Y-95900000D03*
X86000000Y-95900000D03*
X81000000Y-87400000D03*
X86000000Y-87400000D03*
X81000000Y-78000000D03*
D37*
X81000000Y-78000000D03*
D36*
X86000000Y-78000000D03*
D37*
X86000000Y-78000000D03*
D36*
X91000000Y-78000000D03*
D38*
X94500000Y-78000000D03*
D36*
X94600000Y-78000000D03*
X97800000Y-78000000D03*
D39*
X99500000Y-78000000D03*
D36*
X76000000Y-77700000D03*
X76000000Y-68600000D03*
X81000000Y-68600000D03*
X86000000Y-68600000D03*
X91000000Y-68600000D03*
D40*
X76000000Y-68500000D03*
D41*
X91000000Y-68000000D03*
D36*
X76000000Y-60100000D03*
X81000000Y-60100000D03*
X86000000Y-60100000D03*
X91000000Y-60100000D03*
D35*
X78500000Y-60000000D03*
X88500000Y-60000000D03*
%TD*%
D42*
%TO.P,C401,1*%
%TO.N,+3V*%
X119600000Y-87700000D03*
%TO.P,C401,2*%
%TO.N,GND*%
X119600000Y-84100000D03*
%TD*%
D43*
%TO.P,J501,1,VIN*%
%TO.N,+3V*%
X132320000Y-89300000D03*
D44*
%TO.P,J501,2,3V3*%
%TO.N,unconnected-(J501-3V3-Pad2)*%
X134860000Y-89300000D03*
%TO.P,J501,3,GND*%
%TO.N,GND*%
X137400000Y-89300000D03*
%TO.P,J501,4,SCK*%
%TO.N,/SPI.SCK*%
X139940000Y-89300000D03*
%TO.P,J501,5,MISO*%
%TO.N,/SPI.Miso*%
X142480000Y-89300000D03*
%TO.P,J501,6,MOSI*%
%TO.N,/SPI.Mosi*%
X145020000Y-89300000D03*
%TO.P,J501,7,ECS*%
%TO.N,/HMI.ECS*%
X147560000Y-89300000D03*
%TO.P,J501,8,D/C*%
%TO.N,/HMI.DC*%
X150100000Y-89300000D03*
%TO.P,J501,9,SRCS*%
%TO.N,/HMI.SRCS*%
X152640000Y-89300000D03*
%TO.P,J501,10,SDCS*%
%TO.N,unconnected-(J501-SDCS-Pad10)*%
X155180000Y-89300000D03*
%TO.P,J501,11,RST*%
%TO.N,/HMI.Reset*%
X157720000Y-89300000D03*
%TO.P,J501,12,BUSY*%
%TO.N,/HMI.Busy*%
X160260000Y-89300000D03*
%TO.P,J501,13,ENA*%
%TO.N,unconnected-(J501-ENA-Pad13)*%
X162800000Y-89300000D03*
%TD*%
D45*
%TO.P,F201,1*%
%TO.N,/Power/AC.Line*%
X142955000Y-46400000D03*
%TO.P,F201,2*%
%TO.N,Net-(F201-Pad2)*%
X138045000Y-46400000D03*
%TD*%
D10*
%TO.P,C403,1*%
%TO.N,+3V*%
X112100000Y-88100000D03*
%TO.P,C403,2*%
%TO.N,GND*%
X112100000Y-86700000D03*
%TD*%
D17*
%TO.P,R502,1*%
%TO.N,+3V*%
X105900000Y-83650000D03*
%TO.P,R502,2*%
%TO.N,Net-(D501-A)*%
X104200000Y-83650000D03*
%TD*%
D32*
%TO.P,R309,1*%
%TO.N,+1.8V*%
X122850000Y-92300000D03*
%TO.P,R309,2*%
%TO.N,/Microcontroller/Sense.Neutral*%
X124550000Y-92300000D03*
%TD*%
D14*
%TO.P,C402,1*%
%TO.N,+3V*%
X114100000Y-84900000D03*
%TO.P,C402,2*%
%TO.N,GND*%
X112700000Y-84900000D03*
%TD*%
D46*
%TO.P,R201,1*%
%TO.N,Net-(F201-Pad2)*%
X144900000Y-53700000D03*
%TO.P,R201,2*%
%TO.N,Net-(D201-A)*%
X148100000Y-53700000D03*
%TD*%
D17*
%TO.P,R501,1*%
%TO.N,/HMI.LED*%
X108900000Y-83650000D03*
%TO.P,R501,2*%
%TO.N,Net-(D501-A)*%
X107200000Y-83650000D03*
%TD*%
D12*
%TO.P,L601,1,1*%
%TO.N,Net-(U601-RF_P)*%
X114425000Y-77300000D03*
%TO.P,L601,2,2*%
%TO.N,Net-(C610-Pad1)*%
X113075000Y-77300000D03*
%TD*%
D10*
%TO.P,C405,1*%
%TO.N,+3V*%
X114900000Y-88100000D03*
%TO.P,C405,2*%
%TO.N,GND*%
X114900000Y-86700000D03*
%TD*%
%TO.P,C614,1*%
%TO.N,Net-(C614-Pad1)*%
X106400000Y-76950000D03*
%TO.P,C614,2*%
%TO.N,GND*%
X106400000Y-75550000D03*
%TD*%
D47*
%TO.P,U401,0,VSS*%
%TO.N,GND*%
X115300000Y-92300000D03*
D48*
%TO.P,U401,1,PC00*%
%TO.N,/Radio.GDO0*%
X113315000Y-90900000D03*
%TO.P,U401,2,PC01*%
%TO.N,/SPI.SCK*%
X113315000Y-91300000D03*
%TO.P,U401,3,PC02*%
%TO.N,/SPI.Miso*%
X113315000Y-91700000D03*
%TO.P,U401,4,PC03*%
%TO.N,/SPI.Mosi*%
X113315000Y-92100000D03*
%TO.P,U401,5,PC04*%
%TO.N,/Radio.GDO2*%
X113315000Y-92500000D03*
%TO.P,U401,6,PC05*%
%TO.N,/HMI.LED*%
X113315000Y-92900000D03*
%TO.P,U401,7,HFXTAL_I*%
%TO.N,Net-(U401-HFXTAL_I)*%
X113315000Y-93300000D03*
%TO.P,U401,8,HFXTAL_O*%
%TO.N,Net-(U401-HFXTAL_O)*%
X113315000Y-93700000D03*
D49*
%TO.P,U401,9,~{RESET}*%
%TO.N,/HMI.Reset*%
X113900000Y-94285000D03*
%TO.P,U401,10,DVDD*%
%TO.N,+1.8V*%
X114300000Y-94285000D03*
%TO.P,U401,11,VSS*%
%TO.N,GND*%
X114700000Y-94285000D03*
%TO.P,U401,12,NC*%
%TO.N,unconnected-(U401-NC-Pad12)*%
X115100000Y-94285000D03*
%TO.P,U401,13,DVDD*%
%TO.N,+1.8V*%
X115500000Y-94285000D03*
%TO.P,U401,14,PB02*%
%TO.N,/HMI.Busy*%
X115900000Y-94285000D03*
%TO.P,U401,15,PB01*%
%TO.N,/HMI.SRCS*%
X116300000Y-94285000D03*
%TO.P,U401,16,PB00*%
%TO.N,/HMI.DC*%
X116700000Y-94285000D03*
D50*
%TO.P,U401,17,PA00*%
%TO.N,/Microcontroller/Sense.Current*%
X117285000Y-93700000D03*
%TO.P,U401,18,PA01/SWCLK*%
%TO.N,Net-(J401-SWCLK)*%
X117285000Y-93300000D03*
%TO.P,U401,19,PA02/SCWIO*%
%TO.N,Net-(J401-SWDIO)*%
X117285000Y-92900000D03*
%TO.P,U401,20,PA03/SWO*%
%TO.N,/HMI.ECS*%
X117285000Y-92500000D03*
%TO.P,U401,21,PA04*%
%TO.N,/Radio.CS*%
X117285000Y-92100000D03*
%TO.P,U401,22,PA05*%
%TO.N,/Microcontroller/Sense.Neutral*%
X117285000Y-91700000D03*
%TO.P,U401,23,PA06*%
%TO.N,/Microcontroller/Sense.Line*%
X117285000Y-91300000D03*
%TO.P,U401,24,DECOUPLE*%
%TO.N,Net-(U401-DECOUPLE)*%
X117285000Y-90900000D03*
D51*
%TO.P,U401,25,VREGSW*%
%TO.N,Net-(U401-VREGSW)*%
X116700000Y-90315000D03*
%TO.P,U401,26,VREGVDD*%
%TO.N,+3V*%
X116300000Y-90315000D03*
%TO.P,U401,27,VREGVSS*%
%TO.N,GND*%
X115900000Y-90315000D03*
%TO.P,U401,28,DVDD*%
%TO.N,+1.8V*%
X115500000Y-90315000D03*
%TO.P,U401,29,AVDD*%
%TO.N,+3V*%
X115100000Y-90315000D03*
%TO.P,U401,30,IOVDD*%
X114700000Y-90315000D03*
%TO.P,U401,31,PD01/LFXTAL_I*%
%TO.N,Net-(U401-PD01{slash}LFXTAL_I)*%
X114300000Y-90315000D03*
%TO.P,U401,32,PD00/LFXTAL_O*%
%TO.N,Net-(U401-PD00{slash}LFXTAL_O)*%
X113900000Y-90315000D03*
%TD*%
D12*
%TO.P,L604,1,1*%
%TO.N,Net-(C610-Pad2)*%
X110675000Y-78700000D03*
%TO.P,L604,2,2*%
%TO.N,Net-(C613-Pad2)*%
X109325000Y-78700000D03*
%TD*%
D13*
%TO.P,S501,1,1*%
%TO.N,Net-(D501-A)*%
X102100000Y-85400000D03*
X107300000Y-85400000D03*
%TO.P,S501,2,2*%
%TO.N,GND*%
X102100000Y-88200000D03*
X107300000Y-88200000D03*
%TD*%
D24*
%TO.P,R601,1*%
%TO.N,Net-(U601-RBIAS)*%
X116600000Y-81800000D03*
%TO.P,R601,2*%
%TO.N,GND*%
X116600000Y-83500000D03*
%TD*%
D10*
%TO.P,C406,1*%
%TO.N,+3V*%
X113500000Y-88100000D03*
%TO.P,C406,2*%
%TO.N,GND*%
X113500000Y-86700000D03*
%TD*%
D23*
%TO.P,C606,1*%
%TO.N,+3V*%
X118000000Y-81700000D03*
%TO.P,C606,2*%
%TO.N,GND*%
X118000000Y-83100000D03*
%TD*%
D17*
%TO.P,R304,1*%
%TO.N,Net-(R301-Pad2)*%
X140850000Y-96200000D03*
%TO.P,R304,2*%
%TO.N,/Microcontroller/Sense.Current*%
X139150000Y-96200000D03*
%TD*%
D23*
%TO.P,C408,1*%
%TO.N,+1.8V*%
X114300000Y-96100000D03*
%TO.P,C408,2*%
%TO.N,GND*%
X114300000Y-97500000D03*
%TD*%
D52*
%TO.P,C410,1*%
%TO.N,GND*%
X121800000Y-86100000D03*
%TO.P,C410,2*%
%TO.N,+1.8V*%
X121800000Y-88700000D03*
%TD*%
D53*
%TO.P,U601,0,GND*%
%TO.N,GND*%
X117750000Y-78250000D03*
D54*
%TO.P,U601,1,SLCK*%
%TO.N,/SPI.SCK*%
X119650000Y-79250000D03*
%TO.P,U601,2,S0*%
%TO.N,/SPI.Miso*%
X119650000Y-78750000D03*
%TO.P,U601,3,GDO2*%
%TO.N,/Radio.GDO2*%
X119650000Y-78250000D03*
%TO.P,U601,4,DVDD*%
%TO.N,+3V*%
X119650000Y-77750000D03*
%TO.P,U601,5,DCOUPL*%
X119650000Y-77250000D03*
D55*
%TO.P,U601,6,GDO0*%
%TO.N,/Radio.GDO0*%
X118750000Y-76350000D03*
%TO.P,U601,7,~{CS}*%
%TO.N,/Radio.CS*%
X118250000Y-76350000D03*
%TO.P,U601,8,XOSC_Q1*%
%TO.N,Net-(U601-XOSC_Q1)*%
X117750000Y-76350000D03*
%TO.P,U601,9,AVDD*%
%TO.N,+3V*%
X117250000Y-76350000D03*
%TO.P,U601,10,XOSC_Q2*%
%TO.N,Net-(U601-XOSC_Q2)*%
X116750000Y-76350000D03*
D56*
%TO.P,U601,11,AVDD*%
%TO.N,+3V*%
X115850000Y-77250000D03*
%TO.P,U601,12,RF_P*%
%TO.N,Net-(U601-RF_P)*%
X115850000Y-77750000D03*
%TO.P,U601,13,RF_N*%
%TO.N,Net-(U601-RF_N)*%
X115850000Y-78250000D03*
%TO.P,U601,14,AVDD*%
%TO.N,+3V*%
X115850000Y-78750000D03*
%TO.P,U601,15,AVDD*%
X115850000Y-79250000D03*
D57*
%TO.P,U601,16,GND*%
%TO.N,GND*%
X116750000Y-80150000D03*
%TO.P,U601,17,RBIAS*%
%TO.N,Net-(U601-RBIAS)*%
X117250000Y-80150000D03*
%TO.P,U601,18,DGUARD*%
%TO.N,+3V*%
X117750000Y-80150000D03*
%TO.P,U601,19,GND*%
%TO.N,GND*%
X118250000Y-80150000D03*
D55*
%TO.P,U601,20,SI*%
%TO.N,/SPI.Mosi*%
X118750000Y-80150000D03*
%TD*%
D58*
%TO.P,U202,1,SH*%
%TO.N,Net-(D204-K)*%
X159005000Y-68637500D03*
%TO.P,U202,2,PGND*%
%TO.N,GND*%
X157735000Y-68637500D03*
%TO.P,U202,3,AGND*%
X156465000Y-68637500D03*
%TO.P,U202,4,FB*%
%TO.N,Net-(U202-D12)*%
X155195000Y-68637500D03*
%TO.P,U202,5,D24*%
%TO.N,unconnected-(U202-D24-Pad5)*%
X155195000Y-74037500D03*
%TO.P,U202,6,D12*%
%TO.N,Net-(U202-D12)*%
X156465000Y-74037500D03*
%TO.P,U202,7,D6*%
%TO.N,unconnected-(U202-D6-Pad7)*%
X157735000Y-74037500D03*
%TO.P,U202,8,OUT*%
%TO.N,/Power/12V\u002C50mA*%
X159005000Y-74037500D03*
%TD*%
D24*
%TO.P,R206,1*%
%TO.N,Net-(U201-FB)*%
X139800000Y-81700000D03*
%TO.P,R206,2*%
%TO.N,Net-(C205-Pad1)*%
X139800000Y-83400000D03*
%TD*%
D59*
%TO.P,L607,1,1*%
%TO.N,Net-(A601-Pad1)*%
X100500000Y-76862500D03*
%TO.P,L607,2,2*%
%TO.N,GND*%
X100500000Y-75512500D03*
%TD*%
D60*
%TO.P,U201,1,VIN*%
%TO.N,/Power/12V\u002C50mA*%
X139800000Y-79100000D03*
%TO.P,U201,2,SW*%
%TO.N,Net-(U201-SW)*%
X139300000Y-79100000D03*
%TO.P,U201,3,GND*%
%TO.N,GND*%
X138800000Y-79100000D03*
%TO.P,U201,4,BST*%
%TO.N,Net-(U201-BST)*%
X138800000Y-80500000D03*
%TO.P,U201,5,EN*%
%TO.N,Net-(U201-EN)*%
X139300000Y-80500000D03*
%TO.P,U201,6,FB*%
%TO.N,Net-(U201-FB)*%
X139800000Y-80500000D03*
%TD*%
D61*
%TO.P,D501,1,K*%
%TO.N,GND*%
X104450000Y-82450000D03*
%TO.P,D501,2,A*%
%TO.N,Net-(D501-A)*%
X105850000Y-82450000D03*
%TD*%
D12*
%TO.P,L605,1,1*%
%TO.N,Net-(C613-Pad2)*%
X108625000Y-78000000D03*
%TO.P,L605,2,2*%
%TO.N,Net-(C614-Pad1)*%
X107275000Y-78000000D03*
%TD*%
D32*
%TO.P,R503,1*%
%TO.N,+3V*%
X110750000Y-97300000D03*
%TO.P,R503,2*%
%TO.N,/HMI.Reset*%
X112450000Y-97300000D03*
%TD*%
D62*
%TO.P,C206,1*%
%TO.N,+3V*%
X132500000Y-79800000D03*
%TO.P,C206,2*%
%TO.N,GND*%
X136100000Y-79800000D03*
%TD*%
D14*
%TO.P,C617,1*%
%TO.N,Net-(C615-Pad2)*%
X101950000Y-78000000D03*
%TO.P,C617,2*%
%TO.N,Net-(A601-Pad1)*%
X100550000Y-78000000D03*
%TD*%
D17*
%TO.P,R208,1*%
%TO.N,Net-(C205-Pad1)*%
X138400000Y-84300000D03*
%TO.P,R208,2*%
%TO.N,+3V*%
X136700000Y-84300000D03*
%TD*%
D63*
%TO.P,J101,1,1*%
%TO.N,/Power/AC.Line*%
X161800000Y-46000000D03*
%TO.P,J101,2,2*%
%TO.N,/Power/AC.Neutral*%
X161800000Y-54000000D03*
D64*
%TO.P,J101,3,3*%
%TO.N,/Power/AC.Line*%
X152550000Y-46000000D03*
%TO.P,J101,4,4*%
%TO.N,/Power/AC.Neutral*%
X152550000Y-54000000D03*
%TD*%
D15*
%TO.P,D204,1,K*%
%TO.N,Net-(D204-K)*%
X155550000Y-64290000D03*
%TO.P,D204,2,A*%
%TO.N,Net-(D202-K)*%
X155550000Y-60290000D03*
%TD*%
D23*
%TO.P,C409,1*%
%TO.N,+1.8V*%
X115700000Y-96100000D03*
%TO.P,C409,2*%
%TO.N,GND*%
X115700000Y-97500000D03*
%TD*%
D17*
%TO.P,R203,1*%
%TO.N,/Power/12V\u002C50mA*%
X143550000Y-83600000D03*
%TO.P,R203,2*%
%TO.N,Net-(U201-EN)*%
X141850000Y-83600000D03*
%TD*%
D11*
%TO.P,D203,1,K*%
%TO.N,/Power/AC.Neutral*%
X162300000Y-60290000D03*
%TO.P,D203,2,A*%
%TO.N,GND*%
X162300000Y-64290000D03*
%TD*%
D14*
%TO.P,C302,1*%
%TO.N,+1.8V*%
X121800000Y-91800000D03*
%TO.P,C302,2*%
%TO.N,/Microcontroller/Sense.Line*%
X120400000Y-91800000D03*
%TD*%
D65*
%TO.P,D201,1,K*%
%TO.N,/Power/AC.Neutral*%
X146500000Y-57100000D03*
%TO.P,D201,2,A*%
%TO.N,Net-(D201-A)*%
X146500000Y-55700000D03*
%TD*%
D66*
%TO.P,X402,1,1*%
%TO.N,Net-(U401-PD01{slash}LFXTAL_I)*%
X110400000Y-88850000D03*
%TO.P,X402,2,2*%
%TO.N,Net-(U401-PD00{slash}LFXTAL_O)*%
X110400000Y-89950000D03*
%TD*%
D10*
%TO.P,C601,1*%
%TO.N,+3V*%
X117200000Y-75300000D03*
%TO.P,C601,2*%
%TO.N,GND*%
X117200000Y-73900000D03*
%TD*%
%TO.P,C609,1*%
%TO.N,Net-(U601-XOSC_Q2)*%
X114400000Y-71700000D03*
%TO.P,C609,2*%
%TO.N,GND*%
X114400000Y-70300000D03*
%TD*%
D25*
%TO.P,C407,1*%
%TO.N,Net-(U401-DECOUPLE)*%
X118400000Y-90400000D03*
%TO.P,C407,2*%
%TO.N,GND*%
X119800000Y-90400000D03*
%TD*%
D59*
%TO.P,L603,1,1*%
%TO.N,Net-(C610-Pad1)*%
X110700000Y-76000000D03*
%TO.P,L603,2,2*%
%TO.N,Net-(C612-Pad1)*%
X110700000Y-74650000D03*
%TD*%
D14*
%TO.P,C613,1*%
%TO.N,Net-(C610-Pad1)*%
X110700000Y-77175000D03*
%TO.P,C613,2*%
%TO.N,Net-(C613-Pad2)*%
X109300000Y-77175000D03*
%TD*%
D30*
%TO.P,C207,1*%
%TO.N,/Power/12V\u002C50mA*%
X152300000Y-79550000D03*
D31*
%TO.P,C207,2*%
%TO.N,GND*%
X152300000Y-82050000D03*
%TD*%
D46*
%TO.P,R204,1*%
%TO.N,Net-(C203-Pad1)*%
X127600000Y-65225000D03*
%TO.P,R204,2*%
%TO.N,Net-(D202-K)*%
X130800000Y-65225000D03*
%TD*%
D23*
%TO.P,C608,1*%
%TO.N,Net-(U601-XOSC_Q1)*%
X120000000Y-70000000D03*
%TO.P,C608,2*%
%TO.N,GND*%
X120000000Y-71400000D03*
%TD*%
D67*
%TO.P,T301,*%
%TO.N,*%
X140000000Y-108580000D03*
%TO.P,T301,1,1*%
%TO.N,Net-(R301-Pad2)*%
X157780000Y-98420000D03*
%TO.P,T301,2,2*%
%TO.N,Net-(R302-Pad2)*%
X122220000Y-98420000D03*
%TD*%
D31*
%TO.P,R306,1*%
%TO.N,/Power/AC.Neutral*%
X152100000Y-56950000D03*
%TO.P,R306,2*%
%TO.N,/Microcontroller/Sense.Neutral*%
X152100000Y-69450000D03*
%TD*%
D44*
%TO.P,R202,1*%
%TO.N,Net-(F201-Pad2)*%
X135200000Y-46900000D03*
%TO.P,R202,2*%
%TO.N,Net-(C203-Pad1)*%
X115200000Y-46900000D03*
%TD*%
D31*
%TO.P,R305,1*%
%TO.N,/Power/AC.Line*%
X147900000Y-50550000D03*
%TO.P,R305,2*%
%TO.N,/Microcontroller/Sense.Line*%
X147900000Y-63050000D03*
%TD*%
D68*
%TO.N,GND*%
X127800000Y-89300000D03*
X155550000Y-101550000D03*
X100500000Y-74900000D03*
X146500000Y-63100000D03*
X122900000Y-95900000D03*
X118700000Y-78250000D03*
X134400000Y-96900000D03*
X147900000Y-66600000D03*
X149000000Y-67600000D03*
X127700000Y-85300000D03*
X133700000Y-101500000D03*
X112200000Y-80000000D03*
X143400000Y-82600000D03*
X115300000Y-93350000D03*
X103250000Y-76750000D03*
X141800000Y-69200000D03*
X115300000Y-91250000D03*
X151500000Y-65600000D03*
X119000000Y-83100000D03*
X110250000Y-96000000D03*
X120000000Y-72100000D03*
X127900000Y-99000000D03*
X125900000Y-88300000D03*
X123800000Y-97300000D03*
X129400000Y-78100000D03*
X129400000Y-74300000D03*
X129400000Y-70600000D03*
X116000000Y-69100000D03*
X135800000Y-83000000D03*
X134800000Y-98400000D03*
X129600000Y-101500000D03*
X105250000Y-76750000D03*
X150700000Y-69600000D03*
X153100000Y-71600000D03*
X116800000Y-78250000D03*
X106850000Y-99600000D03*
X114250000Y-92300000D03*
X114900000Y-86000000D03*
X138100000Y-95000000D03*
X110700000Y-71800000D03*
X163600000Y-65000000D03*
X124800000Y-89500000D03*
X116400000Y-80800000D03*
X134400000Y-79900000D03*
X129400000Y-86600000D03*
X125200000Y-95100000D03*
X134800000Y-69000000D03*
X117900000Y-83800000D03*
X152900000Y-65600000D03*
X119700000Y-82600000D03*
X149100000Y-69100000D03*
X114600000Y-74000000D03*
X128500000Y-96900000D03*
X163600000Y-63700000D03*
X120500000Y-100000000D03*
X117700000Y-86000000D03*
X139200000Y-69100000D03*
X149300000Y-63000000D03*
X109500000Y-76000000D03*
X160200000Y-99000000D03*
X145100000Y-97000000D03*
X151900000Y-67900000D03*
X128300000Y-95100000D03*
X139900000Y-101400000D03*
X113500000Y-82250000D03*
X127700000Y-76500000D03*
X132600000Y-69100000D03*
X139200000Y-67200000D03*
X122900000Y-76100000D03*
X152100000Y-72900000D03*
X115300000Y-92300000D03*
X155700000Y-67300000D03*
X113500000Y-86000000D03*
X151200000Y-71700000D03*
X153100000Y-68300000D03*
X112000000Y-81750000D03*
X113500000Y-74500000D03*
X141900000Y-67200000D03*
X131400000Y-96900000D03*
X117750000Y-79200000D03*
X114400000Y-69600000D03*
X136700000Y-95000000D03*
X142300000Y-82600000D03*
X104000000Y-79250000D03*
X151900000Y-98400000D03*
X118800000Y-81000000D03*
X120600000Y-97200000D03*
X145800000Y-66000000D03*
X105750000Y-79250000D03*
X120400000Y-83100000D03*
X148900000Y-64200000D03*
X127700000Y-72400000D03*
X144400000Y-67200000D03*
X124500000Y-98900000D03*
X112000000Y-76000000D03*
X107500000Y-79250000D03*
X145200000Y-101500000D03*
X157800000Y-96200000D03*
X107300000Y-89200000D03*
X107500000Y-76750000D03*
X118400000Y-72500000D03*
X150850000Y-101550000D03*
X156700000Y-67500000D03*
X102500000Y-79250000D03*
X114300000Y-98400000D03*
X141400000Y-95000000D03*
X114900000Y-95200000D03*
X132600000Y-67200000D03*
X159250000Y-101250000D03*
X164200000Y-64300000D03*
X106400000Y-74800000D03*
X131500000Y-99000000D03*
X122600000Y-94600000D03*
X121400000Y-85100000D03*
X120500000Y-90400000D03*
X109750000Y-92750000D03*
X116600000Y-84300000D03*
X115200000Y-83100000D03*
X135100000Y-79200000D03*
X117750000Y-78250000D03*
X147900000Y-98400000D03*
X122900000Y-77800000D03*
X101700000Y-99550000D03*
X125500000Y-91600000D03*
X146900000Y-69100000D03*
X111300000Y-86700000D03*
X109000000Y-80000000D03*
X102100000Y-89300000D03*
X127600000Y-69300000D03*
X109500000Y-81500000D03*
X144500000Y-69200000D03*
X129400000Y-67200000D03*
X142500000Y-96100000D03*
X116176805Y-89176805D03*
X124100000Y-95200000D03*
X100750000Y-79250000D03*
X157700000Y-67500000D03*
X129500000Y-82100000D03*
X103750000Y-82500000D03*
X104250000Y-76750000D03*
X122250000Y-101200000D03*
X146000000Y-64500000D03*
X102000000Y-74800000D03*
X125400000Y-97300000D03*
X134800000Y-67200000D03*
X120100000Y-98300000D03*
X108250000Y-76250000D03*
X141500000Y-82100000D03*
X117750000Y-77300000D03*
X130400000Y-69000000D03*
X119300000Y-96100000D03*
X137100000Y-69100000D03*
X116300000Y-86000000D03*
X122300000Y-85100000D03*
X127700000Y-80800000D03*
X155500000Y-98200000D03*
X152200000Y-66300000D03*
X137100000Y-67200000D03*
X117200000Y-73200000D03*
X146200000Y-67700000D03*
X112000000Y-84900000D03*
X115700000Y-98400000D03*
X131200000Y-95100000D03*
X138500000Y-78650000D03*
X112750000Y-76000000D03*
X109000000Y-95700000D03*
X125650000Y-101550000D03*
X134200000Y-95100000D03*
X116350000Y-92300000D03*
X135100000Y-80600000D03*
X110700000Y-81900000D03*
%TO.N,+3V*%
X121200000Y-77200000D03*
X131400000Y-74050000D03*
X131400000Y-71450000D03*
X114000000Y-84100000D03*
X130500000Y-70250000D03*
X119400000Y-86700000D03*
X130500000Y-84150000D03*
X130500000Y-72750000D03*
X120100000Y-86300000D03*
X145350000Y-98400000D03*
X115200000Y-80000000D03*
X110000000Y-97300000D03*
X131400000Y-85650000D03*
X130450000Y-81050000D03*
X131350000Y-76800000D03*
X111150000Y-87950000D03*
X131350000Y-82600000D03*
X131350000Y-79500000D03*
X130450000Y-78050000D03*
X115300000Y-75650000D03*
X117204134Y-74800000D03*
X114050000Y-80800000D03*
X106386701Y-84266931D03*
X130500000Y-75400000D03*
X118900000Y-82250000D03*
X121250000Y-75300000D03*
%TO.N,+1.8V*%
X122900000Y-88800000D03*
X122500000Y-93300000D03*
X121800000Y-91000000D03*
X122600000Y-89700000D03*
X117400000Y-97350000D03*
X122500000Y-87800000D03*
X116777847Y-88575763D03*
X121400000Y-87800000D03*
X122800000Y-91500000D03*
X113600000Y-96700000D03*
%TO.N,Net-(J401-SWCLK)*%
X118180425Y-93913170D03*
%TO.N,Net-(J401-SWDIO)*%
X119450000Y-94550000D03*
%TO.N,/HMI.Busy*%
X116800000Y-96100000D03*
%TO.N,/HMI.ECS*%
X119450000Y-93100000D03*
%TO.N,/HMI.SRCS*%
X118000000Y-99300000D03*
%TO.N,/SPI.Mosi*%
X111500000Y-92250000D03*
X119800000Y-80700000D03*
%TO.N,/HMI.DC*%
X118500000Y-95600000D03*
%TO.N,/SPI.Miso*%
X110800000Y-91200000D03*
X122300000Y-80100000D03*
%TO.N,/SPI.SCK*%
X111650000Y-90150000D03*
X121400000Y-81200000D03*
%TO.N,/HMI.LED*%
X109000000Y-84500000D03*
X111651805Y-93600000D03*
%TO.N,/Radio.GDO2*%
X109550000Y-91550000D03*
X121400000Y-79000000D03*
%TO.N,/Radio.CS*%
X119550000Y-74500000D03*
X119100000Y-92300000D03*
%TO.N,/Radio.GDO0*%
X112900000Y-89900000D03*
X119700000Y-75900000D03*
%TD*%
D69*
%TO.N,Net-(A601-Pad1)*%
X100500000Y-77950000D02*
X100550000Y-78000000D01*
X100550000Y-78000000D02*
X99555000Y-78000000D01*
X100500000Y-76925000D02*
X100500000Y-77950000D01*
D70*
%TO.N,GND*%
X114700000Y-94285000D02*
X114700000Y-95000000D01*
X118350000Y-72450000D02*
X118400000Y-72500000D01*
X135100000Y-80600000D02*
X135300000Y-80600000D01*
X135850000Y-83050000D02*
X135800000Y-83000000D01*
X142300000Y-82600000D02*
X142700000Y-81650000D01*
X119700000Y-82600000D02*
X119600000Y-83200000D01*
X112700000Y-84900000D02*
X112000000Y-84900000D01*
X163700000Y-65200000D02*
X163800000Y-65100000D01*
X152100000Y-72300000D02*
X152100000Y-72900000D01*
X117200000Y-73900000D02*
X117200000Y-73200000D01*
X110700000Y-81100000D02*
X110700000Y-81900000D01*
D71*
X142150000Y-81600000D02*
X141050000Y-80500000D01*
D70*
X119600000Y-84100000D02*
X120400000Y-83300000D01*
X114700000Y-95000000D02*
X114900000Y-95200000D01*
X118000000Y-83700000D02*
X117900000Y-83800000D01*
X142000000Y-82350000D02*
X142750000Y-81600000D01*
X135100000Y-79200000D02*
X135500000Y-79200000D01*
X115900000Y-89453610D02*
X116176805Y-89176805D01*
X118250000Y-80450000D02*
X118800000Y-81000000D01*
X118000000Y-83100000D02*
X118000000Y-83700000D01*
X103800000Y-82450000D02*
X103750000Y-82500000D01*
X114900000Y-86700000D02*
X114900000Y-86000000D01*
X122300000Y-85100000D02*
X121800000Y-85400000D01*
X120000000Y-71400000D02*
X120000000Y-72100000D01*
X120400000Y-83300000D02*
X120400000Y-83100000D01*
X109775000Y-92775000D02*
X109750000Y-92750000D01*
X119600000Y-83200000D02*
X119600000Y-84100000D01*
X108975000Y-95675000D02*
X109000000Y-95700000D01*
D71*
X142750000Y-81600000D02*
X142150000Y-81600000D01*
D70*
X101700000Y-98600000D02*
X101700000Y-99550000D01*
X112900000Y-80000000D02*
X112200000Y-80000000D01*
X115900000Y-90315000D02*
X115900000Y-89453610D01*
X113500000Y-86700000D02*
X113500000Y-86000000D01*
X143400000Y-82600000D02*
X143400000Y-82250000D01*
X151500000Y-64990000D02*
X151500000Y-65600000D01*
X156465000Y-67565000D02*
X156465000Y-68637500D01*
X114600000Y-74700000D02*
X114600000Y-74000000D01*
X116750000Y-80450000D02*
X116750000Y-80150000D01*
X140750000Y-95000000D02*
X141400000Y-95000000D01*
X114400000Y-70300000D02*
X114400000Y-69600000D01*
X121800000Y-85400000D02*
X121800000Y-86100000D01*
X110700000Y-72550000D02*
X110700000Y-71800000D01*
X118250000Y-80150000D02*
X118250000Y-80450000D01*
X119000000Y-83500000D02*
X119000000Y-83100000D01*
X107300000Y-88200000D02*
X107300000Y-89200000D01*
X135550000Y-98400000D02*
X134800000Y-98400000D01*
X141500000Y-82100000D02*
X142000000Y-82350000D01*
X136700000Y-83050000D02*
X135850000Y-83050000D01*
X100500000Y-75575000D02*
X100500000Y-74900000D01*
X134400000Y-79900000D02*
X136000000Y-79900000D01*
X115700000Y-97500000D02*
X115700000Y-98400000D01*
X143400000Y-82250000D02*
X142750000Y-81600000D01*
X147900000Y-65950000D02*
X147900000Y-66600000D01*
X152900000Y-64990000D02*
X152900000Y-65600000D01*
X122100000Y-76100000D02*
X122900000Y-76100000D01*
X156700000Y-67500000D02*
X156465000Y-67565000D01*
X116600000Y-83500000D02*
X116600000Y-84300000D01*
X121800000Y-85500000D02*
X121400000Y-85100000D01*
X108975000Y-94875000D02*
X108975000Y-95675000D01*
X106900000Y-99550000D02*
X106850000Y-99600000D01*
X102100000Y-88200000D02*
X102100000Y-89300000D01*
X102000000Y-75550000D02*
X102000000Y-74800000D01*
X106900000Y-98600000D02*
X106900000Y-99550000D01*
X116050000Y-69150000D02*
X116000000Y-69100000D01*
X116050000Y-69925000D02*
X116050000Y-69150000D01*
X152200000Y-64290000D02*
X152200000Y-66300000D01*
X122100000Y-77800000D02*
X122900000Y-77800000D01*
X119800000Y-90400000D02*
X120500000Y-90400000D01*
X122050000Y-95900000D02*
X122900000Y-95900000D01*
X121800000Y-94600000D02*
X122600000Y-94600000D01*
X117700000Y-86700000D02*
X117700000Y-86000000D01*
X104450000Y-82450000D02*
X103800000Y-82450000D01*
X109775000Y-93675000D02*
X109775000Y-92775000D01*
X135300000Y-80600000D02*
X136100000Y-79800000D01*
X115200000Y-82300000D02*
X115200000Y-83100000D01*
X118350000Y-71675000D02*
X118350000Y-72450000D01*
X116300000Y-86700000D02*
X116300000Y-86000000D01*
X112100000Y-86700000D02*
X111300000Y-86700000D01*
X111000000Y-96000000D02*
X110250000Y-96000000D01*
X138800000Y-78950000D02*
X138500000Y-78650000D01*
X116400000Y-80800000D02*
X116750000Y-80450000D01*
X114300000Y-97500000D02*
X114300000Y-98400000D01*
X106400000Y-75550000D02*
X106400000Y-74800000D01*
%TO.N,/Power/12V\u002C50mA*%
X144000000Y-79250000D02*
X142750000Y-78000000D01*
X144000000Y-83150000D02*
X144000000Y-79250000D01*
X143550000Y-83600000D02*
X144000000Y-83150000D01*
D72*
%TO.N,Net-(C203-Pad1)*%
X115200000Y-53550000D02*
X117950000Y-56300000D01*
X115200000Y-46900000D02*
X115200000Y-53550000D01*
D71*
X126750000Y-65100000D02*
X117950000Y-56300000D01*
X127600000Y-65100000D02*
X126750000Y-65100000D01*
D72*
%TO.N,Net-(D202-K)*%
X143900000Y-59750000D02*
X140450000Y-56300000D01*
X152200000Y-60290000D02*
X149382641Y-60290000D01*
X149382641Y-60290000D02*
X148842641Y-59750000D01*
X148842641Y-59750000D02*
X143900000Y-59750000D01*
X155550000Y-60290000D02*
X152200000Y-60290000D01*
D71*
X131650000Y-65100000D02*
X140450000Y-56300000D01*
X130800000Y-65100000D02*
X131650000Y-65100000D01*
D70*
%TO.N,Net-(C204-Pad1)*%
X137550000Y-80950000D02*
X136700000Y-81800000D01*
X137550000Y-80500000D02*
X137550000Y-80950000D01*
%TO.N,+3V*%
X116300000Y-89902140D02*
X117700000Y-88502140D01*
X118550000Y-82250000D02*
X118000000Y-81700000D01*
X114000000Y-84800000D02*
X114000000Y-84100000D01*
X114850000Y-76100000D02*
X115300000Y-75650000D01*
X118100000Y-87700000D02*
X117700000Y-88100000D01*
X105900000Y-83780230D02*
X106386701Y-84266931D01*
X117250000Y-76350000D02*
X117250000Y-75350000D01*
X116300000Y-90315000D02*
X116300000Y-89902140D01*
X111150000Y-87950000D02*
X111550000Y-88100000D01*
X117700000Y-88502140D02*
X117700000Y-88100000D01*
X118900000Y-82250000D02*
X118550000Y-82250000D01*
X114200000Y-85600000D02*
X114200000Y-87400000D01*
X119650000Y-77750000D02*
X120650000Y-77750000D01*
X114200000Y-87400000D02*
X114900000Y-88100000D01*
X120100000Y-86300000D02*
X120100000Y-87200000D01*
X117200000Y-74804134D02*
X117204134Y-74800000D01*
X115550000Y-78750000D02*
X115850000Y-78750000D01*
X117200000Y-75300000D02*
X117200000Y-74804134D01*
X114300000Y-80000000D02*
X114300000Y-80550000D01*
X136850000Y-85550000D02*
X136850000Y-84450000D01*
X119600000Y-87700000D02*
X118100000Y-87700000D01*
X117750000Y-80150000D02*
X117750000Y-81450000D01*
X115100000Y-90315000D02*
X115100000Y-88300000D01*
X114300000Y-80550000D02*
X114050000Y-80800000D01*
X120700000Y-77700000D02*
X121200000Y-77200000D01*
X115850000Y-79250000D02*
X115850000Y-80250000D01*
X120700000Y-75850000D02*
X121250000Y-75300000D01*
X119650000Y-77250000D02*
X119650000Y-77150000D01*
X111550000Y-88100000D02*
X112100000Y-88100000D01*
X115750000Y-77250000D02*
X114600000Y-76100000D01*
X115850000Y-80250000D02*
X115200000Y-80900000D01*
X119400000Y-86700000D02*
X119400000Y-87500000D01*
X115200000Y-80900000D02*
X115200000Y-80000000D01*
X145350000Y-98400000D02*
X144450000Y-98400000D01*
X114700000Y-89300000D02*
X113500000Y-88100000D01*
X110750000Y-97300000D02*
X110000000Y-97300000D01*
X119650000Y-77150000D02*
X120700000Y-76100000D01*
X114000000Y-85400000D02*
X114200000Y-85600000D01*
X113500000Y-88100000D02*
X112100000Y-88100000D01*
X114700000Y-90315000D02*
X114700000Y-89300000D01*
X114300000Y-80000000D02*
X115550000Y-78750000D01*
%TO.N,Net-(C205-Pad1)*%
X138250000Y-85550000D02*
X138250000Y-84450000D01*
X138400000Y-84300000D02*
X138400000Y-83050000D01*
X139800000Y-83400000D02*
X138750000Y-83400000D01*
X138750000Y-83400000D02*
X138400000Y-83050000D01*
%TO.N,/Microcontroller/Sense.Current*%
X118750000Y-94900000D02*
X118000000Y-94900000D01*
X121050000Y-96600000D02*
X125600000Y-96600000D01*
X119850000Y-95150000D02*
X119000000Y-95150000D01*
X139250000Y-95000000D02*
X139250000Y-96100000D01*
X120400000Y-94600000D02*
X120400000Y-95850000D01*
X125600000Y-96600000D02*
X126000000Y-96200000D01*
X119000000Y-95150000D02*
X118750000Y-94900000D01*
X120350000Y-95900000D02*
X121050000Y-96600000D01*
X117285000Y-94185000D02*
X117285000Y-93700000D01*
X118000000Y-94900000D02*
X117285000Y-94185000D01*
X126000000Y-96200000D02*
X139150000Y-96200000D01*
X120400000Y-94600000D02*
X119850000Y-95150000D01*
%TO.N,/Microcontroller/Sense.Line*%
X147900000Y-64450000D02*
X147900000Y-63050000D01*
X121651471Y-90300000D02*
X122850000Y-90300000D01*
X124050000Y-91150000D02*
X123700000Y-91150000D01*
X146850000Y-66050000D02*
X144900000Y-68000000D01*
X120600000Y-91600000D02*
X120600000Y-91351471D01*
X128400000Y-69200000D02*
X128400000Y-86800000D01*
X128400000Y-86800000D02*
X124050000Y-91150000D01*
X147900000Y-63050000D02*
X146850000Y-64100000D01*
X119900000Y-91300000D02*
X120400000Y-91800000D01*
X122850000Y-90300000D02*
X123700000Y-91150000D01*
X144900000Y-68000000D02*
X129600000Y-68000000D01*
X146850000Y-64100000D02*
X146850000Y-66050000D01*
X129600000Y-68000000D02*
X128400000Y-69200000D01*
X120600000Y-91351471D02*
X121651471Y-90300000D01*
X117285000Y-91300000D02*
X119900000Y-91300000D01*
%TO.N,+1.8V*%
X121800000Y-93200000D02*
X122400000Y-93200000D01*
X114200000Y-96100000D02*
X113600000Y-96700000D01*
X121800000Y-91800000D02*
X121800000Y-91000000D01*
X122850000Y-91550000D02*
X122800000Y-91500000D01*
X122850000Y-92300000D02*
X122850000Y-91550000D01*
X117400000Y-97350000D02*
X116950000Y-97350000D01*
X114300000Y-95700000D02*
X114300000Y-94285000D01*
X116302084Y-88100000D02*
X116777847Y-88575763D01*
X115500000Y-88900000D02*
X116300000Y-88100000D01*
X122400000Y-93200000D02*
X122500000Y-93300000D01*
X115500000Y-90315000D02*
X115500000Y-88900000D01*
X116950000Y-97350000D02*
X115700000Y-96100000D01*
X115500000Y-94285000D02*
X115500000Y-95900000D01*
%TO.N,/Microcontroller/Sense.Neutral*%
X119750000Y-92000000D02*
X119750000Y-92550000D01*
X119450000Y-91700000D02*
X119750000Y-92000000D01*
X129800000Y-68400000D02*
X128750000Y-69450000D01*
X152100000Y-69450000D02*
X151050000Y-68400000D01*
X120400000Y-93200000D02*
X121100000Y-93900000D01*
X151050000Y-68400000D02*
X129800000Y-68400000D01*
X124550000Y-91450000D02*
X124550000Y-92300000D01*
X122950000Y-93900000D02*
X124350000Y-92500000D01*
X121100000Y-93900000D02*
X122950000Y-93900000D01*
X117285000Y-91700000D02*
X119450000Y-91700000D01*
X128750000Y-69450000D02*
X128750000Y-87250000D01*
X128750000Y-87250000D02*
X124550000Y-91450000D01*
X152100000Y-70800000D02*
X152100000Y-69450000D01*
X119750000Y-92550000D02*
X120400000Y-93200000D01*
%TO.N,Net-(U401-DECOUPLE)*%
X117900000Y-90900000D02*
X118400000Y-90400000D01*
X117285000Y-90900000D02*
X117900000Y-90900000D01*
%TO.N,/HMI.Reset*%
X113900000Y-94285000D02*
X112400000Y-95785000D01*
X161850000Y-93430000D02*
X157720000Y-89300000D01*
X111500000Y-98250000D02*
X112450000Y-97300000D01*
X109350000Y-98250000D02*
X111500000Y-98250000D01*
X106900000Y-95800000D02*
X107750000Y-94950000D01*
X112450000Y-98450000D02*
X116950000Y-102950000D01*
X115950000Y-85050000D02*
X120498530Y-85050000D01*
X123400000Y-81150000D02*
X124650000Y-79900000D01*
X109050000Y-89100000D02*
X109050000Y-86700000D01*
X112300000Y-83450000D02*
X114350000Y-83450000D01*
X109050000Y-86700000D02*
X112300000Y-83450000D01*
X116950000Y-102950000D02*
X160750000Y-102950000D01*
X124650000Y-79900000D02*
X125230000Y-79900000D01*
X112450000Y-97300000D02*
X112450000Y-96050000D01*
X120498530Y-85050000D02*
X123400000Y-82148530D01*
X101700000Y-95800000D02*
X106900000Y-95800000D01*
X112450000Y-97300000D02*
X112450000Y-98450000D01*
X160750000Y-102950000D02*
X161850000Y-101850000D01*
X106900000Y-95800000D02*
X109350000Y-98250000D01*
X114350000Y-83450000D02*
X115950000Y-85050000D01*
X161850000Y-101850000D02*
X161850000Y-93430000D01*
X107750000Y-94950000D02*
X107750000Y-90400000D01*
X123400000Y-82148530D02*
X123400000Y-81150000D01*
X107750000Y-90400000D02*
X109050000Y-89100000D01*
%TO.N,Net-(U601-XOSC_Q1)*%
X118350000Y-69925000D02*
X119925000Y-69925000D01*
X117750000Y-76350000D02*
X117750000Y-75841938D01*
X118295969Y-75295969D02*
X118295969Y-73387907D01*
X117450000Y-72541938D02*
X117450000Y-70825000D01*
X117750000Y-75841938D02*
X118295969Y-75295969D01*
X118295969Y-73387907D02*
X117450000Y-72541938D01*
X117450000Y-70825000D02*
X118350000Y-69925000D01*
%TO.N,Net-(U601-XOSC_Q2)*%
X116050000Y-71675000D02*
X114775000Y-71675000D01*
X116050000Y-75650000D02*
X116050000Y-71675000D01*
X116750000Y-76350000D02*
X116050000Y-75650000D01*
D69*
%TO.N,Net-(C610-Pad2)*%
X110725000Y-78750000D02*
X110675000Y-78700000D01*
X110675000Y-79675000D02*
X110700000Y-79700000D01*
X113075000Y-78750000D02*
X110725000Y-78750000D01*
X110675000Y-78700000D02*
X110675000Y-79675000D01*
%TO.N,Net-(C610-Pad1)*%
X110700000Y-77175000D02*
X110700000Y-76175000D01*
X113075000Y-77300000D02*
X112000000Y-77300000D01*
X112000000Y-77300000D02*
X110825000Y-77300000D01*
X110825000Y-77300000D02*
X110700000Y-77175000D01*
%TO.N,Net-(C612-Pad1)*%
X110700000Y-74825000D02*
X110700000Y-73950000D01*
%TO.N,Net-(C613-Pad2)*%
X109200000Y-78000000D02*
X108425000Y-78000000D01*
X109300000Y-77175000D02*
X109300000Y-77900000D01*
X109300000Y-77900000D02*
X109200000Y-78000000D01*
X109300000Y-78675000D02*
X109325000Y-78700000D01*
X109300000Y-77900000D02*
X109300000Y-78675000D01*
%TO.N,Net-(C614-Pad1)*%
X106400000Y-76950000D02*
X106400000Y-77975000D01*
X106425000Y-78000000D02*
X107075000Y-78000000D01*
X106400000Y-77975000D02*
X106425000Y-78000000D01*
%TO.N,Net-(C615-Pad2)*%
X102000000Y-76950000D02*
X102000000Y-77950000D01*
X101950000Y-78000000D02*
X102800000Y-78000000D01*
X102000000Y-77950000D02*
X101950000Y-78000000D01*
%TO.N,Net-(C615-Pad1)*%
X105075000Y-78000000D02*
X104200000Y-78000000D01*
%TO.N,Net-(D201-A)*%
X148100000Y-55600000D02*
X148000000Y-55700000D01*
X148100000Y-53900000D02*
X148100000Y-55600000D01*
X148000000Y-55700000D02*
X146543934Y-55700000D01*
X146543934Y-55700000D02*
X146521967Y-55721967D01*
D72*
%TO.N,/Power/AC.Neutral*%
X162300000Y-54500000D02*
X161800000Y-54000000D01*
D69*
X151950000Y-57100000D02*
X148000000Y-57100000D01*
D72*
X161800000Y-54000000D02*
X152550000Y-54000000D01*
X158900000Y-60290000D02*
X162300000Y-60290000D01*
X152100000Y-56950000D02*
X152100000Y-54450000D01*
D69*
X148000000Y-57100000D02*
X146500000Y-57100000D01*
D72*
X152100000Y-54450000D02*
X152550000Y-54000000D01*
X162300000Y-60290000D02*
X162300000Y-54500000D01*
D70*
%TO.N,Net-(D501-A)*%
X103850000Y-83650000D02*
X102100000Y-85400000D01*
X105850000Y-82450000D02*
X104650000Y-83650000D01*
X104650000Y-83650000D02*
X104200000Y-83650000D01*
X107050000Y-83650000D02*
X105850000Y-82450000D01*
X107300000Y-85400000D02*
X107300000Y-83750000D01*
D72*
%TO.N,/Power/AC.Line*%
X161800000Y-46000000D02*
X152550000Y-46000000D01*
X143355000Y-46000000D02*
X142955000Y-46400000D01*
X147900000Y-46100000D02*
X147800000Y-46000000D01*
X152550000Y-46000000D02*
X147800000Y-46000000D01*
X147900000Y-50550000D02*
X147900000Y-46100000D01*
X147800000Y-46000000D02*
X143355000Y-46000000D01*
D69*
%TO.N,Net-(F201-Pad2)*%
X142050000Y-53900000D02*
X138045000Y-49895000D01*
D72*
X135700000Y-46400000D02*
X135200000Y-46900000D01*
D69*
X144900000Y-53900000D02*
X142050000Y-53900000D01*
X138045000Y-49895000D02*
X138045000Y-46400000D01*
D72*
X138045000Y-46400000D02*
X135700000Y-46400000D01*
D70*
%TO.N,Net-(J401-SWCLK)*%
X118180425Y-93782565D02*
X118180425Y-93913170D01*
X117697860Y-93300000D02*
X118180425Y-93782565D01*
X117285000Y-93300000D02*
X117697860Y-93300000D01*
%TO.N,Net-(J401-SWDIO)*%
X118250000Y-92900000D02*
X119450000Y-94100000D01*
X119450000Y-94100000D02*
X119450000Y-94550000D01*
X117285000Y-92900000D02*
X118250000Y-92900000D01*
%TO.N,/HMI.Busy*%
X115900000Y-94285000D02*
X115900000Y-95200000D01*
X115900000Y-95200000D02*
X116800000Y-96100000D01*
%TO.N,/HMI.ECS*%
X118451471Y-92500000D02*
X117285000Y-92500000D01*
X119151471Y-93200000D02*
X118451471Y-92500000D01*
X119450000Y-93100000D02*
X119151471Y-93200000D01*
%TO.N,/HMI.SRCS*%
X118100000Y-99200000D02*
X118000000Y-99300000D01*
X116300000Y-94285000D02*
X116300000Y-94700000D01*
X118100000Y-96500000D02*
X118100000Y-99200000D01*
X116300000Y-94700000D02*
X118100000Y-96500000D01*
%TO.N,/SPI.Mosi*%
X118750000Y-80150000D02*
X119250000Y-80150000D01*
X113315000Y-92100000D02*
X111650000Y-92100000D01*
X111650000Y-92100000D02*
X111500000Y-92250000D01*
X119250000Y-80150000D02*
X119800000Y-80700000D01*
%TO.N,/HMI.DC*%
X116700000Y-94285000D02*
X118015000Y-95600000D01*
X118015000Y-95600000D02*
X118500000Y-95600000D01*
%TO.N,/SPI.Miso*%
X121300000Y-80100000D02*
X119949999Y-78750000D01*
X112500000Y-91700000D02*
X112000000Y-91200000D01*
X119949999Y-78750000D02*
X119650000Y-78750000D01*
X112000000Y-91200000D02*
X110800000Y-91200000D01*
X122300000Y-80100000D02*
X121300000Y-80100000D01*
X112500000Y-91700000D02*
X113315000Y-91700000D01*
%TO.N,/SPI.SCK*%
X112800000Y-91300000D02*
X111650000Y-90150000D01*
X113315000Y-91300000D02*
X112800000Y-91300000D01*
X121400000Y-81200000D02*
X119650000Y-79450000D01*
X119650000Y-79450000D02*
X119650000Y-79250000D01*
%TO.N,Net-(U401-VREGSW)*%
X116700000Y-90315000D02*
X116757500Y-90257500D01*
X118357500Y-89100000D02*
X117200000Y-90257500D01*
X116757500Y-90257500D02*
X117200000Y-90257500D01*
%TO.N,Net-(U601-RF_P)*%
X114875000Y-77750000D02*
X114425000Y-77300000D01*
X115850000Y-77750000D02*
X114875000Y-77750000D01*
%TO.N,Net-(U601-RF_N)*%
X115850000Y-78250000D02*
X114925000Y-78250000D01*
X114925000Y-78250000D02*
X114425000Y-78750000D01*
%TO.N,Net-(U201-EN)*%
X139150000Y-82141938D02*
X139150000Y-81200000D01*
X140950000Y-82700000D02*
X139708062Y-82700000D01*
X139708062Y-82700000D02*
X139150000Y-82141938D01*
X141850000Y-83600000D02*
X140950000Y-82700000D01*
X139150000Y-81200000D02*
X139300000Y-81050000D01*
X139300000Y-81050000D02*
X139300000Y-80500000D01*
%TO.N,Net-(U201-BST)*%
X138800000Y-81400000D02*
X138400000Y-81800000D01*
X138800000Y-80500000D02*
X138800000Y-81400000D01*
%TO.N,Net-(U201-FB)*%
X139800000Y-81700000D02*
X139800000Y-80500000D01*
%TO.N,Net-(R301-Pad2)*%
X141600000Y-96950000D02*
X140850000Y-96200000D01*
D71*
X142000000Y-100100000D02*
X141600000Y-99700000D01*
D70*
X141600000Y-98400000D02*
X142750000Y-98400000D01*
D71*
X157780000Y-98420000D02*
X156100000Y-100100000D01*
X141600000Y-99700000D02*
X141600000Y-98400000D01*
D70*
X141600000Y-98400000D02*
X141600000Y-96950000D01*
D71*
X156100000Y-100100000D02*
X142000000Y-100100000D01*
%TO.N,Net-(R302-Pad2)*%
X137900000Y-100100000D02*
X138400000Y-99600000D01*
D70*
X138400000Y-98400000D02*
X137250000Y-98400000D01*
D71*
X122220000Y-98420000D02*
X123900000Y-100100000D01*
X123900000Y-100100000D02*
X137900000Y-100100000D01*
X138400000Y-99600000D02*
X138400000Y-98400000D01*
D70*
%TO.N,/HMI.LED*%
X112351805Y-92900000D02*
X113315000Y-92900000D01*
X109000000Y-84500000D02*
X109000000Y-83750000D01*
X111651805Y-93600000D02*
X112351805Y-92900000D01*
%TO.N,Net-(U601-RBIAS)*%
X117250000Y-80150000D02*
X117250000Y-81150000D01*
X117250000Y-81150000D02*
X116600000Y-81800000D01*
%TO.N,Net-(U202-D12)*%
X156465000Y-73262501D02*
X155195000Y-71992501D01*
X156465000Y-74037500D02*
X156465000Y-73262501D01*
X155195000Y-71992501D02*
X155195000Y-68637500D01*
%TO.N,/Radio.GDO2*%
X111150000Y-92900000D02*
X111800000Y-92900000D01*
X112200000Y-92500000D02*
X113315000Y-92500000D01*
X120808062Y-79000000D02*
X121400000Y-79000000D01*
X111150000Y-92900000D02*
X109800000Y-91550000D01*
X111800000Y-92900000D02*
X112200000Y-92500000D01*
X120058062Y-78250000D02*
X120808062Y-79000000D01*
X109800000Y-91550000D02*
X109550000Y-91550000D01*
X119650000Y-78250000D02*
X120058062Y-78250000D01*
%TO.N,/Radio.CS*%
X118900000Y-92100000D02*
X119100000Y-92300000D01*
X118250000Y-76050001D02*
X118250000Y-76350000D01*
X117285000Y-92100000D02*
X118900000Y-92100000D01*
X119550000Y-74500000D02*
X119600000Y-74700001D01*
X119600000Y-74700001D02*
X118250000Y-76050001D01*
%TO.N,/Radio.GDO0*%
X113315000Y-90315000D02*
X112900000Y-89900000D01*
X119250000Y-76350000D02*
X119700000Y-75900000D01*
X113315000Y-90900000D02*
X113315000Y-90315000D01*
X118750000Y-76350000D02*
X119250000Y-76350000D01*
%TO.N,Net-(U401-HFXTAL_O)*%
X112097115Y-94600000D02*
X110700000Y-94600000D01*
X112997115Y-93700000D02*
X112097115Y-94600000D01*
X110425000Y-94875000D02*
X110025000Y-94875000D01*
X110700000Y-94600000D02*
X110425000Y-94875000D01*
X113315000Y-93700000D02*
X112997115Y-93700000D01*
%TO.N,Net-(U401-PD00{slash}LFXTAL_O)*%
X113900000Y-90315000D02*
X113900000Y-89997114D01*
X113102886Y-89200000D02*
X111400000Y-89200000D01*
X113900000Y-89997114D02*
X113102886Y-89200000D01*
X111400000Y-89200000D02*
X110650000Y-89950000D01*
%TO.N,Net-(U401-PD01{slash}LFXTAL_I)*%
X113247860Y-88850000D02*
X110400000Y-88850000D01*
X114300000Y-89902140D02*
X113247860Y-88850000D01*
X114300000Y-90315000D02*
X114300000Y-89902140D01*
%TO.N,Net-(U401-HFXTAL_I)*%
X112002140Y-94200000D02*
X109650000Y-94200000D01*
X109650000Y-94200000D02*
X108975000Y-93525000D01*
X113315000Y-93300000D02*
X112902140Y-93300000D01*
X112902140Y-93300000D02*
X112002140Y-94200000D01*
%TD*%
%TA.AperFunction,Conductor*%
%TO.N,/Power/12V\u002C50mA*%
G36*
X163478326Y-72021674D02*
G01*
X163500000Y-72074000D01*
X163500000Y-80426000D01*
X163478326Y-80478326D01*
X163426000Y-80500000D01*
X145104692Y-80500000D01*
X145095349Y-80499408D01*
X142351454Y-80150184D01*
X142348632Y-80149769D01*
X141628286Y-80029711D01*
X141625701Y-80029296D01*
X141623141Y-80028899D01*
X141620406Y-80028681D01*
X141620553Y-80026838D01*
X141573632Y-80007240D01*
X141538341Y-79971949D01*
X141467442Y-79935823D01*
X141459927Y-79931418D01*
X141381812Y-79879225D01*
X141254332Y-79826421D01*
X141254322Y-79826418D01*
X141162877Y-79808229D01*
X141118994Y-79799500D01*
X140981006Y-79799500D01*
X140942640Y-79807131D01*
X140845677Y-79826418D01*
X140845667Y-79826421D01*
X140718187Y-79879225D01*
X140661877Y-79916848D01*
X140611424Y-79928726D01*
X139664657Y-79808229D01*
X139615486Y-79780122D01*
X139600000Y-79734821D01*
X139600000Y-79676649D01*
X139613648Y-79633828D01*
X139637296Y-79600499D01*
X139668183Y-79556967D01*
X139689857Y-79504641D01*
X139705500Y-79426000D01*
X139705500Y-78879500D01*
X139727174Y-78827174D01*
X139779500Y-78805500D01*
X140598485Y-78805500D01*
X140598493Y-78805500D01*
X140609054Y-78804294D01*
X140644806Y-78800213D01*
X140644807Y-78800212D01*
X140644813Y-78800212D01*
X140677313Y-78792693D01*
X140677319Y-78792690D01*
X140677322Y-78792690D01*
X140721239Y-78777104D01*
X140721242Y-78777102D01*
X140721249Y-78777100D01*
X140743149Y-78766393D01*
X140779338Y-78758966D01*
X141600000Y-78800000D01*
X141600000Y-78799999D01*
X141600000Y-75273545D01*
X141621674Y-75221219D01*
X141673542Y-75199546D01*
X157800000Y-75100000D01*
X157800000Y-75087000D01*
X157821674Y-75034674D01*
X157874000Y-75013000D01*
X157918254Y-75013000D01*
X157918260Y-75013000D01*
X157986393Y-75003073D01*
X158091483Y-74951698D01*
X158174198Y-74868983D01*
X158225573Y-74763893D01*
X158235500Y-74695760D01*
X158235500Y-73379240D01*
X158225573Y-73311107D01*
X158174198Y-73206017D01*
X158091483Y-73123302D01*
X158091482Y-73123301D01*
X157986394Y-73071927D01*
X157918264Y-73062000D01*
X157918260Y-73062000D01*
X157874000Y-73062000D01*
X157821674Y-73040326D01*
X157800000Y-72988000D01*
X157800000Y-72074000D01*
X157821674Y-72021674D01*
X157874000Y-72000000D01*
X163426000Y-72000000D01*
X163478326Y-72021674D01*
G37*
%TD.AperFunction*%
%TD*%
%TA.AperFunction,Conductor*%
%TO.N,GND*%
G36*
X122543039Y-84719685D02*
G01*
X122588794Y-84772489D01*
X122600000Y-84824000D01*
X122600000Y-86476000D01*
X122580315Y-86543039D01*
X122527511Y-86588794D01*
X122476000Y-86600000D01*
X121224000Y-86600000D01*
X121156961Y-86580315D01*
X121111206Y-86527511D01*
X121100000Y-86476000D01*
X121100000Y-84854153D01*
X121119685Y-84787114D01*
X121136319Y-84766472D01*
X121166472Y-84736319D01*
X121227795Y-84702834D01*
X121254153Y-84700000D01*
X122476000Y-84700000D01*
X122543039Y-84719685D01*
G37*
%TD.AperFunction*%
%TD*%
%TA.AperFunction,Conductor*%
%TO.N,Net-(D204-K)*%
G36*
X159922826Y-63221674D02*
G01*
X159944500Y-63274000D01*
X159944500Y-65275994D01*
X159945254Y-65319540D01*
X159973193Y-65542883D01*
X159975715Y-65554473D01*
X159984400Y-65594397D01*
X160033973Y-65763864D01*
X160070290Y-65840071D01*
X160130808Y-65967058D01*
X160211287Y-66078782D01*
X160262363Y-66149689D01*
X160262365Y-66149691D01*
X160262374Y-66149702D01*
X160308111Y-66202486D01*
X160335444Y-66233009D01*
X160335447Y-66233012D01*
X160502511Y-66383852D01*
X160693824Y-66502437D01*
X160903236Y-66584956D01*
X160955956Y-66600436D01*
X160970271Y-66604640D01*
X161099822Y-66635324D01*
X161323998Y-66655500D01*
X162926000Y-66655500D01*
X162978326Y-66677174D01*
X163000000Y-66729500D01*
X163000000Y-70326000D01*
X162978326Y-70378326D01*
X162926000Y-70400000D01*
X158911116Y-70400000D01*
X158858790Y-70378326D01*
X158837116Y-70326000D01*
X158858790Y-70273674D01*
X158863409Y-70269430D01*
X158878884Y-70256384D01*
X159032555Y-70074121D01*
X159153213Y-69868508D01*
X159237387Y-69645462D01*
X159282655Y-69411399D01*
X159285500Y-69357838D01*
X159285500Y-67917162D01*
X159282655Y-67863601D01*
X159275003Y-67824038D01*
X159275701Y-67792720D01*
X159285683Y-67751148D01*
X159305449Y-67500000D01*
X159285683Y-67248852D01*
X159257545Y-67131647D01*
X159255500Y-67114372D01*
X159255500Y-67074029D01*
X159255500Y-67074000D01*
X159254789Y-67031751D01*
X159227080Y-66808379D01*
X159159932Y-66593544D01*
X159138258Y-66541218D01*
X159103308Y-66464273D01*
X159054026Y-66383853D01*
X158985704Y-66272362D01*
X158985699Y-66272355D01*
X158835723Y-66104532D01*
X158835720Y-66104529D01*
X158835717Y-66104526D01*
X158658175Y-65966172D01*
X158658170Y-65966168D01*
X158658168Y-65966167D01*
X158458785Y-65861743D01*
X158406463Y-65840071D01*
X158406456Y-65840068D01*
X158367151Y-65824557D01*
X158367148Y-65824556D01*
X158367140Y-65824553D01*
X158180049Y-65772920D01*
X158150178Y-65764676D01*
X158032678Y-65754101D01*
X157926002Y-65744500D01*
X157926000Y-65744500D01*
X156085627Y-65744500D01*
X156068352Y-65742455D01*
X155951148Y-65714316D01*
X155951149Y-65714316D01*
X155700000Y-65694551D01*
X155448851Y-65714316D01*
X155331648Y-65742455D01*
X155314373Y-65744500D01*
X155074000Y-65744500D01*
X155038993Y-65745089D01*
X155031745Y-65745211D01*
X155031736Y-65745212D01*
X154838609Y-65769169D01*
X154784013Y-65754101D01*
X154756063Y-65704841D01*
X154755500Y-65695732D01*
X154755500Y-65634259D01*
X154755500Y-65634247D01*
X154752963Y-65554473D01*
X154718583Y-65332030D01*
X154704213Y-65274088D01*
X154682547Y-65197267D01*
X154682544Y-65197261D01*
X154682545Y-65197261D01*
X154595240Y-64988703D01*
X154593653Y-64984568D01*
X154572357Y-64923707D01*
X154569494Y-64913024D01*
X154556290Y-64843235D01*
X154555000Y-64829478D01*
X154555000Y-63750520D01*
X154556290Y-63736762D01*
X154585869Y-63580434D01*
X154590704Y-63553242D01*
X154590706Y-63553233D01*
X154591606Y-63547827D01*
X154607805Y-63387728D01*
X154601975Y-63277923D01*
X154620844Y-63224522D01*
X154671948Y-63200104D01*
X154675871Y-63200000D01*
X159870500Y-63200000D01*
X159922826Y-63221674D01*
G37*
%TD.AperFunction*%
%TD*%
%TA.AperFunction,Conductor*%
%TO.N,+3V*%
G36*
X134978326Y-69821674D02*
G01*
X135000000Y-69874000D01*
X135000000Y-78269348D01*
X134978326Y-78321674D01*
X134300000Y-79000000D01*
X134300000Y-79027251D01*
X134278326Y-79079577D01*
X134273800Y-79083741D01*
X134011169Y-79305968D01*
X134011159Y-79305977D01*
X133989395Y-79327360D01*
X133989390Y-79327366D01*
X133965168Y-79354990D01*
X133922508Y-79432576D01*
X133902825Y-79499608D01*
X133902824Y-79499614D01*
X133894500Y-79557508D01*
X133894500Y-79667140D01*
X133888867Y-79695458D01*
X133863669Y-79756291D01*
X133844750Y-79900000D01*
X133863669Y-80043708D01*
X133888867Y-80104540D01*
X133894500Y-80132858D01*
X133894500Y-80976000D01*
X133899197Y-81019684D01*
X133910407Y-81071215D01*
X133912888Y-81081370D01*
X133912889Y-81081372D01*
X133955899Y-81162083D01*
X133955901Y-81162087D01*
X133987373Y-81198407D01*
X134001655Y-81214889D01*
X134019246Y-81232843D01*
X134099061Y-81277489D01*
X134099060Y-81277489D01*
X134166098Y-81297174D01*
X134166099Y-81297174D01*
X134166102Y-81297175D01*
X134224000Y-81305500D01*
X134226000Y-81305500D01*
X134226416Y-81305672D01*
X134226634Y-81305688D01*
X134226628Y-81305760D01*
X134278326Y-81327174D01*
X134300000Y-81379500D01*
X134300000Y-83500000D01*
X135553863Y-83500000D01*
X135582180Y-83505632D01*
X135656291Y-83536330D01*
X135800000Y-83555250D01*
X135943709Y-83536330D01*
X136017819Y-83505632D01*
X136046137Y-83500000D01*
X136102956Y-83500000D01*
X136155282Y-83521674D01*
X136211658Y-83578050D01*
X136324696Y-83635646D01*
X136418481Y-83650500D01*
X136981518Y-83650499D01*
X136981519Y-83650499D01*
X137075304Y-83635646D01*
X137188342Y-83578050D01*
X137188342Y-83578049D01*
X137192404Y-83575980D01*
X137248867Y-83571536D01*
X137291934Y-83608318D01*
X137300000Y-83641914D01*
X137300000Y-86126000D01*
X137278326Y-86178326D01*
X137226000Y-86200000D01*
X130174000Y-86200000D01*
X130121674Y-86178326D01*
X130100000Y-86126000D01*
X130100000Y-69921271D01*
X130121673Y-69868946D01*
X130121675Y-69868945D01*
X130168947Y-69821674D01*
X130221272Y-69800000D01*
X134926000Y-69800000D01*
X134978326Y-69821674D01*
G37*
%TD.AperFunction*%
%TD*%
%TA.AperFunction,Conductor*%
%TO.N,Net-(U201-SW)*%
G36*
X140778326Y-69821674D02*
G01*
X140800000Y-69874000D01*
X140800000Y-78480654D01*
X140778326Y-78532980D01*
X140736670Y-78553881D01*
X140698606Y-78559427D01*
X140698605Y-78559427D01*
X140630993Y-78592481D01*
X140598493Y-78600000D01*
X139500000Y-78600000D01*
X139500000Y-79426000D01*
X139478326Y-79478326D01*
X139426000Y-79500000D01*
X139137519Y-79500000D01*
X139085193Y-79478326D01*
X139063519Y-79426000D01*
X139064941Y-79411564D01*
X139075500Y-79358479D01*
X139075500Y-78841520D01*
X139063142Y-78779391D01*
X139016271Y-78709244D01*
X139004554Y-78657597D01*
X139005647Y-78650000D01*
X139000753Y-78615959D01*
X139000000Y-78605429D01*
X139000000Y-78300000D01*
X138892776Y-78300000D01*
X138840450Y-78278326D01*
X138836852Y-78274461D01*
X138831133Y-78267861D01*
X138831128Y-78267857D01*
X138710054Y-78190047D01*
X138710050Y-78190046D01*
X138571964Y-78149500D01*
X138571961Y-78149500D01*
X138428039Y-78149500D01*
X138428036Y-78149500D01*
X138289949Y-78190046D01*
X138289945Y-78190047D01*
X138168871Y-78267857D01*
X138168866Y-78267861D01*
X138163148Y-78274461D01*
X138112501Y-78299812D01*
X138107224Y-78300000D01*
X138100000Y-78300000D01*
X138100000Y-78319739D01*
X138081925Y-78368199D01*
X138074626Y-78376622D01*
X138074624Y-78376624D01*
X138014834Y-78507545D01*
X137994353Y-78650000D01*
X138014834Y-78792454D01*
X138014834Y-78792455D01*
X138014835Y-78792457D01*
X138074623Y-78923373D01*
X138081925Y-78931800D01*
X138100000Y-78980259D01*
X138100000Y-79576000D01*
X138078326Y-79628326D01*
X138026000Y-79650000D01*
X137074000Y-79650000D01*
X137021674Y-79628326D01*
X137000000Y-79576000D01*
X137000000Y-69874000D01*
X137021674Y-69821674D01*
X137074000Y-69800000D01*
X140726000Y-69800000D01*
X140778326Y-69821674D01*
G37*
%TD.AperFunction*%
%TD*%
%TA.AperFunction,Conductor*%
%TO.N,GND*%
G36*
X141594368Y-80232394D02*
G01*
X143645888Y-80574314D01*
X143708777Y-80604751D01*
X143745228Y-80664359D01*
X143749500Y-80696626D01*
X143749500Y-82877849D01*
X143729815Y-82944888D01*
X143677011Y-82990643D01*
X143626819Y-83001842D01*
X141679507Y-83022558D01*
X141612262Y-83003588D01*
X141590507Y-82986246D01*
X141486319Y-82882058D01*
X141452834Y-82820735D01*
X141450000Y-82794377D01*
X141450000Y-80354710D01*
X141469685Y-80287671D01*
X141522489Y-80241916D01*
X141591647Y-80231972D01*
X141594368Y-80232394D01*
G37*
%TD.AperFunction*%
%TD*%
%TA.AperFunction,Conductor*%
%TO.N,GND*%
G36*
X153297452Y-63219685D02*
G01*
X153343207Y-63272489D01*
X153353151Y-63341647D01*
X153352251Y-63347053D01*
X153305631Y-63593445D01*
X153305630Y-63593458D01*
X153299500Y-63702610D01*
X153299500Y-64877389D01*
X153305630Y-64986541D01*
X153305631Y-64986554D01*
X153354403Y-65244322D01*
X153354404Y-65244327D01*
X153354405Y-65244332D01*
X153354406Y-65244333D01*
X153441059Y-65491974D01*
X153441060Y-65491977D01*
X153441061Y-65491978D01*
X153485630Y-65576305D01*
X153500000Y-65634247D01*
X153500000Y-66676000D01*
X153480315Y-66743039D01*
X153427511Y-66788794D01*
X153376000Y-66800000D01*
X151224000Y-66800000D01*
X151156961Y-66780315D01*
X151111206Y-66727511D01*
X151100000Y-66676000D01*
X151100000Y-63324000D01*
X151119685Y-63256961D01*
X151172489Y-63211206D01*
X151224000Y-63200000D01*
X153230413Y-63200000D01*
X153297452Y-63219685D01*
G37*
%TD.AperFunction*%
%TD*%
%TA.AperFunction,Conductor*%
%TO.N,GND*%
G36*
X112478326Y-71021674D02*
G01*
X112500000Y-71074000D01*
X112500000Y-73500000D01*
X115176000Y-73500000D01*
X115228326Y-73521674D01*
X115250000Y-73574000D01*
X115250000Y-75036436D01*
X115228326Y-75088762D01*
X115185660Y-75109803D01*
X115156291Y-75113669D01*
X115022376Y-75169138D01*
X115022375Y-75169139D01*
X114936923Y-75234708D01*
X114891876Y-75250000D01*
X113250000Y-75250000D01*
X113250000Y-76426000D01*
X113228326Y-76478326D01*
X113176000Y-76500000D01*
X111374500Y-76500000D01*
X111322174Y-76478326D01*
X111300500Y-76426000D01*
X111300500Y-76095941D01*
X111300499Y-76095940D01*
X111259578Y-75943220D01*
X111259577Y-75943216D01*
X111259574Y-75943211D01*
X111257720Y-75938734D01*
X111258712Y-75938322D01*
X111250499Y-75907664D01*
X111250499Y-75737223D01*
X111250499Y-75737218D01*
X111250491Y-75737152D01*
X111250000Y-75728642D01*
X111250000Y-75500000D01*
X111080179Y-75500000D01*
X111050289Y-75493695D01*
X111009410Y-75475645D01*
X110970297Y-75434682D01*
X110971605Y-75378060D01*
X111002300Y-75343864D01*
X111068716Y-75305520D01*
X111180520Y-75193716D01*
X111259577Y-75056784D01*
X111300499Y-74904059D01*
X111300500Y-74904059D01*
X111300500Y-74187046D01*
X111308566Y-74153450D01*
X111335646Y-74100304D01*
X111350500Y-74006519D01*
X111350499Y-73543482D01*
X111347045Y-73521674D01*
X111335646Y-73449695D01*
X111335645Y-73449693D01*
X111278049Y-73336657D01*
X111188343Y-73246951D01*
X111188342Y-73246950D01*
X111075304Y-73189354D01*
X111075302Y-73189353D01*
X111075301Y-73189353D01*
X110981519Y-73174500D01*
X110418480Y-73174500D01*
X110324695Y-73189353D01*
X110324693Y-73189354D01*
X110211657Y-73246950D01*
X110121951Y-73336656D01*
X110064353Y-73449698D01*
X110049500Y-73543480D01*
X110049500Y-74006519D01*
X110064353Y-74100302D01*
X110091434Y-74153450D01*
X110099500Y-74187046D01*
X110099500Y-74904059D01*
X110140421Y-75056779D01*
X110140422Y-75056781D01*
X110140423Y-75056784D01*
X110219480Y-75193716D01*
X110331284Y-75305520D01*
X110397699Y-75343864D01*
X110432178Y-75388797D01*
X110424786Y-75444949D01*
X110390591Y-75475644D01*
X110349713Y-75493694D01*
X110319822Y-75500000D01*
X110000000Y-75500000D01*
X110000000Y-76426000D01*
X109978326Y-76478326D01*
X109926000Y-76500000D01*
X108750000Y-76500000D01*
X108750000Y-76711972D01*
X108741934Y-76745567D01*
X108714354Y-76799695D01*
X108714353Y-76799696D01*
X108699500Y-76893480D01*
X108699500Y-77176000D01*
X108677826Y-77228326D01*
X108625500Y-77250000D01*
X107124500Y-77250000D01*
X107072174Y-77228326D01*
X107050500Y-77176000D01*
X107050499Y-76718480D01*
X107035646Y-76624695D01*
X107035645Y-76624693D01*
X107008066Y-76570567D01*
X107000000Y-76536971D01*
X107000000Y-76250000D01*
X105750000Y-76250000D01*
X105750000Y-76709499D01*
X105749522Y-76715563D01*
X105749728Y-76715580D01*
X105749500Y-76718478D01*
X105749501Y-77176000D01*
X105727827Y-77228326D01*
X105675501Y-77250000D01*
X102824000Y-77250000D01*
X102771674Y-77228326D01*
X102750000Y-77176000D01*
X102750000Y-76250000D01*
X100074000Y-76250000D01*
X100021674Y-76228326D01*
X100000000Y-76176000D01*
X100000000Y-74074000D01*
X100021674Y-74021674D01*
X100074000Y-74000000D01*
X109000000Y-74000000D01*
X109000000Y-71074000D01*
X109021674Y-71021674D01*
X109074000Y-71000000D01*
X112426000Y-71000000D01*
X112478326Y-71021674D01*
G37*
%TD.AperFunction*%
%TD*%
%TA.AperFunction,Conductor*%
%TO.N,GND*%
G36*
X160678180Y-93821735D02*
G01*
X160700000Y-93874000D01*
X160700000Y-102326000D01*
X160678326Y-102378326D01*
X160626000Y-102400000D01*
X118974000Y-102400000D01*
X118921674Y-102378326D01*
X118900000Y-102326000D01*
X118900000Y-96008124D01*
X118915291Y-95963076D01*
X118980861Y-95877625D01*
X119036330Y-95743709D01*
X119055250Y-95600000D01*
X119046582Y-95534159D01*
X119061241Y-95479451D01*
X119110290Y-95451133D01*
X119119949Y-95450500D01*
X119656879Y-95450500D01*
X119709205Y-95472174D01*
X119730879Y-95524500D01*
X119722813Y-95558092D01*
X119717474Y-95568572D01*
X119714353Y-95574697D01*
X119699500Y-95668480D01*
X119699500Y-96131519D01*
X119714353Y-96225304D01*
X119714354Y-96225306D01*
X119741115Y-96277826D01*
X119771950Y-96338342D01*
X119861658Y-96428050D01*
X119974696Y-96485646D01*
X120068481Y-96500500D01*
X120494876Y-96500499D01*
X120547202Y-96522173D01*
X120809540Y-96784511D01*
X120865489Y-96840460D01*
X120934011Y-96880021D01*
X120934012Y-96880021D01*
X120934014Y-96880022D01*
X120972224Y-96890260D01*
X121010435Y-96900499D01*
X121010436Y-96900500D01*
X121735486Y-96900500D01*
X121787812Y-96922174D01*
X121809486Y-96974500D01*
X121787812Y-97026826D01*
X121759515Y-97044490D01*
X121715822Y-97059489D01*
X121635342Y-97087118D01*
X121423940Y-97201524D01*
X121423928Y-97201531D01*
X121234234Y-97349176D01*
X121071427Y-97526033D01*
X120939951Y-97727271D01*
X120843392Y-97947402D01*
X120784378Y-98180442D01*
X120784378Y-98180443D01*
X120764529Y-98419996D01*
X120764529Y-98420003D01*
X120784378Y-98659556D01*
X120784378Y-98659557D01*
X120801028Y-98725306D01*
X120842492Y-98889045D01*
X120843392Y-98892597D01*
X120911980Y-99048961D01*
X120939951Y-99112728D01*
X121071429Y-99313969D01*
X121234236Y-99490825D01*
X121423933Y-99638472D01*
X121635344Y-99752882D01*
X121862703Y-99830934D01*
X122099808Y-99870500D01*
X122340192Y-99870500D01*
X122577297Y-99830934D01*
X122580480Y-99829841D01*
X122637006Y-99833340D01*
X122656844Y-99847501D01*
X123453457Y-100644114D01*
X123568189Y-100720775D01*
X123695672Y-100773580D01*
X123831006Y-100800500D01*
X123831007Y-100800500D01*
X123831008Y-100800500D01*
X137968992Y-100800500D01*
X137968994Y-100800500D01*
X138104328Y-100773580D01*
X138231811Y-100720775D01*
X138346543Y-100644114D01*
X138944114Y-100046543D01*
X139020775Y-99931811D01*
X139073580Y-99804328D01*
X139100500Y-99668994D01*
X139100500Y-99531006D01*
X139100500Y-98331007D01*
X139100500Y-97395734D01*
X139097646Y-97365301D01*
X139052793Y-97237118D01*
X139026524Y-97201524D01*
X138972153Y-97127853D01*
X138972146Y-97127846D01*
X138862883Y-97047207D01*
X138862881Y-97047206D01*
X138734704Y-97002355D01*
X138734705Y-97002355D01*
X138734700Y-97002354D01*
X138734699Y-97002354D01*
X138704266Y-96999500D01*
X138095734Y-96999500D01*
X138065301Y-97002354D01*
X138065299Y-97002354D01*
X138065295Y-97002355D01*
X137937118Y-97047206D01*
X137937116Y-97047207D01*
X137827853Y-97127846D01*
X137827846Y-97127853D01*
X137747207Y-97237116D01*
X137747206Y-97237118D01*
X137702355Y-97365295D01*
X137702354Y-97365299D01*
X137702354Y-97365301D01*
X137699500Y-97395734D01*
X137699500Y-97395740D01*
X137699500Y-97739462D01*
X137677826Y-97791788D01*
X137625500Y-97813462D01*
X137613924Y-97812551D01*
X137531519Y-97799500D01*
X136968480Y-97799500D01*
X136874695Y-97814353D01*
X136874693Y-97814354D01*
X136761657Y-97871950D01*
X136671951Y-97961656D01*
X136614353Y-98074698D01*
X136599500Y-98168480D01*
X136599500Y-98631519D01*
X136614353Y-98725304D01*
X136614354Y-98725306D01*
X136664367Y-98823459D01*
X136671950Y-98838342D01*
X136761658Y-98928050D01*
X136874696Y-98985646D01*
X136968481Y-99000500D01*
X137531518Y-99000499D01*
X137613924Y-98987448D01*
X137668997Y-99000670D01*
X137698589Y-99048961D01*
X137699500Y-99060537D01*
X137699500Y-99279191D01*
X137677826Y-99331517D01*
X137631517Y-99377826D01*
X137579191Y-99399500D01*
X124220809Y-99399500D01*
X124168483Y-99377826D01*
X123643847Y-98853190D01*
X123622173Y-98800864D01*
X123624435Y-98782706D01*
X123655620Y-98659563D01*
X123675471Y-98420000D01*
X123661906Y-98256291D01*
X123655621Y-98180443D01*
X123655621Y-98180442D01*
X123655620Y-98180437D01*
X123596610Y-97947409D01*
X123500049Y-97727272D01*
X123368571Y-97526031D01*
X123219814Y-97364437D01*
X123205765Y-97349176D01*
X123016071Y-97201531D01*
X123016070Y-97201530D01*
X123016067Y-97201528D01*
X122879928Y-97127853D01*
X122804657Y-97087118D01*
X122745124Y-97066681D01*
X122680485Y-97044490D01*
X122638033Y-97007001D01*
X122634523Y-96950472D01*
X122672013Y-96908019D01*
X122704514Y-96900500D01*
X125639564Y-96900500D01*
X125639564Y-96900499D01*
X125715989Y-96880021D01*
X125784511Y-96840460D01*
X125840460Y-96784511D01*
X126102797Y-96522174D01*
X126155123Y-96500500D01*
X138456368Y-96500500D01*
X138508694Y-96522174D01*
X138522302Y-96540904D01*
X138564882Y-96624471D01*
X138571950Y-96638342D01*
X138661658Y-96728050D01*
X138774696Y-96785646D01*
X138868481Y-96800500D01*
X139431518Y-96800499D01*
X139431519Y-96800499D01*
X139525304Y-96785646D01*
X139525306Y-96785645D01*
X139527532Y-96784511D01*
X139638342Y-96728050D01*
X139728050Y-96638342D01*
X139785646Y-96525304D01*
X139800500Y-96431519D01*
X139800499Y-95968482D01*
X139800499Y-95968480D01*
X140199500Y-95968480D01*
X140199500Y-96431519D01*
X140214353Y-96525304D01*
X140214354Y-96525306D01*
X140264882Y-96624471D01*
X140271950Y-96638342D01*
X140361658Y-96728050D01*
X140474696Y-96785646D01*
X140568481Y-96800500D01*
X140994876Y-96800499D01*
X141047202Y-96822173D01*
X141154617Y-96929588D01*
X141176291Y-96981914D01*
X141154617Y-97034240D01*
X141141554Y-97043880D01*
X141141579Y-97043914D01*
X141027853Y-97127846D01*
X141027846Y-97127853D01*
X140947207Y-97237116D01*
X140947206Y-97237118D01*
X140902355Y-97365295D01*
X140902354Y-97365299D01*
X140902354Y-97365301D01*
X140899500Y-97395734D01*
X140899500Y-98331007D01*
X140899500Y-99631006D01*
X140899500Y-99768994D01*
X140906529Y-99804332D01*
X140926418Y-99904322D01*
X140926421Y-99904332D01*
X140979224Y-100031810D01*
X141055883Y-100146539D01*
X141055886Y-100146543D01*
X141455886Y-100546542D01*
X141553458Y-100644114D01*
X141668189Y-100720775D01*
X141742866Y-100751707D01*
X141795671Y-100773580D01*
X141822589Y-100778933D01*
X141822590Y-100778934D01*
X141822591Y-100778934D01*
X141931007Y-100800500D01*
X141931008Y-100800500D01*
X156168992Y-100800500D01*
X156168994Y-100800500D01*
X156304328Y-100773580D01*
X156431811Y-100720775D01*
X156546543Y-100644114D01*
X157343155Y-99847500D01*
X157395480Y-99825827D01*
X157419510Y-99829837D01*
X157422703Y-99830934D01*
X157659808Y-99870500D01*
X157900192Y-99870500D01*
X158137297Y-99830934D01*
X158364656Y-99752882D01*
X158576067Y-99638472D01*
X158765764Y-99490825D01*
X158928571Y-99313969D01*
X159060049Y-99112728D01*
X159156610Y-98892591D01*
X159215620Y-98659563D01*
X159215620Y-98659559D01*
X159215621Y-98659557D01*
X159215621Y-98659556D01*
X159235471Y-98420003D01*
X159235471Y-98419996D01*
X159215621Y-98180443D01*
X159215621Y-98180442D01*
X159215620Y-98180437D01*
X159156610Y-97947409D01*
X159060049Y-97727272D01*
X158928571Y-97526031D01*
X158779814Y-97364437D01*
X158765765Y-97349176D01*
X158576071Y-97201531D01*
X158576070Y-97201530D01*
X158576067Y-97201528D01*
X158439915Y-97127846D01*
X158364655Y-97087117D01*
X158137295Y-97009065D01*
X157900194Y-96969500D01*
X157900192Y-96969500D01*
X157659808Y-96969500D01*
X157659805Y-96969500D01*
X157422704Y-97009065D01*
X157195344Y-97087117D01*
X156983940Y-97201524D01*
X156983928Y-97201531D01*
X156794234Y-97349176D01*
X156631427Y-97526033D01*
X156499951Y-97727271D01*
X156403392Y-97947402D01*
X156344378Y-98180442D01*
X156344378Y-98180443D01*
X156324529Y-98419996D01*
X156324529Y-98420003D01*
X156344378Y-98659556D01*
X156344379Y-98659560D01*
X156375561Y-98782699D01*
X156367395Y-98838744D01*
X156356151Y-98853190D01*
X155831517Y-99377826D01*
X155779191Y-99399500D01*
X142374500Y-99399500D01*
X142322174Y-99377826D01*
X142300500Y-99325500D01*
X142300500Y-99060537D01*
X142322174Y-99008211D01*
X142374500Y-98986537D01*
X142386069Y-98987447D01*
X142468481Y-99000500D01*
X143031518Y-99000499D01*
X143031519Y-99000499D01*
X143125304Y-98985646D01*
X143125306Y-98985645D01*
X143127419Y-98984568D01*
X143238342Y-98928050D01*
X143328050Y-98838342D01*
X143385646Y-98725304D01*
X143400500Y-98631519D01*
X143400499Y-98168482D01*
X143400499Y-98168480D01*
X143799500Y-98168480D01*
X143799500Y-98631519D01*
X143814353Y-98725304D01*
X143814354Y-98725306D01*
X143864367Y-98823459D01*
X143871950Y-98838342D01*
X143961658Y-98928050D01*
X144074696Y-98985646D01*
X144168481Y-99000500D01*
X144731518Y-99000499D01*
X144731519Y-99000499D01*
X144825304Y-98985646D01*
X144825306Y-98985645D01*
X144899500Y-98947841D01*
X144938342Y-98928050D01*
X144977346Y-98889044D01*
X145029672Y-98867370D01*
X145067200Y-98880110D01*
X145068169Y-98878433D01*
X145072371Y-98880858D01*
X145072375Y-98880861D01*
X145206291Y-98936330D01*
X145350000Y-98955250D01*
X145493709Y-98936330D01*
X145627625Y-98880861D01*
X145742621Y-98792621D01*
X145830861Y-98677625D01*
X145886330Y-98543709D01*
X145905250Y-98400000D01*
X145886330Y-98256291D01*
X145830861Y-98122375D01*
X145742621Y-98007379D01*
X145627625Y-97919139D01*
X145607867Y-97910955D01*
X145493708Y-97863669D01*
X145350000Y-97844750D01*
X145206291Y-97863669D01*
X145072376Y-97919138D01*
X145068173Y-97921565D01*
X145066943Y-97919434D01*
X145019967Y-97931990D01*
X144977347Y-97910955D01*
X144938343Y-97871951D01*
X144938342Y-97871950D01*
X144825304Y-97814354D01*
X144825302Y-97814353D01*
X144825301Y-97814353D01*
X144731519Y-97799500D01*
X144168480Y-97799500D01*
X144074695Y-97814353D01*
X144074693Y-97814354D01*
X143961657Y-97871950D01*
X143871951Y-97961656D01*
X143814353Y-98074698D01*
X143799500Y-98168480D01*
X143400499Y-98168480D01*
X143385646Y-98074696D01*
X143385646Y-98074695D01*
X143385645Y-98074693D01*
X143328049Y-97961657D01*
X143238343Y-97871951D01*
X143238342Y-97871950D01*
X143125304Y-97814354D01*
X143125302Y-97814353D01*
X143125301Y-97814353D01*
X143031519Y-97799500D01*
X142468479Y-97799500D01*
X142386075Y-97812551D01*
X142331003Y-97799328D01*
X142301411Y-97751037D01*
X142300500Y-97739462D01*
X142300500Y-97395740D01*
X142300500Y-97395734D01*
X142297646Y-97365301D01*
X142252793Y-97237118D01*
X142226524Y-97201524D01*
X142172153Y-97127853D01*
X142172146Y-97127846D01*
X142062883Y-97047207D01*
X142062881Y-97047206D01*
X141950059Y-97007727D01*
X141907828Y-96969987D01*
X141900500Y-96937880D01*
X141900500Y-96910436D01*
X141900499Y-96910435D01*
X141880022Y-96834014D01*
X141880020Y-96834009D01*
X141868277Y-96813670D01*
X141840460Y-96765489D01*
X141784511Y-96709540D01*
X141522173Y-96447202D01*
X141500499Y-96394876D01*
X141500499Y-95968480D01*
X141485646Y-95874695D01*
X141485645Y-95874693D01*
X141428049Y-95761657D01*
X141338343Y-95671951D01*
X141338342Y-95671950D01*
X141225304Y-95614354D01*
X141225302Y-95614353D01*
X141225301Y-95614353D01*
X141131519Y-95599500D01*
X140568480Y-95599500D01*
X140474695Y-95614353D01*
X140474693Y-95614354D01*
X140361657Y-95671950D01*
X140271951Y-95761656D01*
X140214353Y-95874698D01*
X140199500Y-95968480D01*
X139800499Y-95968480D01*
X139785646Y-95874696D01*
X139785646Y-95874695D01*
X139785645Y-95874693D01*
X139728049Y-95761657D01*
X139638342Y-95671950D01*
X139590904Y-95647779D01*
X139554122Y-95604712D01*
X139550500Y-95581845D01*
X139550500Y-95395123D01*
X139572174Y-95342797D01*
X139604546Y-95310425D01*
X139642206Y-95272765D01*
X139687585Y-95169991D01*
X139690500Y-95144865D01*
X139690499Y-94855136D01*
X139687585Y-94830009D01*
X139642206Y-94727235D01*
X139562765Y-94647794D01*
X139459991Y-94602415D01*
X139459990Y-94602414D01*
X139459988Y-94602414D01*
X139438659Y-94599940D01*
X139434865Y-94599500D01*
X139434864Y-94599500D01*
X139065136Y-94599500D01*
X139040013Y-94602414D01*
X139040007Y-94602415D01*
X138937234Y-94647794D01*
X138857794Y-94727234D01*
X138812414Y-94830011D01*
X138809500Y-94855135D01*
X138809500Y-95144863D01*
X138812414Y-95169986D01*
X138812415Y-95169992D01*
X138857794Y-95272765D01*
X138927826Y-95342797D01*
X138949500Y-95395123D01*
X138949500Y-95525500D01*
X138927826Y-95577826D01*
X138875507Y-95599500D01*
X138868480Y-95599500D01*
X138774695Y-95614353D01*
X138774693Y-95614354D01*
X138661657Y-95671950D01*
X138571951Y-95761656D01*
X138571950Y-95761658D01*
X138522302Y-95859096D01*
X138479236Y-95895878D01*
X138456369Y-95899500D01*
X125960436Y-95899500D01*
X125884014Y-95919977D01*
X125884009Y-95919979D01*
X125815488Y-95959540D01*
X125497203Y-96277826D01*
X125444877Y-96299500D01*
X121205123Y-96299500D01*
X121152797Y-96277826D01*
X121022173Y-96147202D01*
X121000499Y-96094876D01*
X121000499Y-95668480D01*
X120985646Y-95574695D01*
X120985645Y-95574693D01*
X120928049Y-95461657D01*
X120838340Y-95371948D01*
X120777471Y-95340934D01*
X120740688Y-95297867D01*
X120745132Y-95241405D01*
X120777471Y-95209066D01*
X120838340Y-95178051D01*
X120838339Y-95178051D01*
X120838342Y-95178050D01*
X120928050Y-95088342D01*
X120985646Y-94975304D01*
X121000500Y-94881519D01*
X121000499Y-94318482D01*
X120995367Y-94286075D01*
X121008589Y-94231003D01*
X121056881Y-94201411D01*
X121068456Y-94200500D01*
X122989564Y-94200500D01*
X122989564Y-94200499D01*
X123065989Y-94180021D01*
X123134511Y-94140460D01*
X123190460Y-94084511D01*
X123353297Y-93921674D01*
X123405623Y-93900000D01*
X124699897Y-93900000D01*
X124700000Y-93900000D01*
X160625794Y-93800206D01*
X160678180Y-93821735D01*
G37*
%TD.AperFunction*%
%TD*%
%TA.AperFunction,Conductor*%
%TO.N,GND*%
G36*
X120443039Y-82019685D02*
G01*
X120488794Y-82072489D01*
X120500000Y-82124000D01*
X120500000Y-84642907D01*
X120480315Y-84709946D01*
X120463681Y-84730588D01*
X120431088Y-84763181D01*
X120369765Y-84796666D01*
X120343407Y-84799500D01*
X118824000Y-84799500D01*
X118756961Y-84779815D01*
X118711206Y-84727011D01*
X118700000Y-84675500D01*
X118700000Y-82874500D01*
X118719685Y-82807461D01*
X118772489Y-82761706D01*
X118824000Y-82750500D01*
X118971962Y-82750500D01*
X118971962Y-82750499D01*
X119110053Y-82709953D01*
X119231128Y-82632143D01*
X119325377Y-82523373D01*
X119385165Y-82392457D01*
X119405647Y-82250000D01*
X119390068Y-82141645D01*
X119400012Y-82072489D01*
X119445766Y-82019685D01*
X119512806Y-82000000D01*
X120376000Y-82000000D01*
X120443039Y-82019685D01*
G37*
%TD.AperFunction*%
%TD*%
%TA.AperFunction,Conductor*%
%TO.N,GND*%
G36*
X136743039Y-78419685D02*
G01*
X136788794Y-78472489D01*
X136800000Y-78524000D01*
X136800000Y-80976000D01*
X136780315Y-81043039D01*
X136727511Y-81088794D01*
X136676000Y-81100000D01*
X134224000Y-81100000D01*
X134156961Y-81080315D01*
X134111206Y-81027511D01*
X134100000Y-80976000D01*
X134100000Y-79557511D01*
X134119685Y-79490472D01*
X134143903Y-79462851D01*
X135365325Y-78429339D01*
X135429217Y-78401063D01*
X135445422Y-78400000D01*
X136676000Y-78400000D01*
X136743039Y-78419685D01*
G37*
%TD.AperFunction*%
%TD*%
%TA.AperFunction,Conductor*%
%TO.N,GND*%
G36*
X148942648Y-62501994D02*
G01*
X148942651Y-62501994D01*
X148942654Y-62501995D01*
X149072460Y-62519083D01*
X149235135Y-62540500D01*
X149530146Y-62540500D01*
X149926000Y-62540500D01*
X149978326Y-62562174D01*
X150000000Y-62614500D01*
X150000000Y-67400000D01*
X153526000Y-67400000D01*
X153578326Y-67421674D01*
X153600000Y-67474000D01*
X153600000Y-73526000D01*
X153578326Y-73578326D01*
X153526000Y-73600000D01*
X150874000Y-73600000D01*
X150821674Y-73578326D01*
X150800000Y-73526000D01*
X150800000Y-70600000D01*
X150799999Y-70599999D01*
X149500000Y-69700000D01*
X130300000Y-69399999D01*
X129800000Y-69900000D01*
X129800000Y-87869348D01*
X129778326Y-87921674D01*
X125553758Y-92146241D01*
X125501432Y-92167915D01*
X125449106Y-92146241D01*
X125447779Y-92144878D01*
X124929249Y-91597540D01*
X124908998Y-91544651D01*
X124930643Y-91494327D01*
X128990460Y-87434511D01*
X129030021Y-87365989D01*
X129050499Y-87289564D01*
X129050500Y-87289564D01*
X129050500Y-69605123D01*
X129072174Y-69552797D01*
X129902797Y-68722174D01*
X129955123Y-68700500D01*
X150894877Y-68700500D01*
X150947203Y-68722174D01*
X151210815Y-68985786D01*
X151232489Y-69038112D01*
X151223754Y-69072990D01*
X151217606Y-69084494D01*
X151163253Y-69263667D01*
X151144901Y-69450000D01*
X151163253Y-69636332D01*
X151217605Y-69815505D01*
X151305859Y-69980617D01*
X151305862Y-69980622D01*
X151305864Y-69980625D01*
X151424643Y-70125357D01*
X151569375Y-70244136D01*
X151569380Y-70244138D01*
X151569382Y-70244140D01*
X151628328Y-70275647D01*
X151734499Y-70332396D01*
X151745350Y-70335687D01*
X151789134Y-70371614D01*
X151794689Y-70427978D01*
X151776201Y-70458827D01*
X151747794Y-70487234D01*
X151702414Y-70590011D01*
X151699500Y-70615135D01*
X151699500Y-70984863D01*
X151702414Y-71009986D01*
X151702415Y-71009991D01*
X151747794Y-71112765D01*
X151827235Y-71192206D01*
X151930009Y-71237585D01*
X151955135Y-71240500D01*
X152244864Y-71240499D01*
X152269991Y-71237585D01*
X152372765Y-71192206D01*
X152452206Y-71112765D01*
X152497585Y-71009991D01*
X152500500Y-70984865D01*
X152500499Y-70615136D01*
X152497585Y-70590009D01*
X152452206Y-70487235D01*
X152423799Y-70458828D01*
X152402125Y-70406502D01*
X152423799Y-70354176D01*
X152454647Y-70335688D01*
X152465501Y-70332396D01*
X152630625Y-70244136D01*
X152775357Y-70125357D01*
X152894136Y-69980625D01*
X152982396Y-69815501D01*
X153036747Y-69636331D01*
X153055099Y-69450000D01*
X153036747Y-69263669D01*
X152982396Y-69084499D01*
X152982394Y-69084496D01*
X152982394Y-69084494D01*
X152894140Y-68919382D01*
X152894138Y-68919380D01*
X152894136Y-68919375D01*
X152775357Y-68774643D01*
X152630625Y-68655864D01*
X152630622Y-68655862D01*
X152630617Y-68655859D01*
X152465505Y-68567605D01*
X152286332Y-68513253D01*
X152100000Y-68494901D01*
X151913667Y-68513253D01*
X151813934Y-68543507D01*
X151734499Y-68567604D01*
X151734496Y-68567605D01*
X151734494Y-68567606D01*
X151722990Y-68573754D01*
X151666625Y-68579301D01*
X151635786Y-68560815D01*
X151234511Y-68159540D01*
X151165990Y-68119979D01*
X151165985Y-68119977D01*
X151089564Y-68099500D01*
X151089562Y-68099500D01*
X145404123Y-68099500D01*
X145351797Y-68077826D01*
X145330123Y-68025500D01*
X145351797Y-67973174D01*
X146156921Y-67168050D01*
X147090460Y-66234511D01*
X147130021Y-66165989D01*
X147150499Y-66089564D01*
X147150500Y-66089564D01*
X147150500Y-64255122D01*
X147172173Y-64202797D01*
X147435787Y-63939182D01*
X147488112Y-63917509D01*
X147522993Y-63926246D01*
X147534499Y-63932396D01*
X147534501Y-63932396D01*
X147534504Y-63932398D01*
X147546979Y-63936182D01*
X147590761Y-63972111D01*
X147599500Y-64006996D01*
X147599500Y-64054877D01*
X147577826Y-64107203D01*
X147547794Y-64137234D01*
X147502414Y-64240011D01*
X147499500Y-64265135D01*
X147499500Y-64634863D01*
X147502414Y-64659986D01*
X147502415Y-64659991D01*
X147547794Y-64762765D01*
X147627235Y-64842206D01*
X147730009Y-64887585D01*
X147755135Y-64890500D01*
X148044864Y-64890499D01*
X148069991Y-64887585D01*
X148172765Y-64842206D01*
X148252206Y-64762765D01*
X148297585Y-64659991D01*
X148300500Y-64634865D01*
X148300499Y-64265136D01*
X148297585Y-64240009D01*
X148252206Y-64137235D01*
X148222174Y-64107203D01*
X148200500Y-64054877D01*
X148200500Y-64006996D01*
X148222174Y-63954670D01*
X148253021Y-63936182D01*
X148265498Y-63932397D01*
X148265498Y-63932396D01*
X148265501Y-63932396D01*
X148430625Y-63844136D01*
X148575357Y-63725357D01*
X148694136Y-63580625D01*
X148782396Y-63415501D01*
X148836747Y-63236331D01*
X148855099Y-63050000D01*
X148836747Y-62863669D01*
X148782396Y-62684499D01*
X148782394Y-62684496D01*
X148782394Y-62684494D01*
X148722216Y-62571909D01*
X148716664Y-62515545D01*
X148752595Y-62471764D01*
X148806631Y-62465548D01*
X148942648Y-62501994D01*
G37*
%TD.AperFunction*%
%TA.AperFunction,Conductor*%
G36*
X147638826Y-62022174D02*
G01*
X147660500Y-62074500D01*
X147638826Y-62126826D01*
X147607983Y-62145312D01*
X147566366Y-62157936D01*
X147534494Y-62167605D01*
X147369382Y-62255859D01*
X147369373Y-62255865D01*
X147224643Y-62374643D01*
X147105865Y-62519373D01*
X147105859Y-62519382D01*
X147017605Y-62684494D01*
X146963253Y-62863667D01*
X146963253Y-62863669D01*
X146944901Y-63050000D01*
X146963253Y-63236331D01*
X147004512Y-63372344D01*
X147017606Y-63415506D01*
X147023752Y-63427005D01*
X147029302Y-63483369D01*
X147010815Y-63514212D01*
X146665489Y-63859540D01*
X146609540Y-63915488D01*
X146569979Y-63984009D01*
X146569977Y-63984014D01*
X146549500Y-64060435D01*
X146549500Y-65894877D01*
X146527826Y-65947203D01*
X144797203Y-67677826D01*
X144744877Y-67699500D01*
X129560436Y-67699500D01*
X129484014Y-67719977D01*
X129484009Y-67719979D01*
X129415488Y-67759540D01*
X128159540Y-69015488D01*
X128119979Y-69084009D01*
X128119977Y-69084014D01*
X128099500Y-69160435D01*
X128099500Y-86644876D01*
X128077826Y-86697202D01*
X124219243Y-90555784D01*
X124166917Y-90577458D01*
X124133322Y-90569392D01*
X124025304Y-90514354D01*
X124025303Y-90514353D01*
X123931520Y-90499500D01*
X123931519Y-90499500D01*
X123920829Y-90499500D01*
X123868503Y-90477826D01*
X123867109Y-90476393D01*
X123746994Y-90349605D01*
X123726741Y-90296713D01*
X123745709Y-90249211D01*
X123857504Y-90124994D01*
X123908618Y-90100601D01*
X123912505Y-90100499D01*
X123931518Y-90100499D01*
X123931519Y-90100499D01*
X124025304Y-90085646D01*
X124025306Y-90085645D01*
X124027419Y-90084568D01*
X124138342Y-90028050D01*
X124228050Y-89938342D01*
X124285646Y-89825304D01*
X124300500Y-89731519D01*
X124300499Y-89661171D01*
X124319493Y-89611673D01*
X127300000Y-86300000D01*
X127300000Y-68430651D01*
X127321673Y-68378326D01*
X128884414Y-66815585D01*
X128888865Y-66811488D01*
X128914650Y-66789650D01*
X128936494Y-66763858D01*
X128940580Y-66759419D01*
X128978327Y-66721672D01*
X129030651Y-66700000D01*
X129375120Y-66700000D01*
X129427446Y-66721674D01*
X129431588Y-66726174D01*
X129485346Y-66789646D01*
X129485353Y-66789653D01*
X129515971Y-66815585D01*
X129675106Y-66950366D01*
X129888727Y-67077656D01*
X130120386Y-67168050D01*
X130120391Y-67168051D01*
X130120394Y-67168052D01*
X130282637Y-67202070D01*
X130363763Y-67219081D01*
X130467158Y-67225500D01*
X130467171Y-67225500D01*
X131132829Y-67225500D01*
X131132842Y-67225500D01*
X131236237Y-67219081D01*
X131236242Y-67219080D01*
X131236243Y-67219080D01*
X131479605Y-67168052D01*
X131479605Y-67168051D01*
X131479614Y-67168050D01*
X131711273Y-67077656D01*
X131924894Y-66950366D01*
X132105280Y-66797585D01*
X132133951Y-66782576D01*
X132213887Y-66761158D01*
X132301822Y-66724733D01*
X132347937Y-66705633D01*
X132376255Y-66700000D01*
X144500000Y-66700000D01*
X145200000Y-66000000D01*
X145200000Y-62074500D01*
X145221674Y-62022174D01*
X145274000Y-62000500D01*
X147586500Y-62000500D01*
X147638826Y-62022174D01*
G37*
%TD.AperFunction*%
%TD*%
%TA.AperFunction,Conductor*%
%TO.N,GND*%
G36*
X157978326Y-67021674D02*
G01*
X158000000Y-67074000D01*
X158000000Y-69326000D01*
X157978326Y-69378326D01*
X157926000Y-69400000D01*
X155765875Y-69400000D01*
X155713549Y-69378326D01*
X155691875Y-69326000D01*
X155692647Y-69315338D01*
X155695500Y-69295760D01*
X155695500Y-67979240D01*
X155685573Y-67911107D01*
X155634198Y-67806017D01*
X155551483Y-67723302D01*
X155551482Y-67723301D01*
X155446394Y-67671927D01*
X155378264Y-67662000D01*
X155378260Y-67662000D01*
X155074000Y-67662000D01*
X155021674Y-67640326D01*
X155000000Y-67588000D01*
X155000000Y-67074000D01*
X155021674Y-67021674D01*
X155074000Y-67000000D01*
X157926000Y-67000000D01*
X157978326Y-67021674D01*
G37*
%TD.AperFunction*%
%TD*%
%TA.AperFunction,Conductor*%
%TO.N,+1.8V*%
G36*
X121304686Y-87000382D02*
G01*
X121304687Y-87000368D01*
X121306895Y-87000500D01*
X121306898Y-87000500D01*
X122293105Y-87000500D01*
X122295313Y-87000368D01*
X122295313Y-87000382D01*
X122301693Y-87000000D01*
X124026000Y-87000000D01*
X124078326Y-87021674D01*
X124100000Y-87074000D01*
X124100000Y-89627381D01*
X124098762Y-89640861D01*
X124094999Y-89661172D01*
X124094999Y-89709522D01*
X124094088Y-89721100D01*
X124089600Y-89749432D01*
X124082446Y-89771449D01*
X124065043Y-89805605D01*
X124051434Y-89824336D01*
X124024336Y-89851434D01*
X124005606Y-89865042D01*
X123971451Y-89882445D01*
X123949430Y-89889600D01*
X123920871Y-89894123D01*
X123910292Y-89895027D01*
X123907173Y-89895068D01*
X123903225Y-89895172D01*
X123820110Y-89915137D01*
X123769003Y-89939527D01*
X123768992Y-89939533D01*
X123704757Y-89987522D01*
X123704750Y-89987528D01*
X123625574Y-90075503D01*
X123574460Y-90099898D01*
X123570570Y-90100000D01*
X123105623Y-90100000D01*
X123053297Y-90078326D01*
X123034510Y-90059539D01*
X123030795Y-90057395D01*
X123027080Y-90055250D01*
X123014168Y-90047795D01*
X122965990Y-90019979D01*
X122965985Y-90019977D01*
X122889564Y-89999500D01*
X122889562Y-89999500D01*
X121691033Y-89999500D01*
X121611909Y-89999500D01*
X121535483Y-90019978D01*
X121535482Y-90019978D01*
X121535480Y-90019979D01*
X121535478Y-90019980D01*
X121466963Y-90059537D01*
X121448173Y-90078327D01*
X121395848Y-90100000D01*
X121000185Y-90100000D01*
X120947859Y-90078326D01*
X120941477Y-90071049D01*
X120932643Y-90059537D01*
X120892621Y-90007379D01*
X120777625Y-89919139D01*
X120767966Y-89915138D01*
X120643708Y-89863669D01*
X120500000Y-89844750D01*
X120356287Y-89863670D01*
X120348064Y-89867076D01*
X120291427Y-89867072D01*
X120267425Y-89851033D01*
X120238343Y-89821951D01*
X120238342Y-89821950D01*
X120125304Y-89764354D01*
X120125302Y-89764353D01*
X120125301Y-89764353D01*
X120031519Y-89749500D01*
X119568480Y-89749500D01*
X119474695Y-89764353D01*
X119474693Y-89764354D01*
X119361657Y-89821950D01*
X119271948Y-89911659D01*
X119239934Y-89974492D01*
X119196867Y-90011275D01*
X119140405Y-90006831D01*
X119103622Y-89963764D01*
X119100000Y-89940897D01*
X119100000Y-88674500D01*
X119121674Y-88622174D01*
X119174000Y-88600500D01*
X120293105Y-88600500D01*
X120295313Y-88600368D01*
X120295313Y-88600382D01*
X120301693Y-88600000D01*
X120900000Y-88600000D01*
X120900000Y-87074000D01*
X120921674Y-87021674D01*
X120974000Y-87000000D01*
X121298307Y-87000000D01*
X121304686Y-87000382D01*
G37*
%TD.AperFunction*%
%TD*%
%TA.AperFunction,Conductor*%
%TO.N,GND*%
G36*
X108521674Y-78771674D02*
G01*
X108823467Y-79073467D01*
X108838836Y-79095903D01*
X108849131Y-79119220D01*
X108849132Y-79119221D01*
X108849133Y-79119223D01*
X108930777Y-79200867D01*
X108954097Y-79211164D01*
X108976532Y-79226532D01*
X110000000Y-80250000D01*
X110236972Y-80250000D01*
X110270567Y-80258066D01*
X110324696Y-80285646D01*
X110418481Y-80300500D01*
X110612321Y-80300499D01*
X110612331Y-80300500D01*
X110620942Y-80300500D01*
X110787669Y-80300500D01*
X110787677Y-80300499D01*
X110981519Y-80300499D01*
X111075304Y-80285646D01*
X111129433Y-80258065D01*
X111163028Y-80250000D01*
X111500000Y-80250000D01*
X111500000Y-79574000D01*
X111521674Y-79521674D01*
X111574000Y-79500000D01*
X113426000Y-79500000D01*
X113478326Y-79521674D01*
X113500000Y-79574000D01*
X113500000Y-80755272D01*
X113499367Y-80764931D01*
X113494750Y-80799999D01*
X113499367Y-80835067D01*
X113500000Y-80844726D01*
X113500000Y-81500000D01*
X114909499Y-81500000D01*
X114915563Y-81500477D01*
X114915580Y-81500272D01*
X114918471Y-81500498D01*
X114918481Y-81500500D01*
X115481518Y-81500499D01*
X115484417Y-81500271D01*
X115484433Y-81500477D01*
X115490492Y-81500000D01*
X115676000Y-81500000D01*
X115728326Y-81521674D01*
X115750000Y-81574000D01*
X115750000Y-82500000D01*
X118176000Y-82500000D01*
X118228326Y-82521674D01*
X118250000Y-82574000D01*
X118250000Y-84426000D01*
X118228326Y-84478326D01*
X118176000Y-84500000D01*
X115855623Y-84500000D01*
X115803297Y-84478326D01*
X115271674Y-83946703D01*
X115250000Y-83894377D01*
X115250000Y-83500000D01*
X114500000Y-82750000D01*
X109280652Y-82750000D01*
X109228326Y-82728326D01*
X106500000Y-80000000D01*
X100324000Y-80000000D01*
X100271674Y-79978326D01*
X100250000Y-79926000D01*
X100250000Y-78824000D01*
X100271674Y-78771674D01*
X100324000Y-78750000D01*
X108469348Y-78750000D01*
X108521674Y-78771674D01*
G37*
%TD.AperFunction*%
%TD*%
%TA.AperFunction,Conductor*%
%TO.N,GND*%
G36*
X164543039Y-63119685D02*
G01*
X164588794Y-63172489D01*
X164600000Y-63224000D01*
X164600000Y-65276000D01*
X164580315Y-65343039D01*
X164527511Y-65388794D01*
X164476000Y-65400000D01*
X161324000Y-65400000D01*
X161256961Y-65380315D01*
X161211206Y-65327511D01*
X161200000Y-65276000D01*
X161200000Y-63224000D01*
X161219685Y-63156961D01*
X161272489Y-63111206D01*
X161324000Y-63100000D01*
X164476000Y-63100000D01*
X164543039Y-63119685D01*
G37*
%TD.AperFunction*%
%TD*%
M02*
