%TF.GenerationSoftware,KiCad,Pcbnew,8.0.7-1.fc41*%
%TF.CreationDate,2025-01-10T14:19:34-08:00*%
%TF.ProjectId,Syncd_EFM32s,53796e63-645f-4454-964d-3332732e6b69,rev?*%
%TF.SameCoordinates,PX83e4a60PY69618a0*%
%TF.FileFunction,Copper,L4,Bot*%
%TF.FilePolarity,Positive*%
%FSLAX46Y46*%
G04 Gerber Fmt 4.6, Leading zero omitted, Abs format (unit mm)*
G04 Created by KiCad (PCBNEW 8.0.7-1.fc41) date 2025-01-10 14:19:34*
%MOMM*%
%LPD*%
G01*
G04 APERTURE LIST*
G04 Aperture macros list*
%AMRoundRect*
0 Rectangle with rounded corners*
0 $1 Rounding radius*
0 $2 $3 $4 $5 $6 $7 $8 $9 X,Y pos of 4 corners*
0 Add a 4 corners polygon primitive as box body*
4,1,4,$2,$3,$4,$5,$6,$7,$8,$9,$2,$3,0*
0 Add four circle primitives for the rounded corners*
1,1,$1+$1,$2,$3*
1,1,$1+$1,$4,$5*
1,1,$1+$1,$6,$7*
1,1,$1+$1,$8,$9*
0 Add four rect primitives between the rounded corners*
20,1,$1+$1,$2,$3,$4,$5,0*
20,1,$1+$1,$4,$5,$6,$7,0*
20,1,$1+$1,$6,$7,$8,$9,0*
20,1,$1+$1,$8,$9,$2,$3,0*%
G04 Aperture macros list end*
%TA.AperFunction,ComponentPad*%
%ADD10C,1.800000*%
%TD*%
%TA.AperFunction,ComponentPad*%
%ADD11RoundRect,0.450000X0.550000X-0.450000X0.550000X0.450000X-0.550000X0.450000X-0.550000X-0.450000X0*%
%TD*%
%TA.AperFunction,ComponentPad*%
%ADD12RoundRect,0.250000X-0.250000X-0.250000X0.250000X-0.250000X0.250000X0.250000X-0.250000X0.250000X0*%
%TD*%
%TA.AperFunction,ComponentPad*%
%ADD13C,1.000000*%
%TD*%
%TA.AperFunction,ComponentPad*%
%ADD14RoundRect,0.250000X0.250000X0.250000X-0.250000X0.250000X-0.250000X-0.250000X0.250000X-0.250000X0*%
%TD*%
%TA.AperFunction,ViaPad*%
%ADD15C,0.700000*%
%TD*%
%TA.AperFunction,Conductor*%
%ADD16C,0.200000*%
%TD*%
G04 APERTURE END LIST*
D10*
%TO.P,J104,14*%
%TO.N,GND*%
X24600000Y35000000D03*
%TO.P,J104,13*%
%TO.N,/Chip2.PB02*%
X24600000Y32460000D03*
%TO.P,J104,12*%
%TO.N,/Chip2.PB01*%
X24600000Y29920000D03*
%TO.P,J104,11*%
%TO.N,/Chip2.PB00*%
X24600000Y27380000D03*
%TO.P,J104,10*%
%TO.N,/Chip2.PC05*%
X24600000Y24840000D03*
%TO.P,J104,9*%
%TO.N,/Chip2.PC04*%
X24600000Y22300000D03*
%TO.P,J104,8*%
%TO.N,/Chip2.PC03*%
X24600000Y19760000D03*
%TO.P,J104,7*%
%TO.N,/Chip2.PC02*%
X24600000Y17220000D03*
%TO.P,J104,6*%
%TO.N,/Chip2.PC01*%
X24600000Y14680000D03*
%TO.P,J104,5*%
%TO.N,/Chip2.PC00*%
X24600000Y12140000D03*
%TO.P,J104,4*%
%TO.N,/Chip2.PA06*%
X24600000Y9600000D03*
%TO.P,J104,3*%
%TO.N,/Chip2.PA05*%
X24600000Y7060000D03*
%TO.P,J104,2*%
%TO.N,/Chip2.PA04*%
X24600000Y4520000D03*
D11*
%TO.P,J104,1*%
%TO.N,/Chip2.PA00*%
X24600000Y1980000D03*
%TD*%
D10*
%TO.P,J103,14*%
%TO.N,GND*%
X1800000Y35000000D03*
%TO.P,J103,13*%
%TO.N,/Chip1.PB02*%
X1800000Y32460000D03*
%TO.P,J103,12*%
%TO.N,/Chip1.PB01*%
X1800000Y29920000D03*
%TO.P,J103,11*%
%TO.N,/Chip1.PC05*%
X1800000Y27380000D03*
%TO.P,J103,10*%
%TO.N,/Chip1.PC04*%
X1800000Y24840000D03*
%TO.P,J103,9*%
%TO.N,/Chip1.PC03*%
X1800000Y22300000D03*
%TO.P,J103,8*%
%TO.N,/Chip1.PC02*%
X1800000Y19760000D03*
%TO.P,J103,7*%
%TO.N,/Chip1.PC01*%
X1800000Y17220000D03*
%TO.P,J103,6*%
%TO.N,/Chip1.PA06*%
X1800000Y14680000D03*
%TO.P,J103,5*%
%TO.N,/Chip1.PA05*%
X1800000Y12140000D03*
%TO.P,J103,4*%
%TO.N,/Chip1.PA04*%
X1800000Y9600000D03*
%TO.P,J103,3*%
%TO.N,/Chip1.PA00*%
X1800000Y7060000D03*
%TO.P,J103,2*%
%TO.N,GND*%
X1800000Y4520000D03*
D11*
%TO.P,J103,1*%
%TO.N,+3V*%
X1800000Y1980000D03*
%TD*%
D12*
%TO.P,J102,1,Vref*%
%TO.N,+3V*%
X14660000Y9280000D03*
D13*
%TO.P,J102,2,SWDIO*%
%TO.N,Net-(J102-SWDIO)*%
X14660000Y10550000D03*
%TO.P,J102,3,GND*%
%TO.N,GND*%
X15930000Y9280000D03*
%TO.P,J102,4,SWCLK*%
%TO.N,Net-(J102-SWCLK)*%
X15930000Y10550000D03*
%TO.P,J102,5,GND*%
%TO.N,GND*%
X17200000Y9280000D03*
%TO.P,J102,6,SWO*%
%TO.N,Net-(J102-SWO)*%
X17200000Y10550000D03*
%TO.P,J102,7,NC*%
%TO.N,unconnected-(J102-NC-Pad7)*%
X18470000Y9280000D03*
%TO.P,J102,8,NC*%
%TO.N,unconnected-(J102-NC-Pad8)*%
X18470000Y10550000D03*
%TO.P,J102,9,NC*%
%TO.N,unconnected-(J102-NC-Pad9)*%
X19740000Y9280000D03*
%TO.P,J102,10,~{RESET}*%
%TO.N,Net-(J102-~{RESET})*%
X19740000Y10550000D03*
%TD*%
D14*
%TO.P,J101,1,Vref*%
%TO.N,+3V*%
X11540000Y34035000D03*
D13*
%TO.P,J101,2,SWDIO*%
%TO.N,Net-(J101-SWDIO)*%
X11540000Y32765000D03*
%TO.P,J101,3,GND*%
%TO.N,GND*%
X10270000Y34035000D03*
%TO.P,J101,4,SWCLK*%
%TO.N,Net-(J101-SWCLK)*%
X10270000Y32765000D03*
%TO.P,J101,5,GND*%
%TO.N,GND*%
X9000000Y34035000D03*
%TO.P,J101,6,SWO*%
%TO.N,Net-(J101-SWO)*%
X9000000Y32765000D03*
%TO.P,J101,7,NC*%
%TO.N,unconnected-(J101-NC-Pad7)*%
X7730000Y34035000D03*
%TO.P,J101,8,NC*%
%TO.N,unconnected-(J101-NC-Pad8)*%
X7730000Y32765000D03*
%TO.P,J101,9,NC*%
%TO.N,unconnected-(J101-NC-Pad9)*%
X6460000Y34035000D03*
%TO.P,J101,10,~{RESET}*%
%TO.N,Net-(J101-~{RESET})*%
X6460000Y32765000D03*
%TD*%
D15*
%TO.N,GND*%
X14150000Y1500000D03*
X10550000Y1500000D03*
%TO.N,+3V*%
X15860920Y26732685D03*
X14550000Y26700000D03*
%TO.N,/Chip2.PA04*%
X22350000Y11200000D03*
%TO.N,Net-(C119-Pad1)*%
X18303673Y23694441D03*
X21300000Y24350000D03*
X22050000Y24350000D03*
%TO.N,Net-(C103-Pad1)*%
X4300000Y18000000D03*
X5050000Y18000000D03*
%TO.N,GND*%
X17400000Y19700000D03*
X16700000Y19100000D03*
X18100000Y19100000D03*
X17400000Y18450000D03*
X9800000Y23200000D03*
X9000000Y22500000D03*
X8300000Y23200000D03*
X9000000Y23900000D03*
X6100000Y11000000D03*
X7700000Y11000000D03*
X6900000Y11000000D03*
%TO.N,+3V*%
X6100000Y14600000D03*
X7700000Y14600000D03*
X6900000Y14600000D03*
%TO.N,GND*%
X5100000Y15300000D03*
X4300000Y15300000D03*
X4000000Y24000000D03*
X22100000Y27000000D03*
X21300000Y27000000D03*
X16600000Y28300000D03*
X15200000Y28300000D03*
X18700000Y25200000D03*
X17700000Y25300000D03*
%TO.N,+3V*%
X19700000Y27500000D03*
X18900000Y27500000D03*
X18100000Y27500000D03*
%TO.N,GND*%
X19700000Y31000000D03*
X18900000Y31000000D03*
X18100000Y31000000D03*
%TO.N,Net-(C119-Pad1)*%
X16874392Y14590910D03*
X15400000Y14700000D03*
%TO.N,GND*%
X10100000Y29250000D03*
X7900000Y28600000D03*
%TO.N,/Chip2.PC02*%
X12750000Y18850000D03*
%TO.N,/Chip2.PC01*%
X13604787Y20527745D03*
%TO.N,/Chip2.PC00*%
X14400000Y20900000D03*
%TO.N,/Chip2.PB00*%
X19900000Y16200000D03*
%TO.N,/Chip2.PB01*%
X19100000Y14900000D03*
%TO.N,/Chip2.PB02*%
X18354699Y15754969D03*
%TO.N,GND*%
X15300000Y13800000D03*
X18300000Y13900000D03*
X17000000Y16253693D03*
X22200000Y18700000D03*
%TO.N,/Chip2.PA00*%
X20450000Y13250000D03*
%TO.N,/Chip2.PA05*%
X21200000Y19650000D03*
%TO.N,/Chip2.PA06*%
X21250000Y20500000D03*
%TO.N,GND*%
X14900000Y25200000D03*
X16300000Y25200000D03*
X18200000Y22200000D03*
%TO.N,/Low_Speed_Clock*%
X15000000Y22100000D03*
%TO.N,Net-(C103-Pad1)*%
X8100000Y27600000D03*
X9400000Y27717533D03*
%TO.N,GND*%
X9400000Y26200000D03*
%TO.N,/Chip1.PC05*%
X12919820Y24300000D03*
%TO.N,/Chip1.PC04*%
X13900000Y24300000D03*
%TO.N,GND*%
X13300000Y25600000D03*
X11900000Y28300000D03*
%TO.N,/Chip1.PC03*%
X13950787Y23347743D03*
%TO.N,/Chip1.PC02*%
X14050003Y22400000D03*
%TO.N,/Chip1.PC01*%
X13200000Y22400000D03*
%TO.N,Net-(J101-~{RESET})*%
X10700000Y26000000D03*
%TO.N,/Chip1.PB02*%
X6900000Y28800000D03*
%TO.N,/Chip1.PB01*%
X5500000Y28200000D03*
%TO.N,/Low_Speed_Clock*%
X6800000Y26300000D03*
%TO.N,/Chip1.PA00*%
X5200000Y26300000D03*
%TO.N,/Chip1.PA04*%
X5100000Y23400000D03*
%TO.N,/Chip1.PA05*%
X5500000Y22400000D03*
%TO.N,/Chip1.PA06*%
X5200000Y21600000D03*
%TO.N,GND*%
X7098707Y17099565D03*
X8800000Y17100000D03*
%TO.N,Net-(C103-Pad1)*%
X8150000Y18650000D03*
%TO.N,GND*%
X11600000Y14100000D03*
X10200000Y14100000D03*
%TO.N,+3V*%
X9400000Y16200000D03*
X11050000Y15650000D03*
%TO.N,GND*%
X11500000Y17100000D03*
X10163210Y17100000D03*
X8188611Y20100000D03*
%TD*%
D16*
%TO.N,/Chip1.PC01*%
X13200000Y22400000D02*
X11600000Y20800000D01*
X11600000Y20800000D02*
X8315075Y20800000D01*
X8315075Y20800000D02*
X6555025Y22560050D01*
X6555025Y22560050D02*
X6555025Y23144975D01*
X6555025Y23144975D02*
X5700000Y24000000D01*
X5700000Y24000000D02*
X4851472Y24000000D01*
X4851472Y24000000D02*
X3690000Y22838529D01*
X3690000Y22838529D02*
X3690000Y19110000D01*
X3690000Y19110000D02*
X1800000Y17220000D01*
%TO.N,/Chip1.PA06*%
X3660000Y16540000D02*
X3660000Y18500000D01*
X3660000Y18500000D02*
X5200000Y20040000D01*
X5200000Y20040000D02*
X5200000Y21600000D01*
%TO.N,/Chip1.PA05*%
X1800000Y12140000D02*
X3475000Y13815000D01*
X3475000Y13815000D02*
X3475000Y15375000D01*
X3475000Y15375000D02*
X4150000Y16050000D01*
X4150000Y16050000D02*
X5500000Y16050000D01*
X5500000Y16050000D02*
X5800000Y16350000D01*
X5800000Y16350000D02*
X5800000Y21848529D01*
X5800000Y21848529D02*
X5500000Y22148529D01*
X5500000Y22148529D02*
X5500000Y22400000D01*
%TO.N,/Chip1.PA04*%
X1800000Y9600000D02*
X4975735Y12775735D01*
X4975735Y12775735D02*
X4975735Y14324265D01*
X4975735Y14324265D02*
X6400000Y15748529D01*
X6100000Y22900000D02*
X5600000Y23400000D01*
X6400000Y15748529D02*
X6400000Y21743504D01*
X6400000Y21743504D02*
X6100000Y22043504D01*
X6100000Y22043504D02*
X6100000Y22900000D01*
X5600000Y23400000D02*
X5100000Y23400000D01*
%TO.N,/Chip2.PB02*%
X24600000Y32460000D02*
X20450000Y28310000D01*
X20450000Y28310000D02*
X20450000Y25450000D01*
X20450000Y25450000D02*
X18903673Y23903673D01*
X18903673Y23903673D02*
X18903673Y23448648D01*
X18903673Y23448648D02*
X18800000Y23344975D01*
X18800000Y23344975D02*
X18800000Y16200270D01*
X18800000Y16200270D02*
X18354699Y15754969D01*
%TO.N,/Chip2.PB01*%
X24600000Y29920000D02*
X22950000Y28270000D01*
X19150000Y14950000D02*
X19100000Y14900000D01*
X22950000Y28270000D02*
X22950000Y27001472D01*
X22950000Y27001472D02*
X19499264Y23550736D01*
X19150000Y23196327D02*
X19150000Y14950000D01*
X19499264Y23550736D02*
X19499264Y23545591D01*
X19499264Y23545591D02*
X19150000Y23196327D01*
%TO.N,/Chip2.PC00*%
X21250000Y17005026D02*
X20600000Y17655026D01*
X16000000Y14350000D02*
X17400000Y12950000D01*
X21250000Y15205025D02*
X21250000Y17005026D01*
X16000000Y17100000D02*
X16000000Y14350000D01*
X20600000Y17655026D02*
X20600000Y20698529D01*
X17400000Y12950000D02*
X18994975Y12950000D01*
X14172255Y21127745D02*
X12927745Y21127745D01*
X12750000Y20350000D02*
X16000000Y17100000D01*
X20600000Y20698529D02*
X21106497Y21205026D01*
X12750000Y20950000D02*
X12750000Y20350000D01*
X12927745Y21127745D02*
X12750000Y20950000D01*
X18994975Y12950000D02*
X21250000Y15205025D01*
X14400000Y20900000D02*
X14172255Y21127745D01*
X21106497Y21205026D02*
X22600000Y21205026D01*
X22600000Y21205026D02*
X22800000Y21005026D01*
X22800000Y21005026D02*
X22800000Y13940000D01*
X22800000Y13940000D02*
X24600000Y12140000D01*
%TO.N,/Chip2.PC01*%
X18850000Y13300000D02*
X18051471Y13300000D01*
X20900000Y15349999D02*
X18850000Y13300000D01*
X17500000Y14905164D02*
X16352582Y16052582D01*
X24600000Y14680000D02*
X23300000Y15980000D01*
X20900000Y16600000D02*
X20900000Y15349999D01*
X17500000Y13851471D02*
X17500000Y14905164D01*
X20250000Y17250000D02*
X20900000Y16600000D01*
X18051471Y13300000D02*
X17500000Y13851471D01*
X22600000Y21700000D02*
X20500000Y21700000D01*
X20250000Y21450000D02*
X20250000Y17250000D01*
X20500000Y21700000D02*
X20250000Y21450000D01*
X23300000Y21000000D02*
X22600000Y21700000D01*
X16352582Y17779950D02*
X13604787Y20527745D01*
X23300000Y15980000D02*
X23300000Y21000000D01*
X16352582Y16052582D02*
X16352582Y17779950D01*
%TO.N,/Chip2.PC02*%
X20500000Y15450000D02*
X19350000Y14300000D01*
X20500000Y16448529D02*
X20500000Y15450000D01*
X19850000Y21705026D02*
X19850000Y17098529D01*
X20844974Y22700000D02*
X19850000Y21705026D01*
X12350000Y19250000D02*
X12750000Y18850000D01*
X24123654Y21150000D02*
X22573654Y22700000D01*
X22573654Y22700000D02*
X20844974Y22700000D01*
X19350000Y14300000D02*
X18851471Y14300000D01*
X24900000Y21150000D02*
X24123654Y21150000D01*
X25750000Y20300000D02*
X24900000Y21150000D01*
X12805026Y21500000D02*
X12402513Y21097487D01*
X19850000Y17098529D02*
X20500000Y16448529D01*
X25750000Y18370000D02*
X25750000Y20300000D01*
X18851471Y14300000D02*
X17600000Y15551471D01*
X24600000Y17220000D02*
X25750000Y18370000D01*
X17600000Y15551471D02*
X17600000Y17300000D01*
X17600000Y17300000D02*
X15750000Y19150000D01*
X15750000Y21100000D02*
X15350000Y21500000D01*
X15750000Y19150000D02*
X15750000Y21100000D01*
X15350000Y21500000D02*
X12805026Y21500000D01*
X12402513Y21097487D02*
X12350000Y21044975D01*
X12350000Y21044975D02*
X12350000Y19250000D01*
%TO.N,/Chip1.PB01*%
X1800000Y29920000D02*
X2800000Y29920000D01*
X3700000Y29920000D02*
X5420000Y28200000D01*
X2800000Y29920000D02*
X3700000Y29920000D01*
X5420000Y28200000D02*
X5500000Y28200000D01*
%TO.N,/Chip1.PC05*%
X1800000Y27380000D02*
X4968529Y27380000D01*
X4968529Y27380000D02*
X6125736Y26222793D01*
X6125736Y26222793D02*
X6125736Y26125734D01*
X6125736Y26125734D02*
X7675735Y24575735D01*
X7675735Y24575735D02*
X12644085Y24575735D01*
X12644085Y24575735D02*
X12919820Y24300000D01*
%TO.N,/Chip2.PA05*%
X21200000Y19650000D02*
X21200000Y17550000D01*
X25750000Y5910000D02*
X24600000Y7060000D01*
X21200000Y17550000D02*
X21600000Y17150000D01*
X21600000Y17150000D02*
X21600000Y5893654D01*
X21600000Y5893654D02*
X24123654Y3370000D01*
X24123654Y3370000D02*
X25076346Y3370000D01*
X25076346Y3370000D02*
X25750000Y4043654D01*
X25750000Y4043654D02*
X25750000Y5910000D01*
%TO.N,/Chip2.PA06*%
X21250000Y20500000D02*
X21800000Y19950000D01*
X21800000Y19950000D02*
X21800000Y19401471D01*
X23450000Y12750000D02*
X23450000Y10750000D01*
X21800000Y19401471D02*
X21550000Y19151471D01*
X21550000Y19151471D02*
X21550000Y18501471D01*
X21550000Y18501471D02*
X22450000Y17601471D01*
X23450000Y10750000D02*
X24600000Y9600000D01*
X22450000Y17601471D02*
X22450000Y13750000D01*
X22450000Y13750000D02*
X23450000Y12750000D01*
%TO.N,/Chip2.PA00*%
X20450000Y13250000D02*
X20490000Y13210000D01*
X20490000Y13210000D02*
X20490000Y6090000D01*
X20490000Y6090000D02*
X24600000Y1980000D01*
%TO.N,/Chip2.PA04*%
X22350000Y11200000D02*
X22350000Y6770000D01*
X22350000Y6770000D02*
X24600000Y4520000D01*
%TO.N,/Chip2.PB00*%
X19825000Y16325000D02*
X19500000Y16650000D01*
X19500000Y21850000D02*
X21000735Y23350735D01*
X22685000Y25465000D02*
X24600000Y27380000D01*
X21899265Y23350735D02*
X22685000Y24136471D01*
X21000735Y23350735D02*
X21899265Y23350735D01*
X19900000Y16200000D02*
X19825000Y16275000D01*
X22685000Y24136471D02*
X22685000Y25465000D01*
X19825000Y16275000D02*
X19825000Y16325000D01*
X19500000Y16650000D02*
X19500000Y21850000D01*
%TO.N,/Chip1.PA06*%
X1800000Y14680000D02*
X3660000Y16540000D01*
%TO.N,/Chip1.PC02*%
X6905025Y22705025D02*
X8410050Y21200000D01*
X1800000Y20000000D02*
X3300000Y21500000D01*
X3300000Y21500000D02*
X3300000Y24400000D01*
X3300000Y24400000D02*
X3500000Y24600000D01*
X3500000Y24600000D02*
X5900000Y24600000D01*
X5900000Y24600000D02*
X6905025Y23594975D01*
X6905025Y23594975D02*
X6905025Y22705025D01*
X8410050Y21200000D02*
X10294974Y21200000D01*
X10294974Y21200000D02*
X12094974Y23000000D01*
X12094974Y23000000D02*
X13448529Y23000000D01*
X13448529Y23000000D02*
X14048529Y22400000D01*
X14048529Y22400000D02*
X14050003Y22400000D01*
%TO.N,/Chip1.PC03*%
X7352512Y22752512D02*
X8555025Y21550000D01*
X7352512Y22752512D02*
X7300000Y22805024D01*
X7300000Y22805024D02*
X7300000Y23800000D01*
X7300000Y23800000D02*
X6100000Y25000000D01*
%TO.N,/Chip1.PC04*%
X13900000Y24300000D02*
X13300000Y23700000D01*
X2460000Y25500000D02*
X1800000Y24840000D01*
X13300000Y23700000D02*
X11600000Y23700000D01*
X11600000Y23700000D02*
X9800000Y21900000D01*
X9800000Y21900000D02*
X8700000Y21900000D01*
X8700000Y21900000D02*
X7650000Y22950000D01*
X7650000Y22950000D02*
X7650000Y23944974D01*
X7650000Y23944974D02*
X6094974Y25500000D01*
X6094974Y25500000D02*
X2460000Y25500000D01*
%TO.N,/Chip1.PC03*%
X1800000Y22300000D02*
X2950000Y23450000D01*
X2950000Y23450000D02*
X2950000Y24750000D01*
X2950000Y24750000D02*
X3200000Y25000000D01*
X3200000Y25000000D02*
X6100000Y25000000D01*
X8555025Y21550000D02*
X10150000Y21550000D01*
X10150000Y21550000D02*
X11950000Y23350000D01*
X11950000Y23350000D02*
X13948530Y23350000D01*
X13948530Y23350000D02*
X13950787Y23347743D01*
%TO.N,/Chip1.PA00*%
X1350000Y26050000D02*
X600000Y25300000D01*
X5200000Y26300000D02*
X4950000Y26050000D01*
X4950000Y26050000D02*
X1350000Y26050000D01*
X600000Y25300000D02*
X600000Y8260000D01*
X600000Y8260000D02*
X1800000Y7060000D01*
%TO.N,/Chip1.PB02*%
X6900000Y28800000D02*
X3240000Y32460000D01*
X3240000Y32460000D02*
X1800000Y32460000D01*
%TO.N,Net-(J101-~{RESET})*%
X6460000Y31506062D02*
X10700000Y27266062D01*
X6460000Y32765000D02*
X6460000Y31506062D01*
%TO.N,/Low_Speed_Clock*%
X6800000Y26300000D02*
X8100000Y25000000D01*
X8100000Y25000000D02*
X14100000Y25000000D01*
X14100000Y25000000D02*
X15000000Y24100000D01*
X15000000Y24100000D02*
X15000000Y22100000D01*
%TO.N,Net-(J101-~{RESET})*%
X10700000Y26000000D02*
X10700000Y27266062D01*
%TD*%
M02*
