%TF.GenerationSoftware,KiCad,Pcbnew,8.0.7-1.fc41*%
%TF.CreationDate,2025-01-10T14:19:34-08:00*%
%TF.ProjectId,Syncd_EFM32s,53796e63-645f-4454-964d-3332732e6b69,rev?*%
%TF.SameCoordinates,PX83e4a60PY69618a0*%
%TF.FileFunction,Copper,L3,Inr*%
%TF.FilePolarity,Positive*%
%FSLAX46Y46*%
G04 Gerber Fmt 4.6, Leading zero omitted, Abs format (unit mm)*
G04 Created by KiCad (PCBNEW 8.0.7-1.fc41) date 2025-01-10 14:19:34*
%MOMM*%
%LPD*%
G01*
G04 APERTURE LIST*
G04 Aperture macros list*
%AMRoundRect*
0 Rectangle with rounded corners*
0 $1 Rounding radius*
0 $2 $3 $4 $5 $6 $7 $8 $9 X,Y pos of 4 corners*
0 Add a 4 corners polygon primitive as box body*
4,1,4,$2,$3,$4,$5,$6,$7,$8,$9,$2,$3,0*
0 Add four circle primitives for the rounded corners*
1,1,$1+$1,$2,$3*
1,1,$1+$1,$4,$5*
1,1,$1+$1,$6,$7*
1,1,$1+$1,$8,$9*
0 Add four rect primitives between the rounded corners*
20,1,$1+$1,$2,$3,$4,$5,0*
20,1,$1+$1,$4,$5,$6,$7,0*
20,1,$1+$1,$6,$7,$8,$9,0*
20,1,$1+$1,$8,$9,$2,$3,0*%
G04 Aperture macros list end*
%TA.AperFunction,ComponentPad*%
%ADD10C,1.800000*%
%TD*%
%TA.AperFunction,ComponentPad*%
%ADD11RoundRect,0.450000X0.550000X-0.450000X0.550000X0.450000X-0.550000X0.450000X-0.550000X-0.450000X0*%
%TD*%
%TA.AperFunction,ComponentPad*%
%ADD12RoundRect,0.250000X-0.250000X-0.250000X0.250000X-0.250000X0.250000X0.250000X-0.250000X0.250000X0*%
%TD*%
%TA.AperFunction,ComponentPad*%
%ADD13C,1.000000*%
%TD*%
%TA.AperFunction,ComponentPad*%
%ADD14RoundRect,0.250000X0.250000X0.250000X-0.250000X0.250000X-0.250000X-0.250000X0.250000X-0.250000X0*%
%TD*%
%TA.AperFunction,ViaPad*%
%ADD15C,0.700000*%
%TD*%
G04 APERTURE END LIST*
D10*
%TO.N,GND*%
%TO.C,J104*%
X24600000Y35000000D03*
%TO.N,/Chip2.PB02*%
X24600000Y32460000D03*
%TO.N,/Chip2.PB01*%
X24600000Y29920000D03*
%TO.N,/Chip2.PB00*%
X24600000Y27380000D03*
%TO.N,/Chip2.PC05*%
X24600000Y24840000D03*
%TO.N,/Chip2.PC04*%
X24600000Y22300000D03*
%TO.N,/Chip2.PC03*%
X24600000Y19760000D03*
%TO.N,/Chip2.PC02*%
X24600000Y17220000D03*
%TO.N,/Chip2.PC01*%
X24600000Y14680000D03*
%TO.N,/Chip2.PC00*%
X24600000Y12140000D03*
%TO.N,/Chip2.PA06*%
X24600000Y9600000D03*
%TO.N,/Chip2.PA05*%
X24600000Y7060000D03*
%TO.N,/Chip2.PA04*%
X24600000Y4520000D03*
D11*
%TO.N,/Chip2.PA00*%
X24600000Y1980000D03*
%TD*%
D10*
%TO.N,GND*%
%TO.C,J103*%
X1800000Y35000000D03*
%TO.N,/Chip1.PB02*%
X1800000Y32460000D03*
%TO.N,/Chip1.PB01*%
X1800000Y29920000D03*
%TO.N,/Chip1.PC05*%
X1800000Y27380000D03*
%TO.N,/Chip1.PC04*%
X1800000Y24840000D03*
%TO.N,/Chip1.PC03*%
X1800000Y22300000D03*
%TO.N,/Chip1.PC02*%
X1800000Y19760000D03*
%TO.N,/Chip1.PC01*%
X1800000Y17220000D03*
%TO.N,/Chip1.PA06*%
X1800000Y14680000D03*
%TO.N,/Chip1.PA05*%
X1800000Y12140000D03*
%TO.N,/Chip1.PA04*%
X1800000Y9600000D03*
%TO.N,/Chip1.PA00*%
X1800000Y7060000D03*
%TO.N,GND*%
X1800000Y4520000D03*
D11*
%TO.N,+3V*%
X1800000Y1980000D03*
%TD*%
D12*
%TO.N,+3V*%
%TO.C,J102*%
X14660000Y9280000D03*
D13*
%TO.N,Net-(J102-SWDIO)*%
X14660000Y10550000D03*
%TO.N,GND*%
X15930000Y9280000D03*
%TO.N,Net-(J102-SWCLK)*%
X15930000Y10550000D03*
%TO.N,GND*%
X17200000Y9280000D03*
%TO.N,Net-(J102-SWO)*%
X17200000Y10550000D03*
%TO.N,unconnected-(J102-NC-Pad7)*%
X18470000Y9280000D03*
%TO.N,unconnected-(J102-NC-Pad8)*%
X18470000Y10550000D03*
%TO.N,unconnected-(J102-NC-Pad9)*%
X19740000Y9280000D03*
%TO.N,Net-(J102-~{RESET})*%
X19740000Y10550000D03*
%TD*%
D14*
%TO.N,+3V*%
%TO.C,J101*%
X11540000Y34035000D03*
D13*
%TO.N,Net-(J101-SWDIO)*%
X11540000Y32765000D03*
%TO.N,GND*%
X10270000Y34035000D03*
%TO.N,Net-(J101-SWCLK)*%
X10270000Y32765000D03*
%TO.N,GND*%
X9000000Y34035000D03*
%TO.N,Net-(J101-SWO)*%
X9000000Y32765000D03*
%TO.N,unconnected-(J101-NC-Pad7)*%
X7730000Y34035000D03*
%TO.N,unconnected-(J101-NC-Pad8)*%
X7730000Y32765000D03*
%TO.N,unconnected-(J101-NC-Pad9)*%
X6460000Y34035000D03*
%TO.N,Net-(J101-~{RESET})*%
X6460000Y32765000D03*
%TD*%
D15*
%TO.N,GND*%
X14150000Y1500000D03*
X10550000Y1500000D03*
%TO.N,+3V*%
X15860920Y26732685D03*
X14550000Y26700000D03*
%TO.N,Net-(C119-Pad1)*%
X18303673Y23694441D03*
X21300000Y24350000D03*
X22050000Y24350000D03*
%TO.N,Net-(C103-Pad1)*%
X4300000Y18000000D03*
X5050000Y18000000D03*
%TO.N,+3V*%
X6100000Y14600000D03*
X7700000Y14600000D03*
X6900000Y14600000D03*
X19700000Y27500000D03*
X18900000Y27500000D03*
X18100000Y27500000D03*
%TO.N,Net-(C119-Pad1)*%
X16874392Y14590910D03*
X15400000Y14700000D03*
%TO.N,Net-(C103-Pad1)*%
X8100000Y27600000D03*
X9400000Y27717533D03*
X8150000Y18650000D03*
%TO.N,+3V*%
X9400000Y16200000D03*
X11050000Y15650000D03*
%TD*%
%TA.AperFunction,Conductor*%
%TO.N,+3V*%
G36*
X25958691Y36580593D02*
G01*
X25994655Y36531093D01*
X25999500Y36500500D01*
X25999500Y499500D01*
X25980593Y441309D01*
X25931093Y405345D01*
X25900500Y400500D01*
X499500Y400500D01*
X441309Y419407D01*
X405345Y468907D01*
X400500Y499500D01*
X400500Y1500003D01*
X10044353Y1500003D01*
X10044353Y1499998D01*
X10064834Y1357544D01*
X10124379Y1227162D01*
X10124623Y1226627D01*
X10218872Y1117857D01*
X10218873Y1117856D01*
X10243991Y1101714D01*
X10339947Y1040047D01*
X10446403Y1008789D01*
X10478035Y999501D01*
X10478036Y999501D01*
X10478039Y999500D01*
X10478041Y999500D01*
X10621959Y999500D01*
X10621961Y999500D01*
X10760053Y1040047D01*
X10881128Y1117857D01*
X10975377Y1226627D01*
X11035165Y1357543D01*
X11054301Y1490639D01*
X11055647Y1499998D01*
X11055647Y1500003D01*
X13644353Y1500003D01*
X13644353Y1499998D01*
X13664834Y1357544D01*
X13724379Y1227162D01*
X13724623Y1226627D01*
X13818872Y1117857D01*
X13818873Y1117856D01*
X13843991Y1101714D01*
X13939947Y1040047D01*
X14046403Y1008789D01*
X14078035Y999501D01*
X14078036Y999501D01*
X14078039Y999500D01*
X14078041Y999500D01*
X14221959Y999500D01*
X14221961Y999500D01*
X14360053Y1040047D01*
X14481128Y1117857D01*
X14575377Y1226627D01*
X14635165Y1357543D01*
X14654301Y1490639D01*
X14655647Y1499998D01*
X14655647Y1500003D01*
X14635165Y1642457D01*
X14575377Y1773372D01*
X14575377Y1773373D01*
X14481128Y1882143D01*
X14481127Y1882144D01*
X14481126Y1882145D01*
X14360057Y1959951D01*
X14360054Y1959953D01*
X14360053Y1959953D01*
X14360050Y1959954D01*
X14221964Y2000500D01*
X14221961Y2000500D01*
X14078039Y2000500D01*
X14078035Y2000500D01*
X13939949Y1959954D01*
X13939942Y1959951D01*
X13818873Y1882145D01*
X13724622Y1773372D01*
X13664834Y1642457D01*
X13644353Y1500003D01*
X11055647Y1500003D01*
X11035165Y1642457D01*
X10975377Y1773372D01*
X10975377Y1773373D01*
X10881128Y1882143D01*
X10881127Y1882144D01*
X10881126Y1882145D01*
X10760057Y1959951D01*
X10760054Y1959953D01*
X10760053Y1959953D01*
X10760050Y1959954D01*
X10621964Y2000500D01*
X10621961Y2000500D01*
X10478039Y2000500D01*
X10478035Y2000500D01*
X10339949Y1959954D01*
X10339942Y1959951D01*
X10218873Y1882145D01*
X10124622Y1773372D01*
X10064834Y1642457D01*
X10044353Y1500003D01*
X400500Y1500003D01*
X400500Y2469363D01*
X23449500Y2469363D01*
X23449500Y1490643D01*
X23449501Y1490638D01*
X23464955Y1373242D01*
X23464957Y1373234D01*
X23525462Y1227162D01*
X23525462Y1227161D01*
X23525872Y1226627D01*
X23621718Y1101718D01*
X23747159Y1005464D01*
X23893238Y944956D01*
X24010639Y929500D01*
X25189360Y929501D01*
X25306762Y944956D01*
X25452841Y1005464D01*
X25578282Y1101718D01*
X25674536Y1227159D01*
X25735044Y1373238D01*
X25750500Y1490639D01*
X25750499Y2469360D01*
X25735044Y2586762D01*
X25674537Y2732839D01*
X25674537Y2732840D01*
X25578286Y2858277D01*
X25578285Y2858278D01*
X25578282Y2858282D01*
X25578277Y2858286D01*
X25578276Y2858287D01*
X25452838Y2954538D01*
X25306766Y3015043D01*
X25306758Y3015045D01*
X25189361Y3030500D01*
X24010642Y3030500D01*
X24010637Y3030499D01*
X23893241Y3015045D01*
X23893233Y3015043D01*
X23747161Y2954538D01*
X23747160Y2954538D01*
X23621723Y2858287D01*
X23621713Y2858277D01*
X23525462Y2732840D01*
X23525462Y2732839D01*
X23464957Y2586767D01*
X23464955Y2586759D01*
X23449500Y2469363D01*
X400500Y2469363D01*
X400500Y4520004D01*
X744417Y4520004D01*
X744417Y4519997D01*
X764698Y4314071D01*
X764699Y4314066D01*
X824768Y4116046D01*
X922316Y3933548D01*
X1053585Y3773596D01*
X1053590Y3773590D01*
X1053595Y3773586D01*
X1213547Y3642317D01*
X1213548Y3642317D01*
X1213550Y3642315D01*
X1396046Y3544768D01*
X1533997Y3502922D01*
X1594065Y3484700D01*
X1594070Y3484699D01*
X1799997Y3464417D01*
X1800000Y3464417D01*
X1800003Y3464417D01*
X2005929Y3484699D01*
X2005934Y3484700D01*
X2203954Y3544768D01*
X2386450Y3642315D01*
X2546410Y3773590D01*
X2677685Y3933550D01*
X2775232Y4116046D01*
X2835300Y4314066D01*
X2835301Y4314071D01*
X2855583Y4519997D01*
X2855583Y4520004D01*
X23544417Y4520004D01*
X23544417Y4519997D01*
X23564698Y4314071D01*
X23564699Y4314066D01*
X23624768Y4116046D01*
X23722316Y3933548D01*
X23853585Y3773596D01*
X23853590Y3773590D01*
X23853595Y3773586D01*
X24013547Y3642317D01*
X24013548Y3642317D01*
X24013550Y3642315D01*
X24196046Y3544768D01*
X24333997Y3502922D01*
X24394065Y3484700D01*
X24394070Y3484699D01*
X24599997Y3464417D01*
X24600000Y3464417D01*
X24600003Y3464417D01*
X24805929Y3484699D01*
X24805934Y3484700D01*
X25003954Y3544768D01*
X25186450Y3642315D01*
X25346410Y3773590D01*
X25477685Y3933550D01*
X25575232Y4116046D01*
X25635300Y4314066D01*
X25635301Y4314071D01*
X25655583Y4519997D01*
X25655583Y4520004D01*
X25635301Y4725930D01*
X25635300Y4725935D01*
X25617078Y4786003D01*
X25575232Y4923954D01*
X25477685Y5106450D01*
X25346410Y5266410D01*
X25346404Y5266415D01*
X25186452Y5397684D01*
X25003954Y5495232D01*
X24805934Y5555301D01*
X24805929Y5555302D01*
X24600003Y5575583D01*
X24599997Y5575583D01*
X24394070Y5555302D01*
X24394065Y5555301D01*
X24196045Y5495232D01*
X24013547Y5397684D01*
X23853595Y5266415D01*
X23853585Y5266405D01*
X23722316Y5106453D01*
X23624768Y4923955D01*
X23564699Y4725935D01*
X23564698Y4725930D01*
X23544417Y4520004D01*
X2855583Y4520004D01*
X2835301Y4725930D01*
X2835300Y4725935D01*
X2817078Y4786003D01*
X2775232Y4923954D01*
X2677685Y5106450D01*
X2546410Y5266410D01*
X2546404Y5266415D01*
X2386452Y5397684D01*
X2203954Y5495232D01*
X2005934Y5555301D01*
X2005929Y5555302D01*
X1800003Y5575583D01*
X1799997Y5575583D01*
X1594070Y5555302D01*
X1594065Y5555301D01*
X1396045Y5495232D01*
X1213547Y5397684D01*
X1053595Y5266415D01*
X1053585Y5266405D01*
X922316Y5106453D01*
X824768Y4923955D01*
X764699Y4725935D01*
X764698Y4725930D01*
X744417Y4520004D01*
X400500Y4520004D01*
X400500Y7060004D01*
X744417Y7060004D01*
X744417Y7059997D01*
X764698Y6854071D01*
X764699Y6854066D01*
X824768Y6656046D01*
X922316Y6473548D01*
X1053585Y6313596D01*
X1053590Y6313590D01*
X1053595Y6313586D01*
X1213547Y6182317D01*
X1213548Y6182317D01*
X1213550Y6182315D01*
X1396046Y6084768D01*
X1533997Y6042922D01*
X1594065Y6024700D01*
X1594070Y6024699D01*
X1799997Y6004417D01*
X1800000Y6004417D01*
X1800003Y6004417D01*
X2005929Y6024699D01*
X2005934Y6024700D01*
X2203954Y6084768D01*
X2386450Y6182315D01*
X2546410Y6313590D01*
X2677685Y6473550D01*
X2775232Y6656046D01*
X2835300Y6854066D01*
X2835301Y6854071D01*
X2855583Y7059997D01*
X2855583Y7060004D01*
X23544417Y7060004D01*
X23544417Y7059997D01*
X23564698Y6854071D01*
X23564699Y6854066D01*
X23624768Y6656046D01*
X23722316Y6473548D01*
X23853585Y6313596D01*
X23853590Y6313590D01*
X23853595Y6313586D01*
X24013547Y6182317D01*
X24013548Y6182317D01*
X24013550Y6182315D01*
X24196046Y6084768D01*
X24333997Y6042922D01*
X24394065Y6024700D01*
X24394070Y6024699D01*
X24599997Y6004417D01*
X24600000Y6004417D01*
X24600003Y6004417D01*
X24805929Y6024699D01*
X24805934Y6024700D01*
X25003954Y6084768D01*
X25186450Y6182315D01*
X25346410Y6313590D01*
X25477685Y6473550D01*
X25575232Y6656046D01*
X25635300Y6854066D01*
X25635301Y6854071D01*
X25655583Y7059997D01*
X25655583Y7060004D01*
X25635301Y7265930D01*
X25635300Y7265935D01*
X25617078Y7326003D01*
X25575232Y7463954D01*
X25477685Y7646450D01*
X25346410Y7806410D01*
X25346404Y7806415D01*
X25186452Y7937684D01*
X25003954Y8035232D01*
X24805934Y8095301D01*
X24805929Y8095302D01*
X24600003Y8115583D01*
X24599997Y8115583D01*
X24394070Y8095302D01*
X24394065Y8095301D01*
X24196045Y8035232D01*
X24013547Y7937684D01*
X23853595Y7806415D01*
X23853585Y7806405D01*
X23722316Y7646453D01*
X23624768Y7463955D01*
X23564699Y7265935D01*
X23564698Y7265930D01*
X23544417Y7060004D01*
X2855583Y7060004D01*
X2835301Y7265930D01*
X2835300Y7265935D01*
X2817078Y7326003D01*
X2775232Y7463954D01*
X2677685Y7646450D01*
X2546410Y7806410D01*
X2546404Y7806415D01*
X2386452Y7937684D01*
X2203954Y8035232D01*
X2005934Y8095301D01*
X2005929Y8095302D01*
X1800003Y8115583D01*
X1799997Y8115583D01*
X1594070Y8095302D01*
X1594065Y8095301D01*
X1396045Y8035232D01*
X1213547Y7937684D01*
X1053595Y7806415D01*
X1053585Y7806405D01*
X922316Y7646453D01*
X824768Y7463955D01*
X764699Y7265935D01*
X764698Y7265930D01*
X744417Y7060004D01*
X400500Y7060004D01*
X400500Y9600004D01*
X744417Y9600004D01*
X744417Y9599997D01*
X764698Y9394071D01*
X764699Y9394066D01*
X824768Y9196046D01*
X922316Y9013548D01*
X953598Y8975431D01*
X1053590Y8853590D01*
X1053595Y8853586D01*
X1213547Y8722317D01*
X1213548Y8722317D01*
X1213550Y8722315D01*
X1396046Y8624768D01*
X1533997Y8582922D01*
X1594065Y8564700D01*
X1594070Y8564699D01*
X1799997Y8544417D01*
X1800000Y8544417D01*
X1800003Y8544417D01*
X2005929Y8564699D01*
X2005934Y8564700D01*
X2203954Y8624768D01*
X2386450Y8722315D01*
X2546410Y8853590D01*
X2677685Y9013550D01*
X2775232Y9196046D01*
X2835300Y9394066D01*
X2835301Y9394071D01*
X2855583Y9599997D01*
X2855583Y9600004D01*
X2835301Y9805930D01*
X2835300Y9805935D01*
X2806917Y9899501D01*
X2775232Y10003954D01*
X2677685Y10186450D01*
X2546410Y10346410D01*
X2546404Y10346415D01*
X2386452Y10477684D01*
X2251156Y10550002D01*
X14004722Y10550002D01*
X14004722Y10549999D01*
X14023762Y10393184D01*
X14023763Y10393182D01*
X14041503Y10346405D01*
X14079780Y10245477D01*
X14169515Y10115472D01*
X14169516Y10115471D01*
X14169517Y10115470D01*
X14287760Y10010717D01*
X14427635Y9937304D01*
X14581015Y9899500D01*
X14581018Y9899500D01*
X14738982Y9899500D01*
X14738985Y9899500D01*
X14892365Y9937304D01*
X15032240Y10010717D01*
X15150483Y10115470D01*
X15213525Y10206804D01*
X15262140Y10243952D01*
X15323308Y10245431D01*
X15373663Y10210674D01*
X15376462Y10206821D01*
X15409461Y10159014D01*
X15439515Y10115472D01*
X15557759Y10010717D01*
X15573112Y10002659D01*
X15615850Y9958874D01*
X15624690Y9898331D01*
X15596254Y9844154D01*
X15573112Y9827341D01*
X15557759Y9819284D01*
X15439515Y9714529D01*
X15349780Y9584524D01*
X15293763Y9436818D01*
X15293762Y9436817D01*
X15274722Y9280002D01*
X15274722Y9279999D01*
X15293762Y9123184D01*
X15293763Y9123183D01*
X15349780Y8975477D01*
X15439515Y8845472D01*
X15439516Y8845471D01*
X15439517Y8845470D01*
X15557760Y8740717D01*
X15697635Y8667304D01*
X15851015Y8629500D01*
X15851018Y8629500D01*
X16008982Y8629500D01*
X16008985Y8629500D01*
X16162365Y8667304D01*
X16302240Y8740717D01*
X16420483Y8845470D01*
X16483525Y8936804D01*
X16532140Y8973952D01*
X16593308Y8975431D01*
X16643663Y8940674D01*
X16646462Y8936821D01*
X16679461Y8889014D01*
X16709515Y8845472D01*
X16709516Y8845471D01*
X16709517Y8845470D01*
X16827760Y8740717D01*
X16967635Y8667304D01*
X17121015Y8629500D01*
X17121018Y8629500D01*
X17278982Y8629500D01*
X17278985Y8629500D01*
X17432365Y8667304D01*
X17572240Y8740717D01*
X17690483Y8845470D01*
X17753525Y8936804D01*
X17802140Y8973952D01*
X17863308Y8975431D01*
X17913663Y8940674D01*
X17916462Y8936821D01*
X17949461Y8889014D01*
X17979515Y8845472D01*
X17979516Y8845471D01*
X17979517Y8845470D01*
X18097760Y8740717D01*
X18237635Y8667304D01*
X18391015Y8629500D01*
X18391018Y8629500D01*
X18548982Y8629500D01*
X18548985Y8629500D01*
X18702365Y8667304D01*
X18842240Y8740717D01*
X18960483Y8845470D01*
X19023525Y8936804D01*
X19072140Y8973952D01*
X19133308Y8975431D01*
X19183663Y8940674D01*
X19186462Y8936821D01*
X19219461Y8889014D01*
X19249515Y8845472D01*
X19249516Y8845471D01*
X19249517Y8845470D01*
X19367760Y8740717D01*
X19507635Y8667304D01*
X19661015Y8629500D01*
X19661018Y8629500D01*
X19818982Y8629500D01*
X19818985Y8629500D01*
X19972365Y8667304D01*
X20112240Y8740717D01*
X20230483Y8845470D01*
X20320220Y8975477D01*
X20376237Y9123182D01*
X20395278Y9280000D01*
X20376237Y9436818D01*
X20320220Y9584523D01*
X20309534Y9600004D01*
X23544417Y9600004D01*
X23544417Y9599997D01*
X23564698Y9394071D01*
X23564699Y9394066D01*
X23624768Y9196046D01*
X23722316Y9013548D01*
X23753598Y8975431D01*
X23853590Y8853590D01*
X23853595Y8853586D01*
X24013547Y8722317D01*
X24013548Y8722317D01*
X24013550Y8722315D01*
X24196046Y8624768D01*
X24333997Y8582922D01*
X24394065Y8564700D01*
X24394070Y8564699D01*
X24599997Y8544417D01*
X24600000Y8544417D01*
X24600003Y8544417D01*
X24805929Y8564699D01*
X24805934Y8564700D01*
X25003954Y8624768D01*
X25186450Y8722315D01*
X25346410Y8853590D01*
X25477685Y9013550D01*
X25575232Y9196046D01*
X25635300Y9394066D01*
X25635301Y9394071D01*
X25655583Y9599997D01*
X25655583Y9600004D01*
X25635301Y9805930D01*
X25635300Y9805935D01*
X25606917Y9899501D01*
X25575232Y10003954D01*
X25477685Y10186450D01*
X25346410Y10346410D01*
X25346404Y10346415D01*
X25186452Y10477684D01*
X25003954Y10575232D01*
X24805934Y10635301D01*
X24805929Y10635302D01*
X24600003Y10655583D01*
X24599997Y10655583D01*
X24394070Y10635302D01*
X24394065Y10635301D01*
X24196045Y10575232D01*
X24013547Y10477684D01*
X23853595Y10346415D01*
X23853585Y10346405D01*
X23722316Y10186453D01*
X23624768Y10003955D01*
X23564699Y9805935D01*
X23564698Y9805930D01*
X23544417Y9600004D01*
X20309534Y9600004D01*
X20230483Y9714530D01*
X20218375Y9725257D01*
X20112240Y9819284D01*
X20096889Y9827340D01*
X20054150Y9871124D01*
X20045309Y9931667D01*
X20073743Y9985844D01*
X20096889Y10002660D01*
X20112240Y10010717D01*
X20112242Y10010719D01*
X20230483Y10115470D01*
X20320220Y10245477D01*
X20376237Y10393182D01*
X20395278Y10550000D01*
X20376237Y10706818D01*
X20320220Y10854523D01*
X20230483Y10984530D01*
X20112240Y11089283D01*
X20025017Y11135062D01*
X19972364Y11162697D01*
X19821016Y11200000D01*
X21995131Y11200000D01*
X22012500Y11090339D01*
X22062905Y10991413D01*
X22141413Y10912905D01*
X22240339Y10862500D01*
X22350000Y10845131D01*
X22459661Y10862500D01*
X22558587Y10912905D01*
X22637095Y10991413D01*
X22687500Y11090339D01*
X22704869Y11200000D01*
X22687500Y11309661D01*
X22637095Y11408587D01*
X22558587Y11487095D01*
X22459661Y11537500D01*
X22350000Y11554869D01*
X22240338Y11537500D01*
X22141413Y11487095D01*
X22062905Y11408587D01*
X22012500Y11309662D01*
X22012500Y11309661D01*
X21995131Y11200000D01*
X19821016Y11200000D01*
X19818987Y11200500D01*
X19818985Y11200500D01*
X19661015Y11200500D01*
X19661012Y11200500D01*
X19507635Y11162697D01*
X19367758Y11089282D01*
X19249515Y10984529D01*
X19186476Y10893199D01*
X19137859Y10856049D01*
X19076692Y10854571D01*
X19026337Y10889328D01*
X19023524Y10893199D01*
X18960484Y10984529D01*
X18952714Y10991413D01*
X18842240Y11089283D01*
X18755017Y11135062D01*
X18702364Y11162697D01*
X18548987Y11200500D01*
X18548985Y11200500D01*
X18391015Y11200500D01*
X18391012Y11200500D01*
X18237635Y11162697D01*
X18097758Y11089282D01*
X17979515Y10984529D01*
X17916476Y10893199D01*
X17867859Y10856049D01*
X17806692Y10854571D01*
X17756337Y10889328D01*
X17753524Y10893199D01*
X17690484Y10984529D01*
X17682714Y10991413D01*
X17572240Y11089283D01*
X17485017Y11135062D01*
X17432364Y11162697D01*
X17278987Y11200500D01*
X17278985Y11200500D01*
X17121015Y11200500D01*
X17121012Y11200500D01*
X16967635Y11162697D01*
X16827758Y11089282D01*
X16709515Y10984529D01*
X16646476Y10893199D01*
X16597859Y10856049D01*
X16536692Y10854571D01*
X16486337Y10889328D01*
X16483524Y10893199D01*
X16420484Y10984529D01*
X16412714Y10991413D01*
X16302240Y11089283D01*
X16215017Y11135062D01*
X16162364Y11162697D01*
X16008987Y11200500D01*
X16008985Y11200500D01*
X15851015Y11200500D01*
X15851012Y11200500D01*
X15697635Y11162697D01*
X15557758Y11089282D01*
X15439515Y10984529D01*
X15376476Y10893199D01*
X15327859Y10856049D01*
X15266692Y10854571D01*
X15216337Y10889328D01*
X15213524Y10893199D01*
X15150484Y10984529D01*
X15142714Y10991413D01*
X15032240Y11089283D01*
X14945017Y11135062D01*
X14892364Y11162697D01*
X14738987Y11200500D01*
X14738985Y11200500D01*
X14581015Y11200500D01*
X14581012Y11200500D01*
X14427635Y11162697D01*
X14287758Y11089282D01*
X14169515Y10984529D01*
X14079780Y10854524D01*
X14023763Y10706818D01*
X14023762Y10706817D01*
X14004722Y10550002D01*
X2251156Y10550002D01*
X2203954Y10575232D01*
X2005934Y10635301D01*
X2005929Y10635302D01*
X1800003Y10655583D01*
X1799997Y10655583D01*
X1594070Y10635302D01*
X1594065Y10635301D01*
X1396045Y10575232D01*
X1213547Y10477684D01*
X1053595Y10346415D01*
X1053585Y10346405D01*
X922316Y10186453D01*
X824768Y10003955D01*
X764699Y9805935D01*
X764698Y9805930D01*
X744417Y9600004D01*
X400500Y9600004D01*
X400500Y11000000D01*
X5745131Y11000000D01*
X5762500Y10890339D01*
X5812905Y10791413D01*
X5891413Y10712905D01*
X5990339Y10662500D01*
X6100000Y10645131D01*
X6209661Y10662500D01*
X6308587Y10712905D01*
X6387095Y10791413D01*
X6411791Y10839883D01*
X6455055Y10883146D01*
X6515487Y10892717D01*
X6570004Y10864939D01*
X6588208Y10839884D01*
X6612905Y10791413D01*
X6691413Y10712905D01*
X6790339Y10662500D01*
X6900000Y10645131D01*
X7009661Y10662500D01*
X7108587Y10712905D01*
X7187095Y10791413D01*
X7211791Y10839883D01*
X7255055Y10883146D01*
X7315487Y10892717D01*
X7370004Y10864939D01*
X7388208Y10839884D01*
X7412905Y10791413D01*
X7491413Y10712905D01*
X7590339Y10662500D01*
X7700000Y10645131D01*
X7809661Y10662500D01*
X7908587Y10712905D01*
X7987095Y10791413D01*
X8037500Y10890339D01*
X8054869Y11000000D01*
X8037500Y11109661D01*
X7987095Y11208587D01*
X7908587Y11287095D01*
X7809661Y11337500D01*
X7700000Y11354869D01*
X7590338Y11337500D01*
X7491413Y11287095D01*
X7412904Y11208586D01*
X7388209Y11160119D01*
X7344944Y11116855D01*
X7284512Y11107284D01*
X7229996Y11135062D01*
X7211791Y11160119D01*
X7191470Y11200000D01*
X7187095Y11208587D01*
X7108587Y11287095D01*
X7009661Y11337500D01*
X6900000Y11354869D01*
X6790338Y11337500D01*
X6691413Y11287095D01*
X6612904Y11208586D01*
X6588209Y11160119D01*
X6544944Y11116855D01*
X6484512Y11107284D01*
X6429996Y11135062D01*
X6411791Y11160119D01*
X6391470Y11200000D01*
X6387095Y11208587D01*
X6308587Y11287095D01*
X6209661Y11337500D01*
X6100000Y11354869D01*
X5990338Y11337500D01*
X5891413Y11287095D01*
X5812905Y11208587D01*
X5762500Y11109662D01*
X5758502Y11084417D01*
X5745131Y11000000D01*
X400500Y11000000D01*
X400500Y12140004D01*
X744417Y12140004D01*
X744417Y12139997D01*
X764698Y11934071D01*
X764699Y11934066D01*
X824768Y11736046D01*
X922316Y11553548D01*
X1041282Y11408587D01*
X1053590Y11393590D01*
X1053595Y11393586D01*
X1213547Y11262317D01*
X1213548Y11262317D01*
X1213550Y11262315D01*
X1396046Y11164768D01*
X1493975Y11135062D01*
X1594065Y11104700D01*
X1594070Y11104699D01*
X1799997Y11084417D01*
X1800000Y11084417D01*
X1800003Y11084417D01*
X2005929Y11104699D01*
X2005934Y11104700D01*
X2022288Y11109661D01*
X2203954Y11164768D01*
X2386450Y11262315D01*
X2546410Y11393590D01*
X2677685Y11553550D01*
X2775232Y11736046D01*
X2835300Y11934066D01*
X2835301Y11934071D01*
X2855583Y12139997D01*
X2855583Y12140004D01*
X23544417Y12140004D01*
X23544417Y12139997D01*
X23564698Y11934071D01*
X23564699Y11934066D01*
X23624768Y11736046D01*
X23722316Y11553548D01*
X23841282Y11408587D01*
X23853590Y11393590D01*
X23853595Y11393586D01*
X24013547Y11262317D01*
X24013548Y11262317D01*
X24013550Y11262315D01*
X24196046Y11164768D01*
X24293975Y11135062D01*
X24394065Y11104700D01*
X24394070Y11104699D01*
X24599997Y11084417D01*
X24600000Y11084417D01*
X24600003Y11084417D01*
X24805929Y11104699D01*
X24805934Y11104700D01*
X24822288Y11109661D01*
X25003954Y11164768D01*
X25186450Y11262315D01*
X25346410Y11393590D01*
X25477685Y11553550D01*
X25575232Y11736046D01*
X25635300Y11934066D01*
X25635301Y11934071D01*
X25655583Y12139997D01*
X25655583Y12140004D01*
X25635301Y12345930D01*
X25635300Y12345935D01*
X25617078Y12406003D01*
X25575232Y12543954D01*
X25477685Y12726450D01*
X25346410Y12886410D01*
X25346404Y12886415D01*
X25186452Y13017684D01*
X25003954Y13115232D01*
X24805934Y13175301D01*
X24805929Y13175302D01*
X24600003Y13195583D01*
X24599997Y13195583D01*
X24394070Y13175302D01*
X24394065Y13175301D01*
X24196045Y13115232D01*
X24013547Y13017684D01*
X23853595Y12886415D01*
X23853585Y12886405D01*
X23722316Y12726453D01*
X23624768Y12543955D01*
X23564699Y12345935D01*
X23564698Y12345930D01*
X23544417Y12140004D01*
X2855583Y12140004D01*
X2835301Y12345930D01*
X2835300Y12345935D01*
X2817078Y12406003D01*
X2775232Y12543954D01*
X2677685Y12726450D01*
X2546410Y12886410D01*
X2546404Y12886415D01*
X2386452Y13017684D01*
X2203954Y13115232D01*
X2005934Y13175301D01*
X2005929Y13175302D01*
X1800003Y13195583D01*
X1799997Y13195583D01*
X1594070Y13175302D01*
X1594065Y13175301D01*
X1396045Y13115232D01*
X1213547Y13017684D01*
X1053595Y12886415D01*
X1053585Y12886405D01*
X922316Y12726453D01*
X824768Y12543955D01*
X764699Y12345935D01*
X764698Y12345930D01*
X744417Y12140004D01*
X400500Y12140004D01*
X400500Y13250000D01*
X20095131Y13250000D01*
X20112500Y13140339D01*
X20162905Y13041413D01*
X20241413Y12962905D01*
X20340339Y12912500D01*
X20450000Y12895131D01*
X20559661Y12912500D01*
X20658587Y12962905D01*
X20737095Y13041413D01*
X20787500Y13140339D01*
X20804869Y13250000D01*
X20787500Y13359661D01*
X20737095Y13458587D01*
X20658587Y13537095D01*
X20559661Y13587500D01*
X20450000Y13604869D01*
X20340338Y13587500D01*
X20241413Y13537095D01*
X20162905Y13458587D01*
X20112500Y13359662D01*
X20102483Y13296415D01*
X20095131Y13250000D01*
X400500Y13250000D01*
X400500Y14680004D01*
X744417Y14680004D01*
X744417Y14679997D01*
X764698Y14474071D01*
X764699Y14474066D01*
X824768Y14276046D01*
X922316Y14093548D01*
X1048114Y13940263D01*
X1053590Y13933590D01*
X1082748Y13909661D01*
X1213547Y13802317D01*
X1213548Y13802317D01*
X1213550Y13802315D01*
X1396046Y13704768D01*
X1533997Y13662922D01*
X1594065Y13644700D01*
X1594070Y13644699D01*
X1799997Y13624417D01*
X1800000Y13624417D01*
X1800003Y13624417D01*
X2005929Y13644699D01*
X2005934Y13644700D01*
X2203954Y13704768D01*
X2386450Y13802315D01*
X2546410Y13933590D01*
X2677685Y14093550D01*
X2681133Y14100000D01*
X9845131Y14100000D01*
X9862500Y13990339D01*
X9912905Y13891413D01*
X9991413Y13812905D01*
X10090339Y13762500D01*
X10200000Y13745131D01*
X10309661Y13762500D01*
X10408587Y13812905D01*
X10487095Y13891413D01*
X10537500Y13990339D01*
X10554869Y14100000D01*
X11245131Y14100000D01*
X11262500Y13990339D01*
X11312905Y13891413D01*
X11391413Y13812905D01*
X11490339Y13762500D01*
X11600000Y13745131D01*
X11709661Y13762500D01*
X11808587Y13812905D01*
X11887095Y13891413D01*
X11937500Y13990339D01*
X11954869Y14100000D01*
X11937500Y14209661D01*
X11887095Y14308587D01*
X11808587Y14387095D01*
X11709661Y14437500D01*
X11600000Y14454869D01*
X11490338Y14437500D01*
X11391413Y14387095D01*
X11312905Y14308587D01*
X11262500Y14209662D01*
X11255330Y14164390D01*
X11245131Y14100000D01*
X10554869Y14100000D01*
X10537500Y14209661D01*
X10487095Y14308587D01*
X10408587Y14387095D01*
X10309661Y14437500D01*
X10200000Y14454869D01*
X10090338Y14437500D01*
X9991413Y14387095D01*
X9912905Y14308587D01*
X9862500Y14209662D01*
X9855330Y14164390D01*
X9845131Y14100000D01*
X2681133Y14100000D01*
X2775232Y14276046D01*
X2835300Y14474066D01*
X2835301Y14474071D01*
X2855583Y14679997D01*
X2855583Y14680004D01*
X2835301Y14885930D01*
X2835300Y14885935D01*
X2796784Y15012906D01*
X2775232Y15083954D01*
X2677685Y15266450D01*
X2650151Y15300000D01*
X3945131Y15300000D01*
X3962500Y15190339D01*
X4012905Y15091413D01*
X4091413Y15012905D01*
X4190339Y14962500D01*
X4300000Y14945131D01*
X4409661Y14962500D01*
X4508587Y15012905D01*
X4587095Y15091413D01*
X4611791Y15139883D01*
X4655055Y15183146D01*
X4715487Y15192717D01*
X4770004Y15164939D01*
X4788208Y15139884D01*
X4812905Y15091413D01*
X4891413Y15012905D01*
X4990339Y14962500D01*
X5100000Y14945131D01*
X5209661Y14962500D01*
X5308587Y15012905D01*
X5387095Y15091413D01*
X5437500Y15190339D01*
X5454869Y15300000D01*
X5437500Y15409661D01*
X5387095Y15508587D01*
X5344678Y15551004D01*
X14794500Y15551004D01*
X14794500Y14176605D01*
X14794979Y14164390D01*
X14796198Y14148906D01*
X14812666Y14090516D01*
X14812668Y14090511D01*
X14840433Y14036017D01*
X14840447Y14035991D01*
X14848579Y14021904D01*
X14848581Y14021902D01*
X14848582Y14021901D01*
X14908400Y13968041D01*
X14908402Y13968040D01*
X14913750Y13964364D01*
X14911963Y13961765D01*
X14946140Y13927666D01*
X14955781Y13867244D01*
X14955763Y13867134D01*
X14945131Y13800003D01*
X14945131Y13800000D01*
X14962500Y13690339D01*
X15012905Y13591413D01*
X15091413Y13512905D01*
X15190339Y13462500D01*
X15282630Y13447883D01*
X15299999Y13445131D01*
X15299999Y13445132D01*
X15300000Y13445131D01*
X15368741Y13456019D01*
X15429172Y13446448D01*
X15464320Y13416430D01*
X15492602Y13377503D01*
X15502842Y13364858D01*
X15502846Y13364855D01*
X15570346Y13321020D01*
X15570352Y13321017D01*
X15628543Y13302110D01*
X15638153Y13300588D01*
X15676590Y13294500D01*
X15676594Y13294500D01*
X17900994Y13294500D01*
X17901000Y13294500D01*
X17925323Y13296414D01*
X17955916Y13301259D01*
X18022994Y13329043D01*
X18065136Y13359661D01*
X18072492Y13365005D01*
X18085142Y13375249D01*
X18085145Y13375253D01*
X18128980Y13442753D01*
X18128980Y13442755D01*
X18128983Y13442758D01*
X18142859Y13485466D01*
X18178822Y13534966D01*
X18237013Y13553874D01*
X18252489Y13552657D01*
X18300000Y13545131D01*
X18409661Y13562500D01*
X18508587Y13612905D01*
X18587095Y13691413D01*
X18637500Y13790339D01*
X18654869Y13900000D01*
X18637500Y14009661D01*
X18587095Y14108587D01*
X18508587Y14187095D01*
X18409661Y14237500D01*
X18300000Y14254869D01*
X18299997Y14254869D01*
X18269986Y14250116D01*
X18209554Y14259688D01*
X18166290Y14302953D01*
X18155500Y14347897D01*
X18155500Y14900000D01*
X18745131Y14900000D01*
X18762500Y14790339D01*
X18812905Y14691413D01*
X18891413Y14612905D01*
X18990339Y14562500D01*
X19100000Y14545131D01*
X19209661Y14562500D01*
X19308587Y14612905D01*
X19375686Y14680004D01*
X23544417Y14680004D01*
X23544417Y14679997D01*
X23564698Y14474071D01*
X23564699Y14474066D01*
X23624768Y14276046D01*
X23722316Y14093548D01*
X23848114Y13940263D01*
X23853590Y13933590D01*
X23882748Y13909661D01*
X24013547Y13802317D01*
X24013548Y13802317D01*
X24013550Y13802315D01*
X24196046Y13704768D01*
X24333997Y13662922D01*
X24394065Y13644700D01*
X24394070Y13644699D01*
X24599997Y13624417D01*
X24600000Y13624417D01*
X24600003Y13624417D01*
X24805929Y13644699D01*
X24805934Y13644700D01*
X25003954Y13704768D01*
X25186450Y13802315D01*
X25346410Y13933590D01*
X25477685Y14093550D01*
X25575232Y14276046D01*
X25635300Y14474066D01*
X25635301Y14474071D01*
X25655583Y14679997D01*
X25655583Y14680004D01*
X25635301Y14885930D01*
X25635300Y14885935D01*
X25596784Y15012906D01*
X25575232Y15083954D01*
X25477685Y15266450D01*
X25450151Y15300000D01*
X25356990Y15413518D01*
X25346410Y15426410D01*
X25346404Y15426415D01*
X25186452Y15557684D01*
X25003954Y15655232D01*
X24805934Y15715301D01*
X24805929Y15715302D01*
X24600003Y15735583D01*
X24599997Y15735583D01*
X24394070Y15715302D01*
X24394065Y15715301D01*
X24196045Y15655232D01*
X24013547Y15557684D01*
X23853595Y15426415D01*
X23853585Y15426405D01*
X23722316Y15266453D01*
X23624768Y15083955D01*
X23564699Y14885935D01*
X23564698Y14885930D01*
X23544417Y14680004D01*
X19375686Y14680004D01*
X19387095Y14691413D01*
X19437500Y14790339D01*
X19454869Y14900000D01*
X19437500Y15009661D01*
X19387095Y15108587D01*
X19308587Y15187095D01*
X19209661Y15237500D01*
X19100000Y15254869D01*
X18990338Y15237500D01*
X18891413Y15187095D01*
X18812905Y15108587D01*
X18762500Y15009662D01*
X18762500Y15009661D01*
X18745131Y14900000D01*
X18155500Y14900000D01*
X18155500Y15315737D01*
X18174407Y15373928D01*
X18223907Y15409892D01*
X18269984Y15413518D01*
X18354699Y15400100D01*
X18464360Y15417469D01*
X18563286Y15467874D01*
X18641794Y15546382D01*
X18692199Y15645308D01*
X18709568Y15754969D01*
X18692199Y15864630D01*
X18641794Y15963556D01*
X18563286Y16042064D01*
X18464360Y16092469D01*
X18354699Y16109838D01*
X18245037Y16092469D01*
X18146112Y16042064D01*
X18074501Y15970454D01*
X18019987Y15942678D01*
X17959555Y15952249D01*
X17916290Y15995514D01*
X17905500Y16040459D01*
X17905500Y16200000D01*
X19545131Y16200000D01*
X19562500Y16090339D01*
X19612905Y15991413D01*
X19691413Y15912905D01*
X19790339Y15862500D01*
X19900000Y15845131D01*
X20009661Y15862500D01*
X20108587Y15912905D01*
X20187095Y15991413D01*
X20237500Y16090339D01*
X20254869Y16200000D01*
X20237500Y16309661D01*
X20187095Y16408587D01*
X20108587Y16487095D01*
X20009661Y16537500D01*
X19900000Y16554869D01*
X19790338Y16537500D01*
X19691413Y16487095D01*
X19612905Y16408587D01*
X19562500Y16309662D01*
X19562500Y16309661D01*
X19545131Y16200000D01*
X17905500Y16200000D01*
X17905500Y17220004D01*
X23544417Y17220004D01*
X23544417Y17219997D01*
X23564698Y17014071D01*
X23564699Y17014066D01*
X23624768Y16816046D01*
X23722316Y16633548D01*
X23842507Y16487095D01*
X23853590Y16473590D01*
X23853595Y16473586D01*
X24013547Y16342317D01*
X24013548Y16342317D01*
X24013550Y16342315D01*
X24196046Y16244768D01*
X24333997Y16202922D01*
X24394065Y16184700D01*
X24394070Y16184699D01*
X24599997Y16164417D01*
X24600000Y16164417D01*
X24600003Y16164417D01*
X24805929Y16184699D01*
X24805934Y16184700D01*
X25003954Y16244768D01*
X25186450Y16342315D01*
X25346410Y16473590D01*
X25477685Y16633550D01*
X25575232Y16816046D01*
X25635300Y17014066D01*
X25635301Y17014071D01*
X25655583Y17219997D01*
X25655583Y17220004D01*
X25635301Y17425930D01*
X25635300Y17425935D01*
X25613134Y17499007D01*
X25575232Y17623954D01*
X25477685Y17806450D01*
X25346410Y17966410D01*
X25346404Y17966415D01*
X25186452Y18097684D01*
X25003954Y18195232D01*
X24805934Y18255301D01*
X24805929Y18255302D01*
X24600003Y18275583D01*
X24599997Y18275583D01*
X24394070Y18255302D01*
X24394065Y18255301D01*
X24196045Y18195232D01*
X24013547Y18097684D01*
X23853595Y17966415D01*
X23853585Y17966405D01*
X23722316Y17806453D01*
X23624768Y17623955D01*
X23564699Y17425935D01*
X23564698Y17425930D01*
X23544417Y17220004D01*
X17905500Y17220004D01*
X17905500Y17445500D01*
X17924407Y17503691D01*
X17973907Y17539655D01*
X18004500Y17544500D01*
X19400994Y17544500D01*
X19401000Y17544500D01*
X19425323Y17546414D01*
X19455916Y17551259D01*
X19522994Y17579043D01*
X19551233Y17599561D01*
X19572492Y17615005D01*
X19585142Y17625249D01*
X19585145Y17625253D01*
X19586284Y17627006D01*
X19628983Y17692758D01*
X19647890Y17750949D01*
X19647890Y17750952D01*
X19647891Y17750952D01*
X19655500Y17798997D01*
X19655500Y18700000D01*
X21845131Y18700000D01*
X21862500Y18590339D01*
X21912905Y18491413D01*
X21991413Y18412905D01*
X22090339Y18362500D01*
X22200000Y18345131D01*
X22309661Y18362500D01*
X22408587Y18412905D01*
X22487095Y18491413D01*
X22537500Y18590339D01*
X22554869Y18700000D01*
X22554169Y18704417D01*
X22548480Y18740339D01*
X22537500Y18809661D01*
X22487095Y18908587D01*
X22408587Y18987095D01*
X22309661Y19037500D01*
X22200000Y19054869D01*
X22090338Y19037500D01*
X21991413Y18987095D01*
X21912905Y18908587D01*
X21862500Y18809662D01*
X21845831Y18704417D01*
X21845131Y18700000D01*
X19655500Y18700000D01*
X19655500Y20145500D01*
X19674407Y20203691D01*
X19723907Y20239655D01*
X19754500Y20244500D01*
X20796125Y20244500D01*
X20796131Y20244500D01*
X20820454Y20246414D01*
X20851047Y20251259D01*
X20897423Y20270469D01*
X20958417Y20275269D01*
X21005308Y20249010D01*
X21041413Y20212905D01*
X21119012Y20173367D01*
X21162277Y20130102D01*
X21171848Y20069670D01*
X21144070Y20015153D01*
X21097289Y19991316D01*
X21097747Y19989907D01*
X21090340Y19987501D01*
X20991413Y19937095D01*
X20912905Y19858587D01*
X20862500Y19759662D01*
X20853154Y19700651D01*
X20845131Y19650000D01*
X20862500Y19540339D01*
X20912905Y19441413D01*
X20991413Y19362905D01*
X21090339Y19312500D01*
X21200000Y19295131D01*
X21309661Y19312500D01*
X21408587Y19362905D01*
X21487095Y19441413D01*
X21537500Y19540339D01*
X21554869Y19650000D01*
X21537500Y19759661D01*
X21537325Y19760004D01*
X23544417Y19760004D01*
X23544417Y19759997D01*
X23564698Y19554071D01*
X23564699Y19554066D01*
X23624768Y19356046D01*
X23722316Y19173548D01*
X23816662Y19058587D01*
X23853590Y19013590D01*
X23853595Y19013586D01*
X24013547Y18882317D01*
X24013548Y18882317D01*
X24013550Y18882315D01*
X24196046Y18784768D01*
X24333997Y18742922D01*
X24394065Y18724700D01*
X24394070Y18724699D01*
X24599997Y18704417D01*
X24600000Y18704417D01*
X24600003Y18704417D01*
X24805929Y18724699D01*
X24805934Y18724700D01*
X24857489Y18740339D01*
X25003954Y18784768D01*
X25186450Y18882315D01*
X25346410Y19013590D01*
X25477685Y19173550D01*
X25575232Y19356046D01*
X25635300Y19554066D01*
X25635301Y19554071D01*
X25655583Y19759997D01*
X25655583Y19760004D01*
X25635301Y19965930D01*
X25635300Y19965935D01*
X25594632Y20100000D01*
X25575232Y20163954D01*
X25477685Y20346450D01*
X25439685Y20392753D01*
X25346414Y20506405D01*
X25346410Y20506410D01*
X25284471Y20557242D01*
X25186452Y20637684D01*
X25003954Y20735232D01*
X24805934Y20795301D01*
X24805929Y20795302D01*
X24600003Y20815583D01*
X24599997Y20815583D01*
X24394070Y20795302D01*
X24394065Y20795301D01*
X24196045Y20735232D01*
X24013547Y20637684D01*
X23853595Y20506415D01*
X23853585Y20506405D01*
X23722316Y20346453D01*
X23624768Y20163955D01*
X23564699Y19965935D01*
X23564698Y19965930D01*
X23544417Y19760004D01*
X21537325Y19760004D01*
X21487095Y19858587D01*
X21408587Y19937095D01*
X21406043Y19938392D01*
X21330986Y19976635D01*
X21287722Y20019900D01*
X21278151Y20080332D01*
X21305929Y20134848D01*
X21352710Y20158684D01*
X21352253Y20160093D01*
X21359657Y20162500D01*
X21359661Y20162500D01*
X21458587Y20212905D01*
X21493648Y20247967D01*
X21548162Y20275743D01*
X21594243Y20272117D01*
X21597625Y20271018D01*
X21597627Y20271017D01*
X21655818Y20252110D01*
X21655819Y20252110D01*
X21655822Y20252109D01*
X21703865Y20244500D01*
X21703869Y20244500D01*
X22550994Y20244500D01*
X22551000Y20244500D01*
X22575323Y20246414D01*
X22605916Y20251259D01*
X22672994Y20279043D01*
X22713658Y20308587D01*
X22722492Y20315005D01*
X22735142Y20325249D01*
X22735145Y20325253D01*
X22748911Y20346450D01*
X22759142Y20362207D01*
X22778980Y20392753D01*
X22778980Y20392755D01*
X22778983Y20392758D01*
X22797890Y20450949D01*
X22805500Y20499000D01*
X22805500Y22300004D01*
X23544417Y22300004D01*
X23544417Y22299997D01*
X23564698Y22094071D01*
X23564699Y22094066D01*
X23624768Y21896046D01*
X23722316Y21713548D01*
X23835533Y21575593D01*
X23853590Y21553590D01*
X23853595Y21553586D01*
X24013547Y21422317D01*
X24013548Y21422317D01*
X24013550Y21422315D01*
X24196046Y21324768D01*
X24333997Y21282922D01*
X24394065Y21264700D01*
X24394070Y21264699D01*
X24599997Y21244417D01*
X24600000Y21244417D01*
X24600003Y21244417D01*
X24805929Y21264699D01*
X24805934Y21264700D01*
X25003954Y21324768D01*
X25186450Y21422315D01*
X25346410Y21553590D01*
X25477685Y21713550D01*
X25575232Y21896046D01*
X25635300Y22094066D01*
X25635301Y22094071D01*
X25655583Y22299997D01*
X25655583Y22300004D01*
X25635301Y22505930D01*
X25635300Y22505935D01*
X25616630Y22567482D01*
X25575232Y22703954D01*
X25477685Y22886450D01*
X25376090Y23010244D01*
X25346414Y23046405D01*
X25346410Y23046410D01*
X25326803Y23062501D01*
X25186452Y23177684D01*
X25003954Y23275232D01*
X24805934Y23335301D01*
X24805929Y23335302D01*
X24600003Y23355583D01*
X24599997Y23355583D01*
X24394070Y23335302D01*
X24394065Y23335301D01*
X24196045Y23275232D01*
X24013547Y23177684D01*
X23853595Y23046415D01*
X23853585Y23046405D01*
X23722316Y22886453D01*
X23624768Y22703955D01*
X23564699Y22505935D01*
X23564698Y22505930D01*
X23544417Y22300004D01*
X22805500Y22300004D01*
X22805500Y24801000D01*
X22803586Y24825323D01*
X22801261Y24840004D01*
X23544417Y24840004D01*
X23544417Y24839997D01*
X23564698Y24634071D01*
X23564699Y24634066D01*
X23624768Y24436046D01*
X23722316Y24253548D01*
X23840400Y24109662D01*
X23853590Y24093590D01*
X23856243Y24091413D01*
X24013547Y23962317D01*
X24013548Y23962317D01*
X24013550Y23962315D01*
X24196046Y23864768D01*
X24333997Y23822922D01*
X24394065Y23804700D01*
X24394070Y23804699D01*
X24599997Y23784417D01*
X24600000Y23784417D01*
X24600003Y23784417D01*
X24805929Y23804699D01*
X24805934Y23804700D01*
X25003954Y23864768D01*
X25186450Y23962315D01*
X25346410Y24093590D01*
X25477685Y24253550D01*
X25575232Y24436046D01*
X25635300Y24634066D01*
X25635301Y24634071D01*
X25655583Y24839997D01*
X25655583Y24840004D01*
X25635301Y25045930D01*
X25635300Y25045935D01*
X25617078Y25106003D01*
X25575232Y25243954D01*
X25477685Y25426450D01*
X25346410Y25586410D01*
X25345575Y25587095D01*
X25186452Y25717684D01*
X25003954Y25815232D01*
X24805934Y25875301D01*
X24805929Y25875302D01*
X24600003Y25895583D01*
X24599997Y25895583D01*
X24394070Y25875302D01*
X24394065Y25875301D01*
X24196045Y25815232D01*
X24013547Y25717684D01*
X23853595Y25586415D01*
X23853585Y25586405D01*
X23722316Y25426453D01*
X23624768Y25243955D01*
X23564699Y25045935D01*
X23564698Y25045930D01*
X23544417Y24840004D01*
X22801261Y24840004D01*
X22798741Y24855916D01*
X22796013Y24862501D01*
X22770957Y24922994D01*
X22734995Y24972493D01*
X22724751Y24985143D01*
X22724747Y24985146D01*
X22657247Y25028981D01*
X22657241Y25028984D01*
X22599048Y25047891D01*
X22599049Y25047891D01*
X22551003Y25055500D01*
X22551000Y25055500D01*
X20949000Y25055500D01*
X20935732Y25054456D01*
X20924672Y25053586D01*
X20924664Y25053585D01*
X20894088Y25048742D01*
X20894079Y25048740D01*
X20827006Y25020958D01*
X20777507Y24984996D01*
X20764857Y24974752D01*
X20764854Y24974748D01*
X20721019Y24907248D01*
X20721016Y24907242D01*
X20702109Y24849050D01*
X20694500Y24801004D01*
X20694500Y23755419D01*
X20675593Y23697228D01*
X20665504Y23685415D01*
X18569033Y21588944D01*
X18560731Y21579964D01*
X18550658Y21568168D01*
X18521018Y21515238D01*
X18502108Y21457040D01*
X18494500Y21408997D01*
X18494500Y20804500D01*
X18475593Y20746309D01*
X18426093Y20710345D01*
X18395500Y20705500D01*
X18054500Y20705500D01*
X17996309Y20724407D01*
X17960345Y20773907D01*
X17955500Y20804500D01*
X17955500Y21770050D01*
X17974407Y21828241D01*
X18023907Y21864205D01*
X18085091Y21864205D01*
X18090337Y21862501D01*
X18090339Y21862500D01*
X18200000Y21845131D01*
X18309661Y21862500D01*
X18408587Y21912905D01*
X18487095Y21991413D01*
X18537500Y22090339D01*
X18554869Y22200000D01*
X18537500Y22309661D01*
X18537499Y22309663D01*
X18537499Y22309664D01*
X18537498Y22309665D01*
X18486829Y22409109D01*
X18477257Y22469541D01*
X18505034Y22524057D01*
X18550930Y22547443D01*
X18550301Y22549676D01*
X18555908Y22551258D01*
X18555916Y22551259D01*
X18622994Y22579043D01*
X18660415Y22606231D01*
X18672492Y22615005D01*
X18685142Y22625249D01*
X18685145Y22625253D01*
X18686610Y22627508D01*
X18718754Y22677007D01*
X18728980Y22692753D01*
X18728980Y22692755D01*
X18728983Y22692758D01*
X18747890Y22750949D01*
X18755500Y22799000D01*
X18755500Y23457449D01*
X18764447Y23498576D01*
X18769510Y23509662D01*
X18788838Y23551984D01*
X18799079Y23623213D01*
X18809320Y23694439D01*
X18809320Y23694444D01*
X18788839Y23836894D01*
X18788838Y23836896D01*
X18788838Y23836898D01*
X18761818Y23896063D01*
X18754150Y23923445D01*
X18753889Y23923403D01*
X18753587Y23925310D01*
X18753586Y23925323D01*
X18748741Y23955916D01*
X18746013Y23962501D01*
X18720957Y24022994D01*
X18684995Y24072493D01*
X18674751Y24085143D01*
X18674747Y24085146D01*
X18607247Y24128981D01*
X18607241Y24128984D01*
X18549050Y24147891D01*
X18526737Y24151425D01*
X18514335Y24154216D01*
X18375637Y24194941D01*
X18375634Y24194941D01*
X18231712Y24194941D01*
X18231710Y24194941D01*
X18152922Y24171807D01*
X18111042Y24159510D01*
X18083153Y24155500D01*
X17299000Y24155500D01*
X17285732Y24154456D01*
X17274672Y24153586D01*
X17274664Y24153585D01*
X17244088Y24148742D01*
X17244079Y24148740D01*
X17177006Y24120958D01*
X17127507Y24084996D01*
X17114857Y24074752D01*
X17114854Y24074748D01*
X17071019Y24007248D01*
X17071016Y24007242D01*
X17052109Y23949050D01*
X17044500Y23901004D01*
X17044500Y23901000D01*
X17044500Y22799000D01*
X17045718Y22783522D01*
X17046414Y22774673D01*
X17046415Y22774665D01*
X17051258Y22744089D01*
X17051260Y22744080D01*
X17079042Y22677007D01*
X17115004Y22627508D01*
X17125248Y22614858D01*
X17125252Y22614855D01*
X17198200Y22567482D01*
X17196662Y22565116D01*
X17232489Y22531137D01*
X17244500Y22483873D01*
X17244500Y20804500D01*
X17225593Y20746309D01*
X17176093Y20710345D01*
X17145500Y20705500D01*
X15999000Y20705500D01*
X15985732Y20704456D01*
X15974672Y20703586D01*
X15974664Y20703585D01*
X15944088Y20698742D01*
X15944079Y20698740D01*
X15877006Y20670958D01*
X15827507Y20634996D01*
X15814857Y20624752D01*
X15814854Y20624748D01*
X15771019Y20557248D01*
X15771016Y20557242D01*
X15752109Y20499050D01*
X15744500Y20451004D01*
X15744500Y20451000D01*
X15744500Y19700000D01*
X15744500Y19100000D01*
X15744500Y18450000D01*
X15744500Y17749000D01*
X15745718Y17733522D01*
X15746414Y17724673D01*
X15746415Y17724665D01*
X15751258Y17694089D01*
X15751260Y17694080D01*
X15779042Y17627007D01*
X15815004Y17577508D01*
X15825248Y17564858D01*
X15825252Y17564855D01*
X15892752Y17521020D01*
X15892758Y17521017D01*
X15950949Y17502110D01*
X15960559Y17500588D01*
X15998996Y17494500D01*
X16002874Y17494195D01*
X16002713Y17492157D01*
X16053691Y17475593D01*
X16089655Y17426093D01*
X16094500Y17395500D01*
X16094500Y15904500D01*
X16075593Y15846309D01*
X16026093Y15810345D01*
X15995500Y15805500D01*
X15049000Y15805500D01*
X15035732Y15804456D01*
X15024672Y15803586D01*
X15024664Y15803585D01*
X14994088Y15798742D01*
X14994079Y15798740D01*
X14927006Y15770958D01*
X14877507Y15734996D01*
X14864857Y15724752D01*
X14864854Y15724748D01*
X14821019Y15657248D01*
X14821016Y15657242D01*
X14802109Y15599050D01*
X14794500Y15551004D01*
X5344678Y15551004D01*
X5308587Y15587095D01*
X5209661Y15637500D01*
X5100000Y15654869D01*
X4990338Y15637500D01*
X4891413Y15587095D01*
X4812904Y15508586D01*
X4788209Y15460119D01*
X4744944Y15416855D01*
X4684512Y15407284D01*
X4629996Y15435062D01*
X4611791Y15460119D01*
X4599880Y15483495D01*
X4587095Y15508587D01*
X4508587Y15587095D01*
X4409661Y15637500D01*
X4300000Y15654869D01*
X4190338Y15637500D01*
X4091413Y15587095D01*
X4012905Y15508587D01*
X3962500Y15409662D01*
X3947624Y15315737D01*
X3945131Y15300000D01*
X2650151Y15300000D01*
X2556990Y15413518D01*
X2546410Y15426410D01*
X2546404Y15426415D01*
X2386452Y15557684D01*
X2203954Y15655232D01*
X2005934Y15715301D01*
X2005929Y15715302D01*
X1800003Y15735583D01*
X1799997Y15735583D01*
X1594070Y15715302D01*
X1594065Y15715301D01*
X1396045Y15655232D01*
X1213547Y15557684D01*
X1053595Y15426415D01*
X1053585Y15426405D01*
X922316Y15266453D01*
X824768Y15083955D01*
X764699Y14885935D01*
X764698Y14885930D01*
X744417Y14680004D01*
X400500Y14680004D01*
X400500Y17220004D01*
X744417Y17220004D01*
X744417Y17219997D01*
X764698Y17014071D01*
X764699Y17014066D01*
X824768Y16816046D01*
X922316Y16633548D01*
X1042507Y16487095D01*
X1053590Y16473590D01*
X1053595Y16473586D01*
X1213547Y16342317D01*
X1213548Y16342317D01*
X1213550Y16342315D01*
X1396046Y16244768D01*
X1533997Y16202922D01*
X1594065Y16184700D01*
X1594070Y16184699D01*
X1799997Y16164417D01*
X1800000Y16164417D01*
X1800003Y16164417D01*
X2005929Y16184699D01*
X2005934Y16184700D01*
X2203954Y16244768D01*
X2386450Y16342315D01*
X2546410Y16473590D01*
X2677685Y16633550D01*
X2775232Y16816046D01*
X2835300Y17014066D01*
X2835301Y17014071D01*
X2843721Y17099565D01*
X6743838Y17099565D01*
X6761207Y16989904D01*
X6811612Y16890978D01*
X6890120Y16812470D01*
X6989046Y16762065D01*
X7098707Y16744696D01*
X7208368Y16762065D01*
X7307294Y16812470D01*
X7385802Y16890978D01*
X7436207Y16989904D01*
X7453576Y17099565D01*
X7436207Y17209226D01*
X7385802Y17308152D01*
X7307294Y17386660D01*
X7208368Y17437065D01*
X7098707Y17454434D01*
X6989045Y17437065D01*
X6890120Y17386660D01*
X6811612Y17308152D01*
X6761207Y17209227D01*
X6761207Y17209226D01*
X6743838Y17099565D01*
X2843721Y17099565D01*
X2855583Y17219997D01*
X2855583Y17220004D01*
X2835301Y17425930D01*
X2835300Y17425935D01*
X2813134Y17499007D01*
X2775232Y17623954D01*
X2677685Y17806450D01*
X2546410Y17966410D01*
X2546404Y17966415D01*
X2386452Y18097684D01*
X2203954Y18195232D01*
X2005934Y18255301D01*
X2005929Y18255302D01*
X1800003Y18275583D01*
X1799997Y18275583D01*
X1594070Y18255302D01*
X1594065Y18255301D01*
X1396045Y18195232D01*
X1213547Y18097684D01*
X1053595Y17966415D01*
X1053585Y17966405D01*
X922316Y17806453D01*
X824768Y17623955D01*
X764699Y17425935D01*
X764698Y17425930D01*
X744417Y17220004D01*
X400500Y17220004D01*
X400500Y19760004D01*
X744417Y19760004D01*
X744417Y19759997D01*
X764698Y19554071D01*
X764699Y19554066D01*
X824768Y19356046D01*
X922316Y19173548D01*
X1016662Y19058587D01*
X1053590Y19013590D01*
X1053595Y19013586D01*
X1213547Y18882317D01*
X1213548Y18882317D01*
X1213550Y18882315D01*
X1396046Y18784768D01*
X1533997Y18742922D01*
X1594065Y18724700D01*
X1594070Y18724699D01*
X1799997Y18704417D01*
X1800000Y18704417D01*
X1800003Y18704417D01*
X2005929Y18724699D01*
X2005934Y18724700D01*
X2057489Y18740339D01*
X2203954Y18784768D01*
X2386450Y18882315D01*
X2546410Y19013590D01*
X2677685Y19173550D01*
X2775232Y19356046D01*
X2835300Y19554066D01*
X2835301Y19554071D01*
X2855583Y19759997D01*
X2855583Y19760004D01*
X2835301Y19965930D01*
X2835300Y19965935D01*
X2794632Y20100000D01*
X2775232Y20163954D01*
X2677685Y20346450D01*
X2639685Y20392753D01*
X2546414Y20506405D01*
X2546410Y20506410D01*
X2484471Y20557242D01*
X2386452Y20637684D01*
X2203954Y20735232D01*
X2005934Y20795301D01*
X2005929Y20795302D01*
X1800003Y20815583D01*
X1799997Y20815583D01*
X1594070Y20795302D01*
X1594065Y20795301D01*
X1396045Y20735232D01*
X1213547Y20637684D01*
X1053595Y20506415D01*
X1053585Y20506405D01*
X922316Y20346453D01*
X824768Y20163955D01*
X764699Y19965935D01*
X764698Y19965930D01*
X744417Y19760004D01*
X400500Y19760004D01*
X400500Y21151004D01*
X3694500Y21151004D01*
X3694500Y21151000D01*
X3694500Y17499000D01*
X3695718Y17483522D01*
X3696414Y17474673D01*
X3696415Y17474665D01*
X3701258Y17444089D01*
X3701260Y17444080D01*
X3729042Y17377007D01*
X3765004Y17327508D01*
X3775248Y17314858D01*
X3775252Y17314855D01*
X3842752Y17271020D01*
X3842758Y17271017D01*
X3900949Y17252110D01*
X3910559Y17250588D01*
X3948996Y17244500D01*
X3949000Y17244500D01*
X5400994Y17244500D01*
X5401000Y17244500D01*
X5425323Y17246414D01*
X5455916Y17251259D01*
X5522994Y17279043D01*
X5563658Y17308587D01*
X5572492Y17315005D01*
X5585142Y17325249D01*
X5585145Y17325253D01*
X5586610Y17327508D01*
X5625023Y17386660D01*
X5628980Y17392753D01*
X5628980Y17392755D01*
X5628983Y17392758D01*
X5647890Y17450949D01*
X5651793Y17475593D01*
X5655500Y17498997D01*
X5655500Y18494583D01*
X5674407Y18552774D01*
X5684490Y18564581D01*
X7880959Y20761049D01*
X7889248Y20770016D01*
X7899337Y20781829D01*
X7918240Y20815583D01*
X7928982Y20834763D01*
X7944529Y20882614D01*
X7947890Y20892957D01*
X7955500Y20941008D01*
X7955500Y21495500D01*
X7974407Y21553691D01*
X8023907Y21589655D01*
X8054500Y21594500D01*
X8395500Y21594500D01*
X8453691Y21575593D01*
X8489655Y21526093D01*
X8494500Y21495500D01*
X8494500Y20499071D01*
X8475593Y20440880D01*
X8426093Y20404916D01*
X8364907Y20404916D01*
X8350556Y20410861D01*
X8298273Y20437500D01*
X8298274Y20437500D01*
X8188611Y20454869D01*
X8078949Y20437500D01*
X7980024Y20387095D01*
X7901516Y20308587D01*
X7851111Y20209662D01*
X7839262Y20134848D01*
X7833742Y20100000D01*
X7851111Y19990339D01*
X7901516Y19891413D01*
X7930812Y19862117D01*
X7958588Y19807602D01*
X7949017Y19747170D01*
X7905752Y19703905D01*
X7898693Y19700651D01*
X7827006Y19670958D01*
X7777507Y19634996D01*
X7764857Y19624752D01*
X7764854Y19624748D01*
X7721019Y19557248D01*
X7721016Y19557242D01*
X7702109Y19499050D01*
X7694500Y19451004D01*
X7694500Y18878950D01*
X7685554Y18837824D01*
X7664834Y18792455D01*
X7664833Y18792453D01*
X7644353Y18650003D01*
X7644353Y18649998D01*
X7664833Y18507546D01*
X7672201Y18491414D01*
X7685553Y18462177D01*
X7694500Y18421051D01*
X7694500Y17749000D01*
X7695718Y17733522D01*
X7696414Y17724673D01*
X7696415Y17724665D01*
X7701258Y17694089D01*
X7701260Y17694080D01*
X7729042Y17627007D01*
X7765004Y17577508D01*
X7775248Y17564858D01*
X7775252Y17564855D01*
X7842752Y17521020D01*
X7842758Y17521017D01*
X7900949Y17502110D01*
X7910559Y17500588D01*
X7948996Y17494500D01*
X8459811Y17494500D01*
X8518002Y17475593D01*
X8553966Y17426093D01*
X8553966Y17364907D01*
X8529816Y17325499D01*
X8519325Y17315007D01*
X8512905Y17308587D01*
X8462500Y17209662D01*
X8462500Y17209661D01*
X8445131Y17100000D01*
X8462500Y16990339D01*
X8512905Y16891413D01*
X8591413Y16812905D01*
X8690339Y16762500D01*
X8800000Y16745131D01*
X8909661Y16762500D01*
X9008587Y16812905D01*
X9087095Y16891413D01*
X9137500Y16990339D01*
X9154869Y17100000D01*
X9808341Y17100000D01*
X9825710Y16990339D01*
X9876115Y16891413D01*
X9954623Y16812905D01*
X10053549Y16762500D01*
X10163210Y16745131D01*
X10272871Y16762500D01*
X10371797Y16812905D01*
X10450305Y16891413D01*
X10500710Y16990339D01*
X10518079Y17100000D01*
X11145131Y17100000D01*
X11162500Y16990339D01*
X11212905Y16891413D01*
X11291413Y16812905D01*
X11390339Y16762500D01*
X11500000Y16745131D01*
X11609661Y16762500D01*
X11708587Y16812905D01*
X11787095Y16891413D01*
X11837500Y16990339D01*
X11854869Y17100000D01*
X11837500Y17209661D01*
X11787095Y17308587D01*
X11708587Y17387095D01*
X11609661Y17437500D01*
X11500000Y17454869D01*
X11390338Y17437500D01*
X11291413Y17387095D01*
X11212905Y17308587D01*
X11162500Y17209662D01*
X11162500Y17209661D01*
X11145131Y17100000D01*
X10518079Y17100000D01*
X10500710Y17209661D01*
X10450305Y17308587D01*
X10371797Y17387095D01*
X10272871Y17437500D01*
X10163210Y17454869D01*
X10053548Y17437500D01*
X9954623Y17387095D01*
X9876115Y17308587D01*
X9825710Y17209662D01*
X9825710Y17209661D01*
X9808341Y17100000D01*
X9154869Y17100000D01*
X9137500Y17209661D01*
X9087095Y17308587D01*
X9060383Y17335299D01*
X9032608Y17389813D01*
X9042179Y17450245D01*
X9085444Y17493510D01*
X9103531Y17500587D01*
X9105908Y17501258D01*
X9105916Y17501259D01*
X9172994Y17529043D01*
X9203574Y17551261D01*
X9222492Y17565005D01*
X9235142Y17575249D01*
X9235145Y17575253D01*
X9236610Y17577508D01*
X9278983Y17642758D01*
X9297890Y17700949D01*
X9305500Y17749000D01*
X9305500Y18850000D01*
X12395131Y18850000D01*
X12412500Y18740339D01*
X12462905Y18641413D01*
X12541413Y18562905D01*
X12640339Y18512500D01*
X12750000Y18495131D01*
X12859661Y18512500D01*
X12958587Y18562905D01*
X13037095Y18641413D01*
X13087500Y18740339D01*
X13104869Y18850000D01*
X13087500Y18959661D01*
X13037095Y19058587D01*
X12958587Y19137095D01*
X12859661Y19187500D01*
X12750000Y19204869D01*
X12640338Y19187500D01*
X12541413Y19137095D01*
X12462905Y19058587D01*
X12412500Y18959662D01*
X12400250Y18882317D01*
X12395131Y18850000D01*
X9305500Y18850000D01*
X9305500Y20527745D01*
X13249918Y20527745D01*
X13267287Y20418084D01*
X13317692Y20319158D01*
X13396200Y20240650D01*
X13495126Y20190245D01*
X13604787Y20172876D01*
X13714448Y20190245D01*
X13813374Y20240650D01*
X13891882Y20319158D01*
X13942287Y20418084D01*
X13959656Y20527745D01*
X13947678Y20603367D01*
X13957249Y20663796D01*
X14000513Y20707061D01*
X14060945Y20716633D01*
X14115459Y20688859D01*
X14191413Y20612905D01*
X14290339Y20562500D01*
X14400000Y20545131D01*
X14509661Y20562500D01*
X14608587Y20612905D01*
X14687095Y20691413D01*
X14737500Y20790339D01*
X14754869Y20900000D01*
X14737500Y21009661D01*
X14687095Y21108587D01*
X14608587Y21187095D01*
X14509661Y21237500D01*
X14400000Y21254869D01*
X14290338Y21237500D01*
X14191413Y21187095D01*
X14112905Y21108587D01*
X14062500Y21009662D01*
X14045131Y20900001D01*
X14045131Y20899999D01*
X14057108Y20824381D01*
X14047537Y20763949D01*
X14004272Y20720685D01*
X13943840Y20711113D01*
X13889324Y20738890D01*
X13813374Y20814840D01*
X13714448Y20865245D01*
X13604787Y20882614D01*
X13495125Y20865245D01*
X13396200Y20814840D01*
X13317692Y20736332D01*
X13267287Y20637407D01*
X13267287Y20637406D01*
X13249918Y20527745D01*
X9305500Y20527745D01*
X9305500Y21495500D01*
X9324407Y21553691D01*
X9373907Y21589655D01*
X9404500Y21594500D01*
X10400994Y21594500D01*
X10401000Y21594500D01*
X10425323Y21596414D01*
X10455916Y21601259D01*
X10522994Y21629043D01*
X10551233Y21649561D01*
X10572492Y21665005D01*
X10585142Y21675249D01*
X10585145Y21675253D01*
X10628980Y21742753D01*
X10628980Y21742755D01*
X10628983Y21742758D01*
X10647890Y21800949D01*
X10652212Y21828241D01*
X10655500Y21848997D01*
X10655500Y22400000D01*
X12845131Y22400000D01*
X12862500Y22290339D01*
X12912905Y22191413D01*
X12991413Y22112905D01*
X13090339Y22062500D01*
X13200000Y22045131D01*
X13309661Y22062500D01*
X13408587Y22112905D01*
X13487095Y22191413D01*
X13536792Y22288951D01*
X13580056Y22332214D01*
X13640488Y22341785D01*
X13695004Y22314008D01*
X13713210Y22288950D01*
X13713211Y22288949D01*
X13762908Y22191413D01*
X13841416Y22112905D01*
X13940342Y22062500D01*
X14050003Y22045131D01*
X14159664Y22062500D01*
X14233262Y22100000D01*
X14645131Y22100000D01*
X14662500Y21990339D01*
X14712905Y21891413D01*
X14791413Y21812905D01*
X14890339Y21762500D01*
X15000000Y21745131D01*
X15109661Y21762500D01*
X15208587Y21812905D01*
X15287095Y21891413D01*
X15337500Y21990339D01*
X15354869Y22100000D01*
X15337500Y22209661D01*
X15287095Y22308587D01*
X15208587Y22387095D01*
X15109661Y22437500D01*
X15000000Y22454869D01*
X14890338Y22437500D01*
X14791413Y22387095D01*
X14712905Y22308587D01*
X14662500Y22209662D01*
X14662500Y22209661D01*
X14645131Y22100000D01*
X14233262Y22100000D01*
X14258590Y22112905D01*
X14337098Y22191413D01*
X14387503Y22290339D01*
X14404872Y22400000D01*
X14387503Y22509661D01*
X14337098Y22608587D01*
X14258590Y22687095D01*
X14159664Y22737500D01*
X14050003Y22754869D01*
X13940341Y22737500D01*
X13841416Y22687095D01*
X13762907Y22608586D01*
X13713210Y22511051D01*
X13669945Y22467787D01*
X13609513Y22458216D01*
X13554997Y22485994D01*
X13536791Y22511052D01*
X13523315Y22537500D01*
X13487095Y22608587D01*
X13408587Y22687095D01*
X13309661Y22737500D01*
X13200000Y22754869D01*
X13090338Y22737500D01*
X12991413Y22687095D01*
X12912905Y22608587D01*
X12862500Y22509662D01*
X12851071Y22437500D01*
X12845131Y22400000D01*
X10655500Y22400000D01*
X10655500Y23347743D01*
X13595918Y23347743D01*
X13613287Y23238082D01*
X13663692Y23139156D01*
X13742200Y23060648D01*
X13841126Y23010243D01*
X13950787Y22992874D01*
X14060448Y23010243D01*
X14159374Y23060648D01*
X14237882Y23139156D01*
X14288287Y23238082D01*
X14305656Y23347743D01*
X14288287Y23457404D01*
X14237882Y23556330D01*
X14159374Y23634838D01*
X14060448Y23685243D01*
X13950787Y23702612D01*
X13841125Y23685243D01*
X13742200Y23634838D01*
X13663692Y23556330D01*
X13613287Y23457405D01*
X13613287Y23457404D01*
X13595918Y23347743D01*
X10655500Y23347743D01*
X10655500Y24300000D01*
X12564951Y24300000D01*
X12582320Y24190339D01*
X12632725Y24091413D01*
X12711233Y24012905D01*
X12810159Y23962500D01*
X12919820Y23945131D01*
X13029481Y23962500D01*
X13128407Y24012905D01*
X13206915Y24091413D01*
X13257320Y24190339D01*
X13274689Y24300000D01*
X13545131Y24300000D01*
X13562500Y24190339D01*
X13612905Y24091413D01*
X13691413Y24012905D01*
X13790339Y23962500D01*
X13900000Y23945131D01*
X14009661Y23962500D01*
X14108587Y24012905D01*
X14187095Y24091413D01*
X14237500Y24190339D01*
X14254869Y24300000D01*
X14237500Y24409661D01*
X14187095Y24508587D01*
X14108587Y24587095D01*
X14009661Y24637500D01*
X13900000Y24654869D01*
X13790338Y24637500D01*
X13691413Y24587095D01*
X13612905Y24508587D01*
X13562500Y24409662D01*
X13551071Y24337500D01*
X13545131Y24300000D01*
X13274689Y24300000D01*
X13257320Y24409661D01*
X13206915Y24508587D01*
X13128407Y24587095D01*
X13029481Y24637500D01*
X12919820Y24654869D01*
X12810158Y24637500D01*
X12711233Y24587095D01*
X12632725Y24508587D01*
X12582320Y24409662D01*
X12570891Y24337500D01*
X12564951Y24300000D01*
X10655500Y24300000D01*
X10655500Y24650994D01*
X10655500Y24651000D01*
X10653586Y24675323D01*
X10648741Y24705916D01*
X10620957Y24772994D01*
X10600614Y24800994D01*
X10584995Y24822493D01*
X10574751Y24835143D01*
X10574747Y24835146D01*
X10507247Y24878981D01*
X10507241Y24878984D01*
X10449048Y24897891D01*
X10449049Y24897891D01*
X10401003Y24905501D01*
X10397126Y24905805D01*
X10397286Y24907844D01*
X10346309Y24924407D01*
X10310345Y24973907D01*
X10305500Y25004500D01*
X10305500Y25200000D01*
X14545131Y25200000D01*
X14562500Y25090339D01*
X14612905Y24991413D01*
X14691413Y24912905D01*
X14790339Y24862500D01*
X14900000Y24845131D01*
X15009661Y24862500D01*
X15108587Y24912905D01*
X15187095Y24991413D01*
X15237500Y25090339D01*
X15254869Y25200000D01*
X15945131Y25200000D01*
X15962500Y25090339D01*
X16012905Y24991413D01*
X16091413Y24912905D01*
X16190339Y24862500D01*
X16300000Y24845131D01*
X16409661Y24862500D01*
X16508587Y24912905D01*
X16587095Y24991413D01*
X16637500Y25090339D01*
X16654869Y25200000D01*
X16639030Y25300000D01*
X17345131Y25300000D01*
X17362500Y25190339D01*
X17412905Y25091413D01*
X17491413Y25012905D01*
X17590339Y24962500D01*
X17700000Y24945131D01*
X17809661Y24962500D01*
X17908587Y25012905D01*
X17987095Y25091413D01*
X18037500Y25190339D01*
X18039030Y25200000D01*
X18345131Y25200000D01*
X18362500Y25090339D01*
X18412905Y24991413D01*
X18491413Y24912905D01*
X18590339Y24862500D01*
X18700000Y24845131D01*
X18809661Y24862500D01*
X18908587Y24912905D01*
X18987095Y24991413D01*
X19037500Y25090339D01*
X19054869Y25200000D01*
X19037500Y25309661D01*
X18987095Y25408587D01*
X18908587Y25487095D01*
X18809661Y25537500D01*
X18700000Y25554869D01*
X18590338Y25537500D01*
X18491413Y25487095D01*
X18412905Y25408587D01*
X18362500Y25309662D01*
X18362500Y25309661D01*
X18345131Y25200000D01*
X18039030Y25200000D01*
X18054869Y25300000D01*
X18037500Y25409661D01*
X17987095Y25508587D01*
X17908587Y25587095D01*
X17809661Y25637500D01*
X17700000Y25654869D01*
X17590338Y25637500D01*
X17491413Y25587095D01*
X17412905Y25508587D01*
X17362500Y25409662D01*
X17362500Y25409661D01*
X17345131Y25300000D01*
X16639030Y25300000D01*
X16637500Y25309661D01*
X16587095Y25408587D01*
X16508587Y25487095D01*
X16409661Y25537500D01*
X16300000Y25554869D01*
X16190338Y25537500D01*
X16091413Y25487095D01*
X16012905Y25408587D01*
X15962500Y25309662D01*
X15962500Y25309661D01*
X15945131Y25200000D01*
X15254869Y25200000D01*
X15237500Y25309661D01*
X15187095Y25408587D01*
X15108587Y25487095D01*
X15009661Y25537500D01*
X14900000Y25554869D01*
X14790338Y25537500D01*
X14691413Y25487095D01*
X14612905Y25408587D01*
X14562500Y25309662D01*
X14562500Y25309661D01*
X14545131Y25200000D01*
X10305500Y25200000D01*
X10305500Y25600000D01*
X12945131Y25600000D01*
X12962500Y25490339D01*
X13012905Y25391413D01*
X13091413Y25312905D01*
X13190339Y25262500D01*
X13300000Y25245131D01*
X13409661Y25262500D01*
X13508587Y25312905D01*
X13587095Y25391413D01*
X13637500Y25490339D01*
X13654869Y25600000D01*
X13637500Y25709661D01*
X13587095Y25808587D01*
X13508587Y25887095D01*
X13409661Y25937500D01*
X13300000Y25954869D01*
X13190338Y25937500D01*
X13091413Y25887095D01*
X13012905Y25808587D01*
X12962500Y25709662D01*
X12951071Y25637500D01*
X12945131Y25600000D01*
X10305500Y25600000D01*
X10305500Y25659811D01*
X10324407Y25718002D01*
X10373907Y25753966D01*
X10435093Y25753966D01*
X10474501Y25729817D01*
X10491413Y25712905D01*
X10590339Y25662500D01*
X10700000Y25645131D01*
X10809661Y25662500D01*
X10908587Y25712905D01*
X10987095Y25791413D01*
X11037500Y25890339D01*
X11054869Y26000000D01*
X11037500Y26109661D01*
X10987095Y26208587D01*
X10908587Y26287095D01*
X10809661Y26337500D01*
X10809660Y26337501D01*
X10809659Y26337501D01*
X10802253Y26339907D01*
X10803118Y26342572D01*
X10760088Y26364509D01*
X10732323Y26419032D01*
X10741909Y26479462D01*
X10771530Y26514117D01*
X10771458Y26514211D01*
X10771903Y26514554D01*
X10771961Y26514620D01*
X10772494Y26515007D01*
X10785144Y26525251D01*
X10814866Y26571020D01*
X10828980Y26592753D01*
X10828980Y26592755D01*
X10828983Y26592758D01*
X10847890Y26650949D01*
X10855500Y26699000D01*
X10855500Y27000000D01*
X20945131Y27000000D01*
X20962500Y26890339D01*
X21012905Y26791413D01*
X21091413Y26712905D01*
X21190339Y26662500D01*
X21300000Y26645131D01*
X21409661Y26662500D01*
X21508587Y26712905D01*
X21587095Y26791413D01*
X21611791Y26839883D01*
X21655055Y26883146D01*
X21715487Y26892717D01*
X21770004Y26864939D01*
X21788208Y26839884D01*
X21812905Y26791413D01*
X21891413Y26712905D01*
X21990339Y26662500D01*
X22100000Y26645131D01*
X22209661Y26662500D01*
X22308587Y26712905D01*
X22387095Y26791413D01*
X22437500Y26890339D01*
X22454869Y27000000D01*
X22437500Y27109661D01*
X22387095Y27208587D01*
X22308587Y27287095D01*
X22209661Y27337500D01*
X22100000Y27354869D01*
X21990338Y27337500D01*
X21891413Y27287095D01*
X21812904Y27208586D01*
X21788209Y27160119D01*
X21744944Y27116855D01*
X21684512Y27107284D01*
X21629996Y27135062D01*
X21611791Y27160119D01*
X21599880Y27183495D01*
X21587095Y27208587D01*
X21508587Y27287095D01*
X21409661Y27337500D01*
X21300000Y27354869D01*
X21190338Y27337500D01*
X21091413Y27287095D01*
X21012905Y27208587D01*
X20962500Y27109662D01*
X20962124Y27107284D01*
X20945131Y27000000D01*
X10855500Y27000000D01*
X10855500Y27380004D01*
X23544417Y27380004D01*
X23544417Y27379997D01*
X23564698Y27174071D01*
X23564699Y27174066D01*
X23624768Y26976046D01*
X23722316Y26793548D01*
X23850381Y26637500D01*
X23853590Y26633590D01*
X23876415Y26614858D01*
X24013547Y26502317D01*
X24013548Y26502317D01*
X24013550Y26502315D01*
X24196046Y26404768D01*
X24328764Y26364509D01*
X24394065Y26344700D01*
X24394070Y26344699D01*
X24599997Y26324417D01*
X24600000Y26324417D01*
X24600003Y26324417D01*
X24805929Y26344699D01*
X24805934Y26344700D01*
X24839457Y26354869D01*
X25003954Y26404768D01*
X25186450Y26502315D01*
X25346410Y26633590D01*
X25477685Y26793550D01*
X25575232Y26976046D01*
X25635300Y27174066D01*
X25635301Y27174071D01*
X25655583Y27379997D01*
X25655583Y27380004D01*
X25635301Y27585930D01*
X25635300Y27585935D01*
X25617078Y27646003D01*
X25575232Y27783954D01*
X25477685Y27966450D01*
X25464806Y27982143D01*
X25346414Y28126405D01*
X25346410Y28126410D01*
X25346404Y28126415D01*
X25186452Y28257684D01*
X25003954Y28355232D01*
X24805934Y28415301D01*
X24805929Y28415302D01*
X24600003Y28435583D01*
X24599997Y28435583D01*
X24394070Y28415302D01*
X24394065Y28415301D01*
X24196045Y28355232D01*
X24013547Y28257684D01*
X23853595Y28126415D01*
X23853585Y28126405D01*
X23722316Y27966453D01*
X23624768Y27783955D01*
X23564699Y27585935D01*
X23564698Y27585930D01*
X23544417Y27380004D01*
X10855500Y27380004D01*
X10855500Y28300000D01*
X11545131Y28300000D01*
X11562500Y28190339D01*
X11612905Y28091413D01*
X11691413Y28012905D01*
X11790339Y27962500D01*
X11900000Y27945131D01*
X12009661Y27962500D01*
X12108587Y28012905D01*
X12187095Y28091413D01*
X12237500Y28190339D01*
X12254869Y28300000D01*
X14845131Y28300000D01*
X14862500Y28190339D01*
X14912905Y28091413D01*
X14991413Y28012905D01*
X15090339Y27962500D01*
X15200000Y27945131D01*
X15309661Y27962500D01*
X15408587Y28012905D01*
X15487095Y28091413D01*
X15537500Y28190339D01*
X15554869Y28300000D01*
X16245131Y28300000D01*
X16262500Y28190339D01*
X16312905Y28091413D01*
X16391413Y28012905D01*
X16490339Y27962500D01*
X16600000Y27945131D01*
X16709661Y27962500D01*
X16808587Y28012905D01*
X16887095Y28091413D01*
X16937500Y28190339D01*
X16954869Y28300000D01*
X16937500Y28409661D01*
X16887095Y28508587D01*
X16808587Y28587095D01*
X16709661Y28637500D01*
X16600000Y28654869D01*
X16490338Y28637500D01*
X16391413Y28587095D01*
X16312905Y28508587D01*
X16262500Y28409662D01*
X16262500Y28409661D01*
X16245131Y28300000D01*
X15554869Y28300000D01*
X15537500Y28409661D01*
X15487095Y28508587D01*
X15408587Y28587095D01*
X15309661Y28637500D01*
X15200000Y28654869D01*
X15090338Y28637500D01*
X14991413Y28587095D01*
X14912905Y28508587D01*
X14862500Y28409662D01*
X14862500Y28409661D01*
X14845131Y28300000D01*
X12254869Y28300000D01*
X12237500Y28409661D01*
X12187095Y28508587D01*
X12108587Y28587095D01*
X12009661Y28637500D01*
X11900000Y28654869D01*
X11790338Y28637500D01*
X11691413Y28587095D01*
X11612905Y28508587D01*
X11562500Y28409662D01*
X11562500Y28409661D01*
X11545131Y28300000D01*
X10855500Y28300000D01*
X10855500Y28851000D01*
X10853586Y28875323D01*
X10848741Y28905916D01*
X10820957Y28972994D01*
X10784995Y29022493D01*
X10774751Y29035143D01*
X10774747Y29035146D01*
X10707247Y29078981D01*
X10707241Y29078984D01*
X10649048Y29097891D01*
X10649049Y29097891D01*
X10601003Y29105500D01*
X10601000Y29105500D01*
X10547896Y29105500D01*
X10489705Y29124407D01*
X10453741Y29173907D01*
X10450115Y29219987D01*
X10454869Y29250000D01*
X10437500Y29359661D01*
X10387095Y29458587D01*
X10308587Y29537095D01*
X10209661Y29587500D01*
X10100000Y29604869D01*
X9990338Y29587500D01*
X9891413Y29537095D01*
X9812905Y29458587D01*
X9762500Y29359662D01*
X9762500Y29359661D01*
X9745131Y29250000D01*
X9749884Y29219988D01*
X9740314Y29159556D01*
X9697051Y29116291D01*
X9652104Y29105500D01*
X8276594Y29105500D01*
X8269416Y29105219D01*
X8264386Y29105021D01*
X8248904Y29103802D01*
X8190512Y29087334D01*
X8190507Y29087332D01*
X8136012Y29059565D01*
X8135989Y29059552D01*
X8121898Y29051416D01*
X8068034Y28991594D01*
X8064363Y28986251D01*
X8061822Y28987998D01*
X8027314Y28953682D01*
X7967130Y28944237D01*
X7900002Y28954869D01*
X7900000Y28954869D01*
X7790338Y28937500D01*
X7691413Y28887095D01*
X7612905Y28808587D01*
X7562500Y28709662D01*
X7551071Y28637500D01*
X7545131Y28600000D01*
X7562500Y28490339D01*
X7612905Y28391413D01*
X7691413Y28312905D01*
X7790339Y28262500D01*
X7790341Y28262500D01*
X7790445Y28262447D01*
X7833709Y28219182D01*
X7844500Y28174237D01*
X7844500Y28084806D01*
X7825593Y28026615D01*
X7799025Y28001523D01*
X7768874Y27982146D01*
X7674622Y27873372D01*
X7614834Y27742457D01*
X7594353Y27600003D01*
X7594353Y27599998D01*
X7614834Y27457544D01*
X7650246Y27380004D01*
X7674623Y27326627D01*
X7768872Y27217857D01*
X7768873Y27217856D01*
X7781148Y27209968D01*
X7799021Y27198481D01*
X7837754Y27151117D01*
X7844500Y27115197D01*
X7844500Y26799000D01*
X7844929Y26793550D01*
X7846414Y26774673D01*
X7846415Y26774665D01*
X7851258Y26744089D01*
X7851260Y26744080D01*
X7879042Y26677007D01*
X7915004Y26627508D01*
X7925248Y26614858D01*
X7925252Y26614855D01*
X7992752Y26571020D01*
X7992758Y26571017D01*
X8050949Y26552110D01*
X8060559Y26550588D01*
X8098996Y26544500D01*
X8099000Y26544500D01*
X8245500Y26544500D01*
X8303691Y26525593D01*
X8339655Y26476093D01*
X8344500Y26445500D01*
X8344500Y25004500D01*
X8325593Y24946309D01*
X8276093Y24910345D01*
X8245500Y24905500D01*
X7449000Y24905500D01*
X7435732Y24904456D01*
X7424672Y24903586D01*
X7424664Y24903585D01*
X7394088Y24898742D01*
X7394079Y24898740D01*
X7327006Y24870958D01*
X7277507Y24834996D01*
X7264857Y24824752D01*
X7264854Y24824748D01*
X7221019Y24757248D01*
X7221016Y24757242D01*
X7202109Y24699050D01*
X7194500Y24651004D01*
X7194500Y22900484D01*
X7175593Y22842293D01*
X7167797Y22832852D01*
X6963866Y22614855D01*
X6955798Y22606231D01*
X6898050Y22544500D01*
X6856421Y22500000D01*
X5861876Y21436867D01*
X5808315Y21407289D01*
X5789579Y21405500D01*
X5639977Y21405500D01*
X5581786Y21424407D01*
X5545822Y21473907D01*
X5542196Y21519987D01*
X5554869Y21599999D01*
X5554869Y21600001D01*
X5544573Y21665005D01*
X5537500Y21709661D01*
X5487095Y21808587D01*
X5419053Y21876629D01*
X5391278Y21931143D01*
X5400849Y21991575D01*
X5444114Y22034840D01*
X5492208Y22042457D01*
X5492208Y22045131D01*
X5500000Y22045131D01*
X5609661Y22062500D01*
X5708587Y22112905D01*
X5787095Y22191413D01*
X5837500Y22290339D01*
X5854869Y22400000D01*
X5837500Y22509661D01*
X5787095Y22608587D01*
X5708587Y22687095D01*
X5609661Y22737500D01*
X5500000Y22754869D01*
X5390338Y22737500D01*
X5291413Y22687095D01*
X5212905Y22608587D01*
X5162500Y22509662D01*
X5151071Y22437500D01*
X5145131Y22400000D01*
X5162500Y22290339D01*
X5212905Y22191413D01*
X5280945Y22123373D01*
X5308721Y22068858D01*
X5299150Y22008426D01*
X5255885Y21965161D01*
X5207792Y21957540D01*
X5207792Y21954869D01*
X5200000Y21954869D01*
X5090338Y21937500D01*
X4991413Y21887095D01*
X4912905Y21808587D01*
X4862500Y21709662D01*
X4845131Y21600001D01*
X4845131Y21599999D01*
X4857804Y21519987D01*
X4848233Y21459555D01*
X4804968Y21416291D01*
X4760023Y21405500D01*
X3949000Y21405500D01*
X3935732Y21404456D01*
X3924672Y21403586D01*
X3924664Y21403585D01*
X3894088Y21398742D01*
X3894079Y21398740D01*
X3827006Y21370958D01*
X3777507Y21334996D01*
X3764857Y21324752D01*
X3764854Y21324748D01*
X3721019Y21257248D01*
X3721016Y21257242D01*
X3702109Y21199050D01*
X3694500Y21151004D01*
X400500Y21151004D01*
X400500Y22300004D01*
X744417Y22300004D01*
X744417Y22299997D01*
X764698Y22094071D01*
X764699Y22094066D01*
X824768Y21896046D01*
X922316Y21713548D01*
X1035533Y21575593D01*
X1053590Y21553590D01*
X1053595Y21553586D01*
X1213547Y21422317D01*
X1213548Y21422317D01*
X1213550Y21422315D01*
X1396046Y21324768D01*
X1533997Y21282922D01*
X1594065Y21264700D01*
X1594070Y21264699D01*
X1799997Y21244417D01*
X1800000Y21244417D01*
X1800003Y21244417D01*
X2005929Y21264699D01*
X2005934Y21264700D01*
X2203954Y21324768D01*
X2386450Y21422315D01*
X2546410Y21553590D01*
X2677685Y21713550D01*
X2775232Y21896046D01*
X2835300Y22094066D01*
X2835301Y22094071D01*
X2855583Y22299997D01*
X2855583Y22300004D01*
X2835301Y22505930D01*
X2835300Y22505935D01*
X2816630Y22567482D01*
X2775232Y22703954D01*
X2677685Y22886450D01*
X2576090Y23010244D01*
X2546414Y23046405D01*
X2546410Y23046410D01*
X2526803Y23062501D01*
X2386452Y23177684D01*
X2203954Y23275232D01*
X2005934Y23335301D01*
X2005929Y23335302D01*
X1800003Y23355583D01*
X1799997Y23355583D01*
X1594070Y23335302D01*
X1594065Y23335301D01*
X1396045Y23275232D01*
X1213547Y23177684D01*
X1053595Y23046415D01*
X1053585Y23046405D01*
X922316Y22886453D01*
X824768Y22703955D01*
X764699Y22505935D01*
X764698Y22505930D01*
X744417Y22300004D01*
X400500Y22300004D01*
X400500Y23400000D01*
X4745131Y23400000D01*
X4762500Y23290339D01*
X4812905Y23191413D01*
X4891413Y23112905D01*
X4990339Y23062500D01*
X5100000Y23045131D01*
X5209661Y23062500D01*
X5308587Y23112905D01*
X5387095Y23191413D01*
X5437500Y23290339D01*
X5454869Y23400000D01*
X5437500Y23509661D01*
X5387095Y23608587D01*
X5308587Y23687095D01*
X5209661Y23737500D01*
X5100000Y23754869D01*
X4990338Y23737500D01*
X4891413Y23687095D01*
X4812905Y23608587D01*
X4762500Y23509662D01*
X4762500Y23509661D01*
X4745131Y23400000D01*
X400500Y23400000D01*
X400500Y24840004D01*
X744417Y24840004D01*
X744417Y24839997D01*
X764698Y24634071D01*
X764699Y24634066D01*
X824768Y24436046D01*
X922316Y24253548D01*
X1040400Y24109662D01*
X1053590Y24093590D01*
X1056243Y24091413D01*
X1213547Y23962317D01*
X1213548Y23962317D01*
X1213550Y23962315D01*
X1396046Y23864768D01*
X1533997Y23822922D01*
X1594065Y23804700D01*
X1594070Y23804699D01*
X1799997Y23784417D01*
X1800000Y23784417D01*
X1800003Y23784417D01*
X2005929Y23804699D01*
X2005934Y23804700D01*
X2203954Y23864768D01*
X2386450Y23962315D01*
X2432370Y24000000D01*
X3645131Y24000000D01*
X3662500Y23890339D01*
X3712905Y23791413D01*
X3791413Y23712905D01*
X3890339Y23662500D01*
X4000000Y23645131D01*
X4109661Y23662500D01*
X4208587Y23712905D01*
X4287095Y23791413D01*
X4337500Y23890339D01*
X4354869Y24000000D01*
X4337500Y24109661D01*
X4287095Y24208587D01*
X4208587Y24287095D01*
X4109661Y24337500D01*
X4000000Y24354869D01*
X3890338Y24337500D01*
X3791413Y24287095D01*
X3712905Y24208587D01*
X3662500Y24109662D01*
X3658617Y24085143D01*
X3645131Y24000000D01*
X2432370Y24000000D01*
X2546410Y24093590D01*
X2677685Y24253550D01*
X2775232Y24436046D01*
X2835300Y24634066D01*
X2835301Y24634071D01*
X2855583Y24839997D01*
X2855583Y24840004D01*
X2835301Y25045930D01*
X2835300Y25045935D01*
X2817078Y25106003D01*
X2775232Y25243954D01*
X2677685Y25426450D01*
X2546410Y25586410D01*
X2545575Y25587095D01*
X2386452Y25717684D01*
X2203954Y25815232D01*
X2005934Y25875301D01*
X2005929Y25875302D01*
X1800003Y25895583D01*
X1799997Y25895583D01*
X1594070Y25875302D01*
X1594065Y25875301D01*
X1396045Y25815232D01*
X1213547Y25717684D01*
X1053595Y25586415D01*
X1053585Y25586405D01*
X922316Y25426453D01*
X824768Y25243955D01*
X764699Y25045935D01*
X764698Y25045930D01*
X744417Y24840004D01*
X400500Y24840004D01*
X400500Y26300000D01*
X4845131Y26300000D01*
X4862500Y26190339D01*
X4912905Y26091413D01*
X4991413Y26012905D01*
X5090339Y25962500D01*
X5200000Y25945131D01*
X5309661Y25962500D01*
X5408587Y26012905D01*
X5487095Y26091413D01*
X5537500Y26190339D01*
X5554869Y26300000D01*
X6445131Y26300000D01*
X6462500Y26190339D01*
X6512905Y26091413D01*
X6591413Y26012905D01*
X6690339Y25962500D01*
X6800000Y25945131D01*
X6909661Y25962500D01*
X7008587Y26012905D01*
X7087095Y26091413D01*
X7137500Y26190339D01*
X7154869Y26300000D01*
X7137500Y26409661D01*
X7087095Y26508587D01*
X7008587Y26587095D01*
X6909661Y26637500D01*
X6800000Y26654869D01*
X6690338Y26637500D01*
X6591413Y26587095D01*
X6512905Y26508587D01*
X6462500Y26409662D01*
X6451071Y26337500D01*
X6445131Y26300000D01*
X5554869Y26300000D01*
X5537500Y26409661D01*
X5487095Y26508587D01*
X5408587Y26587095D01*
X5309661Y26637500D01*
X5200000Y26654869D01*
X5090338Y26637500D01*
X4991413Y26587095D01*
X4912905Y26508587D01*
X4862500Y26409662D01*
X4851071Y26337500D01*
X4845131Y26300000D01*
X400500Y26300000D01*
X400500Y27380004D01*
X744417Y27380004D01*
X744417Y27379997D01*
X764698Y27174071D01*
X764699Y27174066D01*
X824768Y26976046D01*
X922316Y26793548D01*
X1050381Y26637500D01*
X1053590Y26633590D01*
X1076415Y26614858D01*
X1213547Y26502317D01*
X1213548Y26502317D01*
X1213550Y26502315D01*
X1396046Y26404768D01*
X1528764Y26364509D01*
X1594065Y26344700D01*
X1594070Y26344699D01*
X1799997Y26324417D01*
X1800000Y26324417D01*
X1800003Y26324417D01*
X2005929Y26344699D01*
X2005934Y26344700D01*
X2039457Y26354869D01*
X2203954Y26404768D01*
X2386450Y26502315D01*
X2546410Y26633590D01*
X2677685Y26793550D01*
X2775232Y26976046D01*
X2835300Y27174066D01*
X2835301Y27174071D01*
X2855583Y27379997D01*
X2855583Y27380004D01*
X2835301Y27585930D01*
X2835300Y27585935D01*
X2817078Y27646003D01*
X2775232Y27783954D01*
X2677685Y27966450D01*
X2664806Y27982143D01*
X2546414Y28126405D01*
X2546410Y28126410D01*
X2546404Y28126415D01*
X2456740Y28200000D01*
X5145131Y28200000D01*
X5162500Y28090339D01*
X5212905Y27991413D01*
X5291413Y27912905D01*
X5390339Y27862500D01*
X5500000Y27845131D01*
X5609661Y27862500D01*
X5708587Y27912905D01*
X5787095Y27991413D01*
X5837500Y28090339D01*
X5854869Y28200000D01*
X5837500Y28309661D01*
X5787095Y28408587D01*
X5708587Y28487095D01*
X5609661Y28537500D01*
X5500000Y28554869D01*
X5390338Y28537500D01*
X5291413Y28487095D01*
X5212905Y28408587D01*
X5162500Y28309662D01*
X5153421Y28252337D01*
X5145131Y28200000D01*
X2456740Y28200000D01*
X2386452Y28257684D01*
X2203954Y28355232D01*
X2005934Y28415301D01*
X2005929Y28415302D01*
X1800003Y28435583D01*
X1799997Y28435583D01*
X1594070Y28415302D01*
X1594065Y28415301D01*
X1396045Y28355232D01*
X1213547Y28257684D01*
X1053595Y28126415D01*
X1053585Y28126405D01*
X922316Y27966453D01*
X824768Y27783955D01*
X764699Y27585935D01*
X764698Y27585930D01*
X744417Y27380004D01*
X400500Y27380004D01*
X400500Y28800000D01*
X6545131Y28800000D01*
X6562500Y28690339D01*
X6612905Y28591413D01*
X6691413Y28512905D01*
X6790339Y28462500D01*
X6900000Y28445131D01*
X7009661Y28462500D01*
X7108587Y28512905D01*
X7187095Y28591413D01*
X7237500Y28690339D01*
X7254869Y28800000D01*
X7237500Y28909661D01*
X7187095Y29008587D01*
X7108587Y29087095D01*
X7009661Y29137500D01*
X6900000Y29154869D01*
X6790338Y29137500D01*
X6691413Y29087095D01*
X6612905Y29008587D01*
X6562500Y28909662D01*
X6561908Y28905921D01*
X6545131Y28800000D01*
X400500Y28800000D01*
X400500Y29920004D01*
X744417Y29920004D01*
X744417Y29919997D01*
X764698Y29714071D01*
X764699Y29714066D01*
X824768Y29516046D01*
X922316Y29333548D01*
X1053330Y29173907D01*
X1053590Y29173590D01*
X1053595Y29173586D01*
X1213547Y29042317D01*
X1213548Y29042317D01*
X1213550Y29042315D01*
X1396046Y28944768D01*
X1524139Y28905912D01*
X1594065Y28884700D01*
X1594070Y28884699D01*
X1799997Y28864417D01*
X1800000Y28864417D01*
X1800003Y28864417D01*
X2005929Y28884699D01*
X2005934Y28884700D01*
X2013829Y28887095D01*
X2203954Y28944768D01*
X2386450Y29042315D01*
X2546410Y29173590D01*
X2677685Y29333550D01*
X2775232Y29516046D01*
X2835300Y29714066D01*
X2835301Y29714071D01*
X2855583Y29919997D01*
X2855583Y29920004D01*
X23544417Y29920004D01*
X23544417Y29919997D01*
X23564698Y29714071D01*
X23564699Y29714066D01*
X23624768Y29516046D01*
X23722316Y29333548D01*
X23853330Y29173907D01*
X23853590Y29173590D01*
X23853595Y29173586D01*
X24013547Y29042317D01*
X24013548Y29042317D01*
X24013550Y29042315D01*
X24196046Y28944768D01*
X24324139Y28905912D01*
X24394065Y28884700D01*
X24394070Y28884699D01*
X24599997Y28864417D01*
X24600000Y28864417D01*
X24600003Y28864417D01*
X24805929Y28884699D01*
X24805934Y28884700D01*
X24813829Y28887095D01*
X25003954Y28944768D01*
X25186450Y29042315D01*
X25346410Y29173590D01*
X25477685Y29333550D01*
X25575232Y29516046D01*
X25635300Y29714066D01*
X25635301Y29714071D01*
X25655583Y29919997D01*
X25655583Y29920004D01*
X25635301Y30125930D01*
X25635300Y30125935D01*
X25617078Y30186003D01*
X25575232Y30323954D01*
X25477685Y30506450D01*
X25346410Y30666410D01*
X25346404Y30666415D01*
X25186452Y30797684D01*
X25003954Y30895232D01*
X24805934Y30955301D01*
X24805929Y30955302D01*
X24600003Y30975583D01*
X24599997Y30975583D01*
X24394070Y30955302D01*
X24394065Y30955301D01*
X24196045Y30895232D01*
X24013547Y30797684D01*
X23853595Y30666415D01*
X23853585Y30666405D01*
X23722316Y30506453D01*
X23624768Y30323955D01*
X23564699Y30125935D01*
X23564698Y30125930D01*
X23544417Y29920004D01*
X2855583Y29920004D01*
X2835301Y30125930D01*
X2835300Y30125935D01*
X2817078Y30186003D01*
X2775232Y30323954D01*
X2677685Y30506450D01*
X2546410Y30666410D01*
X2546404Y30666415D01*
X2386452Y30797684D01*
X2203954Y30895232D01*
X2005934Y30955301D01*
X2005929Y30955302D01*
X1800003Y30975583D01*
X1799997Y30975583D01*
X1594070Y30955302D01*
X1594065Y30955301D01*
X1396045Y30895232D01*
X1213547Y30797684D01*
X1053595Y30666415D01*
X1053585Y30666405D01*
X922316Y30506453D01*
X824768Y30323955D01*
X764699Y30125935D01*
X764698Y30125930D01*
X744417Y29920004D01*
X400500Y29920004D01*
X400500Y31000000D01*
X17745131Y31000000D01*
X17762500Y30890339D01*
X17812905Y30791413D01*
X17891413Y30712905D01*
X17990339Y30662500D01*
X18100000Y30645131D01*
X18209661Y30662500D01*
X18308587Y30712905D01*
X18387095Y30791413D01*
X18411791Y30839883D01*
X18455055Y30883146D01*
X18515487Y30892717D01*
X18570004Y30864939D01*
X18588208Y30839884D01*
X18612905Y30791413D01*
X18691413Y30712905D01*
X18790339Y30662500D01*
X18900000Y30645131D01*
X19009661Y30662500D01*
X19108587Y30712905D01*
X19187095Y30791413D01*
X19211791Y30839883D01*
X19255055Y30883146D01*
X19315487Y30892717D01*
X19370004Y30864939D01*
X19388208Y30839884D01*
X19412905Y30791413D01*
X19491413Y30712905D01*
X19590339Y30662500D01*
X19700000Y30645131D01*
X19809661Y30662500D01*
X19908587Y30712905D01*
X19987095Y30791413D01*
X20037500Y30890339D01*
X20054869Y31000000D01*
X20037500Y31109661D01*
X19987095Y31208587D01*
X19908587Y31287095D01*
X19809661Y31337500D01*
X19700000Y31354869D01*
X19590338Y31337500D01*
X19491413Y31287095D01*
X19412904Y31208586D01*
X19388209Y31160119D01*
X19344944Y31116855D01*
X19284512Y31107284D01*
X19229996Y31135062D01*
X19211791Y31160119D01*
X19199880Y31183495D01*
X19187095Y31208587D01*
X19108587Y31287095D01*
X19009661Y31337500D01*
X18900000Y31354869D01*
X18790338Y31337500D01*
X18691413Y31287095D01*
X18612904Y31208586D01*
X18588209Y31160119D01*
X18544944Y31116855D01*
X18484512Y31107284D01*
X18429996Y31135062D01*
X18411791Y31160119D01*
X18399880Y31183495D01*
X18387095Y31208587D01*
X18308587Y31287095D01*
X18209661Y31337500D01*
X18100000Y31354869D01*
X17990338Y31337500D01*
X17891413Y31287095D01*
X17812905Y31208587D01*
X17762500Y31109662D01*
X17762124Y31107284D01*
X17745131Y31000000D01*
X400500Y31000000D01*
X400500Y32460004D01*
X744417Y32460004D01*
X744417Y32459997D01*
X764698Y32254071D01*
X764699Y32254066D01*
X824768Y32056046D01*
X922316Y31873548D01*
X1053585Y31713596D01*
X1053590Y31713590D01*
X1053595Y31713586D01*
X1213547Y31582317D01*
X1213548Y31582317D01*
X1213550Y31582315D01*
X1396046Y31484768D01*
X1533997Y31442922D01*
X1594065Y31424700D01*
X1594070Y31424699D01*
X1799997Y31404417D01*
X1800000Y31404417D01*
X1800003Y31404417D01*
X2005929Y31424699D01*
X2005934Y31424700D01*
X2203954Y31484768D01*
X2386450Y31582315D01*
X2546410Y31713590D01*
X2677685Y31873550D01*
X2775232Y32056046D01*
X2835300Y32254066D01*
X2835301Y32254071D01*
X2855583Y32459997D01*
X2855583Y32460004D01*
X2835301Y32665930D01*
X2835300Y32665935D01*
X2805248Y32765002D01*
X2775232Y32863954D01*
X2677685Y33046450D01*
X2658710Y33069571D01*
X2546414Y33206405D01*
X2546410Y33206410D01*
X2546404Y33206415D01*
X2386452Y33337684D01*
X2203954Y33435232D01*
X2005934Y33495301D01*
X2005929Y33495302D01*
X1800003Y33515583D01*
X1799997Y33515583D01*
X1594070Y33495302D01*
X1594065Y33495301D01*
X1396045Y33435232D01*
X1213547Y33337684D01*
X1053595Y33206415D01*
X1053585Y33206405D01*
X922316Y33046453D01*
X824768Y32863955D01*
X764699Y32665935D01*
X764698Y32665930D01*
X744417Y32460004D01*
X400500Y32460004D01*
X400500Y35000004D01*
X744417Y35000004D01*
X744417Y34999997D01*
X764698Y34794071D01*
X764699Y34794066D01*
X824768Y34596046D01*
X922316Y34413548D01*
X983066Y34339524D01*
X1053590Y34253590D01*
X1053595Y34253586D01*
X1213547Y34122317D01*
X1213548Y34122317D01*
X1213550Y34122315D01*
X1396046Y34024768D01*
X1533997Y33982922D01*
X1594065Y33964700D01*
X1594070Y33964699D01*
X1799997Y33944417D01*
X1800000Y33944417D01*
X1800003Y33944417D01*
X2005929Y33964699D01*
X2005934Y33964700D01*
X2203954Y34024768D01*
X2223100Y34035002D01*
X5804722Y34035002D01*
X5804722Y34034999D01*
X5823762Y33878184D01*
X5823763Y33878183D01*
X5879780Y33730477D01*
X5969515Y33600472D01*
X6087759Y33495717D01*
X6103112Y33487659D01*
X6145850Y33443874D01*
X6154690Y33383331D01*
X6126254Y33329154D01*
X6103112Y33312341D01*
X6087759Y33304284D01*
X5969515Y33199529D01*
X5879780Y33069524D01*
X5823763Y32921818D01*
X5823762Y32921817D01*
X5804722Y32765002D01*
X5804722Y32764999D01*
X5823762Y32608184D01*
X5823763Y32608183D01*
X5879780Y32460477D01*
X5969515Y32330472D01*
X5969516Y32330471D01*
X5969517Y32330470D01*
X6087760Y32225717D01*
X6227635Y32152304D01*
X6381015Y32114500D01*
X6381018Y32114500D01*
X6538982Y32114500D01*
X6538985Y32114500D01*
X6692365Y32152304D01*
X6832240Y32225717D01*
X6950483Y32330470D01*
X7013525Y32421804D01*
X7062140Y32458952D01*
X7123308Y32460431D01*
X7173663Y32425674D01*
X7176462Y32421821D01*
X7209461Y32374014D01*
X7239515Y32330472D01*
X7239516Y32330471D01*
X7239517Y32330470D01*
X7357760Y32225717D01*
X7497635Y32152304D01*
X7651015Y32114500D01*
X7651018Y32114500D01*
X7808982Y32114500D01*
X7808985Y32114500D01*
X7962365Y32152304D01*
X8102240Y32225717D01*
X8220483Y32330470D01*
X8283525Y32421804D01*
X8332140Y32458952D01*
X8393308Y32460431D01*
X8443663Y32425674D01*
X8446462Y32421821D01*
X8479461Y32374014D01*
X8509515Y32330472D01*
X8509516Y32330471D01*
X8509517Y32330470D01*
X8627760Y32225717D01*
X8767635Y32152304D01*
X8921015Y32114500D01*
X8921018Y32114500D01*
X9078982Y32114500D01*
X9078985Y32114500D01*
X9232365Y32152304D01*
X9372240Y32225717D01*
X9490483Y32330470D01*
X9553525Y32421804D01*
X9602140Y32458952D01*
X9663308Y32460431D01*
X9713663Y32425674D01*
X9716462Y32421821D01*
X9749461Y32374014D01*
X9779515Y32330472D01*
X9779516Y32330471D01*
X9779517Y32330470D01*
X9897760Y32225717D01*
X10037635Y32152304D01*
X10191015Y32114500D01*
X10191018Y32114500D01*
X10348982Y32114500D01*
X10348985Y32114500D01*
X10502365Y32152304D01*
X10642240Y32225717D01*
X10760483Y32330470D01*
X10823525Y32421804D01*
X10872140Y32458952D01*
X10933308Y32460431D01*
X10983663Y32425674D01*
X10986462Y32421821D01*
X11019461Y32374014D01*
X11049515Y32330472D01*
X11049516Y32330471D01*
X11049517Y32330470D01*
X11167760Y32225717D01*
X11307635Y32152304D01*
X11461015Y32114500D01*
X11461018Y32114500D01*
X11618982Y32114500D01*
X11618985Y32114500D01*
X11772365Y32152304D01*
X11912240Y32225717D01*
X12030483Y32330470D01*
X12119894Y32460004D01*
X23544417Y32460004D01*
X23544417Y32459997D01*
X23564698Y32254071D01*
X23564699Y32254066D01*
X23624768Y32056046D01*
X23722316Y31873548D01*
X23853585Y31713596D01*
X23853590Y31713590D01*
X23853595Y31713586D01*
X24013547Y31582317D01*
X24013548Y31582317D01*
X24013550Y31582315D01*
X24196046Y31484768D01*
X24333997Y31442922D01*
X24394065Y31424700D01*
X24394070Y31424699D01*
X24599997Y31404417D01*
X24600000Y31404417D01*
X24600003Y31404417D01*
X24805929Y31424699D01*
X24805934Y31424700D01*
X25003954Y31484768D01*
X25186450Y31582315D01*
X25346410Y31713590D01*
X25477685Y31873550D01*
X25575232Y32056046D01*
X25635300Y32254066D01*
X25635301Y32254071D01*
X25655583Y32459997D01*
X25655583Y32460004D01*
X25635301Y32665930D01*
X25635300Y32665935D01*
X25605248Y32765002D01*
X25575232Y32863954D01*
X25477685Y33046450D01*
X25458710Y33069571D01*
X25346414Y33206405D01*
X25346410Y33206410D01*
X25346404Y33206415D01*
X25186452Y33337684D01*
X25003954Y33435232D01*
X24805934Y33495301D01*
X24805929Y33495302D01*
X24600003Y33515583D01*
X24599997Y33515583D01*
X24394070Y33495302D01*
X24394065Y33495301D01*
X24196045Y33435232D01*
X24013547Y33337684D01*
X23853595Y33206415D01*
X23853585Y33206405D01*
X23722316Y33046453D01*
X23624768Y32863955D01*
X23564699Y32665935D01*
X23564698Y32665930D01*
X23544417Y32460004D01*
X12119894Y32460004D01*
X12120220Y32460477D01*
X12176237Y32608182D01*
X12195278Y32765000D01*
X12176237Y32921818D01*
X12120220Y33069523D01*
X12030483Y33199530D01*
X11912240Y33304283D01*
X11842302Y33340990D01*
X11772364Y33377697D01*
X11618987Y33415500D01*
X11618985Y33415500D01*
X11461015Y33415500D01*
X11461012Y33415500D01*
X11307635Y33377697D01*
X11167758Y33304282D01*
X11049515Y33199529D01*
X10986476Y33108199D01*
X10937859Y33071049D01*
X10876692Y33069571D01*
X10826337Y33104328D01*
X10823524Y33108199D01*
X10760484Y33199529D01*
X10642240Y33304284D01*
X10626889Y33312340D01*
X10584150Y33356124D01*
X10575309Y33416667D01*
X10603743Y33470844D01*
X10626889Y33487660D01*
X10642240Y33495717D01*
X10664664Y33515583D01*
X10760483Y33600470D01*
X10850220Y33730477D01*
X10906237Y33878182D01*
X10925278Y34035000D01*
X10906237Y34191818D01*
X10850220Y34339523D01*
X10760483Y34469530D01*
X10642240Y34574283D01*
X10572302Y34610990D01*
X10502364Y34647697D01*
X10348987Y34685500D01*
X10348985Y34685500D01*
X10191015Y34685500D01*
X10191012Y34685500D01*
X10037635Y34647697D01*
X9897758Y34574282D01*
X9779515Y34469529D01*
X9716476Y34378199D01*
X9667859Y34341049D01*
X9606692Y34339571D01*
X9556337Y34374328D01*
X9553524Y34378199D01*
X9490484Y34469529D01*
X9372241Y34574282D01*
X9372240Y34574283D01*
X9302302Y34610990D01*
X9232364Y34647697D01*
X9078987Y34685500D01*
X9078985Y34685500D01*
X8921015Y34685500D01*
X8921012Y34685500D01*
X8767635Y34647697D01*
X8627758Y34574282D01*
X8509515Y34469529D01*
X8446476Y34378199D01*
X8397859Y34341049D01*
X8336692Y34339571D01*
X8286337Y34374328D01*
X8283524Y34378199D01*
X8220484Y34469529D01*
X8102241Y34574282D01*
X8102240Y34574283D01*
X8032302Y34610990D01*
X7962364Y34647697D01*
X7808987Y34685500D01*
X7808985Y34685500D01*
X7651015Y34685500D01*
X7651012Y34685500D01*
X7497635Y34647697D01*
X7357758Y34574282D01*
X7239515Y34469529D01*
X7176476Y34378199D01*
X7127859Y34341049D01*
X7066692Y34339571D01*
X7016337Y34374328D01*
X7013524Y34378199D01*
X6950484Y34469529D01*
X6832241Y34574282D01*
X6832240Y34574283D01*
X6762302Y34610990D01*
X6692364Y34647697D01*
X6538987Y34685500D01*
X6538985Y34685500D01*
X6381015Y34685500D01*
X6381012Y34685500D01*
X6227635Y34647697D01*
X6087758Y34574282D01*
X5969515Y34469529D01*
X5879780Y34339524D01*
X5823763Y34191818D01*
X5823762Y34191817D01*
X5804722Y34035002D01*
X2223100Y34035002D01*
X2386450Y34122315D01*
X2546410Y34253590D01*
X2677685Y34413550D01*
X2775232Y34596046D01*
X2835300Y34794066D01*
X2835301Y34794071D01*
X2855583Y34999997D01*
X2855583Y35000004D01*
X23544417Y35000004D01*
X23544417Y34999997D01*
X23564698Y34794071D01*
X23564699Y34794066D01*
X23624768Y34596046D01*
X23722316Y34413548D01*
X23783066Y34339524D01*
X23853590Y34253590D01*
X23853595Y34253586D01*
X24013547Y34122317D01*
X24013548Y34122317D01*
X24013550Y34122315D01*
X24196046Y34024768D01*
X24333997Y33982922D01*
X24394065Y33964700D01*
X24394070Y33964699D01*
X24599997Y33944417D01*
X24600000Y33944417D01*
X24600003Y33944417D01*
X24805929Y33964699D01*
X24805934Y33964700D01*
X25003954Y34024768D01*
X25186450Y34122315D01*
X25346410Y34253590D01*
X25477685Y34413550D01*
X25575232Y34596046D01*
X25635300Y34794066D01*
X25635301Y34794071D01*
X25655583Y34999997D01*
X25655583Y35000004D01*
X25635301Y35205930D01*
X25635300Y35205935D01*
X25617078Y35266003D01*
X25575232Y35403954D01*
X25477685Y35586450D01*
X25346410Y35746410D01*
X25346404Y35746415D01*
X25186452Y35877684D01*
X25003954Y35975232D01*
X24805934Y36035301D01*
X24805929Y36035302D01*
X24600003Y36055583D01*
X24599997Y36055583D01*
X24394070Y36035302D01*
X24394065Y36035301D01*
X24196045Y35975232D01*
X24013547Y35877684D01*
X23853595Y35746415D01*
X23853585Y35746405D01*
X23722316Y35586453D01*
X23624768Y35403955D01*
X23564699Y35205935D01*
X23564698Y35205930D01*
X23544417Y35000004D01*
X2855583Y35000004D01*
X2835301Y35205930D01*
X2835300Y35205935D01*
X2817078Y35266003D01*
X2775232Y35403954D01*
X2677685Y35586450D01*
X2546410Y35746410D01*
X2546404Y35746415D01*
X2386452Y35877684D01*
X2203954Y35975232D01*
X2005934Y36035301D01*
X2005929Y36035302D01*
X1800003Y36055583D01*
X1799997Y36055583D01*
X1594070Y36035302D01*
X1594065Y36035301D01*
X1396045Y35975232D01*
X1213547Y35877684D01*
X1053595Y35746415D01*
X1053585Y35746405D01*
X922316Y35586453D01*
X824768Y35403955D01*
X764699Y35205935D01*
X764698Y35205930D01*
X744417Y35000004D01*
X400500Y35000004D01*
X400500Y36500500D01*
X419407Y36558691D01*
X468907Y36594655D01*
X499500Y36599500D01*
X25900500Y36599500D01*
X25958691Y36580593D01*
G37*
%TD.AperFunction*%
%TD*%
%TA.AperFunction,Conductor*%
%TO.N,Net-(C103-Pad1)*%
G36*
X9937916Y28939211D02*
G01*
X9990339Y28912500D01*
X10100000Y28895131D01*
X10209661Y28912500D01*
X10262083Y28939211D01*
X10307027Y28950000D01*
X10601000Y28950000D01*
X10659191Y28931093D01*
X10695155Y28881593D01*
X10700000Y28851000D01*
X10700000Y26699000D01*
X10681093Y26640809D01*
X10631593Y26604845D01*
X10601000Y26600000D01*
X10150000Y26600000D01*
X10150000Y24750000D01*
X10401000Y24750000D01*
X10459191Y24731093D01*
X10495155Y24681593D01*
X10500000Y24651000D01*
X10500000Y21849000D01*
X10481093Y21790809D01*
X10431593Y21754845D01*
X10401000Y21750000D01*
X9150000Y21750000D01*
X9150000Y21749999D01*
X9150000Y17749000D01*
X9131093Y17690809D01*
X9081593Y17654845D01*
X9051000Y17650000D01*
X7949000Y17650000D01*
X7890809Y17668907D01*
X7854845Y17718407D01*
X7850000Y17749000D01*
X7850000Y19451000D01*
X7868907Y19509191D01*
X7918407Y19545155D01*
X7949000Y19550000D01*
X8649999Y19550000D01*
X8650000Y19550000D01*
X8650000Y21750000D01*
X8649999Y21750000D01*
X7800001Y21750000D01*
X7800000Y21750000D01*
X7800000Y21749999D01*
X7800000Y20941008D01*
X7781093Y20882817D01*
X7771004Y20871004D01*
X5500000Y18600000D01*
X5500000Y17499000D01*
X5481093Y17440809D01*
X5431593Y17404845D01*
X5401000Y17400000D01*
X3949000Y17400000D01*
X3890809Y17418907D01*
X3854845Y17468407D01*
X3850000Y17499000D01*
X3850000Y21151000D01*
X3868907Y21209191D01*
X3918407Y21245155D01*
X3949000Y21250000D01*
X5161468Y21250000D01*
X5176954Y21248782D01*
X5200000Y21245131D01*
X5223045Y21248782D01*
X5238532Y21250000D01*
X5899998Y21250000D01*
X5900000Y21250000D01*
X7069355Y22500000D01*
X8645131Y22500000D01*
X8662500Y22390339D01*
X8712905Y22291413D01*
X8791413Y22212905D01*
X8890339Y22162500D01*
X9000000Y22145131D01*
X9109661Y22162500D01*
X9208587Y22212905D01*
X9287095Y22291413D01*
X9337500Y22390339D01*
X9354869Y22500000D01*
X9337500Y22609661D01*
X9287095Y22708587D01*
X9208587Y22787095D01*
X9109661Y22837500D01*
X9000000Y22854869D01*
X8890338Y22837500D01*
X8791413Y22787095D01*
X8712905Y22708587D01*
X8662500Y22609662D01*
X8662500Y22609661D01*
X8645131Y22500000D01*
X7069355Y22500000D01*
X7350000Y22800000D01*
X7350000Y23200000D01*
X7945131Y23200000D01*
X7962500Y23090339D01*
X8012905Y22991413D01*
X8091413Y22912905D01*
X8190339Y22862500D01*
X8300000Y22845131D01*
X8409661Y22862500D01*
X8508587Y22912905D01*
X8587095Y22991413D01*
X8637500Y23090339D01*
X8654869Y23200000D01*
X9445131Y23200000D01*
X9462500Y23090339D01*
X9512905Y22991413D01*
X9591413Y22912905D01*
X9690339Y22862500D01*
X9800000Y22845131D01*
X9909661Y22862500D01*
X10008587Y22912905D01*
X10087095Y22991413D01*
X10137500Y23090339D01*
X10154869Y23200000D01*
X10137500Y23309661D01*
X10087095Y23408587D01*
X10008587Y23487095D01*
X9909661Y23537500D01*
X9800000Y23554869D01*
X9690338Y23537500D01*
X9591413Y23487095D01*
X9512905Y23408587D01*
X9462500Y23309662D01*
X9459440Y23290339D01*
X9445131Y23200000D01*
X8654869Y23200000D01*
X8637500Y23309661D01*
X8587095Y23408587D01*
X8508587Y23487095D01*
X8409661Y23537500D01*
X8300000Y23554869D01*
X8190338Y23537500D01*
X8091413Y23487095D01*
X8012905Y23408587D01*
X7962500Y23309662D01*
X7959440Y23290339D01*
X7945131Y23200000D01*
X7350000Y23200000D01*
X7350000Y23900000D01*
X8645131Y23900000D01*
X8662500Y23790339D01*
X8712905Y23691413D01*
X8791413Y23612905D01*
X8890339Y23562500D01*
X9000000Y23545131D01*
X9109661Y23562500D01*
X9208587Y23612905D01*
X9287095Y23691413D01*
X9337500Y23790339D01*
X9354869Y23900000D01*
X9337500Y24009661D01*
X9287095Y24108587D01*
X9208587Y24187095D01*
X9109661Y24237500D01*
X9000000Y24254869D01*
X8890338Y24237500D01*
X8791413Y24187095D01*
X8712905Y24108587D01*
X8662500Y24009662D01*
X8662500Y24009661D01*
X8645131Y23900000D01*
X7350000Y23900000D01*
X7350000Y24651000D01*
X7368907Y24709191D01*
X7418407Y24745155D01*
X7449000Y24750000D01*
X8499999Y24750000D01*
X8500000Y24750000D01*
X8500000Y26200000D01*
X9045131Y26200000D01*
X9062500Y26090339D01*
X9112905Y25991413D01*
X9191413Y25912905D01*
X9290339Y25862500D01*
X9400000Y25845131D01*
X9509661Y25862500D01*
X9608587Y25912905D01*
X9687095Y25991413D01*
X9737500Y26090339D01*
X9754869Y26200000D01*
X9737500Y26309661D01*
X9687095Y26408587D01*
X9608587Y26487095D01*
X9509661Y26537500D01*
X9400000Y26554869D01*
X9290338Y26537500D01*
X9191413Y26487095D01*
X9112905Y26408587D01*
X9062500Y26309662D01*
X9062500Y26309661D01*
X9045131Y26200000D01*
X8500000Y26200000D01*
X8500000Y26700000D01*
X8499999Y26700000D01*
X8099000Y26700000D01*
X8040809Y26718907D01*
X8004845Y26768407D01*
X8000000Y26799000D01*
X8000000Y28196911D01*
X8018907Y28255102D01*
X8054053Y28285120D01*
X8108587Y28312905D01*
X8187095Y28391413D01*
X8237500Y28490339D01*
X8254869Y28600000D01*
X8237500Y28709661D01*
X8188384Y28806056D01*
X8178813Y28866487D01*
X8206590Y28921003D01*
X8261106Y28948781D01*
X8276594Y28950000D01*
X9892973Y28950000D01*
X9937916Y28939211D01*
G37*
%TD.AperFunction*%
%TD*%
%TA.AperFunction,Conductor*%
%TO.N,Net-(C119-Pad1)*%
G36*
X22609191Y24881093D02*
G01*
X22645155Y24831593D01*
X22650000Y24801000D01*
X22650000Y20499000D01*
X22631093Y20440809D01*
X22581593Y20404845D01*
X22551000Y20400000D01*
X21703869Y20400000D01*
X21645678Y20418907D01*
X21609714Y20468407D01*
X21604869Y20499000D01*
X21604869Y20500001D01*
X21602117Y20517370D01*
X21587500Y20609661D01*
X21537095Y20708587D01*
X21458587Y20787095D01*
X21359661Y20837500D01*
X21250000Y20854869D01*
X21140338Y20837500D01*
X21041413Y20787095D01*
X20962905Y20708587D01*
X20912500Y20609662D01*
X20895131Y20500001D01*
X20895131Y20499000D01*
X20894821Y20498049D01*
X20893912Y20492304D01*
X20893002Y20492449D01*
X20876224Y20440809D01*
X20826724Y20404845D01*
X20796131Y20400000D01*
X19500000Y20400000D01*
X19500000Y20399999D01*
X19500000Y17799000D01*
X19481093Y17740809D01*
X19431593Y17704845D01*
X19401000Y17700000D01*
X17750000Y17700000D01*
X17750000Y15650000D01*
X17901000Y15650000D01*
X17959191Y15631093D01*
X17995155Y15581593D01*
X18000000Y15551000D01*
X18000000Y14107028D01*
X17989210Y14062084D01*
X17962501Y14009665D01*
X17962499Y14009659D01*
X17945131Y13900001D01*
X17945131Y13900000D01*
X17962500Y13790339D01*
X17989210Y13737918D01*
X18000000Y13692973D01*
X18000000Y13549000D01*
X17981093Y13490809D01*
X17931593Y13454845D01*
X17901000Y13450000D01*
X15676594Y13450000D01*
X15618403Y13468907D01*
X15582439Y13518407D01*
X15582439Y13579593D01*
X15588382Y13593940D01*
X15637500Y13690339D01*
X15654869Y13800000D01*
X15637500Y13909661D01*
X15587095Y14008587D01*
X15508587Y14087095D01*
X15409661Y14137500D01*
X15300000Y14154869D01*
X15190338Y14137500D01*
X15093945Y14088385D01*
X15033513Y14078814D01*
X14978996Y14106592D01*
X14951219Y14161108D01*
X14950000Y14176595D01*
X14950000Y15551000D01*
X14968907Y15609191D01*
X15018407Y15645155D01*
X15049000Y15650000D01*
X16249999Y15650000D01*
X16250000Y15650000D01*
X16250000Y16253693D01*
X16645131Y16253693D01*
X16662500Y16144032D01*
X16712905Y16045106D01*
X16791413Y15966598D01*
X16890339Y15916193D01*
X17000000Y15898824D01*
X17109661Y15916193D01*
X17208587Y15966598D01*
X17287095Y16045106D01*
X17337500Y16144032D01*
X17354869Y16253693D01*
X17337500Y16363354D01*
X17287095Y16462280D01*
X17208587Y16540788D01*
X17109661Y16591193D01*
X17000000Y16608562D01*
X16890338Y16591193D01*
X16791413Y16540788D01*
X16712905Y16462280D01*
X16662500Y16363355D01*
X16662500Y16363354D01*
X16645131Y16253693D01*
X16250000Y16253693D01*
X16250000Y17650000D01*
X16249999Y17650000D01*
X15999000Y17650000D01*
X15940809Y17668907D01*
X15904845Y17718407D01*
X15900000Y17749000D01*
X15900000Y18450000D01*
X17045131Y18450000D01*
X17062500Y18340339D01*
X17112905Y18241413D01*
X17191413Y18162905D01*
X17290339Y18112500D01*
X17400000Y18095131D01*
X17509661Y18112500D01*
X17608587Y18162905D01*
X17687095Y18241413D01*
X17737500Y18340339D01*
X17754869Y18450000D01*
X17737500Y18559661D01*
X17687095Y18658587D01*
X17608587Y18737095D01*
X17509661Y18787500D01*
X17400000Y18804869D01*
X17290338Y18787500D01*
X17191413Y18737095D01*
X17112905Y18658587D01*
X17062500Y18559662D01*
X17062500Y18559661D01*
X17045131Y18450000D01*
X15900000Y18450000D01*
X15900000Y19100000D01*
X16345131Y19100000D01*
X16362500Y18990339D01*
X16412905Y18891413D01*
X16491413Y18812905D01*
X16590339Y18762500D01*
X16700000Y18745131D01*
X16809661Y18762500D01*
X16908587Y18812905D01*
X16987095Y18891413D01*
X17037500Y18990339D01*
X17054869Y19100000D01*
X17745131Y19100000D01*
X17762500Y18990339D01*
X17812905Y18891413D01*
X17891413Y18812905D01*
X17990339Y18762500D01*
X18100000Y18745131D01*
X18209661Y18762500D01*
X18308587Y18812905D01*
X18387095Y18891413D01*
X18437500Y18990339D01*
X18454869Y19100000D01*
X18437500Y19209661D01*
X18387095Y19308587D01*
X18308587Y19387095D01*
X18209661Y19437500D01*
X18100000Y19454869D01*
X17990338Y19437500D01*
X17891413Y19387095D01*
X17812905Y19308587D01*
X17762500Y19209662D01*
X17762500Y19209661D01*
X17745131Y19100000D01*
X17054869Y19100000D01*
X17037500Y19209661D01*
X16987095Y19308587D01*
X16908587Y19387095D01*
X16809661Y19437500D01*
X16700000Y19454869D01*
X16590338Y19437500D01*
X16491413Y19387095D01*
X16412905Y19308587D01*
X16362500Y19209662D01*
X16362500Y19209661D01*
X16345131Y19100000D01*
X15900000Y19100000D01*
X15900000Y19700000D01*
X17045131Y19700000D01*
X17062500Y19590339D01*
X17112905Y19491413D01*
X17191413Y19412905D01*
X17290339Y19362500D01*
X17400000Y19345131D01*
X17509661Y19362500D01*
X17608587Y19412905D01*
X17687095Y19491413D01*
X17737500Y19590339D01*
X17754869Y19700000D01*
X17737500Y19809661D01*
X17687095Y19908587D01*
X17608587Y19987095D01*
X17509661Y20037500D01*
X17400000Y20054869D01*
X17290338Y20037500D01*
X17191413Y19987095D01*
X17112905Y19908587D01*
X17062500Y19809662D01*
X17054581Y19759661D01*
X17045131Y19700000D01*
X15900000Y19700000D01*
X15900000Y20451000D01*
X15918907Y20509191D01*
X15968407Y20545155D01*
X15999000Y20550000D01*
X17399999Y20550000D01*
X17400000Y20550000D01*
X17400000Y22700000D01*
X17399999Y22700000D01*
X17299000Y22700000D01*
X17240809Y22718907D01*
X17204845Y22768407D01*
X17200000Y22799000D01*
X17200000Y23901000D01*
X17218907Y23959191D01*
X17268407Y23995155D01*
X17299000Y24000000D01*
X18501000Y24000000D01*
X18559191Y23981093D01*
X18595155Y23931593D01*
X18600000Y23901000D01*
X18600000Y22799000D01*
X18581093Y22740809D01*
X18531593Y22704845D01*
X18501000Y22700000D01*
X17800000Y22700000D01*
X17800000Y20550000D01*
X18649999Y20550000D01*
X18650000Y20550000D01*
X18650000Y21408993D01*
X18668907Y21467184D01*
X18678990Y21478991D01*
X20850000Y23650000D01*
X20850000Y24801000D01*
X20868907Y24859191D01*
X20918407Y24895155D01*
X20949000Y24900000D01*
X22551000Y24900000D01*
X22609191Y24881093D01*
G37*
%TD.AperFunction*%
%TD*%
M02*
