M48
; DRILL file {KiCad 8.0.7-1.fc41} date 2025-01-10T14:19:30-0800
; FORMAT={-:-/ absolute / inch / decimal}
; #@! TF.CreationDate,2025-01-10T14:19:30-08:00
; #@! TF.GenerationSoftware,Kicad,Pcbnew,8.0.7-1.fc41
; #@! TF.FileFunction,MixedPlating,1,4
FMAT,2
INCH
; #@! TA.AperFunction,Plated,PTH,ViaDrill
T1C0.0118
; #@! TA.AperFunction,Plated,PTH,ComponentDrill
T2C0.0236
; #@! TA.AperFunction,Plated,PTH,ComponentDrill
T3C0.0409
%
G90
G05
T1
X0.1575Y0.9449
X0.1693Y0.7087
X0.1693Y0.6024
X0.1988Y0.7087
X0.2008Y0.9213
X0.2008Y0.6024
X0.2047Y1.0354
X0.2047Y0.8504
X0.2165Y1.1102
X0.2165Y0.8819
X0.2402Y0.5748
X0.2402Y0.4331
X0.2677Y1.0354
X0.2717Y1.1339
X0.2717Y0.5748
X0.2717Y0.4331
X0.2795Y0.6732
X0.3031Y0.5748
X0.3031Y0.4331
X0.311Y1.126
X0.3189Y1.0866
X0.3209Y0.7343
X0.3224Y0.7913
X0.3268Y0.9134
X0.3465Y0.6732
X0.3543Y0.9409
X0.3543Y0.8858
X0.3701Y1.0912
X0.3701Y1.0315
X0.3701Y0.6378
X0.3858Y0.9134
X0.3976Y1.1516
X0.4001Y0.6732
X0.4016Y0.5551
X0.4154Y0.0591
X0.4213Y1.0236
X0.435Y0.6161
X0.4528Y0.6732
X0.4567Y0.5551
X0.4685Y1.1142
X0.502Y0.7421
X0.5087Y0.9567
X0.5197Y0.8819
X0.5236Y1.0079
X0.5356Y0.8082
X0.5472Y0.9567
X0.5492Y0.9192
X0.5531Y0.8819
X0.5571Y0.0591
X0.5669Y0.8228
X0.5728Y1.0512
X0.5866Y0.9921
X0.5906Y0.8701
X0.5984Y1.1142
X0.6024Y0.5433
X0.6063Y0.5787
X0.6244Y1.0525
X0.6417Y0.9921
X0.6535Y1.1142
X0.6575Y0.752
X0.6643Y0.5744
X0.6693Y0.6399
X0.685Y0.7756
X0.685Y0.7264
X0.6969Y0.9961
X0.7126Y1.2205
X0.7126Y1.0827
X0.7126Y0.752
X0.7165Y0.874
X0.7205Y0.5472
X0.7206Y0.9329
X0.7226Y0.6203
X0.7362Y0.9921
X0.7441Y1.2205
X0.7441Y1.0827
X0.752Y0.5866
X0.7756Y1.2205
X0.7756Y1.0827
X0.7835Y0.6378
X0.8051Y0.5217
X0.8346Y0.7736
X0.8366Y0.8071
X0.8386Y1.063
X0.8386Y0.9587
X0.8681Y0.9587
X0.8701Y1.063
X0.874Y0.7362
X0.8799Y0.4409
T2
X0.2543Y1.34
X0.2543Y1.29
X0.3043Y1.34
X0.3043Y1.29
X0.3543Y1.34
X0.3543Y1.29
X0.4043Y1.34
X0.4043Y1.29
X0.4543Y1.34
X0.4543Y1.29
X0.5772Y0.4154
X0.5772Y0.3654
X0.6272Y0.4154
X0.6272Y0.3654
X0.6772Y0.4154
X0.6772Y0.3654
X0.7272Y0.4154
X0.7272Y0.3654
X0.7772Y0.4154
X0.7772Y0.3654
T3
X0.0709Y1.378
X0.0709Y1.278
X0.0709Y1.178
X0.0709Y1.078
X0.0709Y0.978
X0.0709Y0.878
X0.0709Y0.778
X0.0709Y0.678
X0.0709Y0.578
X0.0709Y0.478
X0.0709Y0.378
X0.0709Y0.278
X0.0709Y0.178
X0.0709Y0.078
X0.9685Y1.378
X0.9685Y1.278
X0.9685Y1.178
X0.9685Y1.078
X0.9685Y0.978
X0.9685Y0.878
X0.9685Y0.778
X0.9685Y0.678
X0.9685Y0.578
X0.9685Y0.478
X0.9685Y0.378
X0.9685Y0.278
X0.9685Y0.178
X0.9685Y0.078
M30
