%TF.GenerationSoftware,KiCad,Pcbnew,8.0.7-1.fc41*%
%TF.CreationDate,2025-01-10T14:19:35-08:00*%
%TF.ProjectId,Syncd_EFM32s,53796e63-645f-4454-964d-3332732e6b69,rev?*%
%TF.SameCoordinates,PX83e4a60PY69618a0*%
%TF.FileFunction,Soldermask,Top*%
%TF.FilePolarity,Negative*%
%FSLAX46Y46*%
G04 Gerber Fmt 4.6, Leading zero omitted, Abs format (unit mm)*
G04 Created by KiCad (PCBNEW 8.0.7-1.fc41) date 2025-01-10 14:19:35*
%MOMM*%
%LPD*%
G01*
G04 APERTURE LIST*
G04 Aperture macros list*
%AMRoundRect*
0 Rectangle with rounded corners*
0 $1 Rounding radius*
0 $2 $3 $4 $5 $6 $7 $8 $9 X,Y pos of 4 corners*
0 Add a 4 corners polygon primitive as box body*
4,1,4,$2,$3,$4,$5,$6,$7,$8,$9,$2,$3,0*
0 Add four circle primitives for the rounded corners*
1,1,$1+$1,$2,$3*
1,1,$1+$1,$4,$5*
1,1,$1+$1,$6,$7*
1,1,$1+$1,$8,$9*
0 Add four rect primitives between the rounded corners*
20,1,$1+$1,$2,$3,$4,$5,0*
20,1,$1+$1,$4,$5,$6,$7,0*
20,1,$1+$1,$6,$7,$8,$9,0*
20,1,$1+$1,$8,$9,$2,$3,0*%
G04 Aperture macros list end*
%ADD10RoundRect,0.200000X-0.200000X0.250000X-0.200000X-0.250000X0.200000X-0.250000X0.200000X0.250000X0*%
%ADD11RoundRect,0.200000X-0.200000X0.200000X-0.200000X-0.200000X0.200000X-0.200000X0.200000X0.200000X0*%
%ADD12RoundRect,0.175000X0.425000X-0.175000X0.425000X0.175000X-0.425000X0.175000X-0.425000X-0.175000X0*%
%ADD13RoundRect,0.187500X-0.237500X-0.187500X0.237500X-0.187500X0.237500X0.187500X-0.237500X0.187500X0*%
%ADD14RoundRect,0.055000X-0.055000X-0.325000X0.055000X-0.325000X0.055000X0.325000X-0.055000X0.325000X0*%
%ADD15RoundRect,0.055000X-0.325000X0.055000X-0.325000X-0.055000X0.325000X-0.055000X0.325000X0.055000X0*%
%ADD16RoundRect,0.055000X0.055000X0.325000X-0.055000X0.325000X-0.055000X-0.325000X0.055000X-0.325000X0*%
%ADD17RoundRect,0.055000X0.325000X-0.055000X0.325000X0.055000X-0.325000X0.055000X-0.325000X-0.055000X0*%
%ADD18RoundRect,0.280000X-1.120000X-1.120000X1.120000X-1.120000X1.120000X1.120000X-1.120000X1.120000X0*%
%ADD19RoundRect,0.280000X1.120000X1.120000X-1.120000X1.120000X-1.120000X-1.120000X1.120000X-1.120000X0*%
%ADD20RoundRect,0.108333X-0.216667X-0.241667X0.216667X-0.241667X0.216667X0.241667X-0.216667X0.241667X0*%
%ADD21RoundRect,0.108333X0.216667X0.241667X-0.216667X0.241667X-0.216667X-0.241667X0.216667X-0.241667X0*%
%ADD22C,1.800000*%
%ADD23RoundRect,0.450000X0.550000X-0.450000X0.550000X0.450000X-0.550000X0.450000X-0.550000X-0.450000X0*%
%ADD24RoundRect,0.250000X-0.250000X-0.250000X0.250000X-0.250000X0.250000X0.250000X-0.250000X0.250000X0*%
%ADD25C,1.000000*%
%ADD26RoundRect,0.250000X0.250000X0.250000X-0.250000X0.250000X-0.250000X-0.250000X0.250000X-0.250000X0*%
%ADD27RoundRect,0.350000X0.450000X-0.350000X0.450000X0.350000X-0.450000X0.350000X-0.450000X-0.350000X0*%
%ADD28RoundRect,0.200000X0.250000X-0.200000X0.250000X0.200000X-0.250000X0.200000X-0.250000X-0.200000X0*%
%ADD29RoundRect,0.200000X-0.250000X0.200000X-0.250000X-0.200000X0.250000X-0.200000X0.250000X0.200000X0*%
%ADD30RoundRect,0.350000X-0.450000X0.350000X-0.450000X-0.350000X0.450000X-0.350000X0.450000X0.350000X0*%
%ADD31RoundRect,0.350000X0.650000X-0.350000X0.650000X0.350000X-0.650000X0.350000X-0.650000X-0.350000X0*%
%ADD32RoundRect,0.350000X-0.650000X0.350000X-0.650000X-0.350000X0.650000X-0.350000X0.650000X0.350000X0*%
G04 APERTURE END LIST*
D10*
%TO.C,R102*%
X14150000Y4000000D03*
X14150000Y2300000D03*
%TD*%
%TO.C,R101*%
X10550000Y4000000D03*
X10550000Y2300000D03*
%TD*%
D11*
%TO.C,D102*%
X13000000Y3900000D03*
X13000000Y2500000D03*
%TD*%
%TO.C,D101*%
X11750000Y2500000D03*
X11750000Y3900000D03*
%TD*%
D12*
%TO.C,X102*%
X12600000Y19950000D03*
X12600000Y21050000D03*
%TD*%
D13*
%TO.C,X101*%
X11925000Y26375000D03*
X13275000Y26375000D03*
X13275000Y27425000D03*
X11925000Y27425000D03*
%TD*%
D14*
%TO.C,U102*%
X16000000Y21085000D03*
X16400000Y21085000D03*
X16800000Y21085000D03*
X17200000Y21085000D03*
X17600000Y21085000D03*
X18000000Y21085000D03*
X18400000Y21085000D03*
X18800000Y21085000D03*
D15*
X19385000Y20500000D03*
X19385000Y20100000D03*
X19385000Y19700000D03*
X19385000Y19300000D03*
X19385000Y18900000D03*
X19385000Y18500000D03*
X19385000Y18100000D03*
X19385000Y17700000D03*
D16*
X18800000Y17115000D03*
X18400000Y17115000D03*
X18000000Y17115000D03*
X17600000Y17115000D03*
X17200000Y17115000D03*
X16800000Y17115000D03*
X16400000Y17115000D03*
X16000000Y17115000D03*
D17*
X15415000Y17700000D03*
X15415000Y18100000D03*
X15415000Y18500000D03*
X15415000Y18900000D03*
X15415000Y19300000D03*
X15415000Y19700000D03*
X15415000Y20100000D03*
X15415000Y20500000D03*
D18*
X17400000Y19100000D03*
%TD*%
D19*
%TO.C,U101*%
X9000000Y23200000D03*
D15*
X10985000Y21800000D03*
X10985000Y22200000D03*
X10985000Y22600000D03*
X10985000Y23000000D03*
X10985000Y23400000D03*
X10985000Y23800000D03*
X10985000Y24200000D03*
X10985000Y24600000D03*
D14*
X10400000Y25185000D03*
X10000000Y25185000D03*
X9600000Y25185000D03*
X9200000Y25185000D03*
X8800000Y25185000D03*
X8400000Y25185000D03*
X8000000Y25185000D03*
X7600000Y25185000D03*
D17*
X7015000Y24600000D03*
X7015000Y24200000D03*
X7015000Y23800000D03*
X7015000Y23400000D03*
X7015000Y23000000D03*
X7015000Y22600000D03*
X7015000Y22200000D03*
X7015000Y21800000D03*
D16*
X7600000Y21215000D03*
X8000000Y21215000D03*
X8400000Y21215000D03*
X8800000Y21215000D03*
X9200000Y21215000D03*
X9600000Y21215000D03*
X10000000Y21215000D03*
X10400000Y21215000D03*
%TD*%
D20*
%TO.C,L102*%
X20350000Y21900000D03*
X21700000Y21900000D03*
%TD*%
D21*
%TO.C,L101*%
X6050000Y20400000D03*
X4700000Y20400000D03*
%TD*%
D22*
%TO.C,J104*%
X24600000Y35000000D03*
X24600000Y32460000D03*
X24600000Y29920000D03*
X24600000Y27380000D03*
X24600000Y24840000D03*
X24600000Y22300000D03*
X24600000Y19760000D03*
X24600000Y17220000D03*
X24600000Y14680000D03*
X24600000Y12140000D03*
X24600000Y9600000D03*
X24600000Y7060000D03*
X24600000Y4520000D03*
D23*
X24600000Y1980000D03*
%TD*%
D22*
%TO.C,J103*%
X1800000Y35000000D03*
X1800000Y32460000D03*
X1800000Y29920000D03*
X1800000Y27380000D03*
X1800000Y24840000D03*
X1800000Y22300000D03*
X1800000Y19760000D03*
X1800000Y17220000D03*
X1800000Y14680000D03*
X1800000Y12140000D03*
X1800000Y9600000D03*
X1800000Y7060000D03*
X1800000Y4520000D03*
D23*
X1800000Y1980000D03*
%TD*%
D24*
%TO.C,J102*%
X14660000Y9280000D03*
D25*
X14660000Y10550000D03*
X15930000Y9280000D03*
X15930000Y10550000D03*
X17200000Y9280000D03*
X17200000Y10550000D03*
X18470000Y9280000D03*
X18470000Y10550000D03*
X19740000Y9280000D03*
X19740000Y10550000D03*
%TD*%
D26*
%TO.C,J101*%
X11540000Y34035000D03*
D25*
X11540000Y32765000D03*
X10270000Y34035000D03*
X10270000Y32765000D03*
X9000000Y34035000D03*
X9000000Y32765000D03*
X7730000Y34035000D03*
X7730000Y32765000D03*
X6460000Y34035000D03*
X6460000Y32765000D03*
%TD*%
D27*
%TO.C,C122*%
X21700000Y23300000D03*
X21700000Y25900000D03*
%TD*%
D28*
%TO.C,C121*%
X17700000Y23100000D03*
X17700000Y24500000D03*
%TD*%
D29*
%TO.C,C120*%
X17500000Y15200000D03*
X17500000Y13800000D03*
%TD*%
%TO.C,C119*%
X16100000Y15200000D03*
X16100000Y13800000D03*
%TD*%
%TO.C,C118*%
X22200000Y20800000D03*
X22200000Y19400000D03*
%TD*%
D28*
%TO.C,C117*%
X14900000Y23100000D03*
X14900000Y24500000D03*
%TD*%
D29*
%TO.C,C116*%
X8700000Y19200000D03*
X8700000Y17800000D03*
%TD*%
D28*
%TO.C,C115*%
X8700000Y27100000D03*
X8700000Y28500000D03*
%TD*%
%TO.C,C114*%
X10100000Y27100000D03*
X10100000Y28500000D03*
%TD*%
D29*
%TO.C,C113*%
X11500000Y19200000D03*
X11500000Y17800000D03*
%TD*%
%TO.C,C112*%
X10100000Y19200000D03*
X10100000Y17800000D03*
%TD*%
%TO.C,C111*%
X7200000Y19200000D03*
X7200000Y17800000D03*
%TD*%
D28*
%TO.C,C110*%
X16300000Y23100000D03*
X16300000Y24500000D03*
%TD*%
%TO.C,C109*%
X19200000Y23100000D03*
X19200000Y24500000D03*
%TD*%
%TO.C,C108*%
X15200000Y26100000D03*
X15200000Y27500000D03*
%TD*%
%TO.C,C107*%
X4200000Y21500000D03*
X4200000Y22900000D03*
%TD*%
D29*
%TO.C,C106*%
X11600000Y16200000D03*
X11600000Y14800000D03*
%TD*%
%TO.C,C105*%
X10200000Y16200000D03*
X10200000Y14800000D03*
%TD*%
D28*
%TO.C,C104*%
X16600000Y26100000D03*
X16600000Y27500000D03*
%TD*%
D30*
%TO.C,C103*%
X4700000Y16400000D03*
X4700000Y19000000D03*
%TD*%
D31*
%TO.C,C102*%
X18900000Y26400000D03*
X18900000Y30000000D03*
%TD*%
D32*
%TO.C,C101*%
X6900000Y15700000D03*
X6900000Y12100000D03*
%TD*%
M02*
